<svg width="105" height="157" viewBox="0 0 105 157" fill="none" xmlns="http://www.w3.org/2000/svg">
<path fill-rule="evenodd" clip-rule="evenodd" d="M57.8629 0.574507C57.277 0.825817 56.1889 1.11901 55.4356 1.24467C54.6823 1.37032 53.5524 1.7054 52.9247 2.04048C52.2969 2.37556 51.4599 2.62687 51.0833 2.62687C50.6648 2.62687 50.33 2.79441 50.33 2.96195C50.33 3.17137 49.5349 3.59023 48.5723 3.88342C47.5679 4.2185 46.4799 4.67923 46.1451 4.93054C45.8103 5.22374 44.6385 5.76824 43.5504 6.18709C42.4205 6.60594 41.5417 7.06668 41.5417 7.2761C41.5417 7.48553 40.1187 8.32323 38.3611 9.16092C36.6034 10.0405 35.0968 10.962 34.9713 11.297C34.8457 11.5902 34.5528 11.8416 34.2599 11.8416C34.0088 11.8416 33.5484 12.2185 33.2555 12.6793C32.9625 13.1819 32.5859 13.4332 32.3766 13.3075C32.1674 13.2238 31.7908 13.3913 31.4978 13.7264C31.2049 14.0615 30.8282 14.3547 30.6608 14.3547C30.2842 14.3547 28.9031 15.4855 26.8525 17.3704C26.1829 18.0405 25.4297 18.5431 25.2204 18.5431C25.053 18.5431 24.8019 18.6688 24.7182 18.8782C24.6763 19.0458 23.7557 19.8416 22.7095 20.6374C20.2822 22.5222 18.3152 24.5327 18.4408 24.9515C18.4826 25.1191 18.2315 25.3704 17.813 25.5379C17.1016 25.8311 13.0841 29.6845 13.0841 30.1034C13.0841 30.229 11.8705 31.4856 10.4057 32.9516C8.43881 34.8783 7.64369 35.9673 7.43444 37.0563C7.26704 38.0196 6.80666 38.7317 6.13707 39.0668C5.59303 39.36 5.25827 39.7369 5.34197 39.9045C5.42567 40.072 5.25825 40.5746 4.92345 40.9935C4.58866 41.4123 4.29571 42.1244 4.29571 42.5013C4.29571 42.9202 4.12831 43.2553 3.87722 43.2553C3.66797 43.2553 3.45872 43.6322 3.45872 44.093C3.45872 44.5118 3.20764 45.0563 2.87285 45.2238C2.03586 45.6846 0.947773 50.1663 0.905924 53.559C0.822225 57.1192 1.70107 61.6009 2.6636 62.648C3.0821 63.1087 3.29132 63.6951 3.16577 63.9883C3.08208 64.3234 3.37504 64.9516 3.83538 65.4124C4.33757 65.915 4.63051 66.292 4.50496 66.292C4.37941 66.292 4.58867 66.7527 4.96532 67.3391C5.63491 68.3862 6.68115 68.8469 6.17896 67.8417C6.01156 67.5904 6.38816 67.8836 6.97406 68.5956C8.14584 70.0197 8.22957 70.1035 9.98724 71.4857C10.6987 72.0721 11.9123 72.6585 12.6656 72.7841C13.4189 72.9098 14.5488 73.2868 15.2184 73.6218C16.3065 74.2082 16.3902 74.4176 16.3065 76.3444C16.2646 77.5171 16.0135 78.4386 15.7624 78.4386C15.5113 78.4386 15.0929 79.4857 14.7999 80.7423C14.507 81.9988 14.0884 83.1297 13.8792 83.2554C13.67 83.4229 13.5026 83.7161 13.5026 83.9255C13.5026 84.1768 13.7118 84.2187 14.0048 84.0512C14.3396 83.8418 14.3814 84.0512 14.1303 84.7632C13.6281 86.1035 13.5026 93.0983 13.9629 93.0983C14.1722 93.0983 14.3396 93.7266 14.3396 94.5224C14.3396 95.3182 14.5906 96.0722 14.8836 96.1559C15.2602 96.3235 15.2184 96.4072 14.7999 96.4072C14.4233 96.4491 14.3814 96.6167 14.6325 96.9517C14.8836 97.2449 15.1765 97.957 15.3021 98.5434C15.6369 99.9675 17.5201 102.145 19.7381 103.695C20.7425 104.365 21.454 104.742 21.2866 104.491C21.1192 104.198 21.2028 103.988 21.4121 103.988C21.6632 103.988 21.8725 104.156 21.8725 104.407C21.8725 104.617 22.3746 104.952 23.0442 105.077C23.672 105.245 24.5927 105.622 25.0948 105.957C26.0574 106.585 29.5727 107.172 33.2973 107.297C34.1343 107.297 34.8458 107.549 34.8458 107.758C34.8458 108.009 34.3435 108.973 33.7158 109.978C31.7489 113.077 28.0661 120.826 28.3172 121.371C28.4428 121.706 28.3172 121.999 28.0243 122.125C27.7732 122.208 27.5221 122.711 27.4802 123.297C27.4384 123.842 27.271 124.68 27.1036 125.14C26.9362 125.601 26.5596 126.648 26.2667 127.486C25.9319 128.324 25.7644 129.119 25.89 129.203C25.9737 129.329 25.89 129.915 25.6807 130.46C25.053 132.135 24.6345 138.711 25.1367 139.297C25.3878 139.549 25.5552 140.261 25.5552 140.847C25.5133 142.858 26.3085 146.125 27.3547 148.135C29.0287 151.57 33.2136 155.046 36.436 155.674C36.8127 155.716 37.4404 155.926 37.7752 156.051C39.3237 156.638 43.3412 157.015 45.3918 156.763C46.6054 156.596 48.5305 156.554 49.6604 156.68C50.874 156.763 51.5855 156.722 51.4599 156.47C51.3344 156.261 51.9203 156.093 52.7573 156.093C53.5943 156.051 54.7661 155.926 55.352 155.758C55.9378 155.591 56.8585 155.381 57.4444 155.256C58.0303 155.13 59.4532 154.795 60.5831 154.46C61.7549 154.125 63.2196 153.79 63.8473 153.664C66.0235 153.287 66.8605 151.57 65.061 151.235C64.6006 151.151 64.517 150.983 64.8099 150.774C65.1028 150.648 65.7306 150.941 66.3165 151.486L67.3209 152.491L69.497 151.779C70.7106 151.36 71.7987 150.9 71.9661 150.732C72.0917 150.606 72.6776 150.481 73.1798 150.481C74.9374 150.481 78.662 148.428 78.0761 147.8C77.9087 147.674 78.118 147.549 78.5365 147.549C78.9131 147.549 79.1224 147.716 78.9968 147.968C78.5783 148.596 80.2105 148.47 81.1311 147.758C81.5496 147.423 82.3448 147.13 82.8051 147.13C83.684 147.13 85.4416 146.502 88.2037 145.245C88.9151 144.952 89.9613 144.533 90.6309 144.407C91.2587 144.24 91.7609 143.947 91.7609 143.779C91.7609 142.941 91.2168 142.104 90.6309 142.104C90.2961 142.104 90.1706 141.894 90.2962 141.685C90.4217 141.434 90.8402 141.266 91.2168 141.266C91.5935 141.266 92.2212 140.973 92.6397 140.596C93.1838 140.093 93.4349 140.093 93.686 140.47C93.8534 140.763 93.8115 140.889 93.5604 140.721C93.3093 140.554 92.9745 140.721 92.849 141.098C92.4305 142.229 92.556 142.941 93.2256 142.941C93.5604 142.941 93.8534 142.648 93.8534 142.313C93.8534 141.978 94.0626 141.685 94.3137 141.685C94.5229 141.685 94.6066 141.894 94.4392 142.187C94.2718 142.481 94.3137 142.523 94.6066 142.355C94.8996 142.187 95.1088 141.769 95.1088 141.434C95.1088 141.098 95.4855 140.847 95.9458 140.847C96.6991 140.847 96.741 140.721 96.3643 140.009C95.7784 138.92 96.6573 138.837 97.4942 139.884C98.0383 140.596 98.0801 140.554 97.8291 139.674C97.6198 138.879 97.7453 138.753 98.6242 138.753C99.21 138.753 99.7123 138.627 99.7123 138.418C99.7123 138.25 100.34 137.831 101.093 137.538C103.144 136.617 105.195 135.318 104.985 135.067C104.86 134.983 103.939 134.732 102.976 134.523C99.3774 133.769 95.9458 133.643 93.0582 134.146C91.4261 134.397 90.0032 134.648 89.8777 134.648C89.794 134.606 89.0825 134.816 88.3292 135.067C87.5759 135.276 86.2786 135.653 85.4835 135.821C84.6884 136.03 81.3823 136.868 78.1599 137.706C65.1447 141.098 53.7617 142.983 48.112 142.648C44.8477 142.439 41.5835 141.308 40.1188 139.884C38.8214 138.585 37.6497 136.659 38.1937 136.659C38.4867 136.659 38.5285 136.365 38.3192 135.905C38.1518 135.528 37.9845 134.523 37.9845 133.727C37.9845 132.805 37.6915 132.051 37.273 131.716C36.8545 131.423 36.5197 130.92 36.5197 130.669C36.5197 130.334 36.6453 130.334 36.8963 130.711C37.1474 131.13 37.3149 131.004 37.4404 130.208C37.566 129.622 37.4822 129.245 37.3148 129.371C37.1056 129.496 36.9382 129.287 36.9382 128.952C36.9382 128.533 37.1893 128.407 37.6915 128.575C38.3192 128.826 38.3193 128.784 37.8171 128.114C37.3149 127.486 37.3149 127.402 37.8171 127.528C38.1519 127.611 38.403 127.318 38.403 126.816C38.403 126.355 38.4867 125.894 38.6122 125.769C38.7796 125.643 39.1981 124.554 39.5747 123.297C40.1606 121.496 40.2025 120.952 39.784 120.7C39.4073 120.449 39.4492 120.282 39.9932 120.072C40.3699 119.947 40.7047 119.444 40.7047 119.025C40.7047 118.606 41.0394 117.894 41.4998 117.433C42.002 116.931 42.1694 116.47 41.9183 116.009C41.4998 115.255 41.8765 113.957 42.4205 114.292C42.6297 114.418 42.7971 114.083 42.7971 113.538C42.7971 112.994 43.0064 112.323 43.2993 112.03C43.5923 111.737 43.676 111.528 43.4667 111.528C43.2993 111.528 43.7178 111.025 44.4292 110.439C45.1407 109.852 45.6429 109.182 45.4755 108.973C45.3499 108.763 45.5592 108.47 45.894 108.344C46.2706 108.219 46.438 107.926 46.3125 107.674C46.0195 107.172 47.7353 105.454 48.9908 105.077C49.493 104.91 49.9115 104.575 49.9115 104.365C49.9115 104.114 50.1208 104.072 50.33 104.198C50.5811 104.365 50.9996 104.282 51.2925 104.072C51.5855 103.863 52.2969 103.57 52.9247 103.402C54.3894 103.067 55.4775 101.936 55.1427 101.14C55.0172 100.763 55.0171 100.596 55.1845 100.721C55.3519 100.889 55.8123 100.847 56.2308 100.638C56.7748 100.344 57.1514 100.386 57.6118 100.847C58.1977 101.433 58.3233 101.392 58.9091 100.344C59.2858 99.6743 59.495 99.4648 59.4113 99.8418C59.2439 100.344 59.4113 100.47 60.2065 100.303L61.2527 100.135L60.0809 99.4648C58.6162 98.7109 55.2682 98.7947 54.8079 99.6324C54.6405 99.9675 54.2639 100.219 53.9709 100.219C52.7154 100.219 55.4775 98.4596 58.2814 97.5381C59.9972 96.9517 61.2527 96.4491 61.0016 96.4491C60.7924 96.4491 60.876 96.1978 61.1271 95.9465C61.5456 95.5276 61.7549 95.5277 62.0479 96.0303C62.55 96.868 61.713 97.7894 60.7505 97.4962C60.2901 97.3287 59.9554 97.4125 59.9554 97.6638C59.9554 97.8732 60.332 98.2083 60.7924 98.3339C61.2527 98.4596 61.6294 98.8784 61.6294 99.2554C61.6294 99.7999 61.7549 99.7999 62.2571 99.3811C62.8011 98.9203 62.8011 98.7528 62.3826 98.4596C61.9641 98.1245 61.9641 97.9989 62.3826 97.8313C62.6756 97.7475 63.1777 97.3706 63.4707 97.0355C64.0147 96.5329 64.1821 96.5329 64.7262 97.0774C65.1865 97.5381 65.605 97.6219 66.4001 97.2868C67.9067 96.7423 67.7812 95.9465 66.1909 96.1978C65.1865 96.3235 65.0192 96.2816 65.3958 95.8208C65.6469 95.5277 65.7306 95.025 65.605 94.7318C65.4795 94.3968 65.7724 93.8941 66.2746 93.6009C67.279 92.9727 67.9067 93.2659 67.1535 94.0198C66.4002 94.7737 66.5676 95.1507 67.4883 94.8994C67.9486 94.7737 68.3253 94.8575 68.3253 95.1088C68.3253 96.0722 69.5807 95.8627 70.6688 94.7318C71.6313 93.7266 71.6732 93.5172 71.0873 93.5172C70.7107 93.5172 70.4595 93.6847 70.5851 93.8941C70.7106 94.0617 70.334 94.4386 69.79 94.6899C68.8693 95.1088 68.7856 95.0669 68.8693 94.2292C68.9111 93.6847 68.7437 93.3496 68.4508 93.4334C67.4882 93.6009 67.8649 92.847 68.953 92.3444C70.4177 91.6742 70.7525 91.7161 69.7481 92.4701C68.7437 93.224 69.4552 93.2659 70.8362 92.4701C71.5058 92.0931 71.6314 91.8418 71.2547 91.8418C70.8781 91.7999 71.0036 91.6324 71.5895 91.4229C72.0917 91.2135 72.5102 90.8784 72.5102 90.669C72.5102 90.4596 73.0124 90.3339 73.6401 90.4177C74.2678 90.4596 75.063 90.292 75.3978 90.0407C75.8999 89.6219 75.9418 89.7056 75.7744 90.4596C75.607 91.0041 75.6907 91.4229 75.9 91.4229C76.1092 91.4229 76.2766 91.1297 76.2766 90.7109C76.2766 90.3339 76.4022 90.1664 76.5277 90.292C77.0299 90.7528 78.3691 89.7475 78.3691 88.9098C78.3691 88.4491 78.2017 88.0721 77.9506 88.0721C77.7414 88.0721 77.6577 88.3234 77.7832 88.6585C77.9087 88.9936 77.825 89.3706 77.574 89.5381C77.281 89.7056 77.1136 89.4124 77.1136 88.7842C77.1136 87.5695 79.1224 86.3967 79.6664 87.3182C80.0012 87.8627 80.0849 87.6952 80.2104 86.3967C80.2523 86.0617 80.5034 85.8103 80.7963 85.8941C81.0893 85.936 81.2986 85.6009 81.2986 85.1402C81.2986 84.6795 81.5915 84.3025 81.9263 84.3025C82.3029 84.3025 82.6796 84.0093 82.8051 83.6742C82.9725 83.3391 83.4329 83.0459 83.8514 83.0459C84.3117 83.0459 84.6465 82.7527 84.6465 82.3758C84.6465 81.9988 85.0231 81.6219 85.4835 81.4962C85.9438 81.3705 86.3623 81.1192 86.3623 80.9098C86.4042 80.7004 86.446 80.3653 86.4878 80.1559C86.5715 79.4857 87.1575 79.1088 87.1575 79.6951C87.1575 80.7423 88.4129 79.1506 88.664 77.7684C88.7896 77.0983 89.0407 76.3862 89.2918 76.1768C90.338 75.0459 88.664 72.1559 86.9482 72.1559C86.6553 72.1559 86.2368 71.9045 85.9857 71.6113C85.4416 70.9831 81.717 70.7318 81.717 71.36C81.717 71.6114 81.5078 71.6532 81.2986 71.5276C81.0475 71.36 80.6289 71.4438 80.336 71.6532C80.0431 71.8627 79.2061 72.1977 78.4946 72.3653C77.7413 72.4909 77.1136 72.826 77.1136 73.0354C77.1136 73.2449 76.7788 73.4124 76.3603 73.4124C75.9418 73.4124 75.4396 73.5381 75.2722 73.7056C75.1048 73.915 74.8119 74.0407 74.6863 74.0407C73.4727 74.0826 68.0742 77.2658 63.7218 80.491C62.6756 81.2449 61.2108 82.1664 60.4576 82.4596C59.7043 82.7946 59.2021 83.2554 59.3276 83.4648C59.4532 83.6742 59.3276 83.9674 59.0765 84.135C58.7417 84.3444 58.6999 84.2606 58.9091 83.8836C59.1184 83.5486 59.0347 83.4229 58.658 83.5486C58.3232 83.6742 58.114 84.0931 58.1558 84.47C58.1558 84.8889 57.7373 85.3915 57.1933 85.6428C56.6492 85.8941 56.1889 86.2711 56.1889 86.4386C56.1889 86.6062 55.5194 87.1507 54.7242 87.6533C53.9291 88.1559 53.2595 88.8261 53.2595 89.1611C53.2595 89.4962 52.8828 89.7475 52.4225 89.7475C51.9622 89.7475 51.5855 89.9151 51.5855 90.0826C51.5855 90.292 50.623 91.2554 49.493 92.2187C47.568 93.8523 47.0658 94.0617 44.1363 94.3968C42.3786 94.6481 40.621 94.9413 40.2862 95.1507C39.9514 95.3182 39.2818 95.402 38.8215 95.3182C38.3611 95.1926 36.8126 95.0669 35.4316 94.9831C33.9669 94.8994 31.9163 94.3968 30.6189 93.8104C29.3635 93.2659 27.8988 92.7214 27.3129 92.5538C26.6851 92.3863 26.0574 91.758 25.7226 91.046C25.4296 90.3339 24.76 89.6638 24.2997 89.4962C23.8394 89.3706 23.5883 89.1193 23.7975 88.9517C24.4671 88.491 24.3834 87.7371 23.6301 87.8208C22.6676 87.8627 22.7931 85.559 23.7975 85.0145C24.3416 84.6794 24.3834 84.5538 23.923 84.2606C23.4627 84.0093 23.4627 83.6742 23.8812 82.4596C24.1742 81.6219 24.3416 80.7842 24.1742 80.5747C24.0486 80.3653 24.1323 80.0721 24.3834 79.9046C24.6345 79.737 24.6763 79.4019 24.5089 79.1506C24.3416 78.8574 24.5089 78.8993 24.9274 79.2344C25.5552 79.737 25.6389 79.6952 25.6389 79.1088C25.6389 78.7318 25.4715 78.4386 25.2204 78.4386C24.5508 78.4386 24.76 77.3915 25.597 76.47C26.0574 75.9674 26.3085 75.4648 26.1411 75.3391C26.0155 75.1716 26.3085 74.9621 26.8107 74.7946C27.3129 74.669 27.7314 74.3758 27.7314 74.1663C27.7314 73.9569 28.1498 73.8731 28.6939 73.9988C29.1961 74.1245 29.3635 74.1245 29.1124 73.9988C28.3591 73.6637 28.4428 73.1192 29.1961 73.1192C29.5309 73.1192 29.8238 73.2867 29.8238 73.4962C29.8238 73.9569 30.9956 73.915 31.2886 73.4124C31.4141 73.203 31.2886 73.1192 30.9538 73.2449C30.619 73.3705 30.3679 73.1611 30.3679 72.7841C30.3679 72.4491 30.5353 72.1559 30.7445 72.1559C30.9119 72.1559 31.0793 71.9883 31.0793 71.7789C31.0793 71.3182 29.4472 71.6532 28.5684 72.3234C28.0243 72.7422 28.0243 72.7004 28.5684 71.9464C29.8238 70.271 30.0331 70.1454 30.6189 70.7737C31.0793 71.2763 31.2467 71.3182 31.5397 70.8574C31.7908 70.3967 32.1256 70.5223 32.9625 71.3182C33.7158 72.0302 34.0506 72.1559 34.0088 71.737C33.7995 70.4386 34.0506 70.0616 34.9713 70.1035C35.5851 70.1035 35.5572 70.2431 34.8876 70.5224C33.5903 71.025 34.2599 71.8627 35.9757 71.8208C39.0725 71.7789 39.3655 71.6532 39.6584 70.5224C39.8258 69.936 40.0769 69.6846 40.1606 69.936C40.2862 70.2291 40.5791 70.4805 40.8302 70.4805C41.6253 70.4805 40.3699 69.4752 38.9051 68.9307C37.9008 68.5956 37.7752 68.4281 38.403 68.3862C38.8633 68.3443 39.6584 68.2606 40.2025 68.2187C40.872 68.1349 41.2069 68.3862 41.3743 69.0983C41.6254 70.0616 42.3787 70.4805 42.3787 69.6428C42.3787 69.3915 42.7553 69.2239 43.2156 69.2239C43.676 69.2239 44.0526 68.9307 44.0526 68.5956C44.0526 67.8836 45.0989 67.7579 45.5174 68.3862C45.9359 69.0564 46.6891 68.8888 46.3962 68.1768C46.1032 67.4229 47.4843 66.6271 48.4468 66.9621C48.9909 67.2134 49.0327 67.3391 48.5723 67.6323C48.1957 67.8836 48.3631 67.9255 49.0746 67.7579C50.2882 67.4229 51.2088 66.7108 50.4137 66.7108C50.1208 66.7108 49.9115 66.5014 49.9115 66.292C49.9115 65.9988 50.1626 65.9988 50.6648 66.2501C51.167 66.5014 51.8366 66.4176 52.7991 65.915C54.3894 65.1611 54.8916 64.3234 53.9291 64.1139C53.4687 64.0302 53.5943 63.8626 54.3476 63.4857C55.3101 63.0249 55.3519 63.0668 55.1008 63.8626C54.9334 64.4909 55.0171 64.6585 55.3938 64.5328C55.7286 64.4071 55.9378 63.9883 55.896 63.6113C55.896 63.1506 56.0634 62.9831 56.44 63.1087C56.8167 63.2763 57.0259 63.0249 57.0678 62.3967C57.0678 61.894 57.1933 61.7265 57.3189 61.9778C57.4026 62.271 57.821 62.5223 58.1558 62.5223C58.658 62.5223 58.6999 62.3967 58.3232 61.9359C58.0303 61.559 57.9884 61.2239 58.2395 61.0982C58.4488 60.9726 58.7417 61.0982 58.8254 61.3495C58.951 61.6846 59.0765 61.559 59.0765 61.0982C59.1184 60.47 59.2439 60.4281 59.7461 60.8469C60.2483 61.2658 60.876 60.9726 63.387 58.9202C66.9442 56.072 80.0431 43.1296 80.0431 42.4594C80.0431 42.2081 80.5871 41.6217 81.2986 41.1191C82.2611 40.3652 82.4285 40.072 82.0518 39.6113C81.6752 39.1505 81.7589 39.1087 82.3448 39.3181C82.8051 39.5275 83.0144 39.4437 82.847 39.2343C82.7214 38.983 82.7633 38.5641 83.0144 38.2291C83.3073 37.6846 83.391 37.6846 83.391 38.2291C83.4329 38.7317 83.5166 38.6898 83.8514 38.1034C84.0606 37.7264 84.1443 37.1819 84.0188 36.9306C83.8514 36.7212 84.0606 36.051 84.4373 35.4647C84.8139 34.8783 85.0231 34.1243 84.8976 33.8311C84.772 33.4961 84.8558 33.1191 85.065 32.9934C85.8183 32.5327 85.3161 30.4804 84.0606 29.0144C82.6377 27.339 79.7501 26.0824 77.3647 26.0824C74.4771 26.0824 70.4177 27.0039 70.4177 27.6741C70.4177 28.0929 70.1248 28.1767 69.3715 28.0091C68.7856 27.8416 67.9904 27.9254 67.6138 28.1348C65.898 29.0563 62.843 30.2709 62.3408 30.2709C62.006 30.2709 61.2527 30.7317 60.625 31.3181C59.9972 31.9044 59.0347 32.3652 58.5325 32.3652C57.9885 32.3652 56.6074 33.0353 55.5193 33.8311C54.3894 34.627 53.0084 35.5484 52.4225 35.7997C51.8366 36.0929 51.2926 36.428 51.167 36.5537C51.0415 36.6793 49.9534 37.4332 48.7816 38.1872C47.5679 38.9411 46.6473 39.7369 46.7728 39.9045C46.8984 40.072 46.3543 40.5327 45.601 40.8678C44.8896 41.2448 44.0108 41.9149 43.7178 42.3757C43.4249 42.8783 42.839 43.2553 42.4205 43.2553C42.002 43.2553 41.5416 43.5066 41.4161 43.7998C41.2906 44.1348 40.1188 45.0982 38.8215 45.9359C37.5241 46.8155 36.5616 47.6113 36.6871 47.7369C37.0637 48.1139 36.1013 49.538 35.4735 49.538C35.1387 49.538 34.8876 49.7474 34.9713 50.0406C35.0131 50.2919 34.5947 50.6689 34.0088 50.8364C33.4229 51.004 33.1299 51.1296 33.381 51.1715C33.8832 51.2134 31.9581 53.0563 30.9538 53.4333C30.2842 53.6846 29.1961 55.6532 29.3216 56.3233C29.3635 56.4909 29.0705 56.4909 28.7357 56.3652C28.2335 56.1977 28.108 56.2815 28.2336 56.7003C28.4428 57.2448 26.6433 59.1715 25.9318 59.1715C25.7226 59.1715 25.7226 59.5485 25.8482 60.0092C26.0574 60.5956 25.9318 60.8469 25.4715 60.8469C25.0949 60.8469 24.8019 61.1401 24.8019 61.5171C24.8019 61.9359 24.5508 62.1035 24.216 61.9778C23.8394 61.8103 23.5046 62.0616 23.3372 62.5223C22.9606 63.737 22.0817 63.8208 19.487 62.8993C16.0554 61.7684 14.7162 61.0145 13.5444 59.7998C13.0004 59.2134 12.4145 58.7527 12.2052 58.7527C11.996 58.7527 11.8286 58.4595 11.8286 58.1244C11.8286 57.7474 11.3683 56.9935 10.8242 56.449C10.1128 55.737 9.86169 55.1087 9.98724 54.3967C10.0709 53.8103 9.98725 53.2239 9.73615 53.0982C9.48506 52.9307 9.44317 52.5537 9.69426 52.1349C9.90351 51.6741 9.86169 50.8783 9.56875 49.9568C9.15025 48.7003 9.19207 48.4071 9.90351 47.6951C10.4894 47.1087 10.5731 46.8155 10.1965 46.6898C9.81984 46.5642 9.86169 46.271 10.4057 45.4752C10.7824 44.8888 11.1172 43.9673 11.2009 43.4228C11.2427 42.8364 11.6194 42.0406 12.0379 41.5799C12.4564 41.1191 12.6237 40.7422 12.3726 40.7422C12.1634 40.7422 11.9541 40.449 11.9541 40.1139C11.9541 39.7369 12.2053 39.5275 12.4982 39.6532C12.833 39.7788 12.9585 39.6532 12.7911 39.2343C12.6656 38.8573 12.833 38.6479 13.2515 38.6479C13.6281 38.6479 14.1303 38.1872 14.3396 37.6008C14.5488 37.0144 14.9255 36.5537 15.1766 36.5537C15.4277 36.5537 15.7624 36.1767 15.9298 35.716C16.0972 35.2552 18.0223 32.9516 20.1985 30.606C22.3747 28.2604 24.1323 26.1662 24.0486 25.9568C24.0068 25.7473 24.1742 25.7474 24.4253 25.9149C24.7182 26.0824 25.1367 25.9149 25.3878 25.5379C25.6807 25.2028 26.727 24.1976 27.7314 23.3599C28.7776 22.4803 29.6146 21.5589 29.6146 21.3076C29.6564 21.0562 29.8657 20.8887 30.1586 20.9725C30.4516 21.0144 31.0793 20.6793 31.5815 20.2185C32.0418 19.7997 32.6696 19.5065 32.8788 19.674C33.1299 19.7997 33.1718 19.7159 33.0044 19.4227C32.837 19.1714 32.5022 19.0458 32.2929 19.2133C32.0418 19.339 32.0837 19.0876 32.3766 18.6269C32.6696 18.1243 33.0462 17.8311 33.2136 17.9149C33.3392 18.0405 33.8414 17.8311 34.2599 17.496C34.6784 17.1609 35.4735 16.8677 36.0175 16.8677C36.5616 16.8677 36.9382 16.6164 36.9382 16.1976C36.9382 15.8625 36.7708 15.695 36.5197 15.8206C36.3105 15.9463 36.1013 15.9044 36.1013 15.6531C36.1013 14.941 37.1475 14.8992 37.6497 15.5693C38.11 16.1557 38.1519 16.1557 38.1937 15.4855C38.1937 14.3965 39.1562 13.5588 40.6628 13.2656C41.3742 13.0981 41.9602 12.8049 41.9602 12.6374C41.9602 12.2604 43.676 11.4227 44.8896 11.2552C45.2244 11.1714 45.7266 10.7107 46.0195 10.1662C46.5217 9.20281 48.6561 7.73683 48.6561 8.3651C48.6561 8.53264 49.3256 8.74207 50.1208 8.78395C51.2089 8.86772 51.5018 8.78396 51.3344 8.32323C51.2088 7.98815 50.7904 7.61117 50.4137 7.5274C49.9115 7.40175 50.0371 7.23421 50.9578 6.85725C51.6274 6.56405 52.6317 6.48029 53.1758 6.60594C53.7198 6.7316 54.0546 6.68971 53.9291 6.48029C53.7198 6.10332 55.1427 4.63735 55.4356 4.97243C55.5193 5.0562 56.3563 4.88865 57.277 4.63734C59.4113 4.00907 59.6206 3.96719 60.4576 4.38604C61.2527 4.763 63.2615 4.17661 62.55 3.71588C62.2571 3.54834 62.4663 3.0876 63.1778 2.37556C63.8055 1.74729 64.0984 1.1609 63.8892 0.951476C63.2614 0.323202 58.9928 0.0718882 57.8629 0.574507ZM71.9661 34.2919C71.8406 34.4175 71.4639 34.4594 71.171 34.3338C70.8362 34.2081 70.9617 34.0825 71.4221 34.0825C71.8824 34.0406 72.1335 34.1662 71.9661 34.2919ZM68.9111 34.8364C69.0367 35.0458 69.5389 35.1296 69.9992 35.0039C70.4596 34.8783 70.8362 34.962 70.8362 35.1715C70.8362 35.3809 70.4177 35.5484 69.9155 35.4647C69.3715 35.4228 68.6182 35.339 68.1997 35.339C67.7812 35.2971 67.572 35.0877 67.6975 34.8783C68.0323 34.3757 68.6182 34.3338 68.9111 34.8364ZM65.605 36.0929C65.4795 36.3442 65.0191 36.5118 64.6425 36.5118C64.0148 36.4699 64.0147 36.428 64.6843 36.2605C65.061 36.1767 65.3958 35.8835 65.3958 35.6322C65.3958 35.3809 65.5213 35.2552 65.6469 35.4228C65.7724 35.5484 65.7724 35.8416 65.605 36.0929ZM72.3428 36.3442C72.5102 36.7212 72.9286 36.9306 73.3053 36.8887C73.7656 36.805 74.0167 37.0982 74.1004 37.8521C74.1841 38.7317 74.0167 39.0249 73.2634 39.2343C72.7194 39.36 71.6314 40.4071 70.8362 41.538C70.0411 42.7108 68.9948 43.8416 68.5345 44.093C68.0742 44.3443 67.2372 45.182 66.6931 45.9778C66.1491 46.7736 65.605 47.36 65.4376 47.3181C65.2702 47.2762 64.5588 47.9045 63.8055 48.7422C63.0522 49.5799 62.006 50.4176 61.4201 50.5432C60.8342 50.7108 60.3739 50.9621 60.3739 51.1715C60.3739 51.3809 59.3695 52.0511 58.1977 52.6794C56.984 53.3076 55.603 54.1453 55.1427 54.5642C54.4731 55.1925 50.2463 57.538 49.493 57.7474C49.3675 57.7474 48.5305 58.1244 47.6098 58.5433C46.6891 58.9202 45.7685 59.2972 45.5174 59.381C45.3081 59.4228 44.6385 59.6741 44.0526 59.8836C43.4667 60.1349 41.8765 60.6794 40.4954 61.0564C39.1144 61.4752 37.8171 61.894 37.566 62.0616C36.8127 62.4804 32.7533 63.1506 32.7533 62.8574C32.7533 62.271 42.7971 52.0092 44.4711 50.8783C46.5217 49.4961 48.6561 47.4856 48.6561 46.983C48.6561 46.7317 48.8235 46.6898 49.0746 46.8155C49.5349 47.1087 51.2926 46.0197 50.9578 45.6846C50.8322 45.5589 51.2507 45.3495 51.8784 45.2238C53.3432 44.8888 54.3894 44.2186 53.9709 43.8416C53.8454 43.6741 53.4269 43.7998 53.0921 44.093C52.7154 44.3443 52.2132 44.5118 51.9203 44.428C50.9159 44.093 54.0128 42.7945 55.1427 43.0877C55.7704 43.2553 56.1889 43.1715 56.1889 42.8783C56.1889 42.627 56.5237 42.4176 56.984 42.4176C57.4025 42.4176 57.9885 42.1244 58.2814 41.7893C58.5744 41.4542 59.0347 41.161 59.3276 41.161C60.1646 41.161 60.9597 40.0301 60.2901 39.7788C59.9972 39.6531 60.4994 39.6531 61.4201 39.8207C63.0104 40.0301 63.0522 39.9882 62.4663 39.2762C61.8805 38.5641 61.8804 38.5223 62.8011 39.0249C63.5125 39.4018 63.931 39.4018 64.6843 38.983C65.1865 38.7317 65.8143 38.4385 66.0235 38.3547C66.2746 38.3128 67.3627 37.9777 68.4508 37.6846C69.5389 37.3914 70.2921 36.9725 70.1247 36.7631C69.9573 36.5956 70.2084 36.5537 70.7525 36.6793C71.5058 36.8469 71.6732 36.7631 71.5058 36.3024C71.3802 35.9673 71.4639 35.716 71.715 35.716C71.9243 35.716 72.2172 36.0092 72.3428 36.3442ZM69.5807 36.4699C69.5807 36.6374 69.1622 36.8469 68.66 36.8469C67.9067 36.9306 67.8231 36.8469 68.3253 36.5537C69.0785 36.051 69.5807 36.0092 69.5807 36.4699ZM6.13707 64.7422C6.30447 64.5747 6.59745 64.7003 6.8067 65.0354C7.43444 65.9988 7.30889 66.4595 6.59745 65.8731C6.17896 65.4962 5.96971 65.4962 5.96971 65.8312C5.96971 66.0825 5.80231 66.292 5.55122 66.292C5.34197 66.292 5.25826 65.9988 5.38381 65.6637C5.59306 65.1192 5.13269 64.826 4.21201 64.9935C4.04461 64.9935 4.00277 64.7422 4.17017 64.3653C4.37942 63.8208 4.46313 63.8208 5.13272 64.4071C5.50937 64.7422 5.96967 64.9098 6.13707 64.7422ZM8.85728 68.1349C9.44317 70.5223 9.4432 70.6061 8.73176 69.9778C8.39696 69.6846 8.22957 69.3077 8.31327 69.182C8.39696 69.0564 8.27143 68.3443 8.06218 67.5904C7.85293 66.8784 7.85293 66.292 8.06218 66.292C8.22958 66.292 8.60618 67.1297 8.85728 68.1349ZM12.6656 70.271C12.6656 70.9831 12.4563 71.3182 11.9541 71.3182C11.4101 71.3182 11.3264 71.2344 11.7449 70.9831C12.0378 70.7737 12.1634 70.3129 11.996 69.936C11.8704 69.5171 11.9541 69.2239 12.2052 69.2239C12.4563 69.2239 12.6656 69.6846 12.6656 70.271ZM37.2312 69.7684C37.2312 70.1035 36.9801 70.3548 36.6453 70.3548C36.0594 70.3548 35.9338 69.936 36.3942 69.5171C36.8127 69.0564 37.2312 69.182 37.2312 69.7684ZM13.7955 70.4805C13.67 70.8993 13.7537 71.36 13.9629 71.4857C14.1722 71.5695 14.1303 71.6114 13.8374 71.5695C13.2096 71.4438 13.0004 69.6428 13.6281 69.6428C13.8374 69.6428 13.9211 70.0197 13.7955 70.4805ZM18.106 71.2344C18.106 71.6114 17.7294 72.1977 17.269 72.449C16.6413 72.8679 16.3483 72.8679 15.888 72.3653C15.5532 72.0302 15.1765 71.8627 15.0928 71.9464C14.9673 72.0721 14.8836 71.8627 14.8836 71.5276C14.8836 71.1506 15.3021 70.8993 15.888 70.8993C16.5576 70.8993 16.8087 71.0668 16.5994 71.4019C16.432 71.6951 16.6831 71.6113 17.1016 71.1925C18.0642 70.3129 18.106 70.3129 18.106 71.2344ZM75.8581 80.9517C75.8581 81.1611 75.6489 81.3705 75.3978 81.3705C75.1885 81.3705 75.1049 81.1611 75.2304 80.9517C75.3559 80.7004 75.5652 80.5328 75.6907 80.5328C75.7744 80.5328 75.8581 80.7004 75.8581 80.9517ZM73.2216 82.7109C73.0961 83.0459 72.9705 82.9203 72.9705 82.4596C72.9287 81.9988 73.0542 81.7475 73.1798 81.915C73.3053 82.0407 73.3472 82.4177 73.2216 82.7109ZM64.3914 95.4439C63.1359 96.3235 62.55 96.114 63.6799 95.1507C64.224 94.69 64.8099 94.4386 64.9354 94.6062C65.061 94.7318 64.8099 95.1088 64.3914 95.4439ZM52.6317 101.894C52.7573 102.104 52.5899 102.313 52.2133 102.313C51.8366 102.313 51.6692 102.104 51.7948 101.894C51.9203 101.643 52.1296 101.475 52.2133 101.475C52.297 101.475 52.5062 101.643 52.6317 101.894ZM33.7995 104.407C33.9251 104.617 33.8414 104.826 33.6321 104.826C33.381 104.826 33.1718 104.617 33.1718 104.407C33.1718 104.156 33.2555 103.988 33.3392 103.988C33.4647 103.988 33.674 104.156 33.7995 104.407ZM89.4592 143.779C89.5847 143.988 89.501 144.198 89.2918 144.198C89.0407 144.198 88.8314 143.988 88.8314 143.779C88.8314 143.528 88.9151 143.36 88.9988 143.36C89.1243 143.36 89.3336 143.528 89.4592 143.779ZM87.1575 144.659C87.1575 145.036 85.8601 145.538 85.5672 145.245C85.4416 145.119 85.5672 145.036 85.8601 145.036C86.153 145.036 86.2786 144.868 86.1531 144.701C86.0275 144.491 86.1949 144.324 86.5297 144.324C86.8645 144.324 87.1575 144.491 87.1575 144.659ZM81.2986 146.879C81.2986 147.339 80.5034 147.507 80.2523 147.13C80.1268 146.92 80.2941 146.711 80.6289 146.711C81.0056 146.711 81.2986 146.795 81.2986 146.879ZM68.6182 149.057C68.4926 149.182 68.116 149.224 67.823 149.098C67.4882 148.973 67.6138 148.847 68.0741 148.847C68.5345 148.805 68.7856 148.931 68.6182 149.057ZM54.515 152.575C54.515 152.784 54.4313 152.994 54.3476 152.994C54.222 152.994 54.0128 152.784 53.8872 152.575C53.7617 152.324 53.8453 152.156 54.0546 152.156C54.3057 152.156 54.515 152.324 54.515 152.575ZM65.605 152.575C65.4795 152.784 65.1865 152.994 64.9354 152.994C64.7262 152.994 64.5588 152.784 64.5588 152.575C64.5588 152.324 64.8517 152.156 65.2284 152.156C65.5632 152.156 65.7306 152.324 65.605 152.575ZM39.4492 153.245C39.4492 153.329 38.9889 153.413 38.403 153.413C37.8171 153.413 37.3567 153.245 37.3567 153.036C37.3567 152.868 37.8171 152.784 38.403 152.91C38.9889 152.994 39.4492 153.161 39.4492 153.245ZM48.4468 153.413C48.5724 153.622 48.3213 153.831 47.8191 153.831C47.3169 153.831 47.0658 153.622 47.1913 153.413C47.3169 153.161 47.6098 152.994 47.8191 152.994C48.0283 152.994 48.3213 153.161 48.4468 153.413ZM50.7066 153.706C50.7066 154.167 50.5811 154.25 50.4556 153.915C50.3719 153.664 50.0789 153.496 49.8696 153.664C49.6604 153.79 49.493 153.664 49.493 153.455C49.493 153.203 49.786 152.994 50.1208 152.994C50.4556 152.994 50.7485 153.329 50.7066 153.706ZM55.7704 154.962C55.7704 155.172 55.3101 155.297 54.7242 155.297C54.1383 155.297 53.678 155.172 53.678 154.962C53.678 154.795 54.1383 154.669 54.7242 154.669C55.3101 154.669 55.7704 154.795 55.7704 154.962Z" fill="#FFD446"/>
<path fill-rule="evenodd" clip-rule="evenodd" d="M31.4979 71.6953C31.4979 71.9466 31.7072 72.2398 31.9164 72.3655C32.1675 72.4911 32.3349 72.3236 32.3349 71.9885C32.3349 71.6116 32.1675 71.3184 31.9164 71.3184C31.7072 71.3184 31.4979 71.4859 31.4979 71.6953Z" fill="#FFD446"/>
<path fill-rule="evenodd" clip-rule="evenodd" d="M34.6368 72.5746C34.5112 72.784 34.5949 72.9935 34.8041 72.9935C35.0552 72.9935 35.2645 72.784 35.2645 72.5746C35.2645 72.3233 35.1808 72.1558 35.0971 72.1558C34.9715 72.1558 34.7623 72.3233 34.6368 72.5746Z" fill="#FFD446"/>
<path fill-rule="evenodd" clip-rule="evenodd" d="M89.2501 76.8467C89.2501 77.0142 89.4175 77.1818 89.6267 77.1818C89.8778 77.1818 90.1289 77.0142 90.2545 76.8467C90.38 76.6373 90.2127 76.4697 89.8779 76.4697C89.5431 76.4697 89.2501 76.6373 89.2501 76.8467Z" fill="#FFD446"/>
<path fill-rule="evenodd" clip-rule="evenodd" d="M73.0545 92.7215C73.6404 93.0566 73.9752 93.0566 74.31 92.7215C74.6448 92.3864 74.4356 92.2607 73.5568 92.2607C72.4687 92.3026 72.3849 92.3445 73.0545 92.7215Z" fill="#FFD446"/>
<path d="M56.6076 101.894C56.8387 101.894 57.0261 101.707 57.0261 101.475C57.0261 101.244 56.8387 101.057 56.6076 101.057C56.3765 101.057 56.1891 101.244 56.1891 101.475C56.1891 101.707 56.3765 101.894 56.6076 101.894Z" fill="#FFD446"/>
</svg>
