<svg width="24" height="24" viewBox="0 0 24 24" fill="none" xmlns="http://www.w3.org/2000/svg">
<path fill-rule="evenodd" clip-rule="evenodd" d="M20.25 16.6058V13.5C20.25 12.6716 19.5784 12 18.75 12H12.75V9H14.25C15.0781 8.99917 15.7492 8.32808 15.75 7.5V3C15.7492 2.17192 15.0781 1.50083 14.25 1.5H9.74998C8.92189 1.50083 8.2508 2.17192 8.24998 3V7.5C8.2508 8.32808 8.92189 8.99917 9.74998 9H11.25V12H5.24998C4.42155 12 3.74998 12.6716 3.74998 13.5V16.6065C2.28725 16.9842 1.33353 18.3906 1.52389 19.8892C1.71424 21.3879 2.98928 22.5112 4.49998 22.5112C6.01068 22.5112 7.28571 21.3879 7.47607 19.8892C7.66642 18.3906 6.71271 16.9842 5.24998 16.6065V13.5H11.25V16.6065C9.78725 16.9842 8.83353 18.3906 9.02389 19.8892C9.21424 21.3879 10.4893 22.5112 12 22.5112C13.5107 22.5112 14.7857 21.3879 14.9761 19.8892C15.1664 18.3906 14.2127 16.9842 12.75 16.6065V13.5H18.75V16.6058C17.2872 16.9834 16.3335 18.3898 16.5239 19.8885C16.7142 21.3872 17.9893 22.5105 19.5 22.5105C21.0107 22.5105 22.2857 21.3872 22.4761 19.8885C22.6664 18.3898 21.7127 16.9834 20.25 16.6058ZM9.74998 3H14.25L14.2507 7.5H9.74998V3ZM5.99998 19.5C5.99998 20.3284 5.3284 21 4.49998 21C3.67155 21 2.99998 20.3284 2.99998 19.5C2.99998 18.6716 3.67155 18 4.49998 18C5.32806 18.0008 5.99915 18.6719 5.99998 19.5ZM13.5 19.5C13.5 20.3284 12.8284 21 12 21C11.1716 21 10.5 20.3284 10.5 19.5C10.5 18.6716 11.1716 18 12 18C12.8279 18.0012 13.4987 18.6721 13.5 19.5ZM19.5 21C18.6715 21 18 20.3284 18 19.5C18 18.6716 18.6715 18 19.5 18C20.3284 18 21 18.6716 21 19.5C20.9992 20.3281 20.3281 20.9992 19.5 21Z" fill="#9792E3"/>
</svg>
