<svg width="133" height="68" viewBox="0 0 133 68" fill="none" xmlns="http://www.w3.org/2000/svg">
<path fill-rule="evenodd" clip-rule="evenodd" d="M123.063 1.46741C123.524 2.03444 123.453 2.06988 122.603 1.85724C122.071 1.71549 120.972 1.71549 120.228 1.82181C118.988 2.03444 118.881 2.10532 119.307 2.56603C120.015 3.23938 119.98 3.48745 119.236 3.09762C118.881 2.92042 118.35 2.84954 118.066 2.92042C117.606 3.06218 117.606 3.02674 118.066 2.67235C118.492 2.31796 118.421 2.31796 117.712 2.49515C117.216 2.63691 116.365 2.74323 115.763 2.70779C114.841 2.70779 114.806 2.74323 115.408 3.02674C115.798 3.20394 115.975 3.34569 115.798 3.34569C115.586 3.38113 115.763 3.59377 116.117 3.87728C116.507 4.1608 116.684 4.58607 116.542 4.90502C116.436 5.22398 116.507 5.54293 116.755 5.64925C117.003 5.72013 116.897 5.82644 116.507 5.82644C116.011 5.86188 115.94 5.9682 116.223 6.3226C116.613 6.78331 115.94 7.03138 114.345 6.96051C113.955 6.96051 113.282 6.92506 112.892 6.92506C112.325 6.92506 112.077 6.64155 111.971 5.86188C111.864 5.08222 111.971 4.79871 112.325 4.79871C113.317 4.79871 112.573 4.47975 111.227 4.30256C110.518 4.23168 109.915 4.30256 109.915 4.44431C109.915 4.62151 109.667 4.65695 109.313 4.55063C108.888 4.37344 108.817 4.44431 109.029 4.79871C109.242 5.1531 109.171 5.22398 108.71 5.04678C108.072 4.7987 107.328 5.3303 107.151 6.1454C107.08 6.46435 107.293 6.53523 107.754 6.39347C108.214 6.25172 108.462 6.39348 108.569 6.85419C108.71 7.42122 108.569 7.52753 107.824 7.52753C107.328 7.52753 106.726 7.27946 106.478 6.96051C106.194 6.57067 106.052 6.53523 106.017 6.85419C106.017 7.1377 105.733 7.20858 105.131 7.06682C104.67 6.9605 103.749 7.03138 103.111 7.24402C102.048 7.59841 102.012 7.56297 102.65 7.10226C103.04 6.81875 103.536 6.46435 103.713 6.28716C103.926 6.10996 104.28 6.03908 104.528 6.1454C104.741 6.21628 104.954 6.10996 104.954 5.86188C104.954 5.64925 105.131 5.57837 105.308 5.68469C105.521 5.82645 105.556 6.10996 105.414 6.3226C105.273 6.57067 105.485 6.49979 105.875 6.21628C106.23 5.93276 106.619 5.68469 106.655 5.64925C106.726 5.61381 106.442 5.36573 106.017 5.1531C105.45 4.83415 105.131 4.83415 104.777 5.1531C104.493 5.40117 104.139 5.47205 103.961 5.36574C103.749 5.25942 103.536 5.50749 103.43 5.89733C103.253 6.53523 103.04 6.64155 102.19 6.46435C100.843 6.18084 99.3898 6.53523 100.063 6.96051C100.382 7.17314 100.276 7.27946 99.7088 7.27946C99.2126 7.27946 98.9645 7.1377 99.1417 6.88962C99.3898 6.42891 97.9014 6.78331 97.3698 7.3149C96.8736 7.77561 97.7951 8.66159 98.5747 8.44895C98.9645 8.34264 99.2835 8.44895 99.2835 8.66159C99.2835 8.87422 99 9.05142 98.681 9.05142C98.1849 9.05142 98.1495 9.1223 98.5393 9.47669C98.8937 9.86652 99.0708 9.83108 99.3898 9.37037C100.028 8.55527 100.949 8.3072 101.197 8.87423C101.304 9.15774 101.233 9.47669 101.02 9.58301C100.843 9.72477 100.772 9.9374 100.843 10.0792C100.949 10.1855 100.701 10.3272 100.347 10.3272C99.8505 10.3272 99.7796 10.2209 100.063 9.86653C100.488 9.33494 99.9569 9.22862 99.4253 9.76021C99.2126 9.97284 98.681 9.97285 98.0431 9.79565C97.4407 9.61845 97.1926 9.44126 97.4761 9.44126C97.8659 9.40582 97.8659 9.2995 97.5115 8.87423C97.0508 8.34264 96.2712 8.13 96.5901 8.62615C96.6964 8.76791 96.2712 9.08686 95.7041 9.2995C94.8182 9.65389 94.6055 9.61845 94.322 9.05142C94.0385 8.51983 94.1094 8.44895 94.641 8.59071C95.1017 8.69703 95.4561 8.51983 95.7041 8.02368C96.094 7.35034 96.0585 7.31489 94.9599 7.70473C93.2234 8.27176 93.0462 8.59071 94.003 9.37037C94.4637 9.76021 94.7827 10.1146 94.6764 10.1146C93.9322 10.2918 92.6209 10.2564 92.7627 10.0792C93.0107 9.68933 91.7349 9.37037 91.3805 9.72477C91.2033 9.90196 90.8489 9.97284 90.6009 9.86653C90.3174 9.79565 89.8212 9.86653 89.4668 10.0437C89.1124 10.2564 88.5808 10.2918 88.2973 10.1146C87.9784 9.9374 87.0215 10.1855 85.8166 10.7171C84.7534 11.2132 84.08 11.6739 84.3281 11.7802C84.5762 11.8866 85.0369 11.7448 85.3913 11.4967C85.7693 11.2132 85.7693 11.2841 85.3913 11.7094C84.8951 12.241 84.6116 12.2764 83.9737 11.9929C83.513 11.8157 82.8397 11.7448 82.4498 11.8866C82.06 12.0283 81.0677 12.3827 80.2171 12.6308C79.3666 12.8789 78.8705 13.1624 79.1185 13.3041C79.3312 13.4459 79.0476 13.6231 78.4452 13.7294C77.701 13.8357 77.4529 13.7294 77.5592 13.4459C77.6301 13.1978 77.5238 12.9143 77.2757 12.7371C76.9922 12.5953 76.9213 12.6308 77.0985 12.8789C77.2403 13.1269 77.1694 13.3041 76.9567 13.3041C76.7441 13.3041 76.6732 13.4459 76.7795 13.6585C76.9213 13.8712 76.5315 14.0129 75.8936 14.0129C75.2911 14.0129 74.8658 14.1547 74.9721 14.2964C75.0785 14.4736 74.6532 14.5445 74.0153 14.4736C73.3774 14.4028 73.0938 14.4736 73.3419 14.58C73.5545 14.6863 73.7672 14.9343 73.7672 15.1115C73.7672 15.3242 73.4483 15.2887 73.023 15.0407C72.4205 14.7571 72.2079 14.7571 71.9952 15.0761C71.8535 15.3242 71.4991 15.3951 71.251 15.2887C70.9675 15.147 71.0384 15.2533 71.3927 15.5368C72.0307 16.0684 72.0307 16.1038 71.3219 16.4582C70.4359 16.9544 69.8689 16.9544 70.5777 16.4937C71.5345 15.8912 69.4436 16.0684 68.2741 16.7063C67.7071 17.0253 66.7502 17.4151 66.1478 17.5569C65.2618 17.8049 65.2263 17.8404 65.8997 17.8758C66.3604 17.9112 66.6085 18.053 66.5021 18.2656C66.3604 18.4783 65.9706 18.5492 65.6162 18.4428C65.2263 18.3365 64.5884 18.4074 64.1632 18.62C63.6316 18.9035 63.4898 18.939 63.6316 18.6555C64.0214 18.053 63.5961 18.1948 61.8596 19.1516C60.9736 19.6478 60.0522 20.0376 59.7687 20.0376C59.4852 20.0376 59.2371 20.1794 59.2371 20.3566C59.2371 20.6401 58.2802 21.0653 57.2879 21.2425C57.1107 21.278 56.969 21.4906 57.0044 21.6678C57.0398 21.8804 56.7563 22.0222 56.331 22.0222C55.7286 21.9868 55.3387 22.3766 54.7363 23.5107C54.7008 23.5815 54.4174 23.5107 54.063 23.298C53.6731 23.0854 53.1415 23.1208 52.4682 23.4752C51.2278 24.0777 51.1569 24.6447 52.2555 24.6802C52.8225 24.7156 52.858 24.7865 52.4327 24.8928C52.1138 24.9637 51.5467 24.8928 51.1569 24.6802C50.6608 24.4321 50.3064 24.4675 49.7748 24.8219C49.3849 25.1054 48.9597 25.2117 48.8179 25.1054C48.7116 24.9991 48.6053 25.0345 48.6053 25.2117C48.6053 25.4244 48.7825 25.7433 49.0306 25.9914C49.3141 26.2749 49.3141 26.523 48.9597 26.9483C48.6407 27.3381 48.6407 27.4799 48.9243 27.4799C49.1723 27.4799 49.2786 27.6216 49.1369 27.8342C49.0306 28.0114 48.7116 28.0823 48.4281 27.976C48.0737 27.8342 48.0028 27.5507 48.2509 26.9128C48.6407 25.9205 48.1091 25.7788 47.0814 26.5939C46.6916 26.8419 46.1954 26.9837 45.9473 26.9128C45.6993 26.8065 45.274 26.9483 45.0259 27.1963C44.7424 27.4444 44.2108 27.7279 43.821 27.7634C43.4312 27.8343 43.0767 28.0469 43.0059 28.2241C42.935 28.4013 42.4034 28.543 41.8364 28.543C40.6669 28.543 40.5606 28.862 41.4465 29.8188C41.9072 30.315 42.5452 30.4922 43.9273 30.4922C44.9905 30.4922 45.9119 30.5985 46.0182 30.7757C46.0891 30.9175 46.3372 30.9529 46.5144 30.8466C46.6916 30.7048 46.8333 30.7757 46.8333 30.9175C46.8333 31.5908 44.8842 32.3705 43.9982 32.0515C43.4312 31.8389 43.3721 31.9216 43.821 32.2996C44.2699 32.6776 44.2462 32.7839 43.7501 32.6185C43.1476 32.4768 42.935 32.5477 42.935 32.9021C42.935 33.1856 42.4743 33.6109 41.8718 33.8589C41.3048 34.107 40.8087 34.426 40.8087 34.6032C40.8087 34.9575 39.0367 34.8158 38.3633 34.426C38.0089 34.1779 37.9735 34.2842 38.2925 34.8512C38.576 35.4183 38.576 35.6663 38.257 35.8435C38.0089 35.9853 37.9026 35.9498 38.0798 35.8081C38.2216 35.6309 38.0798 35.2411 37.7609 34.8867C36.6623 33.6817 37.6545 33.221 41.5883 33.1501C42.2616 33.1147 42.4743 32.9729 42.368 32.6185C42.1199 32.0515 41.2339 31.6617 40.7732 31.9452C40.596 32.0515 40.1707 31.8743 39.8518 31.5554C39.5328 31.2364 39.1784 31.0947 39.0721 31.2719C38.6823 31.8389 36.9458 32.4414 36.7331 32.087C36.5914 31.8743 36.3078 31.7326 36.0952 31.7326C35.8471 31.7326 35.8826 31.8743 36.2015 32.087C36.6268 32.3705 36.6268 32.4414 36.1306 32.6185C35.7762 32.7603 35.351 32.7603 35.1384 32.6185C34.9257 32.4768 34.8194 32.5831 34.8548 32.8312C34.9257 33.1147 34.3941 33.3628 33.4373 33.5045C32.0906 33.7172 30.4958 34.5677 31.4527 34.5677C31.6653 34.5677 32.1969 34.8867 32.6576 35.2765C33.1183 35.6663 33.6499 35.9853 33.8626 35.9853C34.0752 35.9853 34.0397 35.8435 33.7562 35.6663C33.3309 35.3828 33.331 35.2411 33.6854 34.7803C33.9334 34.4614 34.2878 34.3196 34.465 34.426C34.6422 34.5323 34.784 34.3551 34.784 34.0007C34.784 33.5754 34.9966 33.4691 35.599 33.6463C36.0243 33.7526 36.5205 33.8589 36.6622 33.8589C36.8394 33.8589 36.8749 34.0007 36.7686 34.1779C36.6622 34.3551 36.804 34.6032 37.123 34.7095C37.6191 34.8867 37.5482 35.0639 36.7686 35.6663C36.0243 36.2688 35.918 36.5169 36.237 36.9067C36.485 37.1902 36.5559 37.5092 36.4142 37.6509C36.3078 37.7573 36.2015 37.6864 36.2015 37.4383C36.2015 37.1193 35.9889 37.0485 35.599 37.2257C34.7839 37.5446 33.4373 37.7927 32.2323 37.8636C31.6653 37.899 31.3109 38.0762 31.3818 38.2888C31.4527 38.466 31.9843 38.6078 32.6222 38.5724C33.6145 38.5369 33.6853 38.6078 33.2955 39.1039C32.9057 39.5647 32.9411 39.6001 33.6145 39.2457C34.6068 38.7141 34.6776 38.7141 34.6776 39.352C34.6776 39.7418 34.3587 39.8127 33.4727 39.7064C32.5867 39.6001 32.3032 39.7064 32.3032 40.0962C32.3032 40.557 32.2323 40.557 31.7362 40.0608C31.2755 39.6355 31.0628 39.6001 30.8856 39.919C30.7085 40.1317 30.354 40.238 30.0351 40.1317C29.4326 39.8836 27.9442 41.0531 28.2986 41.4429C28.4403 41.5493 27.9442 41.6556 27.2354 41.6556C26.314 41.6556 25.995 41.7973 26.1368 42.1163C26.2431 42.4707 25.995 42.6124 25.2862 42.6124C24.5774 42.6124 23.8332 43.0377 22.77 44.0654C21.2461 45.5539 20.6082 45.8728 20.6082 45.1995C20.6082 44.9869 20.3247 45.0223 19.9349 45.2704C19.1198 45.7665 19.1198 46.3336 19.8995 46.688C20.2184 46.8297 19.8286 46.936 19.0135 46.9715C17.5959 47.0069 17.7376 47.2195 19.6514 47.822C20.0058 47.9283 20.2184 48.1764 20.0767 48.389C19.9703 48.6017 19.3678 48.4599 18.5882 48.0346C17.6313 47.5385 17.2061 47.4322 17.0289 47.7511C16.8871 47.9992 16.8517 48.3182 16.9226 48.4599C17.0289 48.6017 16.8517 48.6371 16.5327 48.5308C16.2138 48.389 15.6113 48.6017 15.186 48.9561C14.7607 49.3105 14.619 49.3813 14.8671 49.0978C15.0797 48.8143 15.2924 48.4599 15.2924 48.2827C15.2924 48.1055 15.1151 48.1055 14.8671 48.2827C14.619 48.4954 14.0874 48.6017 13.733 48.5308C12.9533 48.4245 11.4295 49.4168 11.394 50.0547C11.394 50.3028 11.1459 50.4091 10.7915 50.2673C10.4371 50.1256 10.2954 50.1964 10.4371 50.4091C10.5789 50.6217 10.2954 50.9052 9.79926 51.0116C9.30311 51.1533 8.91328 51.4723 8.91328 51.7912C8.91328 52.0747 9.09047 52.2165 9.26767 52.1102C9.48031 52.0038 9.62206 51.9684 9.62206 52.0393C9.62206 52.1456 9.05503 52.5354 8.38169 52.9607C7.70834 53.3505 6.96412 54.0948 6.78692 54.5909C6.60972 55.0871 6.2553 55.4769 6.00723 55.4769C5.4402 55.4769 3.20754 57.9576 3.45562 58.3475C3.56193 58.5247 3.42017 58.7728 3.13665 58.8791C2.49875 59.1271 0.585049 62.5648 1.0812 62.5648C1.29384 62.5648 1.47102 62.423 1.47102 62.2458C1.47102 61.9268 3.31388 61.4307 3.56195 61.6788C3.63283 61.7496 3.42018 62.104 3.10122 62.423C2.74683 62.742 2.56965 63.2381 2.67597 63.5216C2.81773 63.8406 2.74681 63.9115 2.4633 63.7697C2.17978 63.5925 2.14438 63.6988 2.32158 64.1595C2.46333 64.5848 2.32157 65.0455 1.82542 65.4708C1.08119 66.1796 1.04576 67.0656 1.78999 66.9238C2.00262 66.8529 2.17981 66.9592 2.17981 67.1364C2.17981 67.8098 3.84546 66.5694 6.07813 64.195C7.35395 62.8837 8.66521 61.5016 9.05504 61.1826C9.40944 60.8637 10.1182 60.2612 10.6143 59.8005C11.1105 59.3752 12.3863 58.2412 13.485 57.3197C14.5481 56.3983 15.7885 55.2997 16.2138 54.9099C16.6745 54.4846 17.0643 54.1656 17.1352 54.2365C17.2061 54.3074 17.4541 54.1302 17.7022 53.8467C17.9503 53.5632 18.0212 53.3505 17.8794 53.3505C17.5604 53.3505 19.6514 52.0393 22.2739 50.6572C23.3016 50.1256 24.2231 49.4522 24.2939 49.2041C24.542 48.6017 24.0813 48.6017 23.4788 49.1687C23.1244 49.5585 23.089 49.5231 23.2662 49.0624C23.408 48.708 24.0104 48.3536 24.6129 48.2473C26.562 47.8929 26.7747 47.822 26.9164 47.3967C26.9873 47.1487 27.2708 46.9715 27.5543 46.9715C27.8379 46.9715 28.0505 46.7943 28.0505 46.5816C28.0505 46.4044 28.2277 46.3336 28.4049 46.4399C28.6175 46.5462 28.8302 46.4399 28.9365 46.1918C29.0428 45.9083 29.4326 45.6957 29.8225 45.6602C30.4604 45.5893 31.5944 44.7742 31.5944 44.3844C31.5944 44.2781 30.9211 44.2781 30.106 44.3844C29.0073 44.5616 28.7239 44.4907 28.9011 44.1718C29.0783 43.9237 29.5389 43.7819 29.9288 43.8174C30.354 43.8174 30.7793 43.8174 30.8856 43.7819C30.992 43.7465 31.6299 43.6402 32.3032 43.5339C34.0043 43.3212 37.8317 41.5138 38.0798 40.805C38.2216 40.4506 38.5051 40.3443 38.8949 40.4861C39.2848 40.6278 39.4265 40.557 39.2847 40.3443C39.143 40.1317 39.2848 39.8482 39.6037 39.7419C40.029 39.5647 40.1353 39.671 39.9581 40.1317C39.7455 40.6278 39.8163 40.6633 40.1353 40.3443C40.7732 39.7064 40.1707 39.1748 38.9304 39.3875L37.7963 39.5647L38.6823 39.0685C39.2493 38.7141 39.7455 38.6432 40.1707 38.8559C40.4897 39.0331 41.0567 39.1748 41.4111 39.1748C41.9073 39.1394 41.8718 39.0331 41.163 38.6432C40.1353 38.0408 40.3834 37.9699 41.6592 38.466C42.2262 38.6787 42.5806 38.6787 42.5806 38.466C42.5806 38.2888 42.7932 38.218 43.0413 38.2888C43.2539 38.3952 43.9627 38.3243 44.5298 38.1471C45.1322 37.9699 45.3449 37.7927 45.0614 37.7572C44.3526 37.6864 47.5067 36.6941 48.499 36.6941C48.9242 36.6941 49.8457 36.3751 50.519 35.9499C51.1924 35.56 51.9011 35.3119 52.0783 35.4183C52.2555 35.5246 52.7162 35.3119 53.0706 34.993C53.425 34.6386 54.0275 34.426 54.4174 34.4968C54.7717 34.5677 54.9844 34.4968 54.8426 34.2842C54.7363 34.107 54.8781 33.8589 55.1616 33.7172C55.4451 33.6109 55.764 33.6817 55.8704 33.8589C55.9767 34.0361 56.331 34.0716 56.65 33.9652C57.1462 33.7526 57.1462 33.6817 56.5437 33.2565C55.9412 32.8312 55.9412 32.7957 56.5437 32.7957C56.8981 32.7957 57.0399 32.6186 56.8981 32.4059C56.7563 32.1578 56.8626 32.0515 57.1462 32.1578C57.4297 32.2642 57.6069 32.5477 57.536 32.7603C57.5005 32.973 57.6069 33.1501 57.8195 33.1501C57.9967 33.1501 58.1739 32.973 58.1739 32.7603C58.1739 32.5477 58.3865 32.4414 58.6346 32.5477C59.2371 32.7603 61.0091 31.8034 61.0091 31.2719C61.0091 30.9529 61.0799 30.9529 61.2925 31.2719C61.5761 31.7326 63.1354 31.5199 63.1354 31.0238C63.1354 30.882 63.348 30.7403 63.5961 30.7757C64.801 30.8112 65.6162 30.6339 65.6162 30.315C65.6162 30.1378 65.3326 30.1024 65.0137 30.2087C64.4821 30.4213 64.4467 30.3859 64.9074 29.8897C65.2263 29.5353 65.5807 29.429 65.7934 29.6417C66.4313 30.2796 69.1601 29.6062 69.1601 28.7911C69.1601 28.6139 68.912 28.6494 68.6285 28.8974C68.2741 29.2164 68.0969 29.2164 68.0969 28.9329C68.0969 28.7202 68.2032 28.543 68.3804 28.5076C69.5145 28.4013 70.4359 28.1178 70.5068 27.8342C70.5776 27.6216 70.8966 27.4799 71.2155 27.4799C71.7471 27.4799 71.7472 27.5507 71.2865 27.8342C70.8612 28.1178 70.8966 28.1886 71.5345 28.1886C71.9598 28.1886 72.4205 28.0114 72.5268 27.8342C72.6331 27.6216 73.1647 27.4799 73.6963 27.4799C74.5468 27.4799 74.5823 27.4444 73.9444 27.0191C73.3774 26.5939 73.59 26.523 75.5037 26.6293C77.4175 26.7002 77.6301 26.6293 77.2757 26.1686C76.8859 25.7433 76.9213 25.6725 77.5238 25.7788C77.949 25.8496 78.1617 25.7079 78.0908 25.3889C78.0199 24.9991 78.0908 24.9637 78.4806 25.2826C78.7641 25.5307 79.0831 25.6016 79.1894 25.4953C79.2957 25.3535 80.1817 25.2117 81.1031 25.1763C82.0245 25.1054 83.0169 25.07 83.3004 25.0345C83.5485 24.9991 83.6902 24.7865 83.5839 24.503C83.4421 24.1486 83.5839 24.0068 84.0446 24.0422C84.399 24.0777 84.7888 24.3966 84.8952 24.751C85.0015 25.2117 84.8951 25.3535 84.5762 25.2117C84.2927 25.1054 83.9383 25.2117 83.7965 25.4598C83.6193 25.7079 82.8396 26.204 82.0245 26.5939C81.174 27.0191 80.7133 27.409 80.9614 27.5507C81.174 27.6925 80.8905 27.8697 80.288 28.0114C78.5161 28.4013 78.3743 28.5076 78.5869 29.0746C78.7996 29.6062 78.3388 29.9252 77.063 30.1024C76.3897 30.2087 75.929 31.3782 76.5669 31.3782C76.7796 31.3782 76.9567 31.5554 76.9567 31.768C76.9567 31.9806 76.6378 32.087 76.248 31.9806C75.8581 31.8743 75.5392 31.9452 75.5392 32.1578C75.5392 32.335 75.3974 32.4059 75.2202 32.2642C75.043 32.1578 74.7949 32.2287 74.6532 32.4414C74.5114 32.654 74.2633 32.6894 74.0507 32.5831C73.8026 32.4414 73.7672 32.5122 73.909 32.7249C74.0507 32.9729 73.9798 33.1501 73.8026 33.1501C73.59 33.1501 73.4128 33.3628 73.4128 33.6463C73.4128 33.9298 73.0939 34.2842 72.704 34.3905C71.8889 34.6386 71.7826 35.1347 72.4559 35.4183C72.6686 35.5246 72.4205 35.5246 71.8889 35.3828C71.0738 35.2411 70.8612 35.3119 70.684 35.9499C70.5776 36.3397 70.4005 36.6232 70.2587 36.5523C70.1169 36.446 69.798 36.5169 69.5145 36.7295C69.0892 36.9776 69.1247 37.0485 69.6562 37.0485C70.1288 37.0485 70.1406 37.2139 69.6917 37.5446C69.3018 37.8281 68.8766 37.9699 68.7348 37.899C68.5576 37.7927 68.4513 37.8636 68.4513 38.0762C68.4513 38.7496 69.8689 39.2811 70.4359 38.8204C70.684 38.5724 71.1447 38.466 71.4636 38.5724C71.7472 38.7141 72.0661 38.6078 72.2079 38.3952C72.3496 38.1471 72.3142 38.1116 72.0661 38.2534C71.818 38.3952 71.6408 38.3243 71.6408 38.1471C71.6408 37.9344 71.8889 37.7572 72.1724 37.7572C72.4559 37.7572 72.704 37.899 72.704 38.1116C72.704 38.2888 72.9521 38.3597 73.2356 38.2534C74.1216 37.899 73.8381 38.7141 72.8103 39.3875C72.2433 39.7419 71.7472 40.0608 71.6408 40.0608C71.5345 40.0608 71.251 40.2026 70.9675 40.3798C70.6131 40.6278 70.5422 40.557 70.7194 40.2026C70.8612 39.9191 70.7194 40.0254 70.365 40.4152C69.987 40.8877 69.857 40.8523 69.9752 40.3089C70.1169 39.7064 69.9752 39.4938 69.3019 39.3166C68.8411 39.2103 68.4513 38.9622 68.4513 38.785C68.4513 38.6078 68.2032 38.466 67.9197 38.466C67.6362 38.466 67.3881 38.6078 67.3881 38.8204C67.3881 38.9976 66.9629 39.2811 66.4667 39.3875C65.8288 39.5647 65.6161 39.8127 65.7225 40.2734C65.8288 40.6633 65.7225 40.8405 65.4744 40.7342C64.9074 40.5215 63.7024 41.8682 64.0214 42.3289C64.1277 42.5416 64.0214 42.6124 63.7024 42.5061C63.1354 42.2935 61.647 43.3921 61.9305 43.8528C62.0368 43.9946 61.9659 44.1363 61.7533 44.1363C61.5761 44.1363 61.3634 43.9591 61.2925 43.7111C61.1862 43.463 61.0445 43.4984 60.9027 43.8883C60.761 44.2426 60.8673 44.5262 61.1153 44.5262C61.3634 44.5616 61.009 44.6679 60.3357 44.8097C59.0953 45.0223 58.3511 45.9083 59.3789 45.9083C59.6978 45.9083 59.9459 46.0855 59.9459 46.2981C59.9459 46.4753 59.8041 46.5816 59.6269 46.4753C59.0953 46.1209 58.3156 46.5816 58.2802 47.3259C58.2448 47.6802 58.4928 48.0701 58.8118 48.141C59.3434 48.2827 59.3434 48.3182 58.8118 48.3536C57.9967 48.389 58.1739 49.6294 59.0599 50.2673C59.6269 50.6926 59.6269 50.7635 59.1308 50.9761C58.7764 51.1179 58.5637 51.047 58.6346 50.7989C58.67 50.5508 58.3865 50.3028 57.9967 50.2319C57.6069 50.161 57.0398 49.8421 56.6854 49.5585C56.2956 49.2041 56.0476 49.1687 55.8704 49.4522C55.7286 49.6648 55.3742 49.7712 55.0907 49.6649C54.8072 49.5585 54.6654 49.594 54.7717 49.7712C54.8781 49.9484 55.3387 50.0547 55.7994 50.0547C56.8981 50.0547 59.1662 51.6494 58.9536 52.2874C58.8472 52.5709 58.5283 53.067 58.2093 53.3505C57.5714 53.953 57.2879 55.4769 57.8195 55.4769C58.0322 55.4769 58.1739 55.1934 58.2093 54.839C58.2093 54.4846 58.3157 54.4137 58.422 54.6972C58.4928 54.9099 58.7409 55.0162 58.9536 54.9099C59.1308 54.8036 59.0953 55.0162 58.8473 55.406C58.4929 55.973 58.2093 56.0439 57.3234 55.7959C56.2956 55.5123 56.2602 55.5478 56.8981 56.0085C57.4297 56.3983 57.4651 56.5401 57.0753 56.5401C56.7918 56.5401 56.402 56.3983 56.1893 56.2211C56.0121 56.0794 55.6223 56.2211 55.2679 56.5755C54.9135 56.9653 54.7717 57.2489 54.9844 57.2489C55.1616 57.2489 55.197 57.5324 55.0907 57.8513C54.9135 58.312 55.0198 58.3829 55.4805 58.2057C55.8704 58.0285 56.0121 58.0994 55.8349 58.3829C55.6577 58.6664 55.9058 58.7019 56.6854 58.5601C57.2879 58.4184 57.8904 58.4892 57.9967 58.6664C58.103 58.8791 57.9613 58.9145 57.6777 58.8082C57.3588 58.7019 57.1107 58.7373 57.1107 58.95C57.1107 59.1626 56.8272 59.2689 56.5082 59.2335C55.6931 59.0917 54.63 59.7651 54.63 60.3321C54.63 60.8991 54.8426 60.8991 55.7286 60.4384C56.1184 60.1903 56.4019 60.1903 56.4019 60.403C56.4019 60.5802 56.1893 60.8282 55.9766 60.8991C55.7286 61.0054 55.8349 61.1118 56.2247 61.1118C56.7563 61.1472 56.8272 61.2181 56.4728 61.4661C56.1184 61.6788 56.2248 61.8205 56.8981 61.9268C57.6423 62.0686 57.7486 61.9977 57.4651 61.6433C57.1462 61.2889 57.2879 61.2535 58.1739 61.3953C58.8827 61.5016 59.5206 61.3598 59.9104 61.0054C60.2294 60.7219 61.2926 60.2612 62.2494 60.0131C63.2417 59.7651 64.0923 59.4461 64.1986 59.3398C64.3049 59.198 65.0846 58.9854 65.9706 58.8436C66.8565 58.7019 67.3527 58.4892 67.14 58.4184C66.892 58.312 66.6793 58.0994 66.6793 57.9222C66.6793 57.7096 66.892 57.6033 67.14 57.6387C67.9551 57.7804 69.5145 57.178 69.2664 56.7882C69.1246 56.5755 69.231 56.5401 69.4791 56.6818C69.9398 56.9654 71.3928 55.9022 71.1093 55.5123C71.0384 55.3706 71.1093 55.0516 71.251 54.8036C71.4637 54.4846 71.6409 54.4492 71.7826 54.7327C71.9244 54.9453 71.8535 55.1225 71.6408 55.1225C71.4282 55.1225 71.3573 55.2643 71.4636 55.4769C71.7472 55.9022 72.0307 55.9022 72.704 55.4769C73.1647 55.1934 73.1293 55.0871 72.5268 54.5909C71.8535 54.0948 71.8889 54.0593 72.7749 54.4492C73.3065 54.6972 73.6609 55.0162 73.5546 55.1579C73.2711 55.6541 73.6963 55.5478 74.6532 54.9099C75.1139 54.5909 75.6455 54.4492 75.8581 54.5555C76.0353 54.6618 76.2479 54.6264 76.3188 54.4492C76.3543 54.2365 76.9213 54.0239 77.4883 53.953C78.0908 53.8821 78.5869 53.6341 78.5869 53.4214C78.6224 53.1733 78.6578 52.819 78.6933 52.6063C78.6933 52.4291 78.8705 52.3228 79.0477 52.4646C79.2249 52.5709 79.4729 52.5 79.6147 52.2874C79.721 52.1102 80.2171 51.933 80.7133 51.933C81.2449 51.933 81.5284 52.0747 81.3867 52.2874C81.2449 52.5 81.7411 52.3582 82.4144 52.0393C83.1232 51.6849 83.6193 51.2242 83.513 50.9761C83.4421 50.728 83.5839 50.6217 83.9028 50.7635C84.1863 50.8698 84.3635 51.1887 84.2572 51.4723C84.1509 51.7558 84.2218 51.8621 84.399 51.7558C84.6116 51.6494 84.7534 51.2596 84.7534 50.9407C84.7534 50.48 84.8243 50.4445 85.0723 50.7989C85.2141 51.047 85.5685 51.2951 85.852 51.3659C86.1355 51.4014 86.738 51.5786 87.1632 51.7203C87.8366 51.933 88.1201 51.8266 88.5454 51.2242C88.9706 50.6217 89.3605 50.48 90.2819 50.5863C90.9198 50.6572 91.3451 50.5863 91.2742 50.4445C91.1679 50.3028 91.2742 50.161 91.4514 50.161C91.6641 50.161 91.8412 50.3028 91.8412 50.5154C91.8412 50.6926 92.0184 50.8698 92.2311 50.8698C92.4083 50.8698 92.4792 50.728 92.3728 50.5154C92.2665 50.3382 92.3728 50.2673 92.6563 50.3736C92.9398 50.48 93.4006 50.3028 93.7195 50.0192C94.0385 49.7003 94.4992 49.5585 94.7827 49.6649C95.0662 49.7712 95.4206 49.6649 95.5624 49.4877C95.6687 49.275 95.9168 49.1687 96.094 49.275C96.2712 49.3813 96.4838 49.3105 96.6256 49.0978C96.7319 48.9206 96.661 48.7434 96.4838 48.7434C96.2712 48.7434 96.094 48.5662 96.094 48.389C96.094 48.141 96.3066 48.141 96.7318 48.3536C97.1217 48.5662 97.5824 48.5662 97.9722 48.3536C98.6456 47.9638 100.134 48.5662 99.8151 49.1333C99.6733 49.3105 99.9568 49.4522 100.382 49.4522C101.055 49.4522 101.091 49.3813 100.666 48.8498C100.24 48.3182 100.24 48.2827 100.878 48.5308C101.268 48.6726 101.658 48.8143 101.764 48.8498C101.871 48.8852 101.941 48.8143 101.941 48.708C101.941 48.4599 103.076 47.3259 103.359 47.3259C103.465 47.3259 103.501 47.4676 103.394 47.6448C103.288 47.822 103.607 48.0346 104.139 48.141C104.989 48.2827 105.06 48.2827 104.493 47.8574C104.174 47.6094 103.891 47.2904 103.891 47.1487C103.891 47.0069 104.103 47.0423 104.351 47.255C104.918 47.7157 107.612 48.2473 107.328 47.822C107.222 47.6448 108.108 47.5031 109.313 47.5031C110.518 47.5031 111.829 47.3613 112.219 47.1841C112.609 47.0069 112.999 46.8297 113.105 46.7943C113.211 46.7588 113.566 46.6171 113.955 46.4399C114.345 46.2627 114.7 46.3336 114.877 46.6171C115.054 46.9006 115.196 46.936 115.373 46.6525C115.515 46.4399 116.046 46.2627 116.578 46.2627C117.322 46.2627 117.428 46.3336 117.003 46.6171C116.684 46.8297 116.649 46.9715 116.897 46.9715C117.428 46.9715 118.031 45.9083 117.854 45.2704C117.818 45.0223 117.854 44.9869 117.96 45.1995C118.031 45.3767 118.35 45.5539 118.633 45.5539C118.952 45.5539 119.094 45.6602 119.023 45.802C118.917 45.9792 119.236 46.0855 119.697 46.0855C120.157 46.0855 120.547 45.9792 120.547 45.802C120.547 45.6602 120.724 45.5539 120.937 45.5539C121.114 45.5539 121.185 45.6957 121.079 45.9083C120.795 46.4044 121.043 46.369 122.567 45.7311C123.276 45.4121 124.162 45.2704 124.552 45.4121C124.977 45.5539 125.154 45.483 125.012 45.2704C124.906 45.0932 125.048 44.8097 125.367 44.7034C125.792 44.5616 125.898 44.6325 125.721 45.0223C125.579 45.3767 125.757 45.5539 126.288 45.5539C126.855 45.5539 126.926 45.4476 126.607 45.0932C126.324 44.7388 126.359 44.597 126.749 44.5616C127.032 44.5262 127.493 44.4553 127.777 44.4198C128.025 44.3844 128.415 44.0655 128.663 43.7465C129.088 43.0377 128.911 42.9668 126.572 42.6124C126.076 42.5061 126.359 42.4352 127.245 42.3998C128.45 42.3644 128.734 42.258 128.556 41.8328C128.45 41.5138 128.556 41.3012 128.911 41.3012C129.194 41.3012 129.336 41.4429 129.23 41.6556C129.123 41.8328 129.265 42.01 129.62 42.01C130.045 42.01 130.151 41.7619 130.045 40.9468C129.974 40.3798 130.045 39.8127 130.257 39.7064C130.47 39.6001 130.116 39.6001 129.513 39.7064C128.202 39.8836 126.217 39.5647 126.217 39.1748C126.217 38.8559 127.21 38.9268 128.096 39.3166C128.45 39.4938 128.84 39.5292 128.946 39.3875C129.088 39.2811 128.946 39.1748 128.663 39.1748C128.379 39.1748 127.777 38.8559 127.316 38.5015C126.82 38.1471 126.182 37.899 125.898 38.0053C125.544 38.1116 125.579 38.0053 126.005 37.7572C126.465 37.4383 126.714 37.4383 126.891 37.6864C127.032 37.9345 127.316 37.9344 127.6 37.7572C128.167 37.4383 129.123 37.6864 128.875 38.1116C128.627 38.5015 128.946 38.6432 130.293 38.9622C131.002 39.104 131.073 39.0094 130.506 38.6787C130.045 38.4306 129.832 38.1471 130.045 38.0762C130.293 37.9699 130.257 37.5092 129.939 36.5878C129.513 35.3828 129.549 35.2411 130.045 35.3474C130.399 35.4183 130.647 35.7018 130.647 35.9853C130.683 37.0485 131.143 37.4383 131.888 36.9776C132.242 36.7295 132.455 36.4106 132.384 36.2688C132.277 36.0916 132.029 36.0916 131.817 36.1979C131.285 36.5523 130.754 35.5246 131.285 35.1702C131.569 34.9575 131.462 34.9221 131.037 35.0639C130.576 35.2411 130.435 35.1347 130.612 34.7449C130.86 34.0716 130.789 34.0716 129.549 34.7449C128.982 35.0284 128.273 35.2765 127.989 35.2765C127.316 35.2411 130.045 33.8589 130.789 33.8235C131.108 33.8235 130.931 33.6109 130.364 33.3628C129.832 33.1147 129.513 32.8312 129.62 32.6894C129.761 32.5477 129.62 32.4414 129.301 32.4414C128.982 32.4414 128.556 32.1578 128.379 31.8034C128.131 31.3782 127.918 31.3073 127.741 31.5908C127.529 31.9098 127.351 31.8743 127.032 31.5199C126.536 31.0238 127.032 30.4568 127.6 30.8466C127.777 30.9529 128.025 30.882 128.167 30.6694C128.273 30.4922 128.06 30.315 127.67 30.315C127.281 30.315 126.855 30.4922 126.749 30.6694C126.607 30.882 126.217 30.9529 125.828 30.8466C125.367 30.7048 125.154 30.7757 125.154 31.1655C125.154 31.9452 124.835 31.8743 124.126 30.9883C123.559 30.2796 123.418 30.2441 122.213 30.7048C121.504 30.9529 121.043 31.3073 121.15 31.4845C121.256 31.6617 121.15 31.7326 120.866 31.6617C120.583 31.5554 120.405 31.2719 120.441 31.0592C120.512 30.8466 120.37 30.6694 120.193 30.6694C119.98 30.6694 119.838 30.8466 119.838 31.0592C119.838 31.2364 119.661 31.3073 119.448 31.201C119.271 31.0592 118.74 31.2364 118.35 31.6263C117.925 31.9806 117.712 32.0515 117.854 31.8034C118.066 31.4845 117.606 31.3782 116.011 31.4491C114.274 31.5554 114.026 31.6263 114.487 31.9806C115.196 32.5122 114.735 32.5831 113.778 32.087C113.247 31.8034 113.105 31.8389 113.105 32.2287C113.105 32.6186 112.609 32.7249 111.085 32.6894C109.065 32.6894 108.321 32.7957 107.612 33.1856C107.435 33.2919 106.938 33.5045 106.584 33.6463C106.088 33.8235 106.017 33.7881 106.3 33.4337C106.584 33.0793 106.442 32.973 105.804 32.9375C105.273 32.9021 105.06 33.0084 105.202 33.2919C105.344 33.5045 105.166 33.4691 104.847 33.1856C104.529 32.9375 104.245 32.8312 104.245 33.0084C104.245 33.1501 104.068 33.1147 103.82 32.8666C103.572 32.6186 103.076 32.4414 102.686 32.4414C102.083 32.4414 102.154 32.5831 103.111 33.1501C103.713 33.54 104.245 33.8944 104.245 33.9652C104.245 34.0361 103.43 34.0361 102.473 34.0007C101.481 33.9298 100.772 34.0361 100.878 34.2133C101.162 34.674 100.276 34.8512 99.3898 34.5323C98.9645 34.3905 98.5747 34.3905 98.5038 34.5677C98.4329 34.7449 97.795 34.9221 97.0862 34.993C96.342 35.0284 95.7396 35.1702 95.7396 35.2765C95.7396 35.4183 95.4915 35.5246 95.208 35.5246C94.9245 35.5246 94.6764 35.3828 94.6764 35.2765C94.6764 35.1347 94.2511 34.993 93.755 34.993C93.2234 34.993 93.0107 35.1347 93.2588 35.2765C93.4715 35.4183 93.0107 35.6309 92.1247 35.7372C91.2742 35.8435 90.4591 35.8081 90.2819 35.5955C90.0693 35.3828 90.1047 35.2765 90.3882 35.2765C90.7072 35.2765 90.8135 34.9576 90.6717 34.3551C90.5654 33.7526 90.6363 33.5754 90.8489 33.7881C91.097 34.0361 91.5223 33.8589 92.1602 33.2919C92.6564 32.8312 93.2588 32.4414 93.5069 32.4414C93.755 32.4414 93.9676 32.2642 93.9676 32.087C93.9676 31.8743 94.1802 31.7326 94.4283 31.7326C94.6764 31.7326 95.456 31.3073 96.1294 30.8112C96.8027 30.315 98.0431 29.5708 98.9291 29.1809C99.8151 28.7557 100.311 28.3658 100.099 28.295C99.8505 28.1886 99.6379 27.976 99.6379 27.7634C99.6379 27.5507 99.8505 27.5862 100.169 27.8342C100.63 28.1886 100.843 28.1886 101.339 27.7634C101.658 27.4444 102.331 27.09 102.827 26.9483C103.324 26.8065 103.926 26.523 104.174 26.3104C104.564 25.9914 104.564 25.8851 103.997 25.6725C103.465 25.4244 103.501 25.3889 104.245 25.3535C104.741 25.2826 105.237 25.2826 105.379 25.3181C105.521 25.3181 106.159 25.0345 106.797 24.6447C107.435 24.2549 108.498 23.7233 109.136 23.4398C109.738 23.1563 110.27 22.731 110.27 22.5538C110.27 22.3412 111.014 21.9868 111.9 21.7741C112.999 21.4906 113.353 21.278 113.034 21.0653C112.786 20.8881 112.75 20.7464 112.928 20.7464C113.14 20.7464 112.998 20.4983 112.644 20.2502C112.077 19.825 112.077 19.7541 112.573 19.5415C112.892 19.4351 113.069 19.4706 112.963 19.6478C112.573 20.2857 113.92 20.392 114.381 19.7895C114.664 19.3997 114.841 19.3288 114.877 19.6123C114.877 19.9313 115.231 19.8604 116.223 19.3997C116.932 19.0099 117.96 18.62 118.527 18.4783C119.059 18.372 119.484 18.0884 119.484 17.9112C119.484 17.6986 119.732 17.5569 120.051 17.5569C120.334 17.5569 120.476 17.3797 120.37 17.2025C120.264 16.9898 120.405 16.8481 120.689 16.8481C121.008 16.8481 121.539 16.5646 121.894 16.2102C122.284 15.8912 123.063 15.3242 123.666 15.0052C124.8 14.4028 125.261 13.4105 124.233 13.8003C123.949 13.9066 123.772 13.8712 123.914 13.694C124.02 13.5168 124.552 13.2687 125.119 13.1269C125.792 12.9852 126.111 12.7017 126.076 12.3118C126.076 11.9929 126.217 11.7448 126.465 11.7802C126.678 11.8157 127.032 11.6739 127.245 11.4259C127.493 11.1069 127.422 10.8588 126.891 10.5399C126.43 10.2209 126.253 10.2209 126.288 10.5044C126.359 10.7171 126.182 11.0006 125.898 11.1069C125.615 11.1778 125.509 11.1069 125.65 10.8943C125.757 10.6816 125.721 10.4336 125.509 10.2918C125.331 10.1855 125.154 10.2564 125.154 10.5044C125.154 10.7525 125.048 10.8234 124.942 10.7171C124.8 10.5753 124.906 10.2564 125.119 9.97285C125.367 9.68933 125.438 9.22862 125.296 9.01598C125.154 8.7679 125.19 8.66159 125.367 8.80335C125.544 8.90967 126.182 8.59071 126.749 8.09456C127.351 7.59841 127.529 7.27945 127.21 7.42121C126.465 7.63385 126.43 7.49209 126.962 6.49979C127.245 6.00364 127.245 5.86188 126.962 6.00364C126.607 6.25171 125.119 5.47205 124.162 4.55063C123.807 4.19624 123.878 4.05448 124.658 3.87728C125.331 3.70009 125.438 3.55833 125.083 3.34569C124.8 3.13306 124.764 3.02674 125.048 3.02674C125.331 3.02674 125.331 2.81411 125.048 2.14076C124.658 1.32565 124.587 1.32565 124.197 1.85724C123.807 2.38883 123.737 2.38883 123.737 1.89268C123.737 1.57373 123.489 1.21934 123.17 1.11302C122.638 0.900385 122.638 0.971264 123.063 1.46741ZM121.433 2.67235C121.327 2.84954 121.008 3.02674 120.795 3.02674C120.547 3.02674 120.583 2.88498 120.901 2.67235C121.575 2.24708 121.717 2.24708 121.433 2.67235ZM123.985 5.3303C123.985 5.61381 123.772 5.86188 123.524 5.86188C122.461 5.86188 122.815 6.46435 123.914 6.53523C126.359 6.64155 126.465 6.71243 126.288 7.35033C126.146 7.88192 126.04 7.91737 125.579 7.56297C124.906 6.99594 122.248 6.9605 121.787 7.52753C121.61 7.77561 120.972 8.02368 120.37 8.16544C119.685 8.28357 119.744 8.16544 120.547 7.81105C121.646 7.35034 121.681 7.27946 120.795 7.45665C120.051 7.59841 119.803 7.52753 119.945 7.20858C120.015 6.9605 120.299 6.78331 120.512 6.81874C120.724 6.88962 120.901 6.71243 120.901 6.46435C120.901 6.1454 120.972 6.1454 121.185 6.46435C121.398 6.78331 121.787 6.64155 122.709 5.86188C123.347 5.29486 123.914 4.83415 123.949 4.79871C123.949 4.79871 123.985 5.04678 123.985 5.3303ZM108.498 5.50749C108.498 5.68469 108.321 5.86188 108.108 5.86188C107.931 5.86188 107.86 5.68469 107.966 5.50749C108.072 5.29486 108.25 5.1531 108.356 5.1531C108.427 5.1531 108.498 5.29486 108.498 5.50749ZM110.376 6.39347C110.908 6.39347 111.333 6.53523 111.333 6.74787C111.368 7.27946 109.49 7.38578 109.171 6.85419C108.781 6.28716 108.746 5.54293 109.136 6.03908C109.277 6.21628 109.809 6.39347 110.376 6.39347ZM118.598 7.27946C119.165 7.52753 119.094 7.56297 118.173 7.52753C117.535 7.49209 117.003 7.35033 117.003 7.17314C117.003 6.85418 117.676 6.88962 118.598 7.27946ZM105.131 7.98824C105.025 8.16544 105.131 8.37807 105.379 8.41351C105.627 8.41351 106.017 8.48439 106.194 8.51983C106.407 8.59071 106.726 8.66159 106.903 8.69703C107.116 8.73247 107.683 8.73247 108.179 8.69703C108.746 8.66159 109.206 8.87422 109.313 9.19318C109.455 9.54757 109.348 9.76021 108.994 9.76021C108.71 9.76021 108.569 9.58301 108.71 9.37037C108.852 9.1223 108.675 9.1223 108.143 9.40581C107.541 9.72477 107.293 9.72477 107.08 9.44126C106.938 9.19318 106.69 9.05142 106.513 9.08686C106.336 9.1223 106.123 9.1223 106.017 9.05142C105.911 9.01598 105.45 8.90966 104.954 8.83878C104.493 8.73247 103.926 8.48439 103.713 8.27176C103.465 7.98824 103.501 7.9528 103.784 8.13C103.997 8.23632 104.28 8.20088 104.422 7.98824C104.529 7.81105 104.812 7.63385 104.989 7.63385C105.202 7.63385 105.237 7.77561 105.131 7.98824ZM113.814 8.05912C113.814 8.55527 113.247 8.62615 112.644 8.16544C112.042 7.74017 112.077 7.70473 112.892 7.7756C113.424 7.7756 113.814 7.91736 113.814 8.05912ZM110.27 8.13C110.27 8.23632 110.128 8.41351 109.915 8.51983C109.738 8.62615 109.561 8.55527 109.561 8.37808C109.561 8.16544 109.738 7.98824 109.915 7.98824C110.128 7.98824 110.27 8.05912 110.27 8.13ZM119.13 8.34264C119.13 8.51983 118.952 8.69703 118.74 8.69703C118.562 8.69703 118.492 8.51983 118.598 8.34264C118.704 8.13 118.881 7.98824 118.988 7.98824C119.059 7.98824 119.13 8.13 119.13 8.34264ZM103.005 8.69703C103.465 8.87423 103.501 9.01598 103.182 9.01598C102.898 9.01598 102.331 8.87423 101.941 8.69703C101.481 8.51983 101.445 8.37808 101.764 8.37808C102.048 8.37808 102.615 8.51983 103.005 8.69703ZM102.119 9.97285C102.083 10.1146 102.26 10.3272 102.473 10.469C102.757 10.6462 102.721 10.8943 102.296 11.3195C101.764 11.8157 101.8 11.922 102.473 11.9929C102.792 12.0283 104.21 13.6585 103.926 13.6585C103.749 13.6585 103.43 13.4459 103.217 13.1624C102.969 12.8789 102.402 12.5599 101.906 12.4536C101.41 12.3118 101.126 12.0638 101.233 11.922C101.339 11.7448 101.091 11.6739 100.701 11.7802C100.311 11.8866 99.9923 11.7802 99.9923 11.5676C99.9923 11.2132 100.559 11.036 101.658 11.0715C101.977 11.1069 102.048 10.7171 101.941 9.97285C101.871 9.37038 101.871 9.08686 101.977 9.2995C102.083 9.54757 102.154 9.83109 102.119 9.97285ZM96.6964 10.5399C96.4483 10.6816 96.4484 10.8234 96.6256 10.8588C96.8382 10.8943 97.1571 10.9651 97.3343 11.0006C97.547 11.0715 97.9013 11.1069 98.1494 11.1423C98.5038 11.1778 98.4684 11.355 98.0077 11.7802C97.6179 12.2055 97.3343 12.2764 97.2634 11.9929C97.1926 11.7802 96.7673 11.6739 96.342 11.7448C95.8695 11.8393 95.8341 11.7921 96.2357 11.6031C96.661 11.4259 96.8027 11.2132 96.5546 11.0715C96.0231 10.7525 94.9599 11.1423 95.2434 11.5676C95.3497 11.7448 95.0662 11.8866 94.641 11.8866C94.0031 11.8866 93.9676 11.8157 94.322 11.355C94.5701 11.0715 95.0308 10.8234 95.3497 10.8234C95.8459 10.8234 95.8459 10.7525 95.3852 10.469C94.9245 10.1855 94.9599 10.1146 95.4915 10.1146C95.8459 10.1146 96.0231 9.9374 95.9168 9.72477C95.775 9.51213 95.9877 9.54757 96.4129 9.79565C96.9091 10.15 97.0154 10.3272 96.6964 10.5399ZM103.536 9.76021C103.536 9.9374 103.359 10.1146 103.146 10.1146C102.969 10.1146 102.898 9.9374 103.005 9.76021C103.111 9.54757 103.288 9.40581 103.394 9.40581C103.465 9.40581 103.536 9.54757 103.536 9.76021ZM112.75 9.76021C112.042 10.2209 111.581 10.2209 111.864 9.76021C111.971 9.54757 112.361 9.40581 112.68 9.40581C113.211 9.40581 113.211 9.47669 112.75 9.76021ZM118.952 9.76021C119.059 9.9374 118.917 10.1146 118.598 10.1146C118.279 10.1146 118.137 9.9374 118.244 9.76021C118.35 9.54757 118.527 9.40581 118.598 9.40581C118.669 9.40581 118.846 9.54757 118.952 9.76021ZM104.493 10.6816C104.387 10.7879 104.068 10.8234 103.82 10.7171C103.536 10.6107 103.643 10.5044 104.032 10.5044C104.422 10.469 104.635 10.5753 104.493 10.6816ZM89.8567 11.8157C89.963 11.9929 89.8212 12.1346 89.5377 12.1346C89.2542 12.1346 89.1124 11.9929 89.2187 11.8157C89.3251 11.6739 89.4668 11.5322 89.5377 11.5322C89.6086 11.5322 89.7503 11.6739 89.8567 11.8157ZM91.7349 11.7448C91.6286 11.8511 91.3096 11.8866 91.0616 11.7802C90.778 11.6739 90.8844 11.5676 91.2742 11.5676C91.6641 11.5322 91.8767 11.6385 91.7349 11.7448ZM88.4036 12.1346C88.1555 12.2055 87.7303 12.2055 87.5176 12.1346C87.2696 12.0283 87.4468 11.9574 87.9429 11.9574C88.4391 11.9574 88.6162 12.0283 88.4036 12.1346ZM105.308 12.241C105.308 12.4182 105.06 12.489 104.777 12.3827C104.493 12.241 104.245 12.0992 104.245 12.0283C104.245 11.9574 104.493 11.8866 104.777 11.8866C105.06 11.8866 105.308 12.0283 105.308 12.241ZM82.2726 12.9497C82.2726 13.1269 82.0955 13.3041 81.8828 13.3041C81.7056 13.3041 81.6347 13.1269 81.741 12.9497C81.8474 12.7371 82.0246 12.5954 82.1309 12.5954C82.2018 12.5954 82.2726 12.7371 82.2726 12.9497ZM98.9645 13.0915C98.6456 13.4459 97.6533 13.5522 96.8027 13.3041C96.4838 13.2333 97.9014 12.7371 98.6456 12.7017C99.1772 12.6308 99.2481 12.7371 98.9645 13.0915ZM94.5701 13.1624C94.4637 13.2687 94.1448 13.3041 93.8967 13.1978C93.6132 13.0915 93.7195 12.9852 94.1094 12.9852C94.4992 12.9497 94.7118 13.0561 94.5701 13.1624ZM84.9306 13.6585C85.0369 13.8712 84.8951 13.9066 84.6116 13.8003C83.9737 13.5522 83.8674 13.3041 84.3636 13.3041C84.5762 13.3041 84.8243 13.4459 84.9306 13.6585ZM86.6671 14.4382C86.5608 14.58 86.738 14.7217 87.0215 14.7217C87.305 14.7217 87.7303 15.0407 87.9429 15.4305C88.2264 15.9975 88.5454 16.1038 89.1124 15.9266C89.8566 15.714 89.8566 15.7495 89.2542 16.3519C88.6871 16.9898 88.6163 16.9898 88.0847 16.2102C87.8012 15.7849 87.3404 15.4305 87.1278 15.4305C86.8797 15.4305 86.3836 14.9343 86.0292 14.3319C85.6039 13.6231 85.6275 13.4105 86.1001 13.694C86.5253 13.942 86.738 14.2964 86.6671 14.4382ZM91.4869 13.6585C91.4869 13.8357 91.2742 14.0129 90.9907 14.0129C90.7072 14.0129 90.3528 13.8357 90.2465 13.6585C90.1402 13.4459 90.3528 13.3041 90.7426 13.3041C91.1679 13.3041 91.4869 13.4459 91.4869 13.6585ZM109.207 13.4459C109.207 13.5168 108.994 13.7648 108.71 13.9775C108.321 14.2964 108.143 14.2964 107.931 13.9775C107.789 13.7294 107.824 13.6585 108.072 13.8003C108.285 13.9066 108.533 13.8712 108.675 13.6585C108.888 13.3041 109.207 13.1624 109.207 13.4459ZM111.581 13.5168C111.475 13.6231 111.156 13.6585 110.908 13.5522C110.624 13.4459 110.73 13.3396 111.12 13.3396C111.51 13.3041 111.723 13.4105 111.581 13.5168ZM89.7149 14.0838C89.7149 14.2256 89.4668 14.3673 89.1479 14.3673C88.8644 14.3673 88.7226 14.5091 88.8289 14.7217C88.9352 14.8989 88.8643 15.0761 88.6871 15.0761C88.4745 15.0761 88.2973 14.8635 88.2973 14.58C88.2973 14.2964 88.0847 14.0129 87.872 13.9066C87.6239 13.8003 87.9429 13.7294 88.5808 13.7648C89.1833 13.7648 89.7149 13.9066 89.7149 14.0838ZM82.627 14.7572C83.0877 15.0052 83.0877 15.0761 82.627 15.0761C82.3435 15.1115 81.8119 15.1824 81.4575 15.2533C81.1386 15.3242 80.9259 15.2179 81.0677 15.0407C81.2449 14.7217 80.7487 14.58 79.8273 14.6863C79.5792 14.7571 79.4729 14.6154 79.5793 14.4028C79.8273 14.0129 81.7056 14.2256 82.627 14.7572ZM85.2495 14.7572C85.1432 14.9698 85.2141 15.2887 85.4622 15.4305C85.7457 15.6077 85.7103 15.7495 85.285 15.8912C84.9306 16.033 84.7888 15.9975 84.9306 15.7494C85.0723 15.5368 84.8243 15.2887 84.3636 15.147L83.513 14.9343L84.399 14.6863C84.8951 14.5445 85.3204 14.4382 85.3913 14.4028C85.4622 14.3673 85.3913 14.5445 85.2495 14.7572ZM93.5778 14.8989C94.1448 14.7217 94.2511 14.7926 94.1094 15.1824C94.0031 15.5014 94.2157 15.7849 94.7473 15.9266C95.267 16.092 95.3025 16.2692 94.8536 16.4582C94.4638 16.6354 94.0385 16.6 93.9322 16.4228C93.8259 16.2456 93.1171 16.033 92.3374 15.9266C91.5932 15.8203 90.8844 15.6077 90.7781 15.3951C90.6363 15.2179 90.2465 15.147 89.8567 15.2533C89.2542 15.4659 89.2542 15.4305 89.7858 15.0761C90.2465 14.7926 90.6009 14.7926 91.097 15.0761C92.0539 15.5723 92.1956 15.5368 91.9475 14.7926C91.7349 14.261 91.7703 14.261 92.3019 14.6508C92.6209 14.9343 93.188 15.0407 93.5778 14.8989ZM96.2357 15.2887C96.5547 15.3951 96.8027 15.6431 96.8027 15.8203C96.8027 16.3165 95.8813 16.1747 95.3852 15.6077C94.9245 15.0407 95.2789 14.8989 96.2357 15.2887ZM97.6887 15.7849C97.7951 15.9621 97.7242 16.1393 97.547 16.1393C97.3343 16.1393 97.1571 15.9621 97.1571 15.7849C97.1571 15.5723 97.228 15.4305 97.2989 15.4305C97.4052 15.4305 97.5824 15.5723 97.6887 15.7849ZM79.4729 16.2456C79.3312 16.3874 78.835 16.3519 78.3389 16.1747C77.5238 15.8558 77.5592 15.8558 78.6224 15.8912C79.2603 15.9266 79.6147 16.1038 79.4729 16.2456ZM82.7688 16.4937C82.5562 16.7063 82.2372 16.6709 81.9182 16.4582C81.4575 16.1393 81.4929 16.1038 82.0245 16.281C82.3435 16.3874 82.627 16.281 82.627 16.0684C82.627 15.8558 82.7333 15.7849 82.8751 15.8912C83.0168 16.033 82.946 16.3165 82.7688 16.4937ZM104.422 16.1393C104.529 16.3519 104.387 16.3874 104.103 16.281C103.465 16.033 103.359 15.7849 103.855 15.7849C104.068 15.7849 104.316 15.9266 104.422 16.1393ZM74.1925 17.4151C73.9798 17.8049 73.8026 17.8758 73.6254 17.5923C73.4837 17.3797 73.5546 17.2025 73.7318 17.2025C73.9444 17.2025 74.1216 16.9189 74.157 16.5646C74.157 16.2456 74.2633 16.1393 74.3342 16.3874C74.4405 16.6354 74.3697 17.0961 74.1925 17.4151ZM81.0323 16.4937C80.9259 16.6709 80.6779 16.8481 80.4652 16.8481C80.288 16.8481 80.1463 16.6709 80.1463 16.4937C80.1463 16.281 80.3943 16.1393 80.7133 16.1393C80.9968 16.1393 81.1386 16.281 81.0323 16.4937ZM91.0261 16.7063C90.9198 16.8126 90.6008 16.8481 90.3528 16.7417C90.0693 16.6354 90.1756 16.5291 90.5654 16.5291C90.9553 16.4937 91.1679 16.6 91.0261 16.7063ZM92.9399 16.9544C92.7272 17.2379 92.6563 17.5569 92.7981 17.6986C92.9398 17.8404 92.7981 17.8404 92.4437 17.6986C91.8412 17.486 91.8412 17.4505 92.4437 16.9898C93.2588 16.3874 93.436 16.3519 92.9399 16.9544ZM79.4375 17.2025C79.4375 17.6632 77.701 17.8404 77.3466 17.4151C77.1339 17.1316 77.382 16.9898 78.2325 16.9544C78.9059 16.9189 79.4375 17.0253 79.4375 17.2025ZM70.1169 17.4151C70.0106 17.5214 69.6917 17.5569 69.4436 17.4505C69.1601 17.3442 69.2664 17.2379 69.6562 17.2379C70.0461 17.2025 70.2587 17.3088 70.1169 17.4151ZM86.8797 18.1239C86.8797 17.9467 87.1632 18.053 87.4822 18.3011C87.9783 18.7264 88.0492 18.7264 87.7657 18.3011C87.5885 17.9467 87.6239 17.8758 87.872 18.053C88.6517 18.5137 88.2973 18.9744 87.1987 18.9744C86.5962 18.9744 85.852 19.1162 85.4976 19.2934C85.0369 19.5415 84.8952 19.4706 84.8952 19.0099C84.8952 18.5492 85.1078 18.4074 85.6039 18.5492C86.171 18.6909 86.2418 18.5846 86.0646 17.8758C85.852 17.0607 85.8874 17.0607 86.3482 17.6986C86.6317 18.0884 86.8797 18.2656 86.8797 18.1239ZM95.5624 17.5569C95.6687 17.7341 95.6332 17.9112 95.4206 17.9112C95.2434 17.9112 94.9599 17.7341 94.8536 17.5569C94.7473 17.3442 94.7827 17.2025 94.9954 17.2025C95.1726 17.2025 95.4561 17.3442 95.5624 17.5569ZM72.704 18.2656C71.9952 18.7264 70.8257 18.7264 71.1093 18.2656C71.2156 18.053 71.7471 17.9112 72.2787 17.9112C73.0229 17.9112 73.1293 17.9821 72.704 18.2656ZM77.0276 18.5137C76.8504 18.8681 76.7795 19.6832 76.8504 20.2857C76.9567 21.2425 76.8858 21.4552 76.3542 21.4552C75.8227 21.4552 75.7872 21.3843 76.248 21.1008C76.6378 20.8527 76.6378 20.7464 76.3188 20.7464C76.0707 20.7464 75.9644 20.5692 76.0708 20.392C76.1771 20.1794 76.1062 20.0376 75.8936 20.0376C75.6809 20.0376 75.4329 20.2502 75.3265 20.5338C75.1493 20.959 74.9013 20.9236 73.7318 20.392C71.7472 19.5415 71.3928 19.1162 72.3496 18.7972C72.7749 18.6555 73.2002 18.6555 73.3065 18.7618C73.4482 18.8681 73.271 18.9744 72.9521 18.9744C72.6331 18.9744 72.3496 19.1516 72.3496 19.3643C72.3496 19.7895 73.4128 19.5415 75.1848 18.62C76.8859 17.7695 77.4174 17.734 77.0276 18.5137ZM81.2095 18.2656C81.2095 18.4783 81.5284 18.4783 82.0954 18.2656C82.627 18.053 82.9814 18.053 82.9814 18.2656C82.9814 18.7972 82.2726 19.0453 81.3512 18.8327C80.5361 18.62 80.1463 17.9112 80.8551 17.9112C81.0677 17.9112 81.2095 18.053 81.2095 18.2656ZM84.2927 18.1239C84.1863 18.2302 83.8674 18.2656 83.6193 18.1593C83.3358 18.053 83.4421 17.9467 83.832 17.9467C84.2218 17.9112 84.4344 18.0176 84.2927 18.1239ZM102.827 18.2656C102.827 18.4428 102.65 18.62 102.438 18.62C102.26 18.62 102.19 18.4428 102.296 18.2656C102.402 18.053 102.579 17.9112 102.686 17.9112C102.757 17.9112 102.827 18.053 102.827 18.2656ZM78.1617 19.1516C77.9136 19.7187 77.3111 19.8958 77.3111 19.3643C77.3111 19.0807 77.5592 18.9035 78.268 18.6555C78.3034 18.62 78.268 18.8681 78.1617 19.1516ZM70.4005 20.0376C69.9043 20.5692 70.1524 21.5615 70.7903 21.4197C71.57 21.278 71.9598 21.4906 71.7826 21.9159C71.5345 22.6247 72.6331 23.4398 73.1293 22.9436C73.6254 22.4475 74.1216 22.412 74.1216 22.8727C74.1216 23.3689 71.6408 23.9714 70.9321 23.5815C70.5777 23.3689 70.1878 23.4043 69.9397 23.617C69.6917 23.7942 69.5854 23.8296 69.6917 23.7233C69.798 23.5815 69.5854 23.2626 69.231 23.0145C68.6639 22.5538 68.6994 22.5538 69.4081 22.6247C69.8334 22.6956 70.3296 22.8373 70.4359 22.9791C70.5777 23.1208 70.8966 23.2271 71.1801 23.2271C71.5345 23.2271 71.57 23.0499 71.3219 22.5538C70.8257 21.6678 68.8766 20.959 68.2387 21.4552C67.9552 21.7387 67.7425 21.7387 67.5653 21.4552C67.2109 20.8881 67.7779 20.3211 68.5222 20.4983C69.0183 20.6401 69.1601 20.5338 69.0183 20.2148C68.8411 19.6832 69.3373 19.3997 70.2941 19.4351C70.8257 19.4706 70.8257 19.5415 70.4005 20.0376ZM81.0323 19.6832C80.8196 20.0022 81.741 20.1794 82.9814 20.073C83.4421 20.0022 83.4421 20.0376 82.9814 20.3566C82.6979 20.5338 82.3435 20.6046 82.2017 20.5338C81.741 20.2502 80.4652 20.7464 80.6779 21.1362C80.8196 21.3134 80.7133 21.4552 80.5361 21.4552C80.3235 21.4552 80.1463 21.1717 80.1108 20.8173C80.1108 20.3211 80.0399 20.3211 79.8627 20.7464C79.721 21.0299 79.2249 21.3134 78.7287 21.3489C78.2326 21.3843 78.0553 21.3489 78.3034 21.2425C78.6578 21.0653 78.6224 20.9236 78.1971 20.6046C77.6655 20.2502 77.701 20.1794 78.3389 20.1794C78.7642 20.1794 79.0831 20.3211 79.0831 20.4983C79.0831 20.6755 79.3312 20.6401 79.6147 20.392C79.8982 20.1439 80.1463 20.073 80.1463 20.2502C80.1463 20.4274 80.3235 20.2857 80.5361 19.9313C80.7133 19.6123 80.9614 19.3288 81.0677 19.3288C81.174 19.3288 81.1386 19.4706 81.0323 19.6832ZM63.9505 21.2071C63.8087 21.4552 63.667 21.4197 63.5607 21.1008C63.4543 20.8173 63.2063 20.3211 62.9936 20.0376C62.781 19.7541 62.9582 19.7895 63.3835 20.1794C63.8442 20.5338 64.0922 20.9945 63.9505 21.2071ZM100.949 19.8958C100.843 20.0022 100.524 20.0376 100.276 19.9313C99.9923 19.825 100.099 19.7187 100.488 19.7187C100.878 19.6832 101.091 19.7895 100.949 19.8958ZM66.5021 20.392C66.7857 20.8527 66.325 20.8527 65.6162 20.392C65.1555 20.1085 65.1554 20.0376 65.687 20.0376C66.006 20.0376 66.3958 20.1794 66.5021 20.392ZM107.683 20.6046C107.576 20.711 107.257 20.7464 107.009 20.6401C106.726 20.5338 106.832 20.4274 107.222 20.4274C107.612 20.392 107.824 20.4983 107.683 20.6046ZM97.0154 21.1008C97.1926 21.278 97.8659 21.4552 98.4684 21.5261C99.0708 21.5615 99.5316 21.7033 99.4607 21.845C99.3544 21.9513 98.5038 21.9159 97.5115 21.7033C96.5547 21.5261 95.8459 21.2425 95.9522 21.0653C96.2003 20.6401 96.5901 20.6755 97.0154 21.1008ZM87.5885 21.2425C87.5885 21.3134 87.305 21.5969 86.986 21.845C86.419 22.3057 86.3836 22.2703 86.8443 21.7033C87.305 21.1362 87.5885 20.959 87.5885 21.2425ZM67.3881 21.7741C67.3881 22.5538 65.687 23.4398 64.4112 23.298C63.348 23.1563 63.2417 23.0854 63.667 22.6601C63.9151 22.3766 64.5175 22.164 64.9782 22.164C65.4389 22.164 66.0414 21.9868 66.325 21.8096C66.9983 21.3843 67.3881 21.3489 67.3881 21.7741ZM62.7456 22.1285C63.0645 22.3412 62.9582 22.412 62.2849 22.412C61.7887 22.412 61.4698 22.3057 61.5761 22.1285C61.8242 21.7387 62.1077 21.7387 62.7456 22.1285ZM88.6517 22.164C88.6517 22.3412 88.4036 22.412 88.1201 22.3057C87.8366 22.164 87.5885 22.0222 87.5885 21.9513C87.5885 21.8804 87.8366 21.8096 88.1201 21.8096C88.4036 21.8096 88.6517 21.9513 88.6517 22.164ZM95.7396 22.1285C95.7396 22.3057 96.0231 22.5538 96.3775 22.6601C96.7318 22.7664 96.6255 22.8019 96.1294 22.7664C95.2789 22.6956 94.5701 21.8096 95.3497 21.8096C95.5624 21.8096 95.7396 21.9513 95.7396 22.1285ZM94.2511 22.8373C94.003 23.2271 93.4714 23.617 93.0107 23.7587C92.55 23.865 92.1956 24.1131 92.1956 24.3258C92.1956 24.5384 92.3374 24.6093 92.5146 24.503C93.0108 24.184 93.9676 24.6447 93.9676 25.2117C93.9676 25.637 93.7904 25.637 92.869 25.1763C91.8767 24.6447 91.7349 24.6447 91.3451 25.2117C91.097 25.5307 90.7072 25.7079 90.4945 25.5661C90.2465 25.4244 90.0693 25.4598 90.0693 25.637C90.0693 25.956 88.758 26.523 88.2264 26.4521C88.0492 26.4167 87.9429 26.5584 87.9429 26.7711C87.9429 26.9483 87.8012 27.1255 87.5885 27.1255C86.9861 27.1255 87.624 26.0977 88.3682 25.8496C89.2896 25.5661 88.51 24.9991 87.5531 25.2472C87.1987 25.3535 86.8797 25.2472 86.8797 25.0345C86.8797 24.7865 87.2696 24.7156 87.9784 24.8219C88.6517 24.9637 88.9707 24.8928 88.8289 24.6447C88.7226 24.4321 88.8289 24.3966 89.1479 24.503C89.5023 24.6447 89.7858 24.4675 89.9275 24.1131C90.1047 23.7233 90.4237 23.5815 90.9907 23.7233C91.416 23.8296 92.0184 23.7233 92.2665 23.5107C92.9044 22.9436 94.0739 22.1994 94.4283 22.1994C94.57 22.164 94.4992 22.4829 94.2511 22.8373ZM107.789 22.4475C107.789 22.6956 106.619 23.5461 106.265 23.5815C106.088 23.5815 106.088 23.4043 106.194 23.2271C106.3 23.0145 106.159 22.8727 105.875 22.8727C104.706 22.8727 105.344 22.3412 106.549 22.3057C107.222 22.2703 107.789 22.3412 107.789 22.4475ZM60.8319 23.0499C61.2217 23.0499 61.7178 22.9436 61.9659 22.7664C62.1785 22.6247 62.4621 22.6601 62.6038 22.8727C62.7101 23.0499 62.5684 23.2271 62.2494 23.2271C61.895 23.2271 61.7887 23.4043 61.9305 23.6524C62.1077 23.9359 62.0014 23.9714 61.5052 23.7587C61.1508 23.617 60.5483 23.5107 60.2294 23.5107C59.8395 23.5107 59.5915 23.298 59.5915 22.9436C59.5915 22.5892 59.6978 22.4829 59.875 22.6956C60.0167 22.8727 60.442 23.0499 60.8319 23.0499ZM84.3636 22.9082C83.7611 23.298 82.5207 23.3335 82.7333 22.9436C82.8396 22.8019 83.3358 22.6601 83.9028 22.6247C84.5762 22.5892 84.718 22.6601 84.3636 22.9082ZM109.915 22.6601C109.915 22.9791 108.852 23.1563 108.675 22.8727C108.533 22.6601 108.781 22.5184 109.171 22.5184C109.596 22.5184 109.915 22.5892 109.915 22.6601ZM58.5283 24.0068C58.5283 24.184 58.7055 24.2194 58.9181 24.0777C59.1662 23.9359 59.2725 24.0422 59.1662 24.3258C59.0953 24.6093 58.5992 25.0345 58.0676 25.2826C57.3233 25.637 57.0044 25.637 56.4019 25.2826C55.4805 24.7156 55.4805 24.184 56.4019 24.4321C56.7918 24.5384 57.4297 24.751 57.8195 24.8574C58.3511 24.9991 58.4574 24.9282 58.3157 24.503C58.2094 24.184 57.9613 24.0422 57.7841 24.1486C57.6069 24.2549 57.4651 24.0777 57.4651 23.7942C57.4651 23.4398 57.6778 23.3335 57.9967 23.4398C58.2802 23.5815 58.5283 23.7942 58.5283 24.0068ZM60.8319 24.2903C60.9736 24.503 61.3989 24.5738 61.7887 24.4321C62.2494 24.2903 62.4266 24.3612 62.2849 24.6093C62.1431 24.7865 61.4697 25.1409 60.7255 25.3535C59.0953 25.7788 58.8827 25.7788 58.8827 25.3535C58.8827 25.1409 59.2371 24.9991 59.6269 24.9991C60.2648 24.9991 60.3003 24.9282 59.9459 24.4675C59.5915 24.0422 59.5915 23.9359 60.0522 23.9359C60.3711 23.9359 60.7255 24.1131 60.8319 24.2903ZM63.8088 24.5384C62.8873 25.8142 61.7533 26.7711 61.5761 26.4521C61.4698 26.3104 61.8596 25.7788 62.4266 25.3535C62.9937 24.9282 63.3835 24.3966 63.2772 24.2549C63.1709 24.0777 63.348 23.9359 63.7024 23.9359C64.1986 23.9359 64.234 24.0422 63.8088 24.5384ZM68.9829 24.9991C69.0892 25.1763 68.9475 25.3535 68.6285 25.3535C68.3095 25.3535 68.1678 25.1763 68.2741 24.9991C68.3804 24.7865 68.5576 24.6447 68.6285 24.6447C68.6994 24.6447 68.8766 24.7865 68.9829 24.9991ZM54.4528 25.3535C54.5591 25.5307 54.4882 25.7079 54.311 25.7079C54.0984 25.7079 53.9212 25.5307 53.9212 25.3535C53.9212 25.1409 53.9921 24.9991 54.063 24.9991C54.1693 24.9991 54.3465 25.1409 54.4528 25.3535ZM66.5376 25.7788C66.2186 25.956 65.7579 26.0268 65.5098 25.9205C65.2618 25.8497 65.3681 25.7433 65.7225 25.7433C66.0769 25.7079 66.2541 25.5661 66.1478 25.3535C66.006 25.1409 66.1832 25.1054 66.5376 25.2472C67.0692 25.4598 67.0692 25.4953 66.5376 25.7788ZM74.1216 25.3535C74.1216 25.5307 74.0507 25.7079 73.9798 25.7079C73.8735 25.7079 73.6963 25.5307 73.59 25.3535C73.4837 25.1409 73.5546 24.9991 73.7318 24.9991C73.9444 24.9991 74.1216 25.1409 74.1216 25.3535ZM56.1538 26.6293C55.9058 27.2672 56.7209 27.5862 57.2879 27.1255C57.5714 26.8774 57.9967 26.7711 58.2448 26.8774C58.5283 26.9837 58.422 27.09 58.0321 27.09C57.5006 27.1255 57.4297 27.2318 57.7132 27.5153C57.9967 27.7988 58.3865 27.7279 59.1662 27.3381C60.123 26.842 60.2648 26.842 60.442 27.3381C60.761 28.1178 60.7255 28.1886 60.1231 27.976C59.8396 27.8342 59.3788 27.9406 59.1308 28.1178C58.5283 28.6139 57.1462 28.5076 57.3588 27.976C57.5005 27.5862 55.6577 27.5862 54.9844 28.0114C54.8072 28.1178 54.5591 28.0114 54.4174 27.7988C54.2402 27.5153 54.311 27.4799 54.6654 27.6571C55.0552 27.8697 55.0907 27.8342 54.7363 27.4799C54.3464 27.0546 54.2047 27.09 53.7794 27.6925C53.4959 28.0469 53.1415 28.2595 52.9998 28.0823C52.858 27.9406 52.4327 28.0823 52.0783 28.4367C51.7239 28.7557 51.3341 28.8974 51.1923 28.7911C51.086 28.6494 51.1569 28.543 51.3695 28.543C51.6176 28.543 51.7948 28.1532 51.7948 27.6571C51.7948 26.9128 51.972 26.7711 52.7871 26.7711C53.3187 26.7711 53.9212 26.6293 54.1693 26.4876C54.8072 26.0977 56.331 26.204 56.1538 26.6293ZM86.7734 27.4799C86.8089 27.8697 86.6671 28.1178 86.4899 27.976C86.3127 27.8697 85.8166 28.1532 85.4267 28.6139C84.9306 29.1809 84.7534 29.2518 84.8952 28.8266C85.0015 28.5076 84.8951 28.1532 84.647 28.0823C84.399 28.0114 84.5053 27.976 84.8597 28.0114C85.3913 28.1178 85.6394 27.7988 85.4976 27.0191C85.4976 26.8774 85.7457 26.7711 86.1001 26.7711C86.4899 26.7711 86.738 27.0546 86.7734 27.4799ZM50.5545 27.4799C50.6608 27.6925 50.519 27.7279 50.2355 27.6216C49.5976 27.3735 49.4913 27.1255 49.9874 27.1255C50.2001 27.1255 50.4481 27.2672 50.5545 27.4799ZM69.1601 27.2672C69.1601 27.3381 68.912 27.5862 68.6285 27.8342C68.2032 28.1886 68.0969 28.1886 68.0969 27.6925C68.0969 27.3735 68.345 27.1255 68.6285 27.1255C68.912 27.1255 69.1601 27.1963 69.1601 27.2672ZM82.7688 27.4444C82.9106 27.6216 82.6625 27.6925 82.2726 27.5862C81.4575 27.3735 81.3512 27.1255 82.06 27.1255C82.3435 27.1255 82.6625 27.2672 82.7688 27.4444ZM63.986 27.7988C64.1277 27.976 63.8796 28.0469 63.4898 27.9406C62.6747 27.7279 62.5684 27.4799 63.2772 27.4799C63.5607 27.4799 63.8796 27.6216 63.986 27.7988ZM65.2618 28.543C65.2618 28.7202 65.1909 28.8974 65.12 28.8974C65.0137 28.8974 64.8365 28.7202 64.7302 28.543C64.6239 28.3304 64.6948 28.1886 64.8719 28.1886C65.0846 28.1886 65.2618 28.3304 65.2618 28.543ZM51.2632 29.3581C52.0429 29.4999 51.9366 29.5353 50.8734 29.4999C50.0583 29.4645 49.0305 29.7125 48.5344 30.0315C47.5775 30.6694 46.0182 30.7757 46.3726 30.2087C46.4789 30.0315 46.3372 29.748 46.0891 29.5708C45.7347 29.3581 45.9828 29.2518 46.8333 29.2164C49.1014 29.1101 49.2432 29.0746 49.5267 28.7911C49.6685 28.6494 49.8811 28.6848 49.9874 28.862C50.0938 29.0392 50.6962 29.2518 51.2632 29.3581ZM83.3358 28.6848C83.3358 28.7911 83.1941 28.9683 82.9814 29.0746C82.8042 29.1809 82.627 29.1101 82.627 28.9329C82.627 28.7202 82.8042 28.543 82.9814 28.543C83.1941 28.543 83.3358 28.6139 83.3358 28.6848ZM53.9212 29.3936C53.9212 29.6771 53.6377 29.996 53.3187 30.1024C52.9643 30.2441 52.8225 30.2441 52.9643 30.1024C53.1061 29.9606 53.0352 29.6417 52.8226 29.3581C52.5036 29.0037 52.5745 28.8974 53.177 28.8974C53.5668 28.8974 53.9212 29.1101 53.9212 29.3936ZM123.807 31.7326C123.914 32.3705 123.772 32.6894 123.489 32.6894C123.205 32.6894 123.063 32.4768 123.17 32.1933C123.276 31.9452 123.205 31.7326 123.028 31.7326C122.815 31.7326 122.673 31.8743 122.673 32.087C122.673 32.2642 122.425 32.4414 122.142 32.4414C121.858 32.4414 121.61 32.2642 121.61 32.0515C121.61 31.8743 121.787 31.8034 122.036 31.9452C122.284 32.1224 122.354 32.0161 122.213 31.6263C122 31.0947 122.39 30.7757 123.276 30.7757C123.489 30.7757 123.737 31.201 123.807 31.7326ZM82.2726 31.3782C82.2726 31.5554 82.0955 31.7326 81.8828 31.7326C81.7056 31.7326 81.6347 31.5554 81.741 31.3782C81.8474 31.1655 82.0246 31.0238 82.1309 31.0238C82.2018 31.0238 82.2726 31.1655 82.2726 31.3782ZM126.572 31.7326C126.855 31.9098 126.962 32.087 126.784 32.087C126.005 32.087 127.458 33.1501 128.308 33.1856C128.84 33.1856 129.017 33.2919 128.698 33.3982C128.415 33.5045 127.883 33.8235 127.564 34.107C127.21 34.426 126.678 34.5323 126.182 34.3905C125.757 34.2488 125.509 34.2842 125.615 34.4614C125.757 34.6386 125.615 34.8158 125.331 34.8158C125.048 34.8158 124.729 34.5677 124.623 34.2842C124.481 33.8589 124.693 33.8235 125.828 34.0007C127.564 34.2842 127.812 33.9652 126.749 32.6894C125.863 31.6617 125.438 31.4845 125.615 32.1224C125.65 32.335 125.402 32.5831 125.083 32.6185C124.729 32.6894 124.445 32.654 124.445 32.5477C124.445 32.335 125.579 31.4136 125.863 31.3782C125.969 31.3782 126.288 31.5554 126.572 31.7326ZM48.1446 32.2996C48.0382 32.4059 47.7193 32.4414 47.4712 32.335C47.1877 32.2287 47.2941 32.1224 47.6839 32.1224C48.0737 32.087 48.2863 32.1933 48.1446 32.2996ZM51.972 33.5045C52.9289 33.5045 52.9643 33.54 52.4327 34.107C51.972 34.5677 51.7239 34.6032 51.3341 34.2842C50.9443 33.9298 50.5544 34.0361 49.5621 34.7095C47.4003 36.1979 46.9396 36.3751 46.727 35.879C46.6207 35.5955 46.8333 35.3828 47.2232 35.3828C47.613 35.3474 48.3218 34.993 48.8179 34.6032C49.3495 34.1779 50.0229 33.8589 50.3418 33.8589C50.6608 33.8235 50.4481 33.6109 49.8457 33.3273C49.2786 33.0793 48.9951 32.8312 49.2432 32.8312C49.5267 32.7957 49.5976 32.6186 49.4558 32.335C49.3141 32.1224 49.5976 32.2642 50.0937 32.6894C50.5544 33.1501 51.405 33.5045 51.972 33.5045ZM120.193 32.4414C120.193 32.6185 119.945 32.7957 119.626 32.7957C119.342 32.7957 119.2 32.6185 119.307 32.4414C119.413 32.2287 119.661 32.087 119.874 32.087C120.051 32.087 120.193 32.2287 120.193 32.4414ZM39.7455 32.5831C39.7455 32.654 39.4974 32.8312 39.1785 32.9375C38.8949 33.0438 38.7532 33.0084 38.8595 32.7957C39.0721 32.4414 39.7455 32.2996 39.7455 32.5831ZM46.4435 33.2919C46.7625 33.6817 46.7624 33.7881 46.408 33.7526C45.2385 33.7172 44.6715 33.8944 44.8842 34.2133C45.0259 34.426 45.2386 34.4968 45.4158 34.3905C45.593 34.2842 45.8056 34.3551 45.9473 34.5677C46.16 34.9221 45.5575 35.0639 44.14 34.9575C43.7147 34.9221 43.2894 35.1347 43.1831 35.4183C42.935 36.0562 41.3402 36.1979 40.9858 35.5955C40.8441 35.3828 40.9504 35.2411 41.1985 35.3119C42.2262 35.4183 42.616 35.2411 42.5097 34.6386C42.4388 34.2133 42.616 34.0361 43.1831 34.0716C43.6083 34.0716 43.9273 33.9298 43.8919 33.7526C43.8564 33.54 44.2108 33.2565 44.707 33.1147C45.5575 32.8784 46.1364 32.9375 46.4435 33.2919ZM109.667 33.6463C109.774 33.54 110.057 33.788 110.27 34.2133C110.482 34.6386 110.589 35.0639 110.482 35.1702C110.199 35.4891 109.136 34.9575 109.348 34.6032C109.455 34.426 109.313 34.107 109.065 33.8944C108.533 33.4337 107.931 33.9298 108.285 34.5323C108.427 34.7095 108.214 34.8158 107.895 34.7803C107.576 34.7095 107.222 34.4614 107.151 34.1779C107.045 33.8944 107.116 33.7881 107.257 33.9298C107.399 34.0716 107.753 33.9298 108.037 33.6463C108.427 33.2919 108.71 33.221 108.994 33.5045C109.242 33.6817 109.525 33.7526 109.667 33.6463ZM118.775 33.6817C118.775 33.9652 118.527 34.2133 118.244 34.2133C117.96 34.2133 117.712 33.9652 117.712 33.6817C117.712 33.3982 117.96 33.1501 118.244 33.1501C118.527 33.1501 118.775 33.3982 118.775 33.6817ZM78.1971 34.3196C77.701 34.6032 77.6655 34.7095 78.0554 34.9575C78.4097 35.1702 78.2325 35.3119 77.382 35.4891C76.2125 35.7372 75.4683 36.3397 76.3542 36.3397C76.6023 36.3397 76.8504 36.5523 76.8504 36.8358C76.8504 37.2257 76.7086 37.2611 76.177 36.9422C75.8227 36.6941 75.5746 36.3397 75.6455 36.0916C75.6809 35.879 75.3974 35.4183 75.0076 35.0993C74.5587 34.7449 74.6532 34.6386 75.2911 34.7803C75.8935 34.9221 76.248 34.8512 76.248 34.6032C76.248 34.3905 76.5669 34.2133 76.9922 34.2133C77.382 34.2133 77.6301 34.0716 77.5238 33.8944C77.382 33.7172 77.6301 33.6463 78.0554 33.7526C78.7287 33.9298 78.7641 34.0007 78.1971 34.3196ZM80.3943 33.7172C80.288 33.8235 79.9691 33.8589 79.721 33.7526C79.4375 33.6463 79.5438 33.54 79.9337 33.54C80.3235 33.5045 80.5361 33.6109 80.3943 33.7172ZM82.7688 34.1779C82.9106 34.3551 82.6625 34.426 82.2726 34.3196C81.4575 34.107 81.3512 33.8589 82.06 33.8589C82.3435 33.8589 82.6625 34.0007 82.7688 34.1779ZM105.202 34.6386C105.096 34.9221 104.989 34.8158 104.989 34.426C104.954 34.0361 105.06 33.8235 105.166 33.9652C105.273 34.0716 105.308 34.3905 105.202 34.6386ZM114.948 34.6386C114.7 34.8867 114.522 34.9221 114.522 34.7095C114.522 34.2133 114.948 33.788 115.196 34.0361C115.267 34.1424 115.16 34.426 114.948 34.6386ZM120.901 34.3551C120.901 34.4614 120.76 34.6386 120.547 34.7449C120.37 34.8512 120.193 34.7803 120.193 34.6032C120.193 34.3905 120.37 34.2133 120.547 34.2133C120.76 34.2133 120.901 34.2842 120.901 34.3551ZM122.425 34.8158C122.319 35.0639 122.106 35.1702 121.929 35.0639C121.433 34.7804 121.539 34.3196 122.106 34.3196C122.39 34.3196 122.532 34.5323 122.425 34.8158ZM81.2095 34.7095C81.2095 35.0993 80.5361 35.2411 80.3235 34.9221C80.2172 34.7449 80.3589 34.5677 80.6424 34.5677C80.9614 34.5677 81.2095 34.6386 81.2095 34.7095ZM104.458 35.0993C104.387 35.5955 103.891 35.879 103.891 35.4537V34.9221C103.891 34.7095 104.032 34.5677 104.21 34.5677C104.387 34.5677 104.493 34.8158 104.458 35.0993ZM113.955 34.9575C114.062 35.0639 113.814 35.1347 113.459 35.1702C113.069 35.2056 112.68 35.0993 112.573 34.8867C112.361 34.5677 113.636 34.6386 113.955 34.9575ZM98.1849 35.879C98.1849 36.2334 98.0786 36.3397 98.0077 36.0916C97.9014 35.8435 97.3698 35.7372 96.6964 35.8081C96.0113 35.9026 95.9286 35.8553 96.4484 35.6663C97.8305 35.1702 98.2203 35.2411 98.1849 35.879ZM102.119 35.9499C102.119 36.0916 101.871 36.2334 101.587 36.2334C101.02 36.2334 100.878 35.9144 101.268 35.5246C101.552 35.2411 102.119 35.56 102.119 35.9499ZM103.182 35.6309C103.182 35.8081 103.111 35.9853 103.04 35.9853C102.934 35.9853 102.757 35.8081 102.65 35.6309C102.544 35.4183 102.615 35.2765 102.792 35.2765C103.005 35.2765 103.182 35.4183 103.182 35.6309ZM117.606 35.8081C117.606 36.4106 117.145 36.5169 116.861 36.0207C116.72 35.8435 116.861 35.5955 117.074 35.5246C117.322 35.4183 117.535 35.3119 117.57 35.3119C117.57 35.2765 117.606 35.5246 117.606 35.8081ZM89.8921 35.9853C89.9984 36.1625 89.8566 36.3397 89.5377 36.3397C89.2187 36.3397 89.077 36.1625 89.1833 35.9853C89.2896 35.7726 89.4668 35.6309 89.5377 35.6309C89.6086 35.6309 89.7858 35.7726 89.8921 35.9853ZM95.3852 36.2334C95.3852 36.6232 95.208 36.6232 94.6764 36.3397C94.2866 36.127 93.9676 35.879 93.9676 35.8081C93.9676 35.7372 94.2866 35.7018 94.6764 35.7372C95.0662 35.7727 95.3852 35.9853 95.3852 36.2334ZM37.4419 36.3397C37.3356 36.5169 37.0166 36.6941 36.804 36.6941C36.5559 36.6941 36.5914 36.5523 36.9103 36.3397C37.5837 35.9144 37.7254 35.9144 37.4419 36.3397ZM129.053 36.1979C129.053 36.4814 128.379 36.6586 128.202 36.4106C128.096 36.2334 128.237 36.0916 128.521 36.0916C128.804 36.0916 129.053 36.1625 129.053 36.1979ZM90.6009 36.6941C90.4946 36.8713 90.0693 37.0485 89.644 37.0485C89.1124 37.0485 89.0061 37.1902 89.1479 37.6155C89.3251 38.1116 89.2896 38.1471 88.8289 37.7572C88.5454 37.5092 88.2973 37.1548 88.2973 36.9422C88.2973 36.7295 88.4036 36.6586 88.5099 36.765C88.6163 36.8713 89.1124 36.8358 89.644 36.6941C90.1756 36.5169 90.6363 36.3751 90.7072 36.3751C90.778 36.3397 90.7072 36.4814 90.6009 36.6941ZM99.6379 36.4814C99.6379 36.5878 99.4961 36.7649 99.2835 36.8713C99.1063 36.9776 98.9291 36.9067 98.9291 36.7295C98.9291 36.5169 99.1063 36.3397 99.2835 36.3397C99.4961 36.3397 99.6379 36.4106 99.6379 36.4814ZM105.521 36.8004C105.663 36.9422 105.521 37.0485 105.202 37.0485C104.883 37.0485 104.564 36.9067 104.458 36.7295C104.21 36.3751 105.166 36.4106 105.521 36.8004ZM114.664 36.9067C114.77 37.1902 114.735 37.332 114.522 37.2257C114.31 37.1193 114.168 36.8713 114.168 36.6586C114.168 36.1625 114.416 36.2688 114.664 36.9067ZM120.901 36.5169C120.901 36.5877 120.547 36.8713 120.122 37.0839C119.378 37.4737 119.342 37.4737 119.803 36.9422C120.264 36.3751 120.901 36.127 120.901 36.5169ZM124.091 36.6586C124.091 36.8358 123.772 36.9067 123.382 36.8004C122.992 36.6941 122.673 36.5523 122.673 36.4814C122.673 36.4106 122.992 36.3397 123.382 36.3397C123.772 36.3397 124.091 36.4814 124.091 36.6586ZM40.3834 36.8713C40.3125 36.9776 39.6391 37.1194 38.9304 37.1902C38.1861 37.2965 37.4419 37.4737 37.2647 37.5801C37.0521 37.6864 36.9103 37.6509 36.9103 37.4383C36.9103 37.2611 37.2647 37.0485 37.7254 36.9776C38.9303 36.765 40.5606 36.7295 40.3834 36.8713ZM45.5221 36.9422C45.274 37.013 44.8487 37.013 44.6361 36.9422C44.388 36.8358 44.5652 36.765 45.0614 36.765C45.5575 36.765 45.7347 36.8358 45.5221 36.9422ZM94.2866 37.2611C94.4638 37.1548 94.6764 37.2611 94.7827 37.5446C94.9599 37.9345 94.7827 38.0053 94.003 37.7572C92.9399 37.4737 90.9198 38.218 91.8767 38.5369C92.1602 38.6432 92.2311 38.8559 92.0893 39.0331C91.9475 39.2103 91.6286 39.1039 91.4514 38.8204C91.1679 38.4306 91.0262 38.3952 90.9198 38.7141C90.8135 38.9622 90.4945 39.0331 90.1756 38.9268C89.7857 38.785 89.9275 38.6078 90.7426 38.2534C91.3451 38.0053 91.8412 37.6155 91.8412 37.4383C91.8412 37.2257 92.0893 37.1548 92.3728 37.2611C92.6563 37.4029 92.9044 37.2965 92.9044 37.0485C92.9044 36.6941 93.0107 36.6941 93.436 37.0485C93.7195 37.2611 94.0739 37.3674 94.2866 37.2611ZM97.3698 37.013C97.2635 37.1902 96.8382 37.2611 96.4484 37.1548C95.4561 36.9067 95.5624 36.6941 96.661 36.6941C97.1571 36.6941 97.4761 36.8358 97.3698 37.013ZM112.396 37.0485C112.396 37.4383 110.695 37.9344 110.376 37.6155C110.234 37.5092 110.482 37.4029 110.908 37.4029C111.333 37.4029 111.687 37.2257 111.687 37.0485C111.687 36.8358 111.864 36.6941 112.042 36.6941C112.254 36.6941 112.396 36.8358 112.396 37.0485ZM127.989 37.0485C127.989 37.2257 127.848 37.4029 127.635 37.4029C127.458 37.4029 127.281 37.2257 127.281 37.0485C127.281 36.8358 127.458 36.6941 127.635 36.6941C127.848 36.6941 127.989 36.8358 127.989 37.0485ZM44.1754 37.4029C44.2817 37.6155 44.1399 37.6509 43.8564 37.5446C43.2185 37.2965 43.1122 37.0485 43.6084 37.0485C43.821 37.0485 44.0691 37.1902 44.1754 37.4029ZM74.6532 37.3674C74.7595 37.5446 74.6532 37.8281 74.4406 37.9699C74.1925 38.1116 74.1216 38.0762 74.2634 37.8281C74.3697 37.6509 74.2633 37.3674 74.0507 37.2965C73.7317 37.1548 73.6963 37.0839 74.0153 37.0839C74.2279 37.0485 74.5114 37.1902 74.6532 37.3674ZM118.775 37.6864C118.775 37.9699 117.251 38.8204 116.72 38.8204C116.507 38.8204 118.456 37.4029 118.704 37.4029C118.74 37.4029 118.775 37.5446 118.775 37.6864ZM116.188 37.9699C116.082 38.0762 115.763 38.1116 115.515 38.0053C115.231 37.899 115.338 37.7927 115.727 37.7927C116.117 37.7573 116.33 37.8636 116.188 37.9699ZM122.673 38.2888C122.673 38.5724 122.425 38.8204 122.142 38.8204C121.681 38.8204 121.646 38.7141 122.036 38.2888C122.603 37.6509 122.673 37.6509 122.673 38.2888ZM37.0875 38.8559C36.0598 39.2457 35.9534 39.2457 35.9534 38.7141C35.9534 38.3952 36.2724 38.2888 36.8749 38.3952C37.69 38.5724 37.7254 38.6078 37.0875 38.8559ZM100.134 38.7141C100.418 38.6078 100.772 38.6432 100.878 38.785C100.949 38.9622 100.666 39.1748 100.169 39.2457C99.6733 39.352 99.2835 39.2457 99.2481 39.0331C99.2481 38.785 99.1417 38.8204 99.0354 39.0685C98.9645 39.3166 98.7165 39.5292 98.5393 39.5292C98.3621 39.5292 98.3975 39.2103 98.6456 38.8204C98.9291 38.3952 99.1772 38.2888 99.3189 38.5369C99.4607 38.7496 99.8151 38.8204 100.134 38.7141ZM113.459 39.0331C113.459 39.1039 113.211 39.1748 112.928 39.1748C112.644 39.1748 112.396 39.0331 112.396 38.8204C112.396 38.6432 112.644 38.5724 112.928 38.6787C113.211 38.8204 113.459 38.9622 113.459 39.0331ZM88.8289 39.1748C88.7226 39.352 88.4036 39.5292 88.191 39.5292C87.9429 39.5292 87.9784 39.3875 88.2973 39.1748C88.9707 38.7495 89.1124 38.7495 88.8289 39.1748ZM111.687 39.2103C111.687 39.3166 111.297 39.5292 110.801 39.6001C110.128 39.7419 109.986 39.671 110.27 39.352C110.66 38.8913 111.687 38.785 111.687 39.2103ZM120.547 39.1748C120.547 39.352 120.476 39.5292 120.405 39.5292C120.299 39.5292 120.122 39.352 120.015 39.1748C119.909 38.9622 119.98 38.8204 120.157 38.8204C120.37 38.8204 120.547 38.9622 120.547 39.1748ZM125.154 39.5292C125.154 39.7064 124.835 39.8836 124.41 39.8836C124.02 39.8836 123.808 39.7064 123.914 39.5292C124.02 39.3166 124.375 39.1748 124.658 39.1748C124.942 39.1748 125.154 39.3166 125.154 39.5292ZM87.5885 39.8836C87.5885 40.0608 87.4113 40.238 87.1987 40.238C87.0215 40.238 86.9506 40.0608 87.0569 39.8836C87.1633 39.671 87.3404 39.5292 87.4468 39.5292C87.5176 39.5292 87.5885 39.671 87.5885 39.8836ZM96.2712 39.8836C96.1648 40.0608 95.775 40.238 95.456 40.238C94.9245 40.238 94.9245 40.1671 95.3852 39.8836C96.094 39.4229 96.5547 39.4229 96.2712 39.8836ZM94.1802 40.4152C94.4992 40.6633 94.4992 40.8405 94.1802 41.0531C93.9676 41.2303 94.322 41.2303 94.9599 41.124C95.5623 40.9822 96.094 41.0177 96.094 41.1949C96.094 41.7265 94.0739 41.691 93.6486 41.1594C93.436 40.8759 92.9044 40.7342 92.55 40.8405C92.1248 40.9468 91.8412 40.8405 91.8412 40.5924C91.8412 40.3443 92.0893 40.238 92.3728 40.3798C92.6563 40.4861 92.9044 40.4152 92.9044 40.238C92.9044 39.8127 93.6132 39.919 94.1802 40.4152ZM106.868 40.6278C106.761 40.805 106.265 40.9114 105.733 40.9114C105.131 40.8759 104.989 40.805 105.414 40.6987C105.733 40.6278 105.946 40.4152 105.84 40.238C105.733 40.0962 105.982 40.0254 106.371 40.1317C106.761 40.238 106.974 40.4506 106.868 40.6278ZM69.5145 40.6633C69.5145 40.8405 69.2309 41.0885 68.912 41.1949C68.5576 41.3366 68.1324 41.6201 67.9197 41.8682C67.459 42.5061 65.687 42.7542 65.4035 42.2935C65.2263 42.0454 65.439 41.9745 65.9351 42.1163C66.5022 42.258 66.6793 42.1872 66.573 41.8682C66.4313 41.5493 66.6439 41.4075 67.14 41.4429C67.6716 41.4784 67.9197 41.2657 67.8843 40.9114C67.8488 40.5215 68.1323 40.3089 68.6639 40.3089C69.1246 40.3089 69.5145 40.4861 69.5145 40.6633ZM102.686 40.557C102.508 40.8405 100.701 40.6633 100.701 40.3798C100.701 40.3089 101.197 40.238 101.8 40.238C102.367 40.238 102.792 40.3798 102.686 40.557ZM108.958 40.8759C108.888 41.0885 109.029 41.3012 109.277 41.3012C109.49 41.3012 109.596 41.4075 109.455 41.5138C109.348 41.6556 108.781 41.3721 108.25 40.9468L107.257 40.1671L108.143 40.3089C108.639 40.3798 108.994 40.6278 108.958 40.8759ZM110.27 40.3798C110.27 40.4861 110.128 40.6633 109.915 40.7696C109.738 40.8759 109.561 40.805 109.561 40.6278C109.561 40.4152 109.738 40.238 109.915 40.238C110.128 40.238 110.27 40.3089 110.27 40.3798ZM37.1584 41.0886C37.2647 41.1949 37.0521 41.3012 36.6977 41.3012C36.3079 41.3012 35.8471 41.4429 35.67 41.6201C35.4573 41.7973 34.9611 42.0454 34.5359 42.1872C33.9334 42.3644 33.7208 42.258 33.7208 41.8682C33.7208 41.5138 34.0397 41.3012 34.6422 41.3012C35.1384 41.3012 35.4573 41.1594 35.351 40.9822C35.1029 40.6278 36.804 40.6987 37.1584 41.0886ZM97.8659 41.124C97.8659 41.6556 98.2558 41.7973 99.2835 41.6556C99.567 41.6201 99.7087 41.691 99.567 41.8328C99.3189 42.0808 98.2203 42.3289 96.8736 42.4352C96.6255 42.4707 96.5192 42.7542 96.661 43.144C96.7673 43.4984 96.661 43.7819 96.4484 43.7819C96.2357 43.7819 96.1294 43.6402 96.2712 43.463C96.3775 43.2858 96.2003 42.8605 95.8813 42.577C95.3852 42.0454 95.4206 41.9745 96.3775 41.7973C97.1217 41.6556 97.4052 41.4075 97.2634 41.0886C97.1571 40.805 97.2635 40.5924 97.4761 40.5924C97.6887 40.5924 97.8659 40.8405 97.8659 41.124ZM115.231 40.7342C115.231 41.124 114.558 41.2657 114.345 40.9468C114.239 40.7696 114.381 40.5924 114.664 40.5924C114.983 40.5924 115.231 40.6633 115.231 40.7342ZM30.8856 41.1949C31.24 40.8759 31.2755 40.8759 31.0983 41.1949C30.9565 41.4784 31.0274 41.6556 31.2755 41.6556C32.0551 41.6556 31.3109 42.0808 29.9997 42.3644C29.0074 42.577 28.7593 42.577 29.0783 42.258C29.5744 41.7619 29.5744 41.1949 29.0428 41.5138C28.7947 41.6556 28.7593 41.6201 28.9011 41.3721C29.0783 41.0885 29.3618 41.0531 29.787 41.3012C30.2123 41.5138 30.5667 41.4784 30.8856 41.1949ZM87.4113 41.5847C87.305 41.691 87.0215 41.5847 86.7734 41.3366C86.4545 40.9822 86.4899 40.9468 86.986 41.1594C87.3404 41.2657 87.5177 41.4784 87.4113 41.5847ZM104.599 41.3012C104.599 41.4784 104.422 41.6556 104.21 41.6556C104.032 41.6556 103.961 41.4784 104.068 41.3012C104.174 41.0885 104.351 40.9468 104.458 40.9468C104.529 40.9468 104.599 41.0885 104.599 41.3012ZM86.3836 42.0808C86.4899 42.8251 85.9938 43.2149 85.4267 42.8605C85.1432 42.7188 85.1786 42.5416 85.4976 42.3289C85.8874 42.0809 85.852 42.01 85.3913 42.01C85.0369 42.01 84.7534 41.8682 84.7534 41.691C84.7534 41.124 86.2773 41.4784 86.3836 42.0808ZM69.1601 42.1517C69.1601 42.2226 68.912 42.4707 68.6285 42.7188C68.1678 43.1086 68.1323 43.0731 68.3095 42.577C68.4867 42.0808 69.1601 41.7619 69.1601 42.1517ZM83.6902 42.3644C83.9737 42.5416 84.1155 42.7542 84.0092 42.8605C83.9029 42.9668 83.513 42.8251 83.1232 42.5416C82.379 41.9745 82.8397 41.8328 83.6902 42.3644ZM33.012 42.7188C33.012 42.8959 32.7639 42.9668 32.4804 42.8605C32.1969 42.7188 31.9488 42.577 31.9488 42.5061C31.9488 42.4352 32.1969 42.3644 32.4804 42.3644C32.7639 42.3644 33.012 42.5061 33.012 42.7188ZM93.436 42.7188C93.3297 42.8959 92.9398 43.0732 92.6209 43.0377C92.1247 43.0377 92.1602 42.9668 92.7272 42.7188C93.3651 42.4589 93.6014 42.4589 93.436 42.7188ZM66.6793 44.03C66.6793 44.1009 66.3604 43.9946 65.9351 43.7819C65.5453 43.5339 64.9783 43.463 64.6948 43.5693C64.4112 43.6756 64.1986 43.6047 64.1986 43.463C64.1986 42.8605 65.0845 42.8251 65.8997 43.3567C66.3249 43.6402 66.6793 43.9237 66.6793 44.03ZM82.5207 43.4275C82.6625 43.8528 82.627 43.8882 82.3435 43.463C82.1309 43.1795 81.741 43.0732 81.3867 43.1795C81.0323 43.3212 80.8905 43.2858 81.0323 43.0377C81.3512 42.5416 82.3435 42.7896 82.5207 43.4275ZM99.6733 43.1795C99.4607 43.463 99.3544 43.7819 99.4607 43.9237C99.567 44.03 99.4252 43.9591 99.2126 43.7819C98.8582 43.463 98.8582 43.3212 99.2835 43.0731C100.028 42.6124 100.134 42.6479 99.6733 43.1795ZM106.832 43.2503C106.726 43.5693 106.549 43.7465 106.478 43.6402C106.371 43.5339 106.407 43.3212 106.549 43.1086C106.868 42.5416 107.08 42.6479 106.832 43.2503ZM26.1013 43.463C26.2431 43.6756 26.562 43.7465 26.8456 43.6402C27.4835 43.3921 28.4049 43.7465 28.4049 44.2072C28.4049 44.4553 28.2277 44.4198 27.9087 44.1718C27.5543 43.8882 27.2354 43.9237 26.5975 44.4198C25.8178 45.0223 23.3725 45.5185 23.9041 44.9514C24.0458 44.8451 23.975 44.5262 23.7624 44.2781C23.4434 43.8883 23.5497 43.7111 24.1876 43.463C25.3217 43.0023 25.8533 43.0023 26.1013 43.463ZM85.1078 43.4275C85.1078 43.6047 84.7534 43.7819 84.3281 43.7819C83.6547 43.7819 83.6193 43.711 84.0446 43.4275C84.7179 42.9668 85.1078 42.9668 85.1078 43.4275ZM89.5377 43.4275C89.4314 43.6047 89.0415 43.7819 88.7226 43.7819C88.191 43.7819 88.191 43.711 88.6517 43.4275C89.3605 42.9668 89.8212 42.9668 89.5377 43.4275ZM127.848 43.6047C127.493 43.8882 126.997 43.9946 126.784 43.8883C126.572 43.7465 126.784 43.5339 127.281 43.3921C128.556 43.0377 128.592 43.0377 127.848 43.6047ZM92.0184 43.7819C91.9121 43.9591 91.6286 44.1363 91.4514 44.1363C91.2388 44.1363 91.2033 43.9591 91.3097 43.7819C91.416 43.5693 91.6995 43.4275 91.8767 43.4275C92.0893 43.4275 92.1248 43.5693 92.0184 43.7819ZM95.2788 43.6402C95.1725 43.7465 94.8536 43.7819 94.6055 43.6756C94.322 43.5693 94.4283 43.463 94.8182 43.463C95.208 43.4275 95.4206 43.5339 95.2788 43.6402ZM97.6178 43.9591C97.5115 44.2781 97.3343 44.4553 97.2634 44.349C97.1571 44.2426 97.1926 44.03 97.3343 43.8174C97.6533 43.2503 97.8659 43.3567 97.6178 43.9591ZM101.941 43.7465C102.048 43.9237 102.012 44.1718 101.835 44.2781C101.658 44.3844 101.516 44.2426 101.516 43.9591C101.516 43.3567 101.622 43.2858 101.941 43.7465ZM79.7919 44.1009C79.7919 44.3135 79.6501 44.5262 79.5084 44.6325C79.3312 44.7388 79.1894 44.597 79.1894 44.3135C79.1894 44.03 79.3312 43.7819 79.5084 43.7819C79.6501 43.7819 79.7919 43.9237 79.7919 44.1009ZM105.769 44.9869C105.911 45.3058 105.769 45.4476 105.379 45.3767C105.06 45.3058 104.706 45.2349 104.599 45.2349C104.458 45.1995 105.344 44.5262 105.521 44.4907C105.556 44.4907 105.663 44.7034 105.769 44.9869ZM84.1509 45.5893C84.0091 46.1209 83.832 46.1918 83.5484 45.9083C83.2649 45.6248 83.3004 45.4476 83.6902 45.1995C83.9737 45.0223 84.2572 44.8451 84.2927 44.8451C84.2927 44.8451 84.2572 45.1641 84.1509 45.5893ZM88.7226 45.2704C88.2619 45.7311 88.1201 45.7665 86.986 45.8729C86.419 45.9083 86.419 45.9792 86.8797 46.2627C87.305 46.5462 87.2341 46.6171 86.5254 46.6171C86.0292 46.6171 85.3913 46.4753 85.1078 46.2627C84.5053 45.8728 84.8597 45.6957 86.8088 45.4121C87.4822 45.3413 88.0847 45.1641 88.2264 45.0577C88.3327 44.9514 88.5808 44.8451 88.7935 44.8451C89.0061 44.8451 88.9706 45.0223 88.7226 45.2704ZM111.333 45.6602C111.333 45.8729 111.227 45.9083 111.085 45.802C110.978 45.6602 110.695 45.6957 110.482 45.9083C110.234 46.0855 109.88 46.0855 109.561 45.8374C109.136 45.5539 109.171 45.5185 109.703 45.6957C110.163 45.8374 110.305 45.7665 110.163 45.4121C110.022 45.0577 110.163 44.9869 110.66 45.0932C111.014 45.1995 111.333 45.4476 111.333 45.6602ZM115.054 45.5539C114.948 45.7311 114.7 45.9083 114.487 45.9083C114.31 45.9083 114.168 45.7311 114.168 45.5539C114.168 45.3413 114.416 45.1995 114.735 45.1995C115.019 45.1995 115.16 45.3413 115.054 45.5539ZM116.649 45.5539C116.649 45.7311 116.472 45.9083 116.259 45.9083C116.082 45.9083 116.011 45.7311 116.117 45.5539C116.223 45.3413 116.401 45.1995 116.507 45.1995C116.578 45.1995 116.649 45.3413 116.649 45.5539ZM20.75 45.802C20.8918 45.9792 21.1753 46.0855 21.3525 46.0855C21.8132 46.0855 21.8132 46.7588 21.3525 46.9006C21.1398 46.9715 20.9626 46.8651 20.9626 46.6525C20.9626 46.4399 20.7146 46.2627 20.4311 46.2627C20.1475 46.2627 19.8995 46.0855 19.8995 45.9083C19.8995 45.483 20.3602 45.4476 20.75 45.802ZM23.7978 45.6957C23.7978 45.7665 23.5142 46.05 23.1953 46.2981C22.6283 46.7588 22.5929 46.7234 23.0536 46.1564C23.5143 45.5893 23.7978 45.4121 23.7978 45.6957ZM78.6224 45.7665C78.5161 45.8728 78.1971 45.9083 77.949 45.802C77.6655 45.6957 77.7719 45.5893 78.1617 45.5893C78.5515 45.5539 78.7641 45.6602 78.6224 45.7665ZM107.541 46.0855C107.435 46.4044 107.257 46.5816 107.186 46.4753C107.08 46.369 107.116 46.1564 107.257 45.9437C107.576 45.3767 107.789 45.483 107.541 46.0855ZM112.644 46.1564C112.325 46.2272 112.148 46.4753 112.254 46.688C112.396 46.936 112.325 46.9715 112.077 46.8297C111.545 46.4753 111.935 45.9083 112.68 45.9437C113.211 45.9792 113.211 46.0146 112.644 46.1564ZM101.658 47.1841C101.552 47.2904 101.233 47.3259 100.985 47.2195C100.701 47.1132 100.807 47.0069 101.197 47.0069C101.587 46.9715 101.8 47.0778 101.658 47.1841ZM78.7287 47.822C78.7287 48.1055 78.1262 48.389 77.063 48.5308C76.1062 48.6726 75.0784 48.8497 74.7595 48.9206C74.4051 48.9915 74.1216 48.8852 74.1216 48.708C74.1216 48.5308 74.6532 48.389 75.2911 48.389C75.929 48.389 76.7795 48.141 77.1694 47.8574C78.0199 47.2195 78.7287 47.1841 78.7287 47.822ZM81.2095 47.9992C81.2095 48.4245 80.4652 48.6726 79.721 48.4599C78.6932 48.2118 78.9768 47.6802 80.1463 47.6802C80.7487 47.6802 81.2095 47.822 81.2095 47.9992ZM23.089 48.389C23.089 48.5662 22.9118 48.7434 22.6992 48.7434C22.522 48.7434 22.4511 48.5662 22.5574 48.389C22.6637 48.1764 22.8409 48.0346 22.9472 48.0346C23.0181 48.0346 23.089 48.1764 23.089 48.389ZM93.2943 48.6726C93.0462 48.7434 92.6563 48.6371 92.4791 48.4599C92.1956 48.1764 92.3374 48.141 92.9399 48.2827C93.4006 48.4245 93.5778 48.5662 93.2943 48.6726ZM14.052 49.8066C13.9457 49.9484 14.1583 50.0192 14.5127 49.9129C14.8671 49.8421 15.3632 50.0192 15.6113 50.3028C16.1783 50.9761 15.6467 51.047 14.9734 50.4091C14.6544 50.161 14.5835 50.161 14.6899 50.3736C15.0088 50.9407 14.0519 51.2596 13.0951 50.9052C12.4572 50.6926 12.4217 50.5863 12.9179 50.4091C13.2723 50.2673 13.5204 49.9129 13.5204 49.6294C13.5204 49.3105 13.6976 49.1687 13.8748 49.275C14.0874 49.4168 14.1583 49.6294 14.052 49.8066ZM73.2356 49.9838C74.0153 49.9484 74.3697 49.9838 74.0153 50.0547C73.6963 50.161 73.4837 50.3736 73.6254 50.5508C73.7318 50.728 73.6963 50.8698 73.5191 50.8344C73.3773 50.7989 73.1647 50.8343 73.0584 50.8698C72.9521 50.9052 72.1724 51.0115 71.3573 51.0824C70.2941 51.2242 69.8689 51.1533 70.0461 50.9052C70.1524 50.6926 70.5068 50.5154 70.7903 50.5154C71.0738 50.5154 71.251 50.4091 71.251 50.2319C71.1447 49.6294 71.3219 49.3105 71.5699 49.6649C71.7117 49.9129 72.4559 50.0547 73.2356 49.9838ZM80.607 49.6649C80.9968 50.0547 80.5007 50.5154 79.9691 50.3028C79.6856 50.161 79.5438 49.9484 79.6501 49.7712C79.8628 49.3813 80.288 49.3459 80.607 49.6649ZM88.2619 50.0547C87.9429 50.4091 87.9784 50.5154 88.3327 50.5508C88.6163 50.5508 88.51 50.6926 88.1201 50.8344C87.1278 51.2596 86.3127 50.5863 87.0924 49.9838C87.9429 49.3813 88.758 49.4168 88.2619 50.0547ZM17.3124 50.6217C17.3478 51.0115 17.3478 51.2596 17.3124 51.1887C17.2415 51.1179 17.0289 50.7989 16.7808 50.48C16.4618 50.0547 16.4618 49.9129 16.8162 49.9129C17.0643 49.9129 17.3124 50.2319 17.3124 50.6217ZM75.7518 50.3382C75.362 50.6217 74.7949 50.8698 74.5114 50.8344C74.1925 50.8344 74.4406 50.5863 75.0076 50.3382C76.3897 49.7003 76.6023 49.7003 75.7518 50.3382ZM21.317 50.5154C21.317 50.6926 21.1753 50.8698 20.9981 50.8698C20.7854 50.8698 20.5374 50.6926 20.4311 50.5154C20.3247 50.3028 20.4665 50.161 20.75 50.161C21.069 50.161 21.317 50.3028 21.317 50.5154ZM60.9381 50.5863C61.5406 51.1887 61.4697 51.5786 60.761 51.5786C60.2294 51.5786 60.194 51.5077 60.6547 51.2242C61.1154 50.9407 61.0799 50.8698 60.5838 50.8698C60.2294 50.8698 59.9459 50.6926 59.9459 50.5154C59.9459 50.0192 60.4066 50.0547 60.9381 50.5863ZM77.0985 50.7989C77.2048 50.9761 77.0985 51.1179 76.8504 51.1179C76.6023 51.1179 76.0353 51.2242 75.5392 51.3659L74.6532 51.614L75.5392 51.0824C76.5669 50.4445 76.8504 50.4091 77.0985 50.7989ZM81.8119 50.728C81.7056 50.8343 81.3866 50.8698 81.1385 50.7635C80.855 50.6572 80.9614 50.5508 81.3512 50.5508C81.7411 50.5154 81.9537 50.6217 81.8119 50.728ZM86.171 50.8698C86.171 51.047 86.1001 51.2242 86.0292 51.2242C85.9229 51.2242 85.7457 51.047 85.6394 50.8698C85.5331 50.6572 85.6039 50.5154 85.7811 50.5154C85.9938 50.5154 86.171 50.6572 86.171 50.8698ZM79.9691 51.2242C79.8628 51.4014 79.4729 51.5786 79.154 51.5431C78.6578 51.5431 78.6933 51.4723 79.2603 51.2242C79.8982 50.9643 80.1345 50.9643 79.9691 51.2242ZM12.9888 52.5354C12.7053 52.819 12.4572 53.1733 12.4572 53.3505C12.4572 53.5277 12.2446 53.5986 11.961 53.4923C11.6775 53.386 11.1459 53.4923 10.7915 53.7049C10.3899 53.9648 10.3899 54.0357 10.7915 53.9176C11.2168 53.7758 11.394 53.8467 11.2877 54.1302C11.2168 54.3783 10.9687 54.5555 10.7207 54.52C10.508 54.4492 9.83467 54.7327 9.19677 55.1225C7.81463 55.973 7.49571 56.0085 7.49571 55.3351C7.49571 55.0516 7.85008 54.7681 8.27535 54.6972C8.70062 54.6264 9.26766 54.2365 9.4803 53.7758C10.0119 52.6772 11.0396 51.9684 12.0319 51.933C12.5989 51.933 12.7762 51.7912 12.599 51.4723C12.3863 51.1887 12.4926 51.1887 12.9179 51.5077C13.414 51.933 13.4495 52.0747 12.9888 52.5354ZM60.4775 52.5709C60.3711 52.6772 60.0876 52.5709 59.8395 52.3228C59.5206 51.9684 59.556 51.933 60.0522 52.1456C60.4066 52.2519 60.5838 52.4646 60.4775 52.5709ZM78.1262 53.1379C78.268 53.4569 78.1262 53.5986 77.7364 53.5277C77.4174 53.4569 77.0631 53.386 76.9567 53.386C76.815 53.3505 77.701 52.6772 77.8782 52.6418C77.9136 52.6418 78.0199 52.8544 78.1262 53.1379ZM67.2109 53.7049C67.3173 53.9176 67.1755 53.953 66.892 53.8467C66.2541 53.5986 66.1478 53.3505 66.6439 53.3505C66.8565 53.3505 67.1046 53.4923 67.2109 53.7049ZM65.6162 54.2011C65.6162 54.3074 65.4744 54.4846 65.2618 54.5909C65.0846 54.6972 64.9074 54.6264 64.9074 54.4492C64.9074 54.2365 65.0846 54.0593 65.2618 54.0593C65.4744 54.0593 65.6162 54.1302 65.6162 54.2011ZM11.1814 56.1148C11.2877 56.292 11.146 56.4338 10.8624 56.4338C10.5789 56.4338 10.4372 56.292 10.5435 56.1148C10.6498 55.973 10.7916 55.8313 10.8624 55.8313C10.9333 55.8313 11.0751 55.973 11.1814 56.1148ZM10.0473 56.8236C10.26 57.0362 9.87012 57.1425 8.80694 57.1071C7.92096 57.0717 7.28306 57.178 7.35394 57.3197C7.46026 57.4969 7.35395 57.6033 7.14131 57.6033C6.92868 57.6033 6.8578 57.745 6.96412 57.9576C7.07043 58.1348 6.96409 58.312 6.71601 58.312C6.46794 58.312 5.6883 58.9499 5.01495 59.7296C4.34161 60.5093 3.66823 61.1472 3.52648 61.1472C3.10121 61.1472 3.20752 60.5447 3.70367 60.0131C3.95175 59.7651 4.69601 58.8082 5.33392 57.8868C6.50341 56.2566 6.57427 56.2211 8.09816 56.3274C8.98414 56.3983 9.83468 56.611 10.0473 56.8236ZM61.2571 57.1071C61.1508 57.2134 60.8318 57.2489 60.5838 57.1425C60.3002 57.0362 60.4066 56.9299 60.7964 56.9299C61.1863 56.8945 61.3989 57.0008 61.2571 57.1071ZM57.5714 60.2258C57.7132 60.5802 57.6069 60.6865 57.2879 60.5447C57.0044 60.4384 56.8626 60.2258 56.969 60.0486C57.217 59.6233 57.3588 59.6587 57.5714 60.2258ZM5.51111 60.9346C5.2276 61.6433 4.30617 61.9623 4.30617 61.3244C4.30617 61.0763 4.58966 60.7574 4.94405 60.6865C5.263 60.5802 5.58197 60.5093 5.6174 60.4738C5.65284 60.4738 5.61743 60.651 5.51111 60.9346ZM59.0599 60.7928C59.1662 60.97 59.0245 61.1472 58.7055 61.1472C58.3865 61.1472 58.2448 60.97 58.3511 60.7928C58.4574 60.5802 58.6346 60.4384 58.7055 60.4384C58.7764 60.4384 58.9536 60.5802 59.0599 60.7928Z" fill="#151304"/>
<path fill-rule="evenodd" clip-rule="evenodd" d="M75.1846 19.1516L74.2986 19.6478L75.4326 19.6832C76.3186 19.6832 76.5313 19.5415 76.3895 19.1516C76.2477 18.8681 76.1414 18.6201 76.106 18.6201C76.106 18.6555 75.6807 18.8681 75.1846 19.1516Z" fill="#151304"/>
<path fill-rule="evenodd" clip-rule="evenodd" d="M65.7938 22.5183C65.6875 22.6955 65.7229 22.8727 65.9356 22.8727C66.1128 22.8727 66.3963 22.6955 66.5026 22.5183C66.6089 22.3057 66.5735 22.1639 66.3608 22.1639C66.1836 22.1639 65.9001 22.3057 65.7938 22.5183Z" fill="#151304"/>
<path fill-rule="evenodd" clip-rule="evenodd" d="M52.6806 27.48C52.7869 27.6572 53.035 27.8344 53.2476 27.8344C53.4248 27.8344 53.5666 27.6572 53.5666 27.48C53.5666 27.2674 53.3185 27.1256 52.9995 27.1256C52.716 27.1256 52.5743 27.2674 52.6806 27.48Z" fill="#151304"/>
<path fill-rule="evenodd" clip-rule="evenodd" d="M25.1449 43.6756C25.393 43.782 25.712 43.7465 25.8183 43.6402C25.96 43.5339 25.7474 43.4276 25.3576 43.463C24.9678 43.463 24.8614 43.5693 25.1449 43.6756Z" fill="#151304"/>
<path fill-rule="evenodd" clip-rule="evenodd" d="M112.254 3.62907C113.14 3.80627 113.707 5.15296 112.892 5.15296C112.077 5.15296 112.325 5.75543 113.211 6.03894C114.877 6.57053 115.196 6.53509 115.727 5.79087C116.224 5.08208 116.224 4.97576 115.55 4.33786C115.054 3.87714 114.204 3.59363 113.14 3.55819C112.254 3.48731 111.865 3.52275 112.254 3.62907ZM114.877 4.23154C114.877 4.30242 114.629 4.55049 114.345 4.79857C113.885 5.1884 113.849 5.15296 114.026 4.65681C114.204 4.16066 114.877 3.8417 114.877 4.23154Z" fill="#151304"/>
<path fill-rule="evenodd" clip-rule="evenodd" d="M39.9581 29.5353C40.1708 29.6771 40.348 30.1378 40.3125 30.563C40.3125 30.9883 40.3834 31.3427 40.5606 31.3781C42.049 31.449 42.935 31.3073 42.935 30.9883C42.935 30.7757 42.6515 30.7048 42.3325 30.8111C41.9781 30.9174 41.4466 30.8466 41.1631 30.6694C40.8795 30.4922 40.7732 30.315 40.9504 30.315C41.1276 30.315 41.0567 30.0669 40.8087 29.7834C40.5606 29.4999 40.1708 29.2518 39.9581 29.2518C39.6746 29.2518 39.6746 29.3227 39.9581 29.5353Z" fill="#151304"/>
<path fill-rule="evenodd" clip-rule="evenodd" d="M38.3278 30.3505C38.3278 30.5277 38.505 30.5985 38.6822 30.4922C38.8948 30.3859 39.0366 30.2087 39.0366 30.1024C39.0366 30.0315 38.8948 29.9606 38.6822 29.9606C38.505 29.9606 38.3278 30.1378 38.3278 30.3505Z" fill="#151304"/>
<path fill-rule="evenodd" clip-rule="evenodd" d="M107.435 31.7325C107.116 31.9452 107.081 32.0869 107.329 32.0869C107.541 32.0869 107.86 31.9097 107.967 31.7325C108.25 31.3073 108.108 31.3073 107.435 31.7325Z" fill="#151304"/>
<path fill-rule="evenodd" clip-rule="evenodd" d="M34.5712 34.8513C33.9333 35.0639 33.8624 35.1702 34.2522 35.5246C34.5357 35.8081 34.8193 35.8435 34.961 35.6309C35.0673 35.4537 35.3863 35.3828 35.6698 35.5246C35.9887 35.6309 36.2014 35.4892 36.2014 35.1348C36.2014 34.5323 35.847 34.4969 34.5712 34.8513Z" fill="#151304"/>
<path fill-rule="evenodd" clip-rule="evenodd" d="M30.5313 35.2764C31.2401 35.7371 32.0552 35.7371 31.7717 35.2764C31.6654 35.0638 31.2047 34.922 30.7794 34.922C30.1415 34.922 30.1061 34.9929 30.5313 35.2764Z" fill="#151304"/>
<path fill-rule="evenodd" clip-rule="evenodd" d="M28.5115 36.4461C28.3697 36.6941 27.7673 37.084 27.2003 37.332C26.3497 37.7219 26.2434 37.8636 26.6687 38.1117C26.9168 38.2889 27.4838 38.3598 27.8736 38.2889C28.2635 38.1826 28.3697 38.218 28.1571 38.3243C27.909 38.4307 27.6964 38.6787 27.6964 38.8559C27.6964 39.0686 27.8382 39.1394 28.0154 38.9977C28.1926 38.8914 28.4761 38.9977 28.5824 39.2103C28.7596 39.4584 29.0077 39.3166 29.3621 38.8559C29.6456 38.4307 30.1063 38.1117 30.3898 38.1117C30.7088 38.1117 30.8859 37.8991 30.7796 37.651C30.7088 37.4384 30.4252 37.2612 30.2126 37.332C29.9645 37.3675 29.8937 37.2257 30.0354 37.0131C30.1417 36.8005 30.0354 36.4815 29.7874 36.3043C29.114 35.879 28.8305 35.9145 28.5115 36.4461ZM29.8228 37.9345C29.8228 38.3598 29.1494 38.3598 29.0077 37.9345C28.8659 37.6155 28.9722 37.5092 29.3266 37.651C29.5747 37.7573 29.8228 37.8991 29.8228 37.9345Z" fill="#151304"/>
<path fill-rule="evenodd" clip-rule="evenodd" d="M30.5312 36.1979C30.5312 36.8004 31.488 37.5092 31.7361 37.0839C31.8779 36.9067 31.807 36.6586 31.5943 36.5169C31.4171 36.4105 31.2399 36.4105 31.2399 36.5877C31.2399 36.7295 31.0627 36.6232 30.8856 36.3397C30.7084 36.0561 30.5312 35.9853 30.5312 36.1979Z" fill="#151304"/>
<path fill-rule="evenodd" clip-rule="evenodd" d="M33.012 36.6941C33.012 36.8713 33.2601 37.0484 33.579 37.0484C33.8626 37.0484 34.0043 36.8713 33.898 36.6941C33.7917 36.4814 33.5436 36.3397 33.331 36.3397C33.1538 36.3397 33.012 36.4814 33.012 36.6941Z" fill="#151304"/>
<path fill-rule="evenodd" clip-rule="evenodd" d="M23.6567 40.0962C23.5504 40.3797 23.196 40.4861 22.8416 40.3797C22.4399 40.2616 22.4399 40.3325 22.8416 40.5924C23.6921 41.1594 25.9603 40.7341 25.7122 40.0962C25.4641 39.4583 23.9048 39.4937 23.6567 40.0962Z" fill="#151304"/>
<path fill-rule="evenodd" clip-rule="evenodd" d="M20.077 42.9313C19.51 43.4274 19.191 43.7464 19.4391 43.6401C19.6517 43.4983 19.9707 43.6046 20.077 43.7818C20.2542 44.0299 20.5022 43.959 20.8212 43.5338C21.2819 42.9667 21.3174 42.9667 21.1047 43.4983C20.8212 44.3134 21.9553 44.3843 22.2388 43.6046C22.3805 43.3211 22.6286 43.1794 22.8412 43.3211C23.0539 43.4629 23.0893 43.3566 22.9121 43.0731C22.7704 42.825 22.8412 42.506 23.1248 42.3288C23.4791 42.1162 23.2311 42.0099 22.3805 42.0099C21.53 42.0099 20.7858 42.3288 20.077 42.9313Z" fill="#151304"/>
<path fill-rule="evenodd" clip-rule="evenodd" d="M17.7728 44.1364C17.7728 44.3136 17.95 44.4908 18.1627 44.4908C18.3399 44.4908 18.4107 44.3136 18.3044 44.1364C18.1981 43.9237 18.0209 43.782 17.9146 43.782C17.8437 43.782 17.7728 43.9237 17.7728 44.1364Z" fill="#151304"/>
<path fill-rule="evenodd" clip-rule="evenodd" d="M18.5881 44.5616C17.2414 44.9869 17.0997 45.3767 18.1274 45.6602C18.5173 45.7665 18.8362 45.6956 18.8362 45.5185C18.8362 45.3413 19.0843 45.1995 19.3678 45.1995C19.6513 45.1995 19.8994 44.9514 19.8994 44.6679C19.8994 44.3844 19.8639 44.1363 19.8285 44.1718C19.7576 44.2072 19.1906 44.3844 18.5881 44.5616Z" fill="#151304"/>
<path fill-rule="evenodd" clip-rule="evenodd" d="M16.1788 45.1995C16.2852 45.3767 16.1434 45.5538 15.8599 45.5538C15.5764 45.5538 15.222 45.731 15.0802 45.9791C14.903 46.2626 15.0093 46.2981 15.3992 46.1563C16.6041 45.6956 15.9662 46.2981 14.7258 46.8297C13.8753 47.1841 13.5563 47.503 13.769 47.7156C14.017 47.9637 14.5841 47.7865 15.4701 47.1841C16.1788 46.6879 16.9231 46.369 17.1003 46.4753C17.4547 46.6879 17.5256 46.2272 17.2066 45.4121C17.1003 45.0931 16.7459 44.8451 16.4623 44.8451C16.1788 44.8451 16.0725 44.9868 16.1788 45.1995Z" fill="#151304"/>
<path fill-rule="evenodd" clip-rule="evenodd" d="M123.382 46.2981C123.382 46.4753 123.559 46.5462 123.737 46.4399C123.949 46.3336 124.091 46.1564 124.091 46.0501C124.091 45.9792 123.949 45.9083 123.737 45.9083C123.559 45.9083 123.382 46.0855 123.382 46.2981Z" fill="#151304"/>
<path fill-rule="evenodd" clip-rule="evenodd" d="M15.8239 47.6802C15.7176 47.8574 15.7885 48.0346 15.9657 48.0346C16.1783 48.0346 16.3555 47.8574 16.3555 47.6802C16.3555 47.4676 16.2846 47.3258 16.2137 47.3258C16.1074 47.3258 15.9302 47.4676 15.8239 47.6802Z" fill="#151304"/>
<path fill-rule="evenodd" clip-rule="evenodd" d="M57.1105 48.0701C57.1105 48.2473 57.2877 48.3181 57.4649 48.2118C57.6776 48.1055 57.8193 47.9283 57.8193 47.822C57.8193 47.7511 57.6776 47.6802 57.4649 47.6802C57.2877 47.6802 57.1105 47.8574 57.1105 48.0701Z" fill="#151304"/>
<path d="M97.8658 49.4521C98.0615 49.4521 98.2202 49.2935 98.2202 49.0977C98.2202 48.902 98.0615 48.7433 97.8658 48.7433C97.6701 48.7433 97.5114 48.902 97.5114 49.0977C97.5114 49.2935 97.6701 49.4521 97.8658 49.4521Z" fill="#151304"/>
<path fill-rule="evenodd" clip-rule="evenodd" d="M79.3668 53.5986C79.6149 53.7049 79.9338 53.6694 80.0402 53.5631C80.1819 53.4568 79.9693 53.3505 79.5795 53.3859C79.1896 53.3859 79.0833 53.4922 79.3668 53.5986Z" fill="#151304"/>
<path fill-rule="evenodd" clip-rule="evenodd" d="M1.82546 62.6001C1.82546 62.7773 2.00266 62.8482 2.17986 62.7418C2.39249 62.6355 2.53425 62.4583 2.53425 62.352C2.53425 62.2811 2.39249 62.2103 2.17986 62.2103C2.00266 62.2103 1.82546 62.3874 1.82546 62.6001Z" fill="#151304"/>
</svg>
