<svg width="24" height="24" viewBox="0 0 24 24" fill="none" xmlns="http://www.w3.org/2000/svg">
<path fill-rule="evenodd" clip-rule="evenodd" d="M8.25002 18H15.75V19.5H8.25002V18ZM9.75002 21H14.25V22.5H9.75002V21ZM12 1.5C7.85788 1.5 4.50002 4.85786 4.50002 9C4.39713 11.2112 5.3625 13.3372 7.09502 14.715C7.84502 15.4125 8.25002 15.81 8.25002 16.5H9.75002C9.75002 15.12 8.91752 14.3475 8.10752 13.605C6.68415 12.515 5.89455 10.7897 6.00002 9C6.00002 5.68629 8.68631 3 12 3C15.3137 3 18 5.68629 18 9C18.1037 10.791 17.3112 12.5166 15.885 13.605C15.0825 14.355 14.25 15.105 14.25 16.5H15.75C15.75 15.81 16.1475 15.4125 16.905 14.7075C18.6363 13.3321 19.6017 11.2088 19.5 9C19.5 7.01088 18.7098 5.10322 17.3033 3.6967C15.8968 2.29018 13.9891 1.5 12 1.5Z" fill="#E88427"/>
</svg>
