<svg width="24" height="24" viewBox="0 0 24 24" fill="none" xmlns="http://www.w3.org/2000/svg">
<path fill-rule="evenodd" clip-rule="evenodd" d="M5.466 17.469L11.4637 11.4713L12.5242 12.5318L6.5265 18.5295L5.466 17.469ZM12.75 22.5C12.655 22.5003 12.5608 22.4825 12.4725 22.4475C12.2224 22.3478 12.0449 22.1217 12.0075 21.855L11.2575 16.605L12.7575 16.395L13.32 20.3475L15.75 18.39V12.75C15.7488 12.5507 15.8271 12.3591 15.9675 12.2175L19.02 9.16505C20.2904 7.90322 21.0034 6.18565 21 4.39505V3.00005H19.605C17.8144 2.99664 16.0968 3.7096 14.835 4.98005L11.7825 8.03255C11.641 8.17294 11.4493 8.2512 11.25 8.25005H5.61L3.6525 10.695L7.605 11.2575L7.395 12.7575L2.145 12.0075C1.87834 11.9701 1.65221 11.7927 1.5525 11.5425C1.45152 11.2906 1.49455 11.0038 1.665 10.7925L4.665 7.04255C4.80497 6.86068 5.02051 6.75291 5.25 6.75005H10.9425L13.77 3.91505C15.314 2.3624 17.4154 1.49267 19.605 1.50005H21C21.8284 1.50005 22.5 2.17162 22.5 3.00005V4.39505C22.5074 6.58468 21.6376 8.68608 20.085 10.23L17.25 13.0575V18.75C17.2489 18.9782 17.144 19.1936 16.965 19.335L13.215 22.335C13.083 22.4409 12.9192 22.4991 12.75 22.5Z" fill="#D34D51"/>
</svg>
