<svg width="133" height="68" viewBox="0 0 133 68" fill="none" xmlns="http://www.w3.org/2000/svg">
<path fill-rule="evenodd" clip-rule="evenodd" d="M9.93673 66.5326C9.47602 65.9656 9.54692 65.9301 10.3975 66.1428C10.9291 66.2845 12.0277 66.2845 12.7719 66.1782C14.0123 65.9656 14.1186 65.8947 13.6933 65.434C12.9845 64.7606 13.02 64.5125 13.7642 64.9024C14.1186 65.0796 14.6502 65.1505 14.9337 65.0796C15.3944 64.9378 15.3944 64.9733 14.9337 65.3277C14.5084 65.682 14.5793 65.682 15.2881 65.5048C15.7842 65.3631 16.6348 65.2568 17.2372 65.2922C18.1586 65.2922 18.1941 65.2568 17.5916 64.9733C17.2018 64.7961 17.0246 64.6543 17.2018 64.6543C17.4144 64.6189 17.2372 64.4062 16.8828 64.1227C16.493 63.8392 16.3158 63.4139 16.4576 63.095C16.5639 62.776 16.493 62.4571 16.2449 62.3508C15.9969 62.2799 16.1032 62.1736 16.493 62.1736C16.9892 62.1381 17.0601 62.0318 16.7765 61.6774C16.3867 61.2167 17.06 60.9686 18.6548 61.0395C19.0446 61.0395 19.718 61.0749 20.1078 61.0749C20.6748 61.0749 20.9229 61.3585 21.0293 62.1381C21.1356 62.9178 21.0293 63.2013 20.6749 63.2013C19.6826 63.2013 20.4268 63.5202 21.7735 63.6974C22.4823 63.7683 23.0847 63.6974 23.0847 63.5557C23.0847 63.3785 23.3328 63.3431 23.6872 63.4494C24.1125 63.6266 24.1833 63.5557 23.9707 63.2013C23.7581 62.8469 23.8289 62.776 24.2897 62.9532C24.9276 63.2013 25.6718 62.6697 25.849 61.8546C25.9199 61.5356 25.7072 61.4648 25.2465 61.6065C24.7858 61.7483 24.5377 61.6065 24.4314 61.1458C24.2897 60.5788 24.4314 60.4725 25.1756 60.4725C25.6718 60.4725 26.2743 60.7205 26.5223 61.0395C26.8059 61.4293 26.9476 61.4648 26.983 61.1458C26.983 60.8623 27.2665 60.7914 27.869 60.9332C28.3297 61.0395 29.2512 60.9686 29.8891 60.756C30.9523 60.4016 30.9877 60.437 30.3498 60.8977C29.9599 61.1813 29.4638 61.5356 29.2866 61.7128C29.0739 61.89 28.7196 61.9609 28.4715 61.8546C28.2589 61.7837 28.0462 61.89 28.0462 62.1381C28.0462 62.3508 27.869 62.4216 27.6918 62.3153C27.4792 62.1736 27.4438 61.89 27.5855 61.6774C27.7273 61.4293 27.5146 61.5002 27.1248 61.7837C26.7704 62.0672 26.3806 62.3153 26.3451 62.3508C26.2743 62.3862 26.5578 62.6343 26.983 62.8469C27.5501 63.1659 27.869 63.1659 28.2234 62.8469C28.5069 62.5988 28.8613 62.5279 29.0385 62.6343C29.2512 62.7406 29.4638 62.4925 29.5701 62.1027C29.7473 61.4648 29.9599 61.3585 30.8105 61.5356C32.1572 61.8192 33.6102 61.4648 32.9369 61.0395C32.6179 60.8269 32.7242 60.7205 33.2912 60.7205C33.7874 60.7205 34.0355 60.8623 33.8583 61.1104C33.6102 61.5711 35.0986 61.2167 35.6302 60.6851C36.1264 60.2244 35.2049 59.3384 34.4253 59.551C34.0355 59.6574 33.7165 59.551 33.7165 59.3384C33.7165 59.1258 34 58.9486 34.319 58.9486C34.8151 58.9486 34.8505 58.8777 34.4607 58.5233C34.1063 58.1335 33.9292 58.1689 33.6102 58.6296C32.9723 59.4447 32.0508 59.6928 31.8028 59.1258C31.6964 58.8423 31.7673 58.5233 31.98 58.417C32.1572 58.2752 32.228 58.0626 32.1572 57.9208C32.0508 57.8145 32.2989 57.6728 32.6533 57.6728C33.1495 57.6728 33.2204 57.7791 32.9369 58.1335C32.5116 58.6651 33.0431 58.7714 33.5747 58.2398C33.7874 58.0272 34.319 58.0272 34.9569 58.2044C35.5593 58.3815 35.8074 58.5587 35.5239 58.5587C35.1341 58.5942 35.1341 58.7005 35.4885 59.1258C35.9492 59.6574 36.7288 59.87 36.4099 59.3738C36.3036 59.2321 36.7288 58.9131 37.2959 58.7005C38.1818 58.3461 38.3945 58.3815 38.678 58.9486C38.9615 59.4802 38.8906 59.551 38.359 59.4093C37.8983 59.303 37.5439 59.4802 37.2959 59.9763C36.906 60.6497 36.9415 60.6851 38.0401 60.2953C39.7766 59.7282 39.9538 59.4093 38.997 58.6296C38.5363 58.2398 38.2173 57.8854 38.3236 57.8854C39.0678 57.7082 40.3791 57.7436 40.2373 57.9208C39.9893 58.3107 41.2651 58.6296 41.6195 58.2752C41.7967 58.098 42.1511 58.0272 42.3991 58.1335C42.6826 58.2044 43.1788 58.1335 43.5332 57.9563C43.8876 57.7436 44.4192 57.7082 44.7027 57.8854C45.0216 58.0626 45.9785 57.8145 47.1834 57.2829C48.2466 56.7868 48.92 56.3261 48.6719 56.2198C48.4238 56.1134 47.9631 56.2552 47.6087 56.5033C47.2307 56.7868 47.2307 56.7159 47.6087 56.2906C48.1049 55.759 48.3884 55.7236 49.0263 56.0071C49.487 56.1843 50.1603 56.2552 50.5502 56.1134C50.94 55.9717 51.9323 55.6173 52.7829 55.3692C53.6334 55.1211 54.1295 54.8376 53.8815 54.6959C53.6688 54.5541 53.9524 54.3769 54.5548 54.2706C55.2991 54.1643 55.5471 54.2706 55.4408 54.5541C55.3699 54.8022 55.4762 55.0857 55.7243 55.2629C56.0078 55.4047 56.0787 55.3692 55.9015 55.1211C55.7597 54.8731 55.8306 54.6959 56.0433 54.6959C56.2559 54.6959 56.3268 54.5541 56.2205 54.3415C56.0787 54.1288 56.4685 53.9871 57.1064 53.9871C57.7089 53.9871 58.1342 53.8453 58.0279 53.7036C57.9215 53.5264 58.3468 53.4555 58.9847 53.5264C59.6226 53.5972 59.9062 53.5264 59.6581 53.42C59.4455 53.3137 59.2328 53.0657 59.2328 52.8885C59.2328 52.6758 59.5517 52.7113 59.977 52.9593C60.5795 53.2429 60.7921 53.2429 61.0048 52.9239C61.1465 52.6758 61.5009 52.6049 61.749 52.7113C62.0325 52.853 61.9616 52.7467 61.6073 52.4632C60.9693 51.9316 60.9693 51.8962 61.6781 51.5418C62.5641 51.0456 63.1311 51.0456 62.4223 51.5063C61.4655 52.1088 63.5564 51.9316 64.7259 51.2937C65.2929 50.9747 66.2498 50.5849 66.8522 50.4431C67.7382 50.1951 67.7737 50.1596 67.1003 50.1242C66.6396 50.0888 66.3915 49.947 66.4979 49.7344C66.6396 49.5217 67.0294 49.4508 67.3838 49.5572C67.7737 49.6635 68.4116 49.5926 68.8368 49.38C69.3684 49.0965 69.5102 49.061 69.3684 49.3445C68.9786 49.947 69.4039 49.8052 71.1404 48.8484C72.0264 48.3522 72.9478 47.9624 73.2313 47.9624C73.5148 47.9624 73.7629 47.8206 73.7629 47.6434C73.7629 47.3599 74.7198 46.9347 75.7121 46.7575C75.8893 46.722 76.031 46.5094 75.9956 46.3322C75.9602 46.1195 76.2437 45.9778 76.669 45.9778C77.2714 46.0132 77.6613 45.6234 78.2637 44.4893C78.2992 44.4185 78.5826 44.4893 78.937 44.702C79.3269 44.9146 79.8585 44.8792 80.5318 44.5248C81.7722 43.9223 81.8431 43.3553 80.7445 43.3198C80.1775 43.2844 80.142 43.2135 80.5673 43.1072C80.8862 43.0363 81.4533 43.1072 81.8431 43.3198C82.3392 43.5679 82.6936 43.5325 83.2252 43.1781C83.6151 42.8946 84.0403 42.7883 84.1821 42.8946C84.2884 43.0009 84.3947 42.9655 84.3947 42.7883C84.3947 42.5756 84.2175 42.2567 83.9694 42.0086C83.6859 41.7251 83.6859 41.477 84.0403 41.0517C84.3593 40.6619 84.3593 40.5201 84.0757 40.5201C83.8277 40.5201 83.7214 40.3784 83.8631 40.1658C83.9694 39.9886 84.2884 39.9177 84.5719 40.024C84.9263 40.1658 84.9972 40.4493 84.7491 41.0872C84.3593 42.0795 84.8909 42.2212 85.9186 41.4061C86.3084 41.1581 86.8046 41.0163 87.0526 41.0872C87.3007 41.1935 87.726 41.0517 87.9741 40.8037C88.2576 40.5556 88.7892 40.2721 89.179 40.2366C89.5688 40.1657 89.9233 39.9531 89.9941 39.7759C90.065 39.5987 90.5966 39.457 91.1636 39.457C92.3331 39.457 92.4394 39.138 91.5535 38.1812C91.0928 37.685 90.4548 37.5078 89.0727 37.5078C88.0095 37.5078 87.0881 37.4015 86.9818 37.2243C86.9109 37.0825 86.6628 37.0471 86.4856 37.1534C86.3084 37.2952 86.1667 37.2243 86.1667 37.0825C86.1667 36.4092 88.1158 35.6295 89.0018 35.9485C89.5688 36.1611 89.6279 36.0784 89.179 35.7004C88.7301 35.3224 88.7538 35.2161 89.2499 35.3815C89.8524 35.5232 90.065 35.4523 90.065 35.0979C90.065 34.8144 90.5257 34.3892 91.1282 34.1411C91.6952 33.893 92.1913 33.574 92.1913 33.3968C92.1913 33.0425 93.9633 33.1842 94.6367 33.574C94.9911 33.8221 95.0265 33.7158 94.7075 33.1488C94.424 32.5817 94.4241 32.3337 94.743 32.1565C94.9911 32.0147 95.0974 32.0502 94.9202 32.1919C94.7784 32.3691 94.9202 32.7589 95.2391 33.1133C96.3377 34.3183 95.3455 34.779 91.4117 34.8499C90.7384 34.8853 90.5257 35.0271 90.632 35.3815C90.8801 35.9485 91.7661 36.3383 92.2268 36.0548C92.404 35.9485 92.8293 36.1257 93.1482 36.4446C93.4672 36.7636 93.8216 36.9053 93.9279 36.7281C94.3177 36.1611 96.0542 35.5586 96.2669 35.913C96.4086 36.1257 96.6922 36.2674 96.9048 36.2674C97.1529 36.2674 97.1174 36.1257 96.7985 35.913C96.3732 35.6295 96.3732 35.5586 96.8694 35.3815C97.2238 35.2397 97.649 35.2397 97.8616 35.3815C98.0743 35.5232 98.1806 35.4169 98.1452 35.1688C98.0743 34.8853 98.6059 34.6372 99.5627 34.4955C100.909 34.2828 102.504 33.4323 101.547 33.4323C101.335 33.4323 100.803 33.1133 100.342 32.7235C99.8817 32.3337 99.3501 32.0147 99.1374 32.0147C98.9248 32.0147 98.9603 32.1565 99.2438 32.3337C99.6691 32.6172 99.669 32.7589 99.3146 33.2197C99.0666 33.5386 98.7122 33.6804 98.535 33.574C98.3578 33.4677 98.216 33.6449 98.216 33.9993C98.216 34.4246 98.0034 34.5309 97.401 34.3537C96.9757 34.2474 96.4795 34.1411 96.3378 34.1411C96.1606 34.1411 96.1251 33.9993 96.2314 33.8221C96.3378 33.6449 96.196 33.3968 95.877 33.2905C95.3809 33.1133 95.4518 32.9361 96.2314 32.3337C96.9757 31.7312 97.082 31.4831 96.763 31.0933C96.515 30.8098 96.4441 30.4908 96.5858 30.3491C96.6921 30.2427 96.7985 30.3136 96.7985 30.5617C96.7985 30.8807 97.0111 30.9515 97.401 30.7743C98.2161 30.4554 99.5627 30.2073 100.768 30.1364C101.335 30.101 101.689 29.9238 101.618 29.7112C101.547 29.534 101.016 29.3922 100.378 29.4276C99.3855 29.4631 99.3147 29.3922 99.7045 28.8961C100.094 28.4353 100.059 28.3999 99.3855 28.7543C98.3932 29.2859 98.3224 29.2859 98.3224 28.648C98.3224 28.2582 98.6413 28.1873 99.5273 28.2936C100.413 28.3999 100.697 28.2936 100.697 27.9038C100.697 27.443 100.768 27.443 101.264 27.9392C101.725 28.3645 101.937 28.3999 102.114 28.081C102.292 27.8683 102.646 27.762 102.965 27.8683C103.567 28.1164 105.056 26.9469 104.701 26.5571C104.56 26.4507 105.056 26.3444 105.765 26.3444C106.686 26.3444 107.005 26.2027 106.863 25.8837C106.757 25.5293 107.005 25.3876 107.714 25.3876C108.423 25.3876 109.167 24.9623 110.23 23.9346C111.754 22.4461 112.392 22.1272 112.392 22.8005C112.392 23.0131 112.675 22.9777 113.065 22.7296C113.88 22.2335 113.88 21.6664 113.101 21.312C112.782 21.1703 113.171 21.064 113.987 21.0285C115.404 20.9931 115.262 20.7805 113.349 20.178C112.994 20.0717 112.782 19.8236 112.923 19.611C113.03 19.3983 113.632 19.5401 114.412 19.9654C115.369 20.4615 115.794 20.5678 115.971 20.2489C116.113 20.0008 116.148 19.6818 116.077 19.5401C115.971 19.3983 116.148 19.3629 116.467 19.4692C116.786 19.611 117.389 19.3983 117.814 19.0439C118.239 18.6895 118.381 18.6187 118.133 18.9022C117.92 19.1857 117.708 19.5401 117.708 19.7173C117.708 19.8945 117.885 19.8945 118.133 19.7173C118.381 19.5046 118.913 19.3983 119.267 19.4692C120.047 19.5755 121.571 18.5832 121.606 17.9453C121.606 17.6972 121.854 17.5909 122.208 17.7327C122.563 17.8744 122.705 17.8036 122.563 17.5909C122.421 17.3783 122.705 17.0948 123.201 16.9884C123.697 16.8467 124.087 16.5277 124.087 16.2088C124.087 15.9253 123.91 15.7835 123.732 15.8898C123.52 15.9962 123.378 16.0316 123.378 15.9607C123.378 15.8544 123.945 15.4646 124.618 15.0393C125.292 14.6495 126.036 13.9052 126.213 13.4091C126.39 12.9129 126.745 12.5231 126.993 12.5231C127.56 12.5231 129.792 10.0424 129.544 9.65252C129.438 9.47532 129.58 9.22725 129.863 9.12093C130.501 8.87286 132.415 5.43525 131.919 5.43525C131.706 5.43525 131.529 5.577 131.529 5.7542C131.529 6.07315 129.686 6.5693 129.438 6.32123C129.367 6.25035 129.58 5.89596 129.899 5.577C130.253 5.25805 130.43 4.7619 130.324 4.47838C130.182 4.15943 130.253 4.08854 130.537 4.2303C130.82 4.4075 130.856 4.30119 130.678 3.84048C130.537 3.41521 130.678 2.95449 131.175 2.52922C131.919 1.82043 131.954 0.934449 131.21 1.07621C130.997 1.14709 130.82 1.04077 130.82 0.863569C130.82 0.190222 129.155 1.4306 126.922 3.80504C125.646 5.11629 124.335 6.49842 123.945 6.81738C123.591 7.13633 122.882 7.7388 122.386 8.19951C121.89 8.62478 120.614 9.75884 119.515 10.6803C118.452 11.6017 117.212 12.7003 116.786 13.0901C116.326 13.5154 115.936 13.8344 115.865 13.7635C115.794 13.6926 115.546 13.8698 115.298 14.1533C115.05 14.4368 114.979 14.6495 115.121 14.6495C115.44 14.6495 113.349 15.9607 110.726 17.3428C109.698 17.8744 108.777 18.5478 108.706 18.7959C108.458 19.3983 108.919 19.3983 109.521 18.8313C109.876 18.4415 109.911 18.4769 109.734 18.9376C109.592 19.292 108.99 19.6464 108.387 19.7527C106.438 20.1071 106.225 20.178 106.084 20.6033C106.013 20.8513 105.729 21.0285 105.446 21.0285C105.162 21.0285 104.949 21.2057 104.949 21.4184C104.949 21.5956 104.772 21.6664 104.595 21.5601C104.382 21.4538 104.17 21.5601 104.064 21.8082C103.957 22.0917 103.567 22.3043 103.178 22.3398C102.54 22.4107 101.406 23.2258 101.406 23.6156C101.406 23.7219 102.079 23.7219 102.894 23.6156C103.993 23.4384 104.276 23.5093 104.099 23.8282C103.922 24.0763 103.461 24.2181 103.071 24.1826C102.646 24.1826 102.221 24.1826 102.114 24.2181C102.008 24.2535 101.37 24.3598 100.697 24.4661C98.9957 24.6788 95.1683 26.4862 94.9202 27.195C94.7784 27.5494 94.4949 27.6557 94.1051 27.5139C93.7152 27.3722 93.5735 27.443 93.7153 27.6557C93.857 27.8683 93.7152 28.1518 93.3963 28.2581C92.971 28.4353 92.8647 28.329 93.0419 27.8683C93.2545 27.3722 93.1837 27.3367 92.8647 27.6557C92.2268 28.2936 92.8293 28.8252 94.0696 28.6125L95.2037 28.4353L94.3177 28.9315C93.7507 29.2859 93.2545 29.3568 92.8293 29.1441C92.5103 28.9669 91.9433 28.8252 91.5889 28.8252C91.0927 28.8606 91.1282 28.9669 91.837 29.3568C92.8647 29.9592 92.6166 30.0301 91.3408 29.534C90.7738 29.3213 90.4194 29.3213 90.4194 29.534C90.4194 29.7112 90.2068 29.782 89.9587 29.7112C89.7461 29.6048 89.0373 29.6757 88.4702 29.8529C87.8678 30.0301 87.6551 30.2073 87.9386 30.2428C88.6474 30.3136 85.4933 31.3059 84.501 31.3059C84.0758 31.3059 83.1543 31.6249 82.481 32.0501C81.8076 32.44 81.0989 32.6881 80.9217 32.5817C80.7445 32.4754 80.2838 32.6881 79.9294 33.007C79.575 33.3614 78.9725 33.574 78.5826 33.5032C78.2283 33.4323 78.0156 33.5032 78.1574 33.7158C78.2637 33.893 78.1219 34.1411 77.8384 34.2828C77.5549 34.3891 77.236 34.3183 77.1296 34.1411C77.0233 33.9639 76.669 33.9284 76.35 34.0348C75.8538 34.2474 75.8538 34.3183 76.4563 34.7435C77.0588 35.1688 77.0588 35.2043 76.4563 35.2043C76.1019 35.2043 75.9601 35.3814 76.1019 35.5941C76.2437 35.8422 76.1374 35.9485 75.8538 35.8422C75.5703 35.7358 75.3931 35.4523 75.464 35.2397C75.4995 35.027 75.3931 34.8499 75.1805 34.8499C75.0033 34.8499 74.8261 35.027 74.8261 35.2397C74.8261 35.4523 74.6135 35.5586 74.3654 35.4523C73.7629 35.2397 71.9909 36.1965 71.9909 36.7281C71.9909 37.0471 71.9201 37.0471 71.7075 36.7281C71.4239 36.2674 69.8646 36.4801 69.8646 36.9762C69.8646 37.118 69.652 37.2597 69.4039 37.2243C68.199 37.1888 67.3838 37.3661 67.3838 37.685C67.3838 37.8622 67.6674 37.8976 67.9863 37.7913C68.5179 37.5787 68.5533 37.6141 68.0926 38.1103C67.7737 38.4647 67.4193 38.571 67.2066 38.3583C66.5687 37.7204 63.8399 38.3938 63.8399 39.2089C63.8399 39.3861 64.088 39.3506 64.3715 39.1026C64.7259 38.7836 64.9031 38.7836 64.9031 39.0671C64.9031 39.2798 64.7968 39.457 64.6196 39.4924C63.4855 39.5987 62.5641 39.8822 62.4932 40.1658C62.4224 40.3784 62.1034 40.5201 61.7845 40.5201C61.2529 40.5201 61.2528 40.4493 61.7135 40.1658C62.1388 39.8822 62.1034 39.8114 61.4655 39.8114C61.0402 39.8114 60.5795 39.9886 60.4732 40.1658C60.3669 40.3784 59.8353 40.5201 59.3037 40.5201C58.4532 40.5201 58.4177 40.5556 59.0556 40.9809C59.6226 41.4061 59.41 41.477 57.4963 41.3707C55.5825 41.2998 55.3699 41.3707 55.7243 41.8314C56.1141 42.2567 56.0787 42.3275 55.4762 42.2212C55.051 42.1504 54.8383 42.2921 54.9092 42.6111C54.9801 43.0009 54.9092 43.0363 54.5194 42.7174C54.2359 42.4693 53.9169 42.3984 53.8106 42.5047C53.7043 42.6465 52.8183 42.7883 51.8969 42.8237C50.9755 42.8946 49.9831 42.93 49.6996 42.9655C49.4515 43.0009 49.3098 43.2135 49.4161 43.497C49.5579 43.8514 49.4161 43.9932 48.9554 43.9578C48.601 43.9223 48.2112 43.6034 48.1048 43.249C47.9985 42.7883 48.1049 42.6465 48.4238 42.7883C48.7073 42.8946 49.0617 42.7883 49.2035 42.5402C49.3807 42.2921 50.1604 41.796 50.9755 41.4061C51.826 40.9809 52.2867 40.591 52.0386 40.4493C51.826 40.3075 52.1095 40.1303 52.712 39.9886C54.4839 39.5987 54.6257 39.4924 54.4131 38.9254C54.2004 38.3938 54.6612 38.0748 55.937 37.8976C56.6103 37.7913 57.071 36.6218 56.4331 36.6218C56.2204 36.6218 56.0433 36.4446 56.0433 36.232C56.0433 36.0194 56.3622 35.913 56.752 36.0194C57.1419 36.1257 57.4608 36.0548 57.4608 35.8422C57.4608 35.665 57.6026 35.5941 57.7798 35.7358C57.957 35.8422 58.2051 35.7713 58.3468 35.5586C58.4886 35.346 58.7367 35.3106 58.9493 35.4169C59.1974 35.5586 59.2328 35.4878 59.091 35.2751C58.9493 35.0271 59.0202 34.8499 59.1974 34.8499C59.41 34.8499 59.5872 34.6372 59.5872 34.3537C59.5872 34.0702 59.9061 33.7158 60.296 33.6095C61.1111 33.3614 61.2174 32.8653 60.5441 32.5817C60.3314 32.4754 60.5795 32.4754 61.1111 32.6172C61.9262 32.7589 62.1388 32.6881 62.316 32.0501C62.4224 31.6603 62.5995 31.3768 62.7413 31.4477C62.8831 31.554 63.202 31.4831 63.4855 31.2705C63.9108 31.0224 63.8753 30.9515 63.3437 30.9515C62.8712 30.9515 62.8594 30.7861 63.3083 30.4554C63.6981 30.1719 64.1234 30.0301 64.2652 30.101C64.4424 30.2073 64.5487 30.1364 64.5487 29.9238C64.5487 29.2504 63.1311 28.7189 62.5641 29.1796C62.316 29.4276 61.8553 29.534 61.5364 29.4276C61.2528 29.2859 60.9339 29.3922 60.7921 29.6048C60.6504 29.8529 60.6858 29.8884 60.9339 29.7466C61.182 29.6048 61.3592 29.6757 61.3592 29.8529C61.3592 30.0656 61.1111 30.2428 60.8276 30.2428C60.5441 30.2428 60.296 30.101 60.296 29.8884C60.296 29.7112 60.0479 29.6403 59.7644 29.7466C58.8784 30.101 59.1619 29.2859 60.1897 28.6125C60.7567 28.2581 61.2528 27.9392 61.3592 27.9392C61.4655 27.9392 61.749 27.7974 62.0325 27.6202C62.3869 27.3722 62.4578 27.443 62.2806 27.7974C62.1388 28.0809 62.2806 27.9746 62.635 27.5848C63.013 27.1123 63.143 27.1477 63.0248 27.6911C62.8831 28.2936 63.0248 28.5062 63.6981 28.6834C64.1589 28.7897 64.5487 29.0378 64.5487 29.215C64.5487 29.3922 64.7968 29.534 65.0803 29.534C65.3638 29.534 65.6119 29.3922 65.6119 29.1796C65.6119 29.0024 66.0371 28.7189 66.5333 28.6125C67.1712 28.4353 67.3839 28.1873 67.2775 27.7266C67.1712 27.3367 67.2775 27.1595 67.5256 27.2658C68.0926 27.4785 69.2976 26.1318 68.9786 25.6711C68.8723 25.4584 68.9786 25.3876 69.2976 25.4939C69.8646 25.7065 71.353 24.6079 71.0695 24.1472C70.9632 24.0054 71.0341 23.8637 71.2467 23.8637C71.4239 23.8637 71.6366 24.0409 71.7075 24.2889C71.8138 24.537 71.9555 24.5016 72.0973 24.1117C72.239 23.7574 72.1327 23.4738 71.8847 23.4738C71.6366 23.4384 71.991 23.3321 72.6643 23.1903C73.9047 22.9777 74.6489 22.0917 73.6211 22.0917C73.3022 22.0917 73.0541 21.9145 73.0541 21.7019C73.0541 21.5247 73.1959 21.4184 73.3731 21.5247C73.9047 21.8791 74.6844 21.4184 74.7198 20.6741C74.7552 20.3198 74.5072 19.9299 74.1882 19.859C73.6566 19.7173 73.6566 19.6818 74.1882 19.6464C75.0033 19.611 74.8261 18.3706 73.9401 17.7327C73.3731 17.3074 73.3731 17.2365 73.8692 17.0239C74.2236 16.8821 74.4363 16.953 74.3654 17.2011C74.33 17.4492 74.6135 17.6972 75.0033 17.7681C75.3931 17.839 75.9602 18.1579 76.3146 18.4415C76.7044 18.7959 76.9524 18.8313 77.1296 18.5478C77.2714 18.3352 77.6258 18.2288 77.9093 18.3351C78.1928 18.4415 78.3346 18.406 78.2283 18.2288C78.1219 18.0516 77.6613 17.9453 77.2005 17.9453C76.1019 17.9453 73.8338 16.3506 74.0464 15.7126C74.1528 15.4291 74.4717 14.933 74.7907 14.6495C75.4286 14.047 75.7121 12.5231 75.1805 12.5231C74.9678 12.5231 74.8261 12.8066 74.7907 13.161C74.7907 13.5154 74.6844 13.5863 74.578 13.3028C74.5072 13.0901 74.2591 12.9838 74.0464 13.0901C73.8692 13.1964 73.9047 12.9838 74.1527 12.594C74.5071 12.0269 74.7907 11.9561 75.6766 12.2041C76.7044 12.4877 76.7398 12.4522 76.1019 11.9915C75.5703 11.6017 75.5349 11.4599 75.9247 11.4599C76.2082 11.4599 76.598 11.6017 76.8107 11.7789C76.9879 11.9206 77.3777 11.7789 77.7321 11.4245C78.0865 11.0347 78.2283 10.7511 78.0156 10.7511C77.8384 10.7511 77.803 10.4676 77.9093 10.1487C78.0865 9.68796 77.9802 9.61708 77.5195 9.79428C77.1296 9.97147 76.9879 9.90059 77.1651 9.61708C77.3423 9.33357 77.0942 9.29813 76.3146 9.43988C75.7121 9.58164 75.1096 9.51077 75.0033 9.33357C74.897 9.12093 75.0387 9.08549 75.3222 9.1918C75.6412 9.29812 75.8893 9.26268 75.8893 9.05005C75.8893 8.83741 76.1728 8.7311 76.4918 8.76654C77.3069 8.9083 78.37 8.23495 78.37 7.66792C78.37 7.10089 78.1574 7.10089 77.2714 7.5616C76.8816 7.80968 76.5981 7.80967 76.5981 7.59704C76.5981 7.41984 76.8107 7.17177 77.0234 7.10089C77.2714 6.99457 77.1651 6.88825 76.7753 6.88825C76.2437 6.85281 76.1728 6.78193 76.5272 6.53386C76.8816 6.32122 76.7752 6.17947 76.1019 6.07315C75.3577 5.93139 75.2514 6.00227 75.5349 6.35666C75.8538 6.71105 75.7121 6.7465 74.8261 6.60474C74.1173 6.49842 73.4794 6.64018 73.0896 6.99457C72.7706 7.27809 71.7074 7.73879 70.7506 7.98687C69.7583 8.23494 68.9077 8.5539 68.8014 8.66021C68.6951 8.80197 67.9154 9.01462 67.0294 9.15637C66.1435 9.29813 65.6473 9.51076 65.86 9.58164C66.108 9.68796 66.3207 9.90059 66.3207 10.0778C66.3207 10.2904 66.108 10.3967 65.86 10.3613C65.0449 10.2195 63.4855 10.822 63.7336 11.2118C63.8754 11.4245 63.769 11.4599 63.5209 11.3182C63.0602 11.0346 61.6072 12.0978 61.8907 12.4877C61.9616 12.6294 61.8907 12.9484 61.749 13.1965C61.5363 13.5154 61.3591 13.5508 61.2174 13.2673C61.0756 13.0547 61.1465 12.8775 61.3592 12.8775C61.5718 12.8775 61.6427 12.7357 61.5364 12.5231C61.2528 12.0978 60.9693 12.0978 60.296 12.5231C59.8353 12.8066 59.8707 12.9129 60.4732 13.4091C61.1465 13.9052 61.1111 13.9407 60.2251 13.5508C59.6935 13.3028 59.3391 12.9838 59.4454 12.8421C59.7289 12.3459 59.3037 12.4522 58.3468 13.0901C57.8861 13.4091 57.3545 13.5508 57.1419 13.4445C56.9647 13.3382 56.7521 13.3736 56.6812 13.5508C56.6457 13.7635 56.0787 13.9761 55.5117 14.047C54.9092 14.1179 54.4131 14.3659 54.4131 14.5786C54.3776 14.8267 54.3422 15.181 54.3067 15.3937C54.3067 15.5709 54.1295 15.6772 53.9523 15.5354C53.7751 15.4291 53.5271 15.5 53.3853 15.7126C53.279 15.8898 52.7829 16.067 52.2867 16.067C51.7551 16.067 51.4716 15.9253 51.6133 15.7126C51.7551 15.5 51.2589 15.6418 50.5856 15.9607C49.8768 16.3151 49.3807 16.7758 49.487 17.0239C49.5579 17.272 49.4161 17.3783 49.0972 17.2365C48.8136 17.1302 48.6365 16.8113 48.7428 16.5277C48.8491 16.2442 48.7782 16.1379 48.601 16.2442C48.3884 16.3506 48.2466 16.7404 48.2466 17.0593C48.2466 17.52 48.1757 17.5555 47.9277 17.2011C47.7859 16.953 47.4315 16.7049 47.148 16.6341C46.8645 16.5986 46.262 16.4214 45.8368 16.2797C45.1634 16.067 44.8799 16.1734 44.4546 16.7758C44.0294 17.3783 43.6395 17.52 42.7181 17.4137C42.0802 17.3428 41.6549 17.4137 41.7258 17.5555C41.8321 17.6972 41.7258 17.839 41.5486 17.839C41.3359 17.839 41.1588 17.6972 41.1588 17.4846C41.1588 17.3074 40.9816 17.1302 40.7689 17.1302C40.5917 17.1302 40.5208 17.272 40.6272 17.4846C40.7335 17.6618 40.6272 17.7327 40.3437 17.6264C40.0602 17.52 39.5994 17.6972 39.2805 17.9808C38.9615 18.2997 38.5008 18.4415 38.2173 18.3351C37.9338 18.2288 37.5794 18.3351 37.4376 18.5123C37.3313 18.725 37.0832 18.8313 36.906 18.725C36.7288 18.6187 36.5162 18.6895 36.3744 18.9022C36.2681 19.0794 36.339 19.2566 36.5162 19.2566C36.7288 19.2566 36.906 19.4338 36.906 19.611C36.906 19.859 36.6934 19.859 36.2682 19.6464C35.8783 19.4338 35.4176 19.4338 35.0278 19.6464C34.3544 20.0362 32.866 19.4338 33.1849 18.8667C33.3267 18.6895 33.0432 18.5478 32.6179 18.5478C31.9445 18.5478 31.9091 18.6187 32.3344 19.1502C32.7596 19.6818 32.7596 19.7173 32.1217 19.4692C31.7319 19.3274 31.3421 19.1857 31.2357 19.1502C31.1294 19.1148 31.0586 19.1857 31.0586 19.292C31.0586 19.5401 29.9245 20.6741 29.641 20.6741C29.5347 20.6741 29.4992 20.5324 29.6055 20.3552C29.7119 20.178 29.3929 19.9654 28.8613 19.859C28.0108 19.7173 27.9399 19.7173 28.5069 20.1426C28.8259 20.3906 29.1094 20.7096 29.1094 20.8513C29.1094 20.9931 28.8968 20.9577 28.6487 20.745C28.0817 20.2843 25.3883 19.7527 25.6718 20.178C25.7781 20.3552 24.8921 20.4969 23.6872 20.4969C22.4823 20.4969 21.171 20.6387 20.7812 20.8159C20.3913 20.9931 20.0015 21.1703 19.8952 21.2057C19.7889 21.2412 19.4344 21.3829 19.0446 21.5601C18.6548 21.7373 18.3004 21.6664 18.1232 21.3829C17.946 21.0994 17.8042 21.064 17.627 21.3475C17.4853 21.5601 16.9537 21.7373 16.4221 21.7373C15.6779 21.7373 15.5716 21.6664 15.9968 21.3829C16.3158 21.1703 16.3513 21.0285 16.1032 21.0285C15.5716 21.0285 14.9691 22.0917 15.1463 22.7296C15.1817 22.9777 15.1463 23.0131 15.04 22.8005C14.9691 22.6233 14.6502 22.4461 14.3666 22.4461C14.0477 22.4461 13.9059 22.3398 13.9768 22.198C14.0831 22.0208 13.7642 21.9145 13.3035 21.9145C12.8428 21.9145 12.4529 22.0208 12.4529 22.198C12.4529 22.3398 12.2757 22.4461 12.0631 22.4461C11.8859 22.4461 11.815 22.3043 11.9213 22.0917C12.2048 21.5956 11.9568 21.631 10.4329 22.2689C9.72411 22.5879 8.83813 22.7296 8.4483 22.5879C8.02303 22.4461 7.84582 22.517 7.98757 22.7296C8.09389 22.9068 7.95213 23.1903 7.63318 23.2966C7.20791 23.4384 7.10159 23.3675 7.27879 22.9777C7.42054 22.6233 7.24336 22.4461 6.71177 22.4461C6.14474 22.4461 6.07385 22.5524 6.3928 22.9068C6.67632 23.2612 6.64087 23.403 6.25104 23.4384C5.96752 23.4738 5.5068 23.5447 5.22329 23.5802C4.97521 23.6156 4.58538 23.9345 4.33731 24.2535C3.91204 24.9623 4.08924 25.0332 6.42823 25.3876C6.92438 25.4939 6.64086 25.5648 5.75488 25.6002C4.54994 25.6356 4.26645 25.742 4.44364 26.1672C4.54996 26.4862 4.44364 26.6988 4.08925 26.6988C3.80573 26.6988 3.66397 26.5571 3.77029 26.3444C3.8766 26.1672 3.73486 25.99 3.38046 25.99C2.95519 25.99 2.84889 26.2381 2.95521 27.0532C3.02609 27.6202 2.95517 28.1873 2.74254 28.2936C2.5299 28.3999 2.88433 28.3999 3.4868 28.2936C4.79805 28.1164 6.78263 28.4353 6.78263 28.8252C6.78263 29.1441 5.79035 29.0732 4.90437 28.6834C4.54998 28.5062 4.16014 28.4708 4.05382 28.6125C3.91206 28.7189 4.05379 28.8252 4.33731 28.8252C4.62082 28.8252 5.22331 29.1441 5.68402 29.4985C6.18017 29.8529 6.81808 30.101 7.10159 29.9947C7.45598 29.8884 7.42053 29.9947 6.99525 30.2428C6.53454 30.5617 6.28647 30.5617 6.10927 30.3136C5.96751 30.0655 5.684 30.0656 5.40049 30.2428C4.83346 30.5617 3.8766 30.3136 4.12468 29.8884C4.37275 29.4985 4.0538 29.3568 2.70711 29.0378C1.99832 28.8961 1.92745 28.9906 2.49448 29.3213C2.95519 29.5694 3.16784 29.8529 2.95521 29.9238C2.70713 30.0301 2.74255 30.4908 3.0615 31.4122C3.48677 32.6172 3.45136 32.7589 2.95521 32.6526C2.60082 32.5817 2.35271 32.2982 2.35271 32.0147C2.31728 30.9515 1.85656 30.5617 1.11234 31.0224C0.757946 31.2705 0.545301 31.5894 0.61618 31.7312C0.722498 31.9084 0.970607 31.9084 1.18324 31.8021C1.71483 31.4477 2.24642 32.4754 1.71483 32.8298C1.43132 33.0425 1.53762 33.0779 1.96289 32.9361C2.4236 32.7589 2.56534 32.8653 2.38814 33.2551C2.14007 33.9284 2.21095 33.9284 3.45132 33.2551C4.01835 32.9716 4.72715 32.7235 5.01066 32.7235C5.68401 32.7589 2.95517 34.1411 2.21095 34.1765C1.89199 34.1765 2.06922 34.3891 2.63625 34.6372C3.16784 34.8853 3.48678 35.1688 3.38046 35.3106C3.23871 35.4523 3.38047 35.5586 3.69943 35.5586C4.01838 35.5586 4.44364 35.8422 4.62084 36.1965C4.86891 36.6218 5.08157 36.6927 5.25876 36.4092C5.4714 36.0902 5.6486 36.1257 5.96755 36.4801C6.4637 36.9762 5.96751 37.5432 5.40049 37.1534C5.22329 37.0471 4.97522 37.118 4.83347 37.3306C4.72715 37.5078 4.93979 37.685 5.32962 37.685C5.71946 37.685 6.14472 37.5078 6.25104 37.3306C6.39279 37.118 6.78262 37.0471 7.17245 37.1534C7.63316 37.2952 7.84581 37.2243 7.84581 36.8345C7.84581 36.0548 8.16477 36.1257 8.87355 37.0116C9.44058 37.7204 9.58235 37.7559 10.7873 37.2952C11.4961 37.0471 11.9568 36.6927 11.8505 36.5155C11.7441 36.3383 11.8504 36.2674 12.134 36.3383C12.4175 36.4446 12.5947 36.7281 12.5593 36.9408C12.4884 37.1534 12.6301 37.3306 12.8073 37.3306C13.0199 37.3306 13.1617 37.1534 13.1617 36.9408C13.1617 36.7636 13.3389 36.6927 13.5515 36.799C13.7287 36.9408 14.2603 36.7636 14.6502 36.3737C15.0755 36.0194 15.2881 35.9485 15.1463 36.1965C14.9337 36.5155 15.3944 36.6218 16.9892 36.5509C18.7257 36.4446 18.9737 36.3737 18.513 36.0194C17.8042 35.4878 18.265 35.4169 19.2218 35.913C19.7534 36.1966 19.8952 36.1611 19.8952 35.7713C19.8952 35.3814 20.3913 35.2751 21.9152 35.3106C23.9353 35.3106 24.6795 35.2043 25.3883 34.8144C25.5655 34.7081 26.0616 34.4955 26.416 34.3537C26.9122 34.1765 26.9831 34.2119 26.6995 34.5663C26.416 34.9207 26.5578 35.027 27.1957 35.0625C27.7272 35.0979 27.9399 34.9916 27.7982 34.7081C27.6564 34.4955 27.8336 34.5309 28.1525 34.8144C28.4715 35.0625 28.755 35.1688 28.755 34.9916C28.755 34.8499 28.9322 34.8853 29.1803 35.1334C29.4284 35.3814 29.9245 35.5586 30.3143 35.5586C30.9168 35.5586 30.8459 35.4169 29.8891 34.8499C29.2866 34.46 28.755 34.1056 28.755 34.0348C28.755 33.9639 29.5701 33.9639 30.527 33.9993C31.5193 34.0702 32.228 33.9639 32.1217 33.7867C31.8382 33.326 32.7242 33.1488 33.6102 33.4677C34.0355 33.6095 34.4253 33.6095 34.4962 33.4323C34.5671 33.2551 35.205 33.0779 35.9138 33.007C36.658 32.9716 37.2604 32.8298 37.2604 32.7235C37.2604 32.5817 37.5085 32.4754 37.792 32.4754C38.0755 32.4754 38.3236 32.6172 38.3236 32.7235C38.3236 32.8653 38.7489 33.007 39.245 33.007C39.7766 33.007 39.9893 32.8653 39.7412 32.7235C39.5285 32.5817 39.9893 32.3691 40.8753 32.2628C41.7258 32.1565 42.5409 32.1919 42.7181 32.4045C42.9307 32.6172 42.8953 32.7235 42.6118 32.7235C42.2928 32.7235 42.1865 33.0424 42.3283 33.6449C42.4346 34.2474 42.3637 34.4246 42.1511 34.2119C41.903 33.9639 41.4777 34.1411 40.8398 34.7081C40.3436 35.1688 39.7412 35.5586 39.4931 35.5586C39.245 35.5586 39.0324 35.7358 39.0324 35.913C39.0324 36.1257 38.8198 36.2674 38.5717 36.2674C38.3236 36.2674 37.544 36.6927 36.8706 37.1888C36.1973 37.685 34.9569 38.4292 34.0709 38.8191C33.1849 39.2443 32.6888 39.6342 32.9014 39.705C33.1495 39.8114 33.3621 40.024 33.3621 40.2366C33.3621 40.4493 33.1495 40.4138 32.8305 40.1658C32.3698 39.8114 32.1572 39.8114 31.661 40.2366C31.3421 40.5556 30.6687 40.91 30.1726 41.0517C29.6764 41.1935 29.074 41.477 28.8259 41.6896C28.4361 42.0086 28.4361 42.1149 29.0031 42.3275C29.5347 42.5756 29.4992 42.6111 28.755 42.6465C28.2588 42.7174 27.7627 42.7174 27.621 42.6819C27.4792 42.6819 26.8413 42.9655 26.2034 43.3553C25.5655 43.7451 24.5023 44.2767 23.8644 44.5602C23.2619 44.8437 22.7303 45.269 22.7303 45.4462C22.7303 45.6588 21.9861 46.0132 21.1001 46.2259C20.0015 46.5094 19.6471 46.722 19.9661 46.9347C20.2141 47.1119 20.2496 47.2536 20.0724 47.2536C19.8597 47.2536 20.0015 47.5017 20.3559 47.7498C20.9229 48.175 20.9229 48.2459 20.4268 48.4585C20.1078 48.5649 19.9306 48.5294 20.0369 48.3522C20.4268 47.7143 19.0801 47.608 18.6194 48.2105C18.3358 48.6003 18.1586 48.6712 18.1232 48.3877C18.1232 48.0687 17.7688 48.1396 16.7765 48.6003C16.0678 48.9901 15.04 49.38 14.473 49.5217C13.9414 49.628 13.5161 49.9116 13.5161 50.0888C13.5161 50.3014 13.268 50.4431 12.9491 50.4431C12.6656 50.4431 12.5238 50.6203 12.6301 50.7975C12.7364 51.0102 12.5947 51.1519 12.3111 51.1519C11.9922 51.1519 11.4606 51.4354 11.1062 51.7898C10.7164 52.1088 9.93675 52.6758 9.33428 52.9948C8.20023 53.5972 7.73948 54.5895 8.76722 54.1997C9.05073 54.0934 9.22794 54.1288 9.08618 54.306C8.97986 54.4832 8.44827 54.7313 7.88124 54.8731C7.20789 55.0148 6.88895 55.2983 6.92439 55.6882C6.92439 56.0071 6.78264 56.2552 6.53457 56.2198C6.32193 56.1843 5.96751 56.3261 5.75488 56.5741C5.5068 56.8931 5.57768 57.1412 6.10927 57.4601C6.56998 57.7791 6.74721 57.7791 6.71177 57.4956C6.64089 57.2829 6.81808 56.9994 7.10159 56.8931C7.3851 56.8222 7.4914 56.8931 7.34965 57.1057C7.24333 57.3184 7.27878 57.5664 7.49141 57.7082C7.66861 57.8145 7.84581 57.7436 7.84581 57.4956C7.84581 57.2475 7.95212 57.1766 8.05843 57.2829C8.20019 57.4247 8.09387 57.7436 7.88124 58.0272C7.63316 58.3107 7.56228 58.7714 7.70404 58.984C7.8458 59.2321 7.81038 59.3384 7.63318 59.1967C7.45598 59.0903 6.81807 59.4093 6.25104 59.9054C5.64857 60.4016 5.4714 60.7205 5.79035 60.5788C6.53458 60.3662 6.57 60.5079 6.03841 61.5002C5.7549 61.9964 5.7549 62.1381 6.03841 61.9964C6.3928 61.7483 7.88126 62.5279 8.83812 63.4494C9.19252 63.8038 9.12163 63.9455 8.34197 64.1227C7.66862 64.2999 7.56232 64.4417 7.91671 64.6543C8.20023 64.8669 8.23566 64.9733 7.95214 64.9733C7.66863 64.9733 7.66863 65.1859 7.95214 65.8592C8.34197 66.6743 8.41286 66.6743 8.80269 66.1428C9.19253 65.6112 9.26338 65.6112 9.26338 66.1073C9.26338 66.4263 9.51145 66.7807 9.8304 66.887C10.362 67.0996 10.362 67.0287 9.93673 66.5326ZM11.5669 65.3277C11.6733 65.1505 11.9922 64.9733 12.2049 64.9733C12.4529 64.9733 12.4175 65.115 12.0985 65.3277C11.4252 65.7529 11.2834 65.7529 11.5669 65.3277ZM9.01532 62.6697C9.01532 62.3862 9.22793 62.1381 9.47601 62.1381C10.5392 62.1381 10.1848 61.5356 9.08618 61.4648C6.64087 61.3585 6.53457 61.2876 6.71177 60.6497C6.85352 60.1181 6.95984 60.0826 7.42055 60.437C8.0939 61.0041 10.7518 61.0395 11.2125 60.4725C11.3897 60.2244 12.0276 59.9763 12.6301 59.8346C13.3153 59.7164 13.2562 59.8346 12.4529 60.189C11.3543 60.6497 11.3189 60.7205 12.2049 60.5433C12.9491 60.4016 13.1972 60.4725 13.0554 60.7914C12.9845 61.0395 12.701 61.2167 12.4883 61.1813C12.2757 61.1104 12.0985 61.2876 12.0985 61.5356C12.0985 61.8546 12.0277 61.8546 11.815 61.5356C11.6024 61.2167 11.2125 61.3585 10.2911 62.1381C9.65322 62.7051 9.08619 63.1659 9.05075 63.2013C9.05075 63.2013 9.01532 62.9532 9.01532 62.6697ZM24.5023 62.4925C24.5023 62.3153 24.6795 62.1381 24.8921 62.1381C25.0693 62.1381 25.1402 62.3153 25.0339 62.4925C24.9276 62.7051 24.7504 62.8469 24.644 62.8469C24.5732 62.8469 24.5023 62.7051 24.5023 62.4925ZM22.624 61.6065C22.0924 61.6065 21.6671 61.4648 21.6671 61.2521C21.6317 60.7205 23.51 60.6142 23.8289 61.1458C24.2188 61.7128 24.2542 62.4571 23.8644 61.9609C23.7226 61.7837 23.1911 61.6065 22.624 61.6065ZM14.4021 60.7205C13.835 60.4725 13.906 60.437 14.8274 60.4725C15.4653 60.5079 15.9968 60.6497 15.9968 60.8269C15.9968 61.1458 15.3235 61.1104 14.4021 60.7205ZM27.869 60.0118C27.9753 59.8346 27.869 59.6219 27.621 59.5865C27.3729 59.5865 26.983 59.5156 26.8058 59.4802C26.5932 59.4093 26.2742 59.3384 26.097 59.303C25.8844 59.2675 25.3174 59.2675 24.8212 59.303C24.2542 59.3384 23.7935 59.1258 23.6872 58.8068C23.5454 58.4524 23.6517 58.2398 24.0061 58.2398C24.2896 58.2398 24.4314 58.417 24.2897 58.6296C24.1479 58.8777 24.3251 58.8777 24.8567 58.5942C25.4591 58.2752 25.7072 58.2752 25.9199 58.5587C26.0616 58.8068 26.3097 58.9486 26.4869 58.9131C26.6641 58.8777 26.8767 58.8777 26.983 58.9486C27.0893 58.984 27.5501 59.0903 28.0462 59.1612C28.5069 59.2675 29.0739 59.5156 29.2866 59.7282C29.5347 60.0118 29.4992 60.0472 29.2157 59.87C29.0031 59.7637 28.7196 59.7991 28.5778 60.0118C28.4715 60.189 28.188 60.3662 28.0108 60.3662C27.7981 60.3662 27.7627 60.2244 27.869 60.0118ZM19.1864 59.9409C19.1864 59.4447 19.7534 59.3739 20.3559 59.8346C20.9584 60.2598 20.9229 60.2953 20.1078 60.2244C19.5762 60.2244 19.1864 60.0826 19.1864 59.9409ZM22.7303 59.87C22.7303 59.7637 22.8721 59.5865 23.0847 59.4802C23.2619 59.3739 23.4391 59.4447 23.4391 59.6219C23.4391 59.8346 23.2619 60.0118 23.0847 60.0118C22.8721 60.0118 22.7303 59.9409 22.7303 59.87ZM13.8705 59.6574C13.8705 59.4802 14.0477 59.303 14.2603 59.303C14.4375 59.303 14.5084 59.4802 14.4021 59.6574C14.2958 59.87 14.1186 60.0118 14.0123 60.0118C13.9414 60.0118 13.8705 59.87 13.8705 59.6574ZM29.9954 59.303C29.5347 59.1258 29.4992 58.984 29.8182 58.984C30.1017 58.984 30.6687 59.1258 31.0586 59.303C31.5193 59.4802 31.5547 59.6219 31.2357 59.6219C30.9522 59.6219 30.3852 59.4802 29.9954 59.303ZM30.8814 58.0272C30.9168 57.8854 30.7396 57.6728 30.527 57.531C30.2434 57.3538 30.2789 57.1057 30.7042 56.6805C31.2357 56.1843 31.2003 56.078 30.527 56.0071C30.208 55.9717 28.7904 54.3415 29.074 54.3415C29.2512 54.3415 29.5701 54.5541 29.7827 54.8376C30.0308 55.1211 30.5978 55.4401 31.094 55.5464C31.5901 55.6882 31.8737 55.9362 31.7673 56.078C31.661 56.2552 31.9091 56.3261 32.2989 56.2198C32.6888 56.1134 33.0077 56.2198 33.0077 56.4324C33.0077 56.7868 32.4407 56.964 31.3421 56.9285C31.0231 56.8931 30.9522 57.2829 31.0586 58.0272C31.1294 58.6296 31.1294 58.9131 31.0231 58.7005C30.9168 58.4524 30.8459 58.1689 30.8814 58.0272ZM36.3036 57.4601C36.5517 57.3184 36.5516 57.1766 36.3744 57.1412C36.1618 57.1057 35.8429 57.0349 35.6657 56.9994C35.453 56.9285 35.0987 56.8931 34.8506 56.8577C34.4962 56.8222 34.5316 56.645 34.9923 56.2198C35.3821 55.7945 35.6657 55.7236 35.7366 56.0071C35.8074 56.2198 36.2327 56.3261 36.658 56.2552C37.1305 56.1607 37.1659 56.2079 36.7643 56.397C36.339 56.5741 36.1973 56.7868 36.4454 56.9285C36.9769 57.2475 38.0401 56.8577 37.7566 56.4324C37.6503 56.2552 37.9338 56.1134 38.359 56.1134C38.9969 56.1134 39.0324 56.1843 38.678 56.645C38.4299 56.9285 37.9692 57.1766 37.6503 57.1766C37.1541 57.1766 37.1541 57.2475 37.6148 57.531C38.0755 57.8145 38.0401 57.8854 37.5085 57.8854C37.1541 57.8854 36.9769 58.0626 37.0832 58.2752C37.225 58.4879 37.0123 58.4524 36.5871 58.2044C36.0909 57.85 35.9846 57.6728 36.3036 57.4601ZM29.4638 58.2398C29.4638 58.0626 29.641 57.8854 29.8536 57.8854C30.0308 57.8854 30.1017 58.0626 29.9954 58.2398C29.8891 58.4524 29.7119 58.5942 29.6055 58.5942C29.5347 58.5942 29.4638 58.4524 29.4638 58.2398ZM20.2496 58.2398C20.9583 57.7791 21.4191 57.7791 21.1355 58.2398C21.0292 58.4524 20.6394 58.5942 20.3205 58.5942C19.7889 58.5942 19.7889 58.5233 20.2496 58.2398ZM14.0477 58.2398C13.9414 58.0626 14.0831 57.8854 14.4021 57.8854C14.721 57.8854 14.8628 58.0626 14.7565 58.2398C14.6502 58.4524 14.473 58.5942 14.4021 58.5942C14.3312 58.5942 14.154 58.4524 14.0477 58.2398ZM28.5069 57.3184C28.6133 57.2121 28.9322 57.1766 29.1803 57.2829C29.4638 57.3893 29.3575 57.4956 28.9676 57.4956C28.5778 57.531 28.3652 57.4247 28.5069 57.3184ZM43.1433 56.1843C43.037 56.0071 43.1788 55.8654 43.4623 55.8654C43.7458 55.8654 43.8876 56.0071 43.7813 56.1843C43.675 56.3261 43.5332 56.4678 43.4623 56.4678C43.3914 56.4678 43.2497 56.3261 43.1433 56.1843ZM41.2651 56.2552C41.3714 56.1489 41.6904 56.1134 41.9384 56.2198C42.222 56.3261 42.1156 56.4324 41.7258 56.4324C41.3359 56.4678 41.1233 56.3615 41.2651 56.2552ZM44.5964 55.8654C44.8445 55.7945 45.2697 55.7945 45.4824 55.8654C45.7304 55.9717 45.5532 56.0426 45.0571 56.0426C44.5609 56.0426 44.3838 55.9717 44.5964 55.8654ZM27.6918 55.759C27.6918 55.5818 27.9399 55.511 28.2234 55.6173C28.5069 55.759 28.755 55.9008 28.755 55.9717C28.755 56.0426 28.5069 56.1134 28.2234 56.1134C27.9399 56.1134 27.6918 55.9717 27.6918 55.759ZM50.7274 55.0503C50.7274 54.8731 50.9046 54.6959 51.1172 54.6959C51.2944 54.6959 51.3653 54.8731 51.259 55.0503C51.1526 55.2629 50.9754 55.4046 50.8691 55.4046C50.7983 55.4046 50.7274 55.2629 50.7274 55.0503ZM34.0355 54.9085C34.3544 54.5541 35.3467 54.4478 36.1972 54.6959C36.5162 54.7667 35.0986 55.2629 34.3544 55.2983C33.8228 55.3692 33.7519 55.2629 34.0355 54.9085ZM38.4299 54.8376C38.5363 54.7313 38.8552 54.6959 39.1033 54.8022C39.3868 54.9085 39.2805 55.0148 38.8906 55.0148C38.5008 55.0503 38.2882 54.9439 38.4299 54.8376ZM48.0694 54.3415C47.9631 54.1288 48.1049 54.0934 48.3884 54.1997C49.0263 54.4478 49.1326 54.6959 48.6364 54.6959C48.4238 54.6959 48.1757 54.5541 48.0694 54.3415ZM46.3329 53.5618C46.4392 53.42 46.262 53.2783 45.9785 53.2783C45.695 53.2783 45.2697 52.9593 45.0571 52.5695C44.7736 52.0025 44.4546 51.8962 43.8876 52.0734C43.1434 52.286 43.1434 52.2505 43.7458 51.6481C44.3129 51.0102 44.3837 51.0102 44.9153 51.7898C45.1988 52.2151 45.6596 52.5695 45.8722 52.5695C46.1203 52.5695 46.6164 53.0657 46.9708 53.6681C47.3961 54.3769 47.3725 54.5895 46.8999 54.306C46.4747 54.058 46.262 53.7036 46.3329 53.5618ZM41.5131 54.3415C41.5131 54.1643 41.7258 53.9871 42.0093 53.9871C42.2928 53.9871 42.6472 54.1643 42.7535 54.3415C42.8598 54.5541 42.6472 54.6959 42.2574 54.6959C41.8321 54.6959 41.5131 54.5541 41.5131 54.3415ZM23.7935 54.5541C23.7935 54.4832 24.0061 54.2352 24.2897 54.0225C24.6795 53.7036 24.8567 53.7036 25.0693 54.0225C25.2111 54.2706 25.1757 54.3415 24.9276 54.1997C24.7149 54.0934 24.4668 54.1288 24.3251 54.3415C24.1124 54.6959 23.7935 54.8376 23.7935 54.5541ZM21.4191 54.4832C21.5254 54.3769 21.8444 54.3415 22.0924 54.4478C22.3759 54.5541 22.2696 54.6604 21.8798 54.6604C21.4899 54.6959 21.2773 54.5895 21.4191 54.4832ZM43.2851 53.9162C43.2851 53.7744 43.5332 53.6327 43.8521 53.6327C44.1356 53.6327 44.2774 53.4909 44.1711 53.2783C44.0648 53.1011 44.1357 52.9239 44.3129 52.9239C44.5255 52.9239 44.7027 53.1365 44.7027 53.42C44.7027 53.7036 44.9153 53.9871 45.128 54.0934C45.3761 54.1997 45.0571 54.2706 44.4192 54.2352C43.8167 54.2352 43.2851 54.0934 43.2851 53.9162ZM50.373 53.2428C49.9123 52.9948 49.9123 52.9239 50.373 52.9239C50.6565 52.8885 51.1881 52.8176 51.5425 52.7467C51.8614 52.6758 52.0741 52.7821 51.9323 52.9593C51.7551 53.2783 52.2513 53.42 53.1727 53.3137C53.4208 53.2429 53.5271 53.3846 53.4207 53.5972C53.1727 53.9871 51.2944 53.7744 50.373 53.2428ZM47.7505 53.2428C47.8568 53.0302 47.7859 52.7113 47.5378 52.5695C47.2543 52.3923 47.2898 52.2505 47.715 52.1088C48.0694 51.967 48.2112 52.0025 48.0694 52.2506C47.9277 52.4632 48.1757 52.7113 48.6364 52.853L49.487 53.0657L48.601 53.3137C48.1049 53.4555 47.6796 53.5618 47.6087 53.5972C47.5379 53.6327 47.6087 53.4555 47.7505 53.2428ZM39.4222 53.1011C38.8552 53.2783 38.7489 53.2074 38.8906 52.8176C38.9969 52.4986 38.7843 52.2151 38.2527 52.0734C37.733 51.908 37.6975 51.7308 38.1464 51.5418C38.5362 51.3646 38.9615 51.4 39.0678 51.5772C39.1741 51.7544 39.8829 51.967 40.6626 52.0734C41.4068 52.1797 42.1156 52.3923 42.2219 52.6049C42.3637 52.7821 42.7535 52.853 43.1433 52.7467C43.7458 52.5341 43.7458 52.5695 43.2142 52.9239C42.7535 53.2074 42.3991 53.2074 41.903 52.9239C40.9461 52.4277 40.8044 52.4632 41.0525 53.2074C41.2651 53.739 41.2297 53.739 40.6981 53.3492C40.3791 53.0657 39.812 52.9593 39.4222 53.1011ZM36.7643 52.7113C36.4453 52.6049 36.1972 52.3569 36.1972 52.1797C36.1972 51.6835 37.1187 51.8253 37.6148 52.3923C38.0755 52.9593 37.7211 53.1011 36.7643 52.7113ZM35.3113 52.2151C35.2049 52.0379 35.2758 51.8607 35.453 51.8607C35.6657 51.8607 35.8429 52.0379 35.8429 52.2151C35.8429 52.4277 35.772 52.5695 35.7011 52.5695C35.5948 52.5695 35.4176 52.4277 35.3113 52.2151ZM53.5271 51.7544C53.6688 51.6126 54.165 51.6481 54.6611 51.8253C55.4762 52.1442 55.4408 52.1442 54.3776 52.1088C53.7397 52.0734 53.3853 51.8962 53.5271 51.7544ZM50.2312 51.5063C50.4438 51.2937 50.7628 51.3291 51.0818 51.5418C51.5425 51.8607 51.5071 51.8962 50.9755 51.719C50.6565 51.6126 50.373 51.719 50.373 51.9316C50.373 52.1442 50.2667 52.2151 50.1249 52.1088C49.9832 51.967 50.054 51.6835 50.2312 51.5063ZM28.5778 51.8607C28.4715 51.6481 28.6132 51.6126 28.8968 51.719C29.5347 51.967 29.641 52.2151 29.1448 52.2151C28.9322 52.2151 28.6841 52.0734 28.5778 51.8607ZM58.8075 50.5849C59.0202 50.1951 59.1974 50.1242 59.3746 50.4077C59.5163 50.6203 59.4454 50.7975 59.2682 50.7975C59.0556 50.7975 58.8784 51.0811 58.843 51.4354C58.843 51.7544 58.7367 51.8607 58.6658 51.6126C58.5595 51.3646 58.6303 50.9039 58.8075 50.5849ZM51.9677 51.5063C52.0741 51.3291 52.3221 51.1519 52.5348 51.1519C52.712 51.1519 52.8537 51.3291 52.8537 51.5063C52.8537 51.719 52.6057 51.8607 52.2867 51.8607C52.0032 51.8607 51.8614 51.719 51.9677 51.5063ZM41.9739 51.2937C42.0802 51.1874 42.3992 51.1519 42.6472 51.2583C42.9307 51.3646 42.8244 51.4709 42.4346 51.4709C42.0447 51.5063 41.8321 51.4 41.9739 51.2937ZM40.0601 51.0456C40.2728 50.7621 40.3437 50.4431 40.2019 50.3014C40.0602 50.1596 40.2019 50.1596 40.5563 50.3014C41.1588 50.514 41.1588 50.5495 40.5563 51.0102C39.7412 51.6126 39.564 51.6481 40.0601 51.0456ZM53.5625 50.7975C53.5625 50.3368 55.299 50.1596 55.6534 50.5849C55.8661 50.8684 55.618 51.0102 54.7675 51.0456C54.0941 51.0811 53.5625 50.9747 53.5625 50.7975ZM62.8831 50.5849C62.9894 50.4786 63.3083 50.4431 63.5564 50.5495C63.8399 50.6558 63.7336 50.7621 63.3437 50.7621C62.9539 50.7975 62.7413 50.6912 62.8831 50.5849ZM46.1203 49.8761C46.1203 50.0533 45.8368 49.947 45.5178 49.6989C45.0217 49.2736 44.9508 49.2736 45.2343 49.6989C45.4115 50.0533 45.3761 50.1242 45.128 49.947C44.3483 49.4863 44.7027 49.0256 45.8013 49.0256C46.4038 49.0256 47.148 48.8838 47.5024 48.7066C47.9631 48.4585 48.1048 48.5294 48.1048 48.9901C48.1048 49.4508 47.8922 49.5926 47.3961 49.4508C46.829 49.3091 46.7582 49.4154 46.9354 50.1242C47.148 50.9393 47.1126 50.9393 46.6518 50.3014C46.3683 49.9116 46.1203 49.7344 46.1203 49.8761ZM37.4376 50.4431C37.3313 50.2659 37.3668 50.0888 37.5794 50.0888C37.7566 50.0888 38.0401 50.2659 38.1464 50.4431C38.2527 50.6558 38.2173 50.7975 38.0046 50.7975C37.8274 50.7975 37.5439 50.6558 37.4376 50.4431ZM60.296 49.7344C61.0048 49.2736 62.1743 49.2736 61.8907 49.7344C61.7844 49.947 61.2529 50.0888 60.7213 50.0888C59.977 50.0888 59.8707 50.0179 60.296 49.7344ZM55.9724 49.4863C56.1496 49.1319 56.2205 48.3168 56.1496 47.7143C56.0433 46.7575 56.1142 46.5448 56.6458 46.5448C57.1773 46.5448 57.2128 46.6157 56.752 46.8992C56.3622 47.1473 56.3622 47.2536 56.6812 47.2536C56.9293 47.2536 57.0356 47.4308 56.9292 47.608C56.8229 47.8206 56.8938 47.9624 57.1064 47.9624C57.3191 47.9624 57.5671 47.7498 57.6735 47.4662C57.8507 47.041 58.0987 47.0764 59.2682 47.608C61.2528 48.4585 61.6072 48.8838 60.6504 49.2028C60.2251 49.3445 59.7998 49.3445 59.6935 49.2382C59.5518 49.1319 59.729 49.0256 60.0479 49.0256C60.3669 49.0256 60.6504 48.8484 60.6504 48.6357C60.6504 48.2105 59.5872 48.4585 57.8152 49.38C56.1141 50.2305 55.5826 50.266 55.9724 49.4863ZM51.7905 49.7344C51.7905 49.5217 51.4716 49.5217 50.9046 49.7344C50.373 49.947 50.0186 49.947 50.0186 49.7344C50.0186 49.2028 50.7274 48.9547 51.6488 49.1673C52.4639 49.38 52.8537 50.0888 52.1449 50.0888C51.9323 50.0888 51.7905 49.947 51.7905 49.7344ZM48.7073 49.8761C48.8137 49.7698 49.1326 49.7344 49.3807 49.8407C49.6642 49.947 49.5579 50.0533 49.168 50.0533C48.7782 50.0888 48.5656 49.9824 48.7073 49.8761ZM30.1726 49.7344C30.1726 49.5572 30.3498 49.38 30.5624 49.38C30.7396 49.38 30.8105 49.5572 30.7042 49.7344C30.5978 49.947 30.4207 50.0888 30.3143 50.0888C30.2435 50.0888 30.1726 49.947 30.1726 49.7344ZM54.8383 48.8484C55.0864 48.2813 55.6889 48.1042 55.6889 48.6357C55.6889 48.9193 55.4408 49.0965 54.732 49.3445C54.6966 49.38 54.732 49.1319 54.8383 48.8484ZM62.5995 47.9624C63.0957 47.4308 62.8476 46.4385 62.2097 46.5803C61.43 46.722 61.0402 46.5094 61.2174 46.0841C61.4655 45.3753 60.3669 44.5602 59.8707 45.0564C59.3746 45.5525 58.8784 45.588 58.8784 45.1273C58.8784 44.6311 61.3592 44.0286 62.0679 44.4185C62.4223 44.6311 62.8122 44.5957 63.0603 44.383C63.3083 44.2058 63.4146 44.1704 63.3083 44.2767C63.202 44.4185 63.4147 44.7374 63.769 44.9855C64.3361 45.4462 64.3006 45.4462 63.5918 45.3753C63.1666 45.3044 62.6704 45.1627 62.5641 45.0209C62.4223 44.8792 62.1034 44.7729 61.8199 44.7729C61.4655 44.7729 61.43 44.9501 61.6781 45.4462C62.1743 46.3322 64.1234 47.041 64.7613 46.5448C65.0448 46.2613 65.2575 46.2613 65.4347 46.5448C65.7891 47.1119 65.2221 47.6789 64.4778 47.5017C63.9817 47.3599 63.8399 47.4662 63.9817 47.7852C64.1589 48.3168 63.6627 48.6003 62.7059 48.5649C62.1743 48.5294 62.1743 48.4585 62.5995 47.9624ZM51.9677 48.3168C52.1804 47.9978 51.259 47.8206 50.0186 47.927C49.5579 47.9978 49.5579 47.9624 50.0186 47.6434C50.3021 47.4662 50.6565 47.3954 50.7983 47.4662C51.259 47.7498 52.5348 47.2536 52.3221 46.8638C52.1804 46.6866 52.2867 46.5448 52.4639 46.5448C52.6765 46.5448 52.8537 46.8283 52.8892 47.1827C52.8892 47.6789 52.9601 47.6789 53.1373 47.2536C53.279 46.9701 53.7751 46.6866 54.2713 46.6511C54.7674 46.6157 54.9447 46.6511 54.6966 46.7575C54.3422 46.9347 54.3776 47.0764 54.8029 47.3954C55.3345 47.7498 55.299 47.8206 54.6611 47.8206C54.2358 47.8206 53.9169 47.6789 53.9169 47.5017C53.9169 47.3245 53.6688 47.3599 53.3853 47.608C53.1018 47.8561 52.8537 47.927 52.8537 47.7498C52.8537 47.5726 52.6765 47.7143 52.4639 48.0687C52.2867 48.3877 52.0386 48.6712 51.9323 48.6712C51.826 48.6712 51.8614 48.5294 51.9677 48.3168ZM69.0495 46.7929C69.1913 46.5448 69.333 46.5803 69.4393 46.8992C69.5457 47.1827 69.7937 47.6789 70.0064 47.9624C70.219 48.2459 70.0418 48.2105 69.6165 47.8206C69.1558 47.4662 68.9078 47.0055 69.0495 46.7929ZM32.0509 48.1042C32.1572 47.9978 32.4761 47.9624 32.7242 48.0687C33.0077 48.175 32.9014 48.2813 32.5116 48.2813C32.1217 48.3168 31.9091 48.2105 32.0509 48.1042ZM66.4979 47.608C66.2143 47.1473 66.6751 47.1473 67.3838 47.608C67.8445 47.8915 67.8446 47.9624 67.313 47.9624C66.994 47.9624 66.6042 47.8206 66.4979 47.608ZM25.3174 47.3954C25.4237 47.289 25.7427 47.2536 25.9908 47.3599C26.2743 47.4662 26.1679 47.5726 25.7781 47.5726C25.3883 47.608 25.1756 47.5017 25.3174 47.3954ZM35.9846 46.8992C35.8074 46.722 35.1341 46.5448 34.5316 46.4739C33.9292 46.4385 33.4684 46.2967 33.5393 46.155C33.6456 46.0487 34.4962 46.0841 35.4885 46.2967C36.4453 46.4739 37.1541 46.7575 37.0478 46.9347C36.7997 47.3599 36.4099 47.3245 35.9846 46.8992ZM45.4115 46.7575C45.4115 46.6866 45.695 46.4031 46.014 46.155C46.581 45.6943 46.6164 45.7297 46.1557 46.2967C45.695 46.8638 45.4115 47.041 45.4115 46.7575ZM65.6119 46.2259C65.6119 45.4462 67.313 44.5602 68.5888 44.702C69.652 44.8437 69.7583 44.9146 69.333 45.3399C69.0849 45.6234 68.4825 45.836 68.0218 45.836C67.5611 45.836 66.9586 46.0132 66.6751 46.1904C66.0017 46.6157 65.6119 46.6511 65.6119 46.2259ZM70.2544 45.8715C69.9355 45.6588 70.0418 45.588 70.7151 45.588C71.2113 45.588 71.5302 45.6943 71.4239 45.8715C71.1759 46.2613 70.8923 46.2613 70.2544 45.8715ZM44.3483 45.836C44.3483 45.6588 44.5964 45.588 44.8799 45.6943C45.1634 45.836 45.4115 45.9778 45.4115 46.0487C45.4115 46.1196 45.1634 46.1904 44.8799 46.1904C44.5964 46.1904 44.3483 46.0487 44.3483 45.836ZM37.2604 45.8715C37.2604 45.6943 36.9769 45.4462 36.6225 45.3399C36.2682 45.2336 36.3745 45.1981 36.8706 45.2336C37.7211 45.3044 38.4299 46.1904 37.6503 46.1904C37.4376 46.1904 37.2604 46.0487 37.2604 45.8715ZM38.7489 45.1627C38.997 44.7729 39.5286 44.383 39.9893 44.2413C40.45 44.135 40.8044 43.8869 40.8044 43.6742C40.8044 43.4616 40.6626 43.3907 40.4854 43.497C39.9892 43.816 39.0324 43.3553 39.0324 42.7883C39.0324 42.363 39.2096 42.363 40.131 42.8237C41.1233 43.3553 41.2651 43.3553 41.6549 42.7883C41.903 42.4693 42.2928 42.2921 42.5055 42.4339C42.7535 42.5756 42.9307 42.5402 42.9307 42.363C42.9307 42.044 44.242 41.477 44.7736 41.5479C44.9508 41.5833 45.0571 41.4416 45.0571 41.2289C45.0571 41.0517 45.1988 40.8745 45.4115 40.8745C46.0139 40.8745 45.376 41.9023 44.6318 42.1504C43.7104 42.4339 44.49 43.0009 45.4469 42.7528C45.8013 42.6465 46.1203 42.7528 46.1203 42.9655C46.1203 43.2135 45.7304 43.2844 45.0216 43.1781C44.3483 43.0363 44.0293 43.1072 44.1711 43.3553C44.2774 43.5679 44.1711 43.6034 43.8521 43.497C43.4977 43.3553 43.2142 43.5325 43.0725 43.8869C42.8953 44.2767 42.5763 44.4185 42.0093 44.2767C41.584 44.1704 40.9816 44.2767 40.7335 44.4893C40.0956 45.0564 38.9261 45.8006 38.5717 45.8006C38.43 45.836 38.5008 45.5171 38.7489 45.1627ZM25.2111 45.5525C25.2111 45.3044 26.3806 44.4539 26.735 44.4185C26.9122 44.4185 26.9122 44.5957 26.8058 44.7729C26.6995 44.9855 26.8413 45.1273 27.1248 45.1273C28.2943 45.1273 27.6564 45.6588 26.4514 45.6943C25.7781 45.7297 25.2111 45.6588 25.2111 45.5525ZM72.1681 44.9501C71.7783 44.9501 71.2822 45.0564 71.0341 45.2336C70.8215 45.3753 70.5379 45.3399 70.3962 45.1273C70.2899 44.9501 70.4316 44.7729 70.7506 44.7729C71.105 44.7729 71.2113 44.5957 71.0695 44.3476C70.8923 44.0641 70.9986 44.0286 71.4948 44.2413C71.8492 44.383 72.4517 44.4893 72.7706 44.4893C73.1605 44.4893 73.4085 44.702 73.4085 45.0564C73.4085 45.4108 73.3022 45.5171 73.125 45.3044C72.9833 45.1273 72.558 44.9501 72.1681 44.9501ZM48.6364 45.0918C49.2389 44.702 50.4793 44.6665 50.2667 45.0564C50.1604 45.1981 49.6642 45.3399 49.0972 45.3753C48.4238 45.4108 48.282 45.3399 48.6364 45.0918ZM23.0847 45.3399C23.0847 45.0209 24.1479 44.8437 24.3251 45.1273C24.4668 45.3399 24.2188 45.4816 23.8289 45.4816C23.4037 45.4816 23.0847 45.4108 23.0847 45.3399ZM74.4717 43.9932C74.4717 43.816 74.2945 43.7806 74.0819 43.9223C73.8338 44.0641 73.7275 43.9578 73.8338 43.6742C73.9047 43.3907 74.4008 42.9655 74.9324 42.7174C75.6767 42.363 75.9956 42.363 76.5981 42.7174C77.5195 43.2844 77.5195 43.816 76.5981 43.5679C76.2082 43.4616 75.5703 43.249 75.1805 43.1426C74.6489 43.0009 74.5426 43.0718 74.6843 43.497C74.7906 43.816 75.0387 43.9578 75.2159 43.8514C75.3931 43.7451 75.5349 43.9223 75.5349 44.2058C75.5349 44.5602 75.3222 44.6665 75.0033 44.5602C74.7198 44.4185 74.4717 44.2058 74.4717 43.9932ZM72.1681 43.7097C72.0264 43.497 71.6011 43.4262 71.2113 43.5679C70.7506 43.7097 70.5734 43.6388 70.7151 43.3907C70.8569 43.2135 71.5303 42.8591 72.2745 42.6465C73.9047 42.2212 74.1173 42.2212 74.1173 42.6465C74.1173 42.8591 73.7629 43.0009 73.3731 43.0009C72.7352 43.0009 72.6997 43.0718 73.0541 43.5325C73.4085 43.9578 73.4085 44.0641 72.9478 44.0641C72.6289 44.0641 72.2745 43.8869 72.1681 43.7097ZM69.1912 43.4616C70.1127 42.1858 71.2467 41.2289 71.4239 41.5479C71.5302 41.6896 71.1404 42.2212 70.5734 42.6465C70.0063 43.0718 69.6165 43.6034 69.7228 43.7451C69.8291 43.9223 69.652 44.0641 69.2976 44.0641C68.8014 44.0641 68.766 43.9578 69.1912 43.4616ZM64.0171 43.0009C63.9108 42.8237 64.0525 42.6465 64.3715 42.6465C64.6904 42.6465 64.8322 42.8237 64.7259 43.0009C64.6196 43.2135 64.4424 43.3553 64.3715 43.3553C64.3006 43.3553 64.1234 43.2135 64.0171 43.0009ZM78.5472 42.6465C78.4409 42.4693 78.5118 42.2921 78.689 42.2921C78.9016 42.2921 79.0788 42.4693 79.0788 42.6465C79.0788 42.8591 79.0079 43.0009 78.937 43.0009C78.8307 43.0009 78.6535 42.8591 78.5472 42.6465ZM66.4624 42.2212C66.7814 42.044 67.2421 41.9732 67.4902 42.0795C67.7382 42.1503 67.6319 42.2567 67.2775 42.2567C66.9232 42.2921 66.7459 42.4339 66.8522 42.6465C66.994 42.8591 66.8168 42.8946 66.4624 42.7528C65.9308 42.5402 65.9308 42.5047 66.4624 42.2212ZM58.8784 42.6465C58.8784 42.4693 58.9493 42.2921 59.0202 42.2921C59.1265 42.2921 59.3037 42.4693 59.41 42.6465C59.5163 42.8591 59.4454 43.0009 59.2682 43.0009C59.0556 43.0009 58.8784 42.8591 58.8784 42.6465ZM76.8462 41.3707C77.0942 40.7328 76.2791 40.4138 75.7121 40.8745C75.4286 41.1226 75.0033 41.2289 74.7552 41.1226C74.4717 41.0163 74.578 40.91 74.9679 40.91C75.4994 40.8745 75.5703 40.7682 75.2868 40.4847C75.0033 40.2012 74.6135 40.2721 73.8338 40.6619C72.877 41.158 72.7352 41.158 72.558 40.6619C72.239 39.8822 72.2745 39.8114 72.8769 40.024C73.1604 40.1658 73.6212 40.0594 73.8692 39.8822C74.4717 39.3861 75.8538 39.4924 75.6412 40.024C75.4995 40.4138 77.3423 40.4138 78.0156 39.9886C78.1928 39.8822 78.4409 39.9886 78.5826 40.2012C78.7598 40.4847 78.689 40.5201 78.3346 40.3429C77.9448 40.1303 77.9093 40.1658 78.2637 40.5201C78.6536 40.9454 78.7953 40.91 79.2206 40.3075C79.5041 39.9531 79.8585 39.7405 80.0002 39.9177C80.142 40.0594 80.5673 39.9177 80.9217 39.5633C81.2761 39.2443 81.6659 39.1026 81.8077 39.2089C81.914 39.3506 81.8431 39.457 81.6305 39.457C81.3824 39.457 81.2052 39.8468 81.2052 40.3429C81.2052 41.0872 81.028 41.2289 80.2129 41.2289C79.6813 41.2289 79.0788 41.3707 78.8307 41.5124C78.1928 41.9023 76.669 41.796 76.8462 41.3707ZM46.2266 40.5201C46.1912 40.1303 46.3329 39.8822 46.5101 40.024C46.6873 40.1303 47.1834 39.8468 47.5733 39.3861C48.0694 38.8191 48.2466 38.7482 48.1048 39.1734C47.9985 39.4924 48.1049 39.8468 48.3529 39.9177C48.601 39.9886 48.4947 40.024 48.1403 39.9886C47.6087 39.8822 47.3606 40.2012 47.5024 40.9809C47.5024 41.1226 47.2543 41.2289 46.8999 41.2289C46.5101 41.2289 46.262 40.9454 46.2266 40.5201ZM82.4455 40.5201C82.3392 40.3075 82.481 40.2721 82.7645 40.3784C83.4024 40.6265 83.5087 40.8745 83.0126 40.8745C82.7999 40.8745 82.5519 40.7328 82.4455 40.5201ZM63.8399 40.7328C63.8399 40.6619 64.088 40.4138 64.3715 40.1658C64.7968 39.8114 64.9031 39.8114 64.9031 40.3075C64.9031 40.6265 64.655 40.8745 64.3715 40.8745C64.088 40.8745 63.8399 40.8037 63.8399 40.7328ZM50.2312 40.5556C50.0894 40.3784 50.3375 40.3075 50.7274 40.4138C51.5425 40.6265 51.6488 40.8745 50.94 40.8745C50.6565 40.8745 50.3375 40.7328 50.2312 40.5556ZM69.014 40.2012C68.8723 40.024 69.1204 39.9531 69.5102 40.0594C70.3253 40.2721 70.4316 40.5201 69.7228 40.5201C69.4393 40.5201 69.1204 40.3784 69.014 40.2012ZM67.7382 39.457C67.7382 39.2798 67.8091 39.1026 67.88 39.1026C67.9863 39.1026 68.1635 39.2798 68.2698 39.457C68.3761 39.6696 68.3052 39.8114 68.1281 39.8114C67.9154 39.8114 67.7382 39.6696 67.7382 39.457ZM81.7368 38.6419C80.9571 38.5001 81.0634 38.4647 82.1266 38.5001C82.9417 38.5355 83.9695 38.2875 84.4656 37.9685C85.4225 37.3306 86.9818 37.2243 86.6274 37.7913C86.5211 37.9685 86.6628 38.252 86.9109 38.4292C87.2653 38.6419 87.0172 38.7482 86.1667 38.7836C83.8986 38.8899 83.7568 38.9254 83.4733 39.2089C83.3315 39.3506 83.1189 39.3152 83.0126 39.138C82.9062 38.9608 82.3038 38.7482 81.7368 38.6419ZM49.6642 39.3152C49.6642 39.2089 49.8059 39.0317 50.0186 38.9254C50.1958 38.8191 50.373 38.8899 50.373 39.0671C50.373 39.2798 50.1958 39.457 50.0186 39.457C49.8059 39.457 49.6642 39.3861 49.6642 39.3152ZM79.0788 38.6064C79.0788 38.3229 79.3623 38.0039 79.6813 37.8976C80.0357 37.7559 80.1775 37.7559 80.0357 37.8976C79.8939 38.0394 79.9648 38.3583 80.1774 38.6419C80.4964 38.9963 80.4255 39.1026 79.823 39.1026C79.4332 39.1026 79.0788 38.8899 79.0788 38.6064ZM9.19252 36.2674C9.0862 35.6295 9.22797 35.3106 9.51148 35.3106C9.79499 35.3106 9.93672 35.5232 9.8304 35.8067C9.72408 36.0548 9.79497 36.2674 9.97216 36.2674C10.1848 36.2674 10.3266 36.1257 10.3266 35.913C10.3266 35.7358 10.5746 35.5586 10.8581 35.5586C11.1417 35.5586 11.3897 35.7358 11.3897 35.9485C11.3897 36.1257 11.2126 36.1966 10.9645 36.0548C10.7164 35.8776 10.6455 35.9839 10.7873 36.3737C10.9999 36.9053 10.6101 37.2243 9.72411 37.2243C9.51147 37.2243 9.2634 36.799 9.19252 36.2674ZM50.7274 36.6218C50.7274 36.4446 50.9046 36.2674 51.1172 36.2674C51.2944 36.2674 51.3653 36.4446 51.259 36.6218C51.1526 36.8345 50.9754 36.9762 50.8691 36.9762C50.7983 36.9762 50.7274 36.8345 50.7274 36.6218ZM6.42823 36.2674C6.14472 36.0902 6.03841 35.913 6.21561 35.913C6.99527 35.913 5.54224 34.8499 4.6917 34.8144C4.16011 34.8144 3.98292 34.7081 4.30188 34.6018C4.58539 34.4955 5.11701 34.1765 5.43596 33.893C5.79035 33.574 6.32191 33.4677 6.81806 33.6095C7.24333 33.7512 7.49144 33.7158 7.38512 33.5386C7.24336 33.3614 7.3851 33.1842 7.66861 33.1842C7.95212 33.1842 8.27108 33.4323 8.3774 33.7158C8.51915 34.1411 8.30651 34.1765 7.17245 33.9993C5.43593 33.7158 5.18786 34.0348 6.25104 35.3106C7.13702 36.3383 7.56232 36.5155 7.38512 35.8776C7.34968 35.665 7.59776 35.4169 7.91671 35.3815C8.2711 35.3106 8.55459 35.346 8.55459 35.4523C8.55459 35.665 7.42053 36.5864 7.13702 36.6218C7.0307 36.6218 6.71175 36.4446 6.42823 36.2674ZM84.8554 35.7004C84.9617 35.5941 85.2807 35.5586 85.5288 35.665C85.8123 35.7713 85.7059 35.8776 85.3161 35.8776C84.9263 35.913 84.7137 35.8067 84.8554 35.7004ZM81.028 34.4955C80.0711 34.4955 80.0357 34.46 80.5673 33.893C81.028 33.4323 81.2761 33.3968 81.6659 33.7158C82.0557 34.0702 82.4456 33.9639 83.4379 33.2905C85.5997 31.8021 86.0604 31.6249 86.273 32.121C86.3793 32.4045 86.1667 32.6172 85.7768 32.6172C85.387 32.6526 84.6782 33.007 84.1821 33.3968C83.6505 33.8221 82.9771 34.1411 82.6582 34.1411C82.3392 34.1765 82.5519 34.3892 83.1543 34.6727C83.7214 34.9207 84.0049 35.1688 83.7568 35.1688C83.4733 35.2043 83.4024 35.3814 83.5442 35.665C83.6859 35.8776 83.4024 35.7358 82.9063 35.3106C82.4456 34.8499 81.595 34.4955 81.028 34.4955ZM12.8073 35.5586C12.8073 35.3815 13.0554 35.2043 13.3743 35.2043C13.6578 35.2043 13.7996 35.3815 13.6933 35.5586C13.587 35.7713 13.3389 35.913 13.1263 35.913C12.9491 35.913 12.8073 35.7713 12.8073 35.5586ZM93.2545 35.4169C93.2545 35.346 93.5026 35.1688 93.8215 35.0625C94.1051 34.9562 94.2468 34.9916 94.1405 35.2043C93.9279 35.5586 93.2545 35.7004 93.2545 35.4169ZM86.5565 34.7081C86.2375 34.3183 86.2376 34.2119 86.592 34.2474C87.7615 34.2828 88.3285 34.1056 88.1158 33.7867C87.9741 33.574 87.7614 33.5032 87.5842 33.6095C87.407 33.7158 87.1944 33.6449 87.0526 33.4323C86.84 33.0779 87.4425 32.9361 88.86 33.0425C89.2853 33.0779 89.7106 32.8653 89.8169 32.5817C90.065 31.9438 91.6598 31.8021 92.0142 32.4045C92.1559 32.6172 92.0496 32.7589 91.8015 32.6881C90.7738 32.5817 90.384 32.7589 90.4903 33.3614C90.5612 33.7867 90.384 33.9639 89.8169 33.9284C89.3917 33.9284 89.0727 34.0702 89.1081 34.2474C89.1436 34.46 88.7892 34.7435 88.293 34.8853C87.4425 35.1216 86.8636 35.0625 86.5565 34.7081ZM23.3328 34.3537C23.2265 34.46 22.9429 34.212 22.7303 33.7867C22.5177 33.3614 22.4114 32.9361 22.5177 32.8298C22.8012 32.5109 23.8644 33.0425 23.6517 33.3968C23.5454 33.574 23.6872 33.893 23.9353 34.1056C24.4668 34.5663 25.0693 34.0702 24.7149 33.4677C24.5731 33.2905 24.7858 33.1842 25.1048 33.2197C25.4237 33.2905 25.7781 33.5386 25.849 33.8221C25.9553 34.1056 25.8844 34.2119 25.7427 34.0702C25.6009 33.9284 25.2465 34.0702 24.963 34.3537C24.5732 34.7081 24.2896 34.779 24.0061 34.4955C23.758 34.3183 23.4746 34.2474 23.3328 34.3537ZM14.2249 34.3183C14.2249 34.0348 14.473 33.7867 14.7565 33.7867C15.04 33.7867 15.2881 34.0348 15.2881 34.3183C15.2881 34.6018 15.04 34.8499 14.7565 34.8499C14.473 34.8499 14.2249 34.6018 14.2249 34.3183ZM54.8029 33.6804C55.299 33.3968 55.3345 33.2905 54.9446 33.0425C54.5903 32.8298 54.7675 32.6881 55.618 32.5109C56.7875 32.2628 57.5317 31.6603 56.6458 31.6603C56.3977 31.6603 56.1496 31.4477 56.1496 31.1642C56.1496 30.7743 56.2914 30.7389 56.8229 31.0579C57.1773 31.3059 57.4254 31.6603 57.3545 31.9084C57.3191 32.121 57.6026 32.5817 57.9924 32.9007C58.4413 33.2551 58.3468 33.3614 57.7089 33.2197C57.1065 33.0779 56.752 33.1488 56.752 33.3968C56.752 33.6095 56.4331 33.7867 56.0078 33.7867C55.618 33.7867 55.3699 33.9284 55.4762 34.1056C55.618 34.2828 55.3699 34.3537 54.9446 34.2474C54.2713 34.0702 54.2359 33.9993 54.8029 33.6804ZM52.6057 34.2828C52.712 34.1765 53.0309 34.1411 53.279 34.2474C53.5625 34.3537 53.4562 34.46 53.0663 34.46C52.6765 34.4955 52.4639 34.3891 52.6057 34.2828ZM50.2312 33.8221C50.0894 33.6449 50.3375 33.574 50.7274 33.6804C51.5425 33.893 51.6488 34.1411 50.94 34.1411C50.6565 34.1411 50.3375 33.9993 50.2312 33.8221ZM27.7982 33.3614C27.9045 33.0779 28.0108 33.1842 28.0108 33.574C28.0462 33.9639 27.9399 34.1765 27.8336 34.0348C27.7273 33.9284 27.6918 33.6095 27.7982 33.3614ZM18.0523 33.3614C18.3004 33.1133 18.4776 33.0779 18.4776 33.2905C18.4776 33.7867 18.0523 34.212 17.8042 33.9639C17.7334 33.8576 17.8397 33.574 18.0523 33.3614ZM12.0985 33.6449C12.0985 33.5386 12.2403 33.3614 12.4529 33.2551C12.6301 33.1488 12.8073 33.2197 12.8073 33.3968C12.8073 33.6095 12.6301 33.7867 12.4529 33.7867C12.2403 33.7867 12.0985 33.7158 12.0985 33.6449ZM10.5747 33.1842C10.681 32.9361 10.8936 32.8298 11.0708 32.9361C11.5669 33.2196 11.4606 33.6804 10.8936 33.6804C10.6101 33.6804 10.4683 33.4677 10.5747 33.1842ZM51.7905 33.2905C51.7905 32.9007 52.4639 32.7589 52.6765 33.0779C52.7828 33.2551 52.6411 33.4323 52.3576 33.4323C52.0386 33.4323 51.7905 33.3614 51.7905 33.2905ZM28.5424 32.9007C28.6132 32.4045 29.1094 32.121 29.1094 32.5463V33.0779C29.1094 33.2905 28.9676 33.4323 28.7904 33.4323C28.6132 33.4323 28.5069 33.1842 28.5424 32.9007ZM19.0446 33.0425C18.9383 32.9361 19.1864 32.8653 19.5408 32.8298C19.9306 32.7944 20.3204 32.9007 20.4268 33.1133C20.6394 33.4323 19.3636 33.3614 19.0446 33.0425ZM34.8151 32.121C34.8151 31.7666 34.9214 31.6603 34.9923 31.9084C35.0986 32.1565 35.6302 32.2628 36.3036 32.1919C36.9887 32.0974 37.0714 32.1447 36.5516 32.3337C35.1695 32.8298 34.7797 32.7589 34.8151 32.121ZM30.8814 32.0501C30.8814 31.9084 31.1294 31.7666 31.4129 31.7666C31.98 31.7666 32.1217 32.0856 31.7319 32.4754C31.4484 32.7589 30.8814 32.44 30.8814 32.0501ZM29.8182 32.3691C29.8182 32.1919 29.8891 32.0147 29.9599 32.0147C30.0663 32.0147 30.2434 32.1919 30.3498 32.3691C30.4561 32.5817 30.3852 32.7235 30.208 32.7235C29.9954 32.7235 29.8182 32.5817 29.8182 32.3691ZM15.3944 32.1919C15.3944 31.5894 15.8551 31.4831 16.1386 31.9793C16.2804 32.1565 16.1386 32.4045 15.926 32.4754C15.6779 32.5817 15.4653 32.6881 15.4298 32.6881C15.4298 32.7235 15.3944 32.4754 15.3944 32.1919ZM43.1079 32.0147C43.0016 31.8375 43.1434 31.6603 43.4623 31.6603C43.7813 31.6603 43.923 31.8375 43.8167 32.0147C43.7104 32.2274 43.5332 32.3691 43.4623 32.3691C43.3914 32.3691 43.2142 32.2274 43.1079 32.0147ZM37.6148 31.7666C37.6148 31.3768 37.792 31.3768 38.3236 31.6603C38.7134 31.873 39.0324 32.121 39.0324 32.1919C39.0324 32.2628 38.7134 32.2982 38.3236 32.2628C37.9338 32.2273 37.6148 32.0147 37.6148 31.7666ZM95.5581 31.6603C95.6644 31.4831 95.9834 31.3059 96.196 31.3059C96.4441 31.3059 96.4086 31.4477 96.0897 31.6603C95.4163 32.0856 95.2746 32.0856 95.5581 31.6603ZM3.94748 31.8021C3.94748 31.5186 4.62084 31.3414 4.79803 31.5894C4.90435 31.7666 4.76259 31.9084 4.47907 31.9084C4.19556 31.9084 3.94748 31.8375 3.94748 31.8021ZM42.3991 31.3059C42.5054 31.1287 42.9307 30.9515 43.356 30.9515C43.8876 30.9515 43.9939 30.8098 43.8521 30.3845C43.6749 29.8884 43.7104 29.8529 44.1711 30.2428C44.4546 30.4908 44.7027 30.8452 44.7027 31.0579C44.7027 31.2705 44.5964 31.3414 44.4901 31.235C44.3837 31.1287 43.8876 31.1642 43.356 31.3059C42.8244 31.4831 42.3637 31.6249 42.2928 31.6249C42.222 31.6603 42.2928 31.5186 42.3991 31.3059ZM33.3621 31.5186C33.3621 31.4122 33.5039 31.2351 33.7165 31.1287C33.8937 31.0224 34.0709 31.0933 34.0709 31.2705C34.0709 31.4831 33.8937 31.6603 33.7165 31.6603C33.5039 31.6603 33.3621 31.5894 33.3621 31.5186ZM27.4792 31.1996C27.3374 31.0578 27.4792 30.9515 27.7982 30.9515C28.1171 30.9515 28.4361 31.0933 28.5424 31.2705C28.7904 31.6249 27.8336 31.5894 27.4792 31.1996ZM18.3358 31.0933C18.2295 30.8098 18.265 30.668 18.4776 30.7743C18.6902 30.8807 18.832 31.1287 18.832 31.3414C18.832 31.8375 18.5839 31.7312 18.3358 31.0933ZM12.0985 31.4831C12.0985 31.4122 12.4529 31.1287 12.8782 30.9161C13.6224 30.5263 13.6578 30.5263 13.1971 31.0579C12.7364 31.6249 12.0985 31.873 12.0985 31.4831ZM8.90899 31.3414C8.90899 31.1642 9.22794 31.0933 9.61777 31.1996C10.0076 31.3059 10.3266 31.4477 10.3266 31.5186C10.3266 31.5894 10.0076 31.6603 9.61777 31.6603C9.22794 31.6603 8.90899 31.5186 8.90899 31.3414ZM92.6166 31.1287C92.6875 31.0224 93.3609 30.8807 94.0696 30.8098C94.8139 30.7035 95.5581 30.5263 95.7353 30.4199C95.9479 30.3136 96.0897 30.3491 96.0897 30.5617C96.0897 30.7389 95.7353 30.9515 95.2746 31.0224C94.0697 31.235 92.4394 31.2705 92.6166 31.1287ZM87.4779 31.0579C87.726 30.987 88.1513 30.987 88.3639 31.0579C88.612 31.1642 88.4348 31.235 87.9386 31.235C87.4425 31.235 87.2653 31.1642 87.4779 31.0579ZM38.7134 30.7389C38.5362 30.8452 38.3236 30.7389 38.2173 30.4554C38.0401 30.0655 38.2173 29.9947 38.997 30.2428C40.0601 30.5263 42.0802 29.782 41.1233 29.4631C40.8398 29.3568 40.7689 29.1441 40.9107 28.9669C41.0525 28.7897 41.3714 28.8961 41.5486 29.1796C41.8321 29.5694 41.9738 29.6048 42.0802 29.2859C42.1865 29.0378 42.5055 28.9669 42.8244 29.0732C43.2143 29.215 43.0725 29.3922 42.2574 29.7466C41.6549 29.9947 41.1588 30.3845 41.1588 30.5617C41.1588 30.7743 40.9107 30.8452 40.6272 30.7389C40.3436 30.5971 40.0956 30.7035 40.0956 30.9515C40.0956 31.3059 39.9893 31.3059 39.564 30.9515C39.2805 30.7389 38.9261 30.6326 38.7134 30.7389ZM35.6302 30.987C35.7365 30.8098 36.1618 30.7389 36.5516 30.8452C37.5439 31.0933 37.4376 31.3059 36.339 31.3059C35.8429 31.3059 35.5239 31.1642 35.6302 30.987ZM20.604 30.9515C20.604 30.5617 22.3051 30.0656 22.624 30.3845C22.7658 30.4908 22.5177 30.5971 22.0924 30.5971C21.6672 30.5971 21.3127 30.7743 21.3127 30.9515C21.3127 31.1642 21.1355 31.3059 20.9583 31.3059C20.7457 31.3059 20.604 31.1642 20.604 30.9515ZM5.01066 30.9515C5.01066 30.7743 5.15242 30.5971 5.36506 30.5971C5.54225 30.5971 5.71945 30.7743 5.71945 30.9515C5.71945 31.1642 5.54225 31.3059 5.36506 31.3059C5.15242 31.3059 5.01066 31.1642 5.01066 30.9515ZM88.8246 30.5971C88.7183 30.3845 88.8601 30.3491 89.1436 30.4554C89.7815 30.7035 89.8878 30.9515 89.3916 30.9515C89.179 30.9515 88.9309 30.8098 88.8246 30.5971ZM58.3468 30.6326C58.2405 30.4554 58.3468 30.1719 58.5594 30.0301C58.8075 29.8884 58.8784 29.9238 58.7366 30.1719C58.6303 30.3491 58.7367 30.6326 58.9493 30.7035C59.2683 30.8452 59.3037 30.9161 58.9847 30.9161C58.7721 30.9515 58.4886 30.8098 58.3468 30.6326ZM14.2249 30.3136C14.2249 30.0301 15.7488 29.1796 16.2804 29.1796C16.493 29.1796 14.5439 30.5971 14.2958 30.5971C14.2603 30.5971 14.2249 30.4554 14.2249 30.3136ZM16.812 30.0301C16.9183 29.9238 17.2372 29.8884 17.4853 29.9947C17.7688 30.101 17.6625 30.2073 17.2727 30.2073C16.8828 30.2428 16.6702 30.1364 16.812 30.0301ZM10.3266 29.7112C10.3266 29.4276 10.5746 29.1796 10.8581 29.1796C11.3189 29.1796 11.3543 29.2859 10.9645 29.7112C10.3975 30.3491 10.3266 30.3491 10.3266 29.7112ZM95.9125 29.1441C96.9402 28.7543 97.0466 28.7543 97.0466 29.2859C97.0466 29.6048 96.7276 29.7112 96.1251 29.6048C95.31 29.4276 95.2746 29.3922 95.9125 29.1441ZM32.8659 29.2859C32.5824 29.3922 32.228 29.3568 32.1217 29.215C32.0509 29.0378 32.3344 28.8252 32.8305 28.7543C33.3267 28.648 33.7165 28.7543 33.7519 28.9669C33.7519 29.215 33.8583 29.1796 33.9646 28.9315C34.0355 28.6834 34.2835 28.4708 34.4607 28.4708C34.6379 28.4708 34.6025 28.7897 34.3544 29.1796C34.0709 29.6048 33.8228 29.7112 33.6811 29.4631C33.5393 29.2504 33.1849 29.1796 32.8659 29.2859ZM19.5408 28.9669C19.5408 28.8961 19.7889 28.8252 20.0724 28.8252C20.3559 28.8252 20.604 28.9669 20.604 29.1796C20.604 29.3568 20.3559 29.4276 20.0724 29.3213C19.7889 29.1796 19.5408 29.0378 19.5408 28.9669ZM44.1711 28.8252C44.2774 28.648 44.5964 28.4708 44.809 28.4708C45.0571 28.4708 45.0216 28.6125 44.7027 28.8252C44.0293 29.2505 43.8876 29.2505 44.1711 28.8252ZM21.3127 28.7897C21.3127 28.6834 21.7026 28.4708 22.1987 28.3999C22.8721 28.2581 23.0138 28.329 22.7303 28.648C22.3405 29.1087 21.3127 29.215 21.3127 28.7897ZM12.4529 28.8252C12.4529 28.648 12.5238 28.4708 12.5947 28.4708C12.701 28.4708 12.8782 28.648 12.9845 28.8252C13.0908 29.0378 13.0199 29.1796 12.8427 29.1796C12.6301 29.1796 12.4529 29.0378 12.4529 28.8252ZM7.84581 28.4708C7.84581 28.2936 8.16475 28.1164 8.59002 28.1164C8.97986 28.1164 9.1925 28.2936 9.08618 28.4708C8.97986 28.6834 8.62548 28.8252 8.34197 28.8252C8.05845 28.8252 7.84581 28.6834 7.84581 28.4708ZM45.4115 28.1164C45.4115 27.9392 45.5887 27.762 45.8013 27.762C45.9785 27.762 46.0494 27.9392 45.9431 28.1164C45.8367 28.329 45.6596 28.4708 45.5532 28.4708C45.4824 28.4708 45.4115 28.329 45.4115 28.1164ZM36.7288 28.1164C36.8352 27.9392 37.225 27.762 37.544 27.762C38.0755 27.762 38.0755 27.8329 37.6148 28.1164C36.906 28.5771 36.4453 28.5771 36.7288 28.1164ZM38.8198 27.5848C38.5008 27.3367 38.5008 27.1595 38.8198 26.9469C39.0324 26.7697 38.678 26.7697 38.0401 26.876C37.4377 27.0178 36.906 26.9823 36.906 26.8051C36.906 26.2735 38.9261 26.309 39.3514 26.8406C39.564 27.1241 40.0956 27.2658 40.45 27.1595C40.8752 27.0532 41.1588 27.1595 41.1588 27.4076C41.1588 27.6557 40.9107 27.762 40.6272 27.6202C40.3436 27.5139 40.0956 27.5848 40.0956 27.762C40.0956 28.1873 39.3868 28.081 38.8198 27.5848ZM26.1325 27.3722C26.2388 27.195 26.735 27.0886 27.2666 27.0886C27.869 27.1241 28.0108 27.195 27.5855 27.3013C27.2666 27.3722 27.0539 27.5848 27.1602 27.762C27.2665 27.9038 27.0185 27.9746 26.6286 27.8683C26.2388 27.762 26.0262 27.5494 26.1325 27.3722ZM63.4855 27.3367C63.4855 27.1595 63.7691 26.9115 64.088 26.8051C64.4424 26.6634 64.8676 26.3799 65.0803 26.1318C65.541 25.4939 67.3129 25.2458 67.5965 25.7065C67.7737 25.9546 67.561 26.0255 67.0649 25.8837C66.4978 25.742 66.3207 25.8128 66.427 26.1318C66.5687 26.4507 66.3561 26.5925 65.86 26.5571C65.3284 26.5216 65.0803 26.7343 65.1157 27.0886C65.1512 27.4785 64.8677 27.6911 64.3361 27.6911C63.8754 27.6911 63.4855 27.5139 63.4855 27.3367ZM30.3143 27.443C30.4915 27.1595 32.2989 27.3367 32.2989 27.6202C32.2989 27.6911 31.8028 27.762 31.2003 27.762C30.6333 27.762 30.208 27.6202 30.3143 27.443ZM24.0416 27.1241C24.1125 26.9115 23.9707 26.6988 23.7226 26.6988C23.51 26.6988 23.4037 26.5925 23.5454 26.4862C23.6518 26.3444 24.2188 26.6279 24.7504 27.0532L25.7427 27.8329L24.8567 27.6911C24.3605 27.6202 24.0062 27.3722 24.0416 27.1241ZM22.7303 27.6202C22.7303 27.5139 22.8721 27.3367 23.0847 27.2304C23.2619 27.1241 23.4391 27.195 23.4391 27.3722C23.4391 27.5848 23.2619 27.762 23.0847 27.762C22.8721 27.762 22.7303 27.6911 22.7303 27.6202ZM95.8416 26.9114C95.7353 26.8051 95.9479 26.6988 96.3023 26.6988C96.6921 26.6988 97.1529 26.5571 97.33 26.3799C97.5427 26.2027 98.0389 25.9546 98.4641 25.8128C99.0666 25.6356 99.2792 25.742 99.2792 26.1318C99.2792 26.4862 98.9603 26.6988 98.3578 26.6988C97.8616 26.6988 97.5427 26.8406 97.649 27.0178C97.8971 27.3722 96.196 27.3013 95.8416 26.9114ZM35.1341 26.876C35.1341 26.3444 34.7442 26.2027 33.7165 26.3444C33.433 26.3799 33.2913 26.309 33.433 26.1672C33.6811 25.9192 34.7797 25.6711 36.1264 25.5648C36.3745 25.5293 36.4808 25.2458 36.339 24.856C36.2327 24.5016 36.339 24.2181 36.5516 24.2181C36.7643 24.2181 36.8706 24.3598 36.7288 24.537C36.6225 24.7142 36.7997 25.1395 37.1187 25.423C37.6148 25.9546 37.5794 26.0255 36.6225 26.2027C35.8783 26.3444 35.5948 26.5925 35.7366 26.9114C35.8429 27.195 35.7365 27.4076 35.5239 27.4076C35.3113 27.4076 35.1341 27.1595 35.1341 26.876ZM17.7688 27.2658C17.7688 26.876 18.4422 26.7343 18.6548 27.0532C18.7611 27.2304 18.6193 27.4076 18.3358 27.4076C18.0169 27.4076 17.7688 27.3367 17.7688 27.2658ZM102.114 26.8051C101.76 27.1241 101.725 27.1241 101.902 26.8051C102.043 26.5216 101.973 26.3444 101.725 26.3444C100.945 26.3444 101.689 25.9192 103 25.6356C103.993 25.423 104.241 25.423 103.922 25.742C103.426 26.2381 103.426 26.8051 103.957 26.4862C104.205 26.3444 104.241 26.3799 104.099 26.6279C103.922 26.9115 103.638 26.9469 103.213 26.6988C102.788 26.4862 102.433 26.5216 102.114 26.8051ZM45.5887 26.4153C45.695 26.309 45.9785 26.4153 46.2266 26.6634C46.5455 27.0178 46.5101 27.0532 46.014 26.8406C45.6596 26.7343 45.4823 26.5216 45.5887 26.4153ZM28.4006 26.6988C28.4006 26.5216 28.5778 26.3444 28.7904 26.3444C28.9676 26.3444 29.0385 26.5216 28.9322 26.6988C28.8259 26.9115 28.6487 27.0532 28.5424 27.0532C28.4715 27.0532 28.4006 26.9115 28.4006 26.6988ZM46.6164 25.9192C46.5101 25.1749 47.0062 24.7851 47.5733 25.1395C47.8568 25.2812 47.8213 25.4584 47.5024 25.6711C47.1126 25.9191 47.148 25.99 47.6087 25.99C47.9631 25.99 48.2466 26.1318 48.2466 26.309C48.2466 26.876 46.7227 26.5216 46.6164 25.9192ZM63.8399 25.8483C63.8399 25.7774 64.088 25.5293 64.3715 25.2813C64.8322 24.8914 64.8677 24.9269 64.6905 25.423C64.5133 25.9192 63.8399 26.2381 63.8399 25.8483ZM49.3098 25.6356C49.0263 25.4584 48.8845 25.2458 48.9908 25.1395C49.0971 25.0332 49.487 25.1749 49.8768 25.4584C50.621 26.0255 50.1603 26.1672 49.3098 25.6356ZM99.988 25.2813C99.988 25.1041 100.236 25.0332 100.52 25.1395C100.803 25.2812 101.051 25.423 101.051 25.4939C101.051 25.5648 100.803 25.6356 100.52 25.6356C100.236 25.6356 99.988 25.4939 99.988 25.2813ZM39.564 25.2813C39.6703 25.1041 40.0602 24.9268 40.3791 24.9623C40.8753 24.9623 40.8398 25.0332 40.2728 25.2813C39.6349 25.5411 39.3986 25.5411 39.564 25.2813ZM66.3207 23.97C66.3207 23.8991 66.6396 24.0054 67.0649 24.2181C67.4547 24.4661 68.0217 24.537 68.3052 24.4307C68.5888 24.3244 68.8014 24.3953 68.8014 24.537C68.8014 25.1395 67.9155 25.1749 67.1003 24.6433C66.6751 24.3598 66.3207 24.0763 66.3207 23.97ZM50.4793 24.5725C50.3375 24.1472 50.373 24.1118 50.6565 24.537C50.8691 24.8205 51.259 24.9269 51.6133 24.8205C51.9677 24.6788 52.1095 24.7142 51.9677 24.9623C51.6488 25.4584 50.6565 25.2104 50.4793 24.5725ZM33.3267 24.8205C33.5393 24.537 33.6456 24.2181 33.5393 24.0763C33.433 23.97 33.5748 24.0409 33.7874 24.2181C34.1418 24.537 34.1418 24.6788 33.7165 24.9269C32.9723 25.3876 32.866 25.3521 33.3267 24.8205ZM26.168 24.7497C26.2743 24.4307 26.4515 24.2535 26.5223 24.3598C26.6287 24.4661 26.5932 24.6788 26.4514 24.8914C26.1325 25.4584 25.9199 25.3521 26.168 24.7497ZM106.899 24.537C106.757 24.3244 106.438 24.2535 106.154 24.3598C105.517 24.6079 104.595 24.2535 104.595 23.7928C104.595 23.5447 104.772 23.5802 105.091 23.8282C105.446 24.1118 105.765 24.0763 106.403 23.5802C107.182 22.9777 109.628 22.4815 109.096 23.0486C108.954 23.1549 109.025 23.4738 109.238 23.7219C109.557 24.1117 109.45 24.2889 108.812 24.537C107.678 24.9977 107.147 24.9977 106.899 24.537ZM47.8922 24.5725C47.8922 24.3953 48.2466 24.2181 48.6719 24.2181C49.3453 24.2181 49.3807 24.289 48.9554 24.5725C48.2821 25.0332 47.8922 25.0332 47.8922 24.5725ZM43.4623 24.5725C43.5686 24.3953 43.9585 24.2181 44.2774 24.2181C44.809 24.2181 44.809 24.289 44.3483 24.5725C43.6395 25.0332 43.1788 25.0332 43.4623 24.5725ZM5.15243 24.3953C5.50682 24.1118 6.00297 24.0054 6.21561 24.1117C6.42824 24.2535 6.2156 24.4661 5.71945 24.6079C4.44363 24.9623 4.4082 24.9623 5.15243 24.3953ZM40.9816 24.2181C41.0879 24.0409 41.3714 23.8637 41.5486 23.8637C41.7612 23.8637 41.7967 24.0409 41.6903 24.2181C41.584 24.4307 41.3005 24.5725 41.1233 24.5725C40.9107 24.5725 40.8752 24.4307 40.9816 24.2181ZM37.7212 24.3598C37.8275 24.2535 38.1464 24.2181 38.3945 24.3244C38.678 24.4307 38.5717 24.537 38.1818 24.537C37.792 24.5725 37.5794 24.4661 37.7212 24.3598ZM35.3822 24.0409C35.4885 23.7219 35.6657 23.5447 35.7366 23.651C35.8429 23.7574 35.8074 23.97 35.6657 24.1826C35.3467 24.7497 35.1341 24.6433 35.3822 24.0409ZM31.0586 24.2535C30.9522 24.0763 30.9877 23.8282 31.1649 23.7219C31.3421 23.6156 31.4838 23.7574 31.4838 24.0409C31.4838 24.6433 31.3775 24.7142 31.0586 24.2535ZM53.2081 23.8991C53.2081 23.6865 53.3499 23.4738 53.4916 23.3675C53.6688 23.2612 53.8106 23.403 53.8106 23.6865C53.8106 23.97 53.6688 24.2181 53.4916 24.2181C53.3499 24.2181 53.2081 24.0763 53.2081 23.8991ZM27.2311 23.0131C27.0894 22.6942 27.2311 22.5524 27.621 22.6233C27.9399 22.6942 28.2943 22.7651 28.4006 22.7651C28.5424 22.8005 27.6564 23.4738 27.4792 23.5093C27.4437 23.5093 27.3374 23.2966 27.2311 23.0131ZM48.8491 22.4107C48.9909 21.8791 49.168 21.8082 49.4516 22.0917C49.7351 22.3752 49.6996 22.5524 49.3098 22.8005C49.0263 22.9777 48.7428 23.1549 48.7073 23.1549C48.7073 23.1549 48.7428 22.8359 48.8491 22.4107ZM44.2774 22.7296C44.7381 22.2689 44.8799 22.2335 46.014 22.1271C46.581 22.0917 46.581 22.0208 46.1203 21.7373C45.695 21.4538 45.7659 21.3829 46.4746 21.3829C46.9708 21.3829 47.6087 21.5247 47.8922 21.7373C48.4947 22.1272 48.1403 22.3043 46.1912 22.5879C45.5178 22.6587 44.9153 22.8359 44.7736 22.9423C44.6673 23.0486 44.4192 23.1549 44.2065 23.1549C43.9939 23.1549 44.0294 22.9777 44.2774 22.7296ZM21.6671 22.3398C21.6671 22.1271 21.7735 22.0917 21.9152 22.198C22.0216 22.3398 22.3051 22.3043 22.5177 22.0917C22.7658 21.9145 23.1201 21.9145 23.4391 22.1626C23.8644 22.4461 23.8289 22.4815 23.2973 22.3043C22.8366 22.1626 22.6949 22.2335 22.8366 22.5879C22.9784 22.9423 22.8366 23.0131 22.3405 22.9068C21.9861 22.8005 21.6671 22.5524 21.6671 22.3398ZM17.946 22.4461C18.0523 22.2689 18.3004 22.0917 18.513 22.0917C18.6902 22.0917 18.832 22.2689 18.832 22.4461C18.832 22.6587 18.5839 22.8005 18.265 22.8005C17.9815 22.8005 17.8397 22.6587 17.946 22.4461ZM16.3512 22.4461C16.3512 22.2689 16.5284 22.0917 16.7411 22.0917C16.9183 22.0917 16.9891 22.2689 16.8828 22.4461C16.7765 22.6587 16.5993 22.8005 16.493 22.8005C16.4221 22.8005 16.3512 22.6587 16.3512 22.4461ZM112.25 22.198C112.108 22.0208 111.825 21.9145 111.648 21.9145C111.187 21.9145 111.187 21.2412 111.648 21.0994C111.86 21.0285 112.037 21.1349 112.037 21.3475C112.037 21.5601 112.285 21.7373 112.569 21.7373C112.852 21.7373 113.101 21.9145 113.101 22.0917C113.101 22.517 112.64 22.5524 112.25 22.198ZM109.202 22.3043C109.202 22.2335 109.486 21.95 109.805 21.7019C110.372 21.2412 110.407 21.2766 109.946 21.8436C109.486 22.4107 109.202 22.5879 109.202 22.3043ZM54.3776 22.2335C54.4839 22.1272 54.8029 22.0917 55.051 22.198C55.3345 22.3043 55.2281 22.4107 54.8383 22.4107C54.4485 22.4461 54.2359 22.3398 54.3776 22.2335ZM25.4592 21.9145C25.5655 21.5956 25.7427 21.4184 25.8136 21.5247C25.9199 21.631 25.8844 21.8436 25.7427 22.0563C25.4237 22.6233 25.2111 22.517 25.4592 21.9145ZM20.3559 21.8436C20.6749 21.7728 20.852 21.5247 20.7457 21.312C20.604 21.064 20.6748 21.0285 20.9229 21.1703C21.4545 21.5247 21.0647 22.0917 20.3205 22.0563C19.7889 22.0208 19.7889 21.9854 20.3559 21.8436ZM31.3421 20.8159C31.4484 20.7096 31.7674 20.6741 32.0154 20.7805C32.299 20.8868 32.1926 20.9931 31.8028 20.9931C31.4129 21.0285 31.2003 20.9222 31.3421 20.8159ZM54.2713 20.178C54.2713 19.8945 54.8738 19.611 55.937 19.4692C56.8938 19.3274 57.9216 19.1503 58.2405 19.0794C58.5949 19.0085 58.8784 19.1148 58.8784 19.292C58.8784 19.4692 58.3468 19.611 57.7089 19.611C57.071 19.611 56.2205 19.859 55.8306 20.1426C54.9801 20.7805 54.2713 20.8159 54.2713 20.178ZM51.7905 20.0008C51.7905 19.5755 52.5348 19.3274 53.279 19.5401C54.3068 19.7882 54.0232 20.3198 52.8537 20.3198C52.2513 20.3198 51.7905 20.178 51.7905 20.0008ZM109.911 19.611C109.911 19.4338 110.088 19.2566 110.301 19.2566C110.478 19.2566 110.549 19.4338 110.443 19.611C110.336 19.8236 110.159 19.9654 110.053 19.9654C109.982 19.9654 109.911 19.8236 109.911 19.611ZM39.7057 19.3274C39.9538 19.2566 40.3437 19.3629 40.5209 19.5401C40.8044 19.8236 40.6626 19.859 40.0601 19.7173C39.5994 19.5755 39.4222 19.4338 39.7057 19.3274ZM118.948 18.1934C119.054 18.0516 118.842 17.9808 118.487 18.0871C118.133 18.1579 117.637 17.9807 117.389 17.6972C116.822 17.0239 117.353 16.953 118.027 17.5909C118.346 17.839 118.416 17.839 118.31 17.6264C117.991 17.0593 118.948 16.7404 119.905 17.0948C120.543 17.3074 120.578 17.4137 120.082 17.5909C119.728 17.7327 119.48 18.0871 119.48 18.3706C119.48 18.6895 119.302 18.8313 119.125 18.725C118.913 18.5832 118.842 18.3706 118.948 18.1934ZM59.7644 18.0162C58.9847 18.0516 58.6303 18.0162 58.9847 17.9453C59.3037 17.839 59.5163 17.6264 59.3746 17.4492C59.2682 17.272 59.3037 17.1302 59.4809 17.1656C59.6227 17.2011 59.8353 17.1657 59.9416 17.1302C60.0479 17.0948 60.8276 16.9885 61.6427 16.9176C62.7059 16.7758 63.1311 16.8467 62.9539 17.0948C62.8476 17.3074 62.4932 17.4846 62.2097 17.4846C61.9262 17.4846 61.749 17.5909 61.749 17.7681C61.8553 18.3706 61.6781 18.6895 61.4301 18.3351C61.2883 18.0871 60.5441 17.9453 59.7644 18.0162ZM52.393 18.3351C52.0032 17.9453 52.4993 17.4846 53.0309 17.6972C53.3144 17.839 53.4562 18.0516 53.3499 18.2288C53.1372 18.6187 52.712 18.6541 52.393 18.3351ZM44.7381 17.9453C45.0571 17.5909 45.0216 17.4846 44.6673 17.4492C44.3837 17.4492 44.49 17.3074 44.8799 17.1656C45.8722 16.7404 46.6873 17.4137 45.9076 18.0162C45.0571 18.6187 44.242 18.5832 44.7381 17.9453ZM115.688 17.3783C115.652 16.9885 115.652 16.7404 115.688 16.8113C115.759 16.8821 115.971 17.2011 116.219 17.52C116.538 17.9453 116.538 18.0871 116.184 18.0871C115.936 18.0871 115.688 17.7681 115.688 17.3783ZM57.2482 17.6618C57.638 17.3783 58.2051 17.1302 58.4886 17.1656C58.8075 17.1656 58.5594 17.4137 57.9924 17.6618C56.6103 18.2997 56.3977 18.2997 57.2482 17.6618ZM111.683 17.4846C111.683 17.3074 111.825 17.1302 112.002 17.1302C112.215 17.1302 112.463 17.3074 112.569 17.4846C112.675 17.6972 112.534 17.839 112.25 17.839C111.931 17.839 111.683 17.6972 111.683 17.4846ZM72.0619 17.4137C71.4594 16.8113 71.5303 16.4214 72.239 16.4214C72.7706 16.4214 72.806 16.4923 72.3453 16.7758C71.8846 17.0593 71.9201 17.1302 72.4162 17.1302C72.7706 17.1302 73.0541 17.3074 73.0541 17.4846C73.0541 17.9808 72.5934 17.9453 72.0619 17.4137ZM55.9015 17.2011C55.7952 17.0239 55.9015 16.8821 56.1496 16.8821C56.3977 16.8821 56.9647 16.7758 57.4608 16.6341L58.3468 16.386L57.4608 16.9176C56.4331 17.5555 56.1496 17.5909 55.9015 17.2011ZM51.1881 17.272C51.2944 17.1657 51.6134 17.1302 51.8614 17.2365C52.145 17.3428 52.0386 17.4492 51.6488 17.4492C51.2589 17.4846 51.0463 17.3783 51.1881 17.272ZM46.829 17.1302C46.829 16.953 46.8999 16.7758 46.9708 16.7758C47.0771 16.7758 47.2543 16.953 47.3606 17.1302C47.4669 17.3429 47.3961 17.4846 47.2189 17.4846C47.0062 17.4846 46.829 17.3429 46.829 17.1302ZM53.0309 16.7758C53.1372 16.5986 53.5271 16.4214 53.846 16.4569C54.3422 16.4569 54.3067 16.5277 53.7397 16.7758C53.1018 17.0357 52.8655 17.0357 53.0309 16.7758ZM120.011 15.4646C120.295 15.181 120.543 14.8267 120.543 14.6495C120.543 14.4723 120.755 14.4014 121.039 14.5077C121.322 14.614 121.854 14.5077 122.208 14.2951C122.61 14.0352 122.61 13.9643 122.208 14.0824C121.783 14.2242 121.606 14.1533 121.712 13.8698C121.783 13.6217 122.031 13.4445 122.279 13.48C122.492 13.5508 123.165 13.2673 123.803 12.8775C125.185 12.027 125.504 11.9915 125.504 12.6649C125.504 12.9484 125.15 13.2319 124.725 13.3028C124.299 13.3736 123.732 13.7635 123.52 14.2242C122.988 15.3228 121.96 16.0316 120.968 16.067C120.401 16.067 120.224 16.2088 120.401 16.5277C120.614 16.8113 120.507 16.8113 120.082 16.4923C119.586 16.067 119.55 15.9253 120.011 15.4646ZM72.5225 15.4291C72.6289 15.3228 72.9124 15.4291 73.1605 15.6772C73.4794 16.0316 73.444 16.067 72.9478 15.8544C72.5934 15.7481 72.4162 15.5354 72.5225 15.4291ZM54.8738 14.8621C54.732 14.5431 54.8738 14.4014 55.2636 14.4723C55.5826 14.5431 55.9369 14.614 56.0433 14.614C56.185 14.6495 55.299 15.3228 55.1218 15.3582C55.0864 15.3582 54.9801 15.1456 54.8738 14.8621ZM65.7891 14.2951C65.6827 14.0824 65.8245 14.047 66.108 14.1533C66.7459 14.4014 66.8522 14.6495 66.3561 14.6495C66.1435 14.6495 65.8954 14.5077 65.7891 14.2951ZM67.3838 13.7989C67.3838 13.6926 67.5256 13.5154 67.7382 13.4091C67.9154 13.3028 68.0926 13.3736 68.0926 13.5508C68.0926 13.7635 67.9154 13.9407 67.7382 13.9407C67.5256 13.9407 67.3838 13.8698 67.3838 13.7989ZM121.819 11.8852C121.712 11.708 121.854 11.5662 122.138 11.5662C122.421 11.5662 122.563 11.708 122.457 11.8852C122.35 12.0269 122.208 12.1687 122.138 12.1687C122.067 12.1687 121.925 12.0269 121.819 11.8852ZM122.953 11.1764C122.74 10.9638 123.13 10.8575 124.193 10.8929C125.079 10.9283 125.717 10.822 125.646 10.6803C125.54 10.5031 125.646 10.3967 125.859 10.3967C126.071 10.3967 126.142 10.255 126.036 10.0424C125.93 9.86516 126.036 9.68796 126.284 9.68796C126.532 9.68796 127.312 9.05005 127.985 8.27039C128.658 7.49073 129.332 6.85282 129.474 6.85282C129.899 6.85282 129.792 7.45528 129.296 7.98687C129.048 8.23494 128.304 9.19181 127.666 10.1132C126.497 11.7434 126.426 11.7789 124.902 11.6726C124.016 11.6017 123.165 11.389 122.953 11.1764ZM71.7429 10.8929C71.8492 10.7866 72.1682 10.7511 72.4162 10.8575C72.6998 10.9638 72.5934 11.0701 72.2036 11.0701C71.8137 11.1055 71.6011 10.9992 71.7429 10.8929ZM75.4286 7.77423C75.2868 7.41984 75.3931 7.31352 75.7121 7.45528C75.9956 7.5616 76.1374 7.77423 76.031 7.95143C75.783 8.3767 75.6412 8.34126 75.4286 7.77423ZM127.489 7.06545C127.772 6.35666 128.694 6.03771 128.694 6.67562C128.694 6.9237 128.41 7.24265 128.056 7.31353C127.737 7.41984 127.418 7.49072 127.383 7.52616C127.347 7.52616 127.383 7.34896 127.489 7.06545ZM73.9401 7.20721C73.8338 7.03001 73.9755 6.85282 74.2945 6.85282C74.6135 6.85282 74.7552 7.03001 74.6489 7.20721C74.5426 7.41985 74.3654 7.5616 74.2945 7.5616C74.2236 7.5616 74.0464 7.41985 73.9401 7.20721Z" fill="#151304"/>
<path fill-rule="evenodd" clip-rule="evenodd" d="M57.8154 48.8483L58.7014 48.3521L57.5674 48.3167C56.6814 48.3167 56.4687 48.4585 56.6105 48.8483C56.7522 49.1318 56.8586 49.3799 56.894 49.3799C56.894 49.3444 57.3193 49.1318 57.8154 48.8483Z" fill="#151304"/>
<path fill-rule="evenodd" clip-rule="evenodd" d="M67.2062 45.4818C67.3125 45.3046 67.277 45.1274 67.0644 45.1274C66.8872 45.1274 66.6037 45.3046 66.4974 45.4818C66.3911 45.6944 66.4265 45.8362 66.6391 45.8362C66.8163 45.8362 67.0999 45.6944 67.2062 45.4818Z" fill="#151304"/>
<path fill-rule="evenodd" clip-rule="evenodd" d="M80.3194 40.5201C80.2131 40.3429 79.9651 40.1657 79.7524 40.1657C79.5752 40.1657 79.4335 40.3429 79.4335 40.5201C79.4335 40.7328 79.6815 40.8745 80.0005 40.8745C80.284 40.8745 80.4258 40.7328 80.3194 40.5201Z" fill="#151304"/>
<path fill-rule="evenodd" clip-rule="evenodd" d="M107.855 24.3244C107.607 24.218 107.288 24.2535 107.182 24.3598C107.04 24.4661 107.253 24.5724 107.642 24.537C108.032 24.537 108.139 24.4307 107.855 24.3244Z" fill="#151304"/>
<path fill-rule="evenodd" clip-rule="evenodd" d="M20.7456 64.371C19.8596 64.1938 19.2926 62.8471 20.1077 62.8471C20.9228 62.8471 20.6747 62.2446 19.7888 61.9611C18.1231 61.4295 17.8041 61.465 17.2725 62.2092C16.7764 62.918 16.7764 63.0243 17.4497 63.6622C17.9459 64.1229 18.7964 64.4064 19.8596 64.4419C20.7456 64.5128 21.1354 64.4773 20.7456 64.371ZM18.1231 63.7685C18.1231 63.6977 18.3712 63.4496 18.6547 63.2015C19.1154 62.8117 19.1508 62.8471 18.9736 63.3433C18.7964 63.8394 18.1231 64.1584 18.1231 63.7685Z" fill="#151304"/>
<path fill-rule="evenodd" clip-rule="evenodd" d="M93.0419 38.4648C92.8292 38.323 92.652 37.8623 92.6875 37.437C92.6875 37.0118 92.6166 36.6574 92.4394 36.6219C90.951 36.5511 90.065 36.6928 90.065 37.0118C90.065 37.2244 90.3485 37.2953 90.6675 37.189C91.0219 37.0826 91.5534 37.1535 91.8369 37.3307C92.1205 37.5079 92.2268 37.6851 92.0496 37.6851C91.8724 37.6851 91.9433 37.9332 92.1913 38.2167C92.4394 38.5002 92.8292 38.7483 93.0419 38.7483C93.3254 38.7483 93.3254 38.6774 93.0419 38.4648Z" fill="#151304"/>
<path fill-rule="evenodd" clip-rule="evenodd" d="M94.6722 37.6495C94.6722 37.4723 94.495 37.4014 94.3178 37.5077C94.1052 37.614 93.9635 37.7912 93.9635 37.8975C93.9635 37.9684 94.1052 38.0393 94.3178 38.0393C94.495 38.0393 94.6722 37.8621 94.6722 37.6495Z" fill="#151304"/>
<path fill-rule="evenodd" clip-rule="evenodd" d="M25.565 36.2675C25.8839 36.0548 25.9194 35.9131 25.6713 35.9131C25.4587 35.9131 25.1397 36.0903 25.0334 36.2675C24.7499 36.6927 24.8916 36.6927 25.565 36.2675Z" fill="#151304"/>
<path fill-rule="evenodd" clip-rule="evenodd" d="M98.4288 33.1488C99.0667 32.9362 99.1376 32.8299 98.7478 32.4755C98.4643 32.192 98.1808 32.1565 98.039 32.3692C97.9327 32.5464 97.6137 32.6172 97.3302 32.4755C97.0113 32.3692 96.7986 32.5109 96.7986 32.8653C96.7986 33.4678 97.153 33.5032 98.4288 33.1488Z" fill="#151304"/>
<path fill-rule="evenodd" clip-rule="evenodd" d="M102.469 32.7237C101.76 32.263 100.945 32.263 101.228 32.7237C101.335 32.9364 101.795 33.0781 102.221 33.0781C102.858 33.0781 102.894 33.0072 102.469 32.7237Z" fill="#151304"/>
<path fill-rule="evenodd" clip-rule="evenodd" d="M104.488 31.554C104.63 31.306 105.233 30.9161 105.8 30.6681C106.65 30.2782 106.757 30.1365 106.331 29.8884C106.083 29.7112 105.516 29.6403 105.126 29.7112C104.737 29.8175 104.63 29.7821 104.843 29.6758C105.091 29.5694 105.304 29.3214 105.304 29.1442C105.304 28.9315 105.162 28.8607 104.985 29.0024C104.807 29.1087 104.524 29.0024 104.418 28.7898C104.24 28.5417 103.992 28.6835 103.638 29.1442C103.354 29.5694 102.894 29.8884 102.61 29.8884C102.291 29.8884 102.114 30.101 102.22 30.3491C102.291 30.5617 102.575 30.7389 102.787 30.6681C103.035 30.6326 103.106 30.7744 102.965 30.987C102.858 31.1996 102.965 31.5186 103.213 31.6958C103.886 32.1211 104.17 32.0856 104.488 31.554ZM103.177 30.0656C103.177 29.6403 103.851 29.6403 103.992 30.0656C104.134 30.3845 104.028 30.4909 103.673 30.3491C103.425 30.2428 103.177 30.101 103.177 30.0656Z" fill="#151304"/>
<path fill-rule="evenodd" clip-rule="evenodd" d="M102.469 31.8021C102.469 31.1997 101.512 30.4909 101.264 30.9162C101.122 31.0934 101.193 31.3414 101.406 31.4832C101.583 31.5895 101.76 31.5895 101.76 31.4123C101.76 31.2706 101.937 31.3769 102.114 31.6604C102.292 31.9439 102.469 32.0148 102.469 31.8021Z" fill="#151304"/>
<path fill-rule="evenodd" clip-rule="evenodd" d="M99.988 31.306C99.988 31.1288 99.7399 30.9516 99.421 30.9516C99.1374 30.9516 98.9957 31.1288 99.102 31.306C99.2083 31.5186 99.4564 31.6604 99.669 31.6604C99.8462 31.6604 99.988 31.5186 99.988 31.306Z" fill="#151304"/>
<path fill-rule="evenodd" clip-rule="evenodd" d="M109.343 27.9039C109.45 27.6204 109.804 27.5141 110.158 27.6204C110.56 27.7385 110.56 27.6676 110.158 27.4078C109.308 26.8407 107.04 27.266 107.288 27.9039C107.536 28.5418 109.095 28.5064 109.343 27.9039Z" fill="#151304"/>
<path fill-rule="evenodd" clip-rule="evenodd" d="M112.923 25.0688C113.49 24.5727 113.809 24.2537 113.561 24.36C113.348 24.5018 113.029 24.3955 112.923 24.2183C112.746 23.9702 112.498 24.0411 112.179 24.4663C111.718 25.0334 111.683 25.0334 111.895 24.5018C112.179 23.6867 111.045 23.6158 110.761 24.3955C110.619 24.679 110.371 24.8207 110.159 24.679C109.946 24.5372 109.911 24.6435 110.088 24.9271C110.23 25.1751 110.159 25.4941 109.875 25.6713C109.521 25.8839 109.769 25.9902 110.619 25.9902C111.47 25.9902 112.214 25.6713 112.923 25.0688Z" fill="#151304"/>
<path fill-rule="evenodd" clip-rule="evenodd" d="M115.227 23.8636C115.227 23.6864 115.05 23.5092 114.837 23.5092C114.66 23.5092 114.589 23.6864 114.696 23.8636C114.802 24.0763 114.979 24.218 115.085 24.218C115.156 24.218 115.227 24.0763 115.227 23.8636Z" fill="#151304"/>
<path fill-rule="evenodd" clip-rule="evenodd" d="M114.412 23.4383C115.759 23.0131 115.9 22.6232 114.873 22.3397C114.483 22.2334 114.164 22.3043 114.164 22.4815C114.164 22.6587 113.916 22.8004 113.632 22.8004C113.349 22.8004 113.101 23.0485 113.101 23.332C113.101 23.6155 113.136 23.8636 113.172 23.8282C113.242 23.7927 113.809 23.6155 114.412 23.4383Z" fill="#151304"/>
<path fill-rule="evenodd" clip-rule="evenodd" d="M116.821 22.8006C116.715 22.6234 116.857 22.4462 117.14 22.4462C117.424 22.4462 117.778 22.269 117.92 22.021C118.097 21.7375 117.991 21.702 117.601 21.8438C116.396 22.3045 117.034 21.702 118.274 21.1704C119.125 20.816 119.444 20.4971 119.231 20.2844C118.983 20.0364 118.416 20.2136 117.53 20.816C116.821 21.3122 116.077 21.6311 115.9 21.5248C115.545 21.3122 115.474 21.7729 115.793 22.588C115.9 22.907 116.254 23.155 116.538 23.155C116.821 23.155 116.928 23.0133 116.821 22.8006Z" fill="#151304"/>
<path fill-rule="evenodd" clip-rule="evenodd" d="M9.61786 21.702C9.61786 21.5248 9.44066 21.4539 9.26347 21.5602C9.05083 21.6665 8.90907 21.8437 8.90907 21.95C8.90907 22.0209 9.05083 22.0918 9.26347 22.0918C9.44066 22.0918 9.61786 21.9146 9.61786 21.702Z" fill="#151304"/>
<path fill-rule="evenodd" clip-rule="evenodd" d="M117.176 20.3197C117.282 20.1425 117.212 19.9653 117.034 19.9653C116.822 19.9653 116.645 20.1425 116.645 20.3197C116.645 20.5323 116.715 20.6741 116.786 20.6741C116.893 20.6741 117.07 20.5323 117.176 20.3197Z" fill="#151304"/>
<path fill-rule="evenodd" clip-rule="evenodd" d="M75.8895 19.93C75.8895 19.7528 75.7123 19.6819 75.5351 19.7882C75.3224 19.8946 75.1807 20.0717 75.1807 20.1781C75.1807 20.2489 75.3224 20.3198 75.5351 20.3198C75.7123 20.3198 75.8895 20.1426 75.8895 19.93Z" fill="#151304"/>
<path d="M35.1342 18.5478C34.9385 18.5478 34.7798 18.7065 34.7798 18.9022C34.7798 19.0979 34.9385 19.2566 35.1342 19.2566C35.3299 19.2566 35.4886 19.0979 35.4886 18.9022C35.4886 18.7065 35.3299 18.5478 35.1342 18.5478Z" fill="#151304"/>
<path fill-rule="evenodd" clip-rule="evenodd" d="M53.6332 14.4015C53.3851 14.2952 53.0661 14.3306 52.9598 14.4369C52.8181 14.5433 53.0307 14.6496 53.4205 14.6141C53.8103 14.6141 53.9167 14.5078 53.6332 14.4015Z" fill="#151304"/>
<path fill-rule="evenodd" clip-rule="evenodd" d="M131.175 5.39996C131.175 5.22276 130.997 5.15189 130.82 5.25821C130.608 5.36452 130.466 5.54171 130.466 5.64803C130.466 5.71891 130.608 5.78979 130.82 5.78979C130.997 5.78979 131.175 5.6126 131.175 5.39996Z" fill="#151304"/>
</svg>
