<svg width="117" height="127" viewBox="0 0 117 127" fill="none" xmlns="http://www.w3.org/2000/svg">
<path fill-rule="evenodd" clip-rule="evenodd" d="M41.3348 1.19695C41.1759 1.5147 41.2289 1.77947 41.4937 1.77947C41.8114 1.77947 42.1821 2.41497 42.394 3.20934C42.7117 4.48032 42.8176 4.58624 43.3472 3.84484C43.7179 3.36822 44.3534 2.89158 44.7771 2.73271C45.3596 2.57383 45.2537 2.30907 44.3004 1.83245C43.2943 1.24992 43.1354 1.2499 43.5061 1.8854C43.7179 2.2561 43.4002 2.15018 42.8176 1.62061C42.0762 0.985116 41.5996 0.82625 41.3348 1.19695Z" fill="#FFD446"/>
<path fill-rule="evenodd" clip-rule="evenodd" d="M39.7991 4.21567C38.6341 5.32778 38.74 6.33397 39.8521 5.43369C40.5935 4.7982 40.6994 4.7982 40.2758 5.43369C39.958 6.01622 40.1169 6.12213 41.176 5.85734C42.2881 5.5396 42.6059 5.69847 42.8177 6.65171C42.9766 7.2872 42.9236 8.18749 42.6588 8.61115C42.3941 9.08777 42.1293 9.24665 42.1293 8.98186C42.1293 8.71707 41.7056 8.87594 41.229 9.24665C40.5935 9.77622 40.4876 9.77621 40.7524 9.29959C40.9642 8.92889 40.8053 8.55819 40.3287 8.34636C39.905 8.18749 39.6403 7.76383 39.7991 7.39313C40.1169 6.59876 38.3163 6.59876 37.2572 7.39313C36.8865 7.65792 35.8803 8.24043 35.0859 8.66409C34.2386 9.08775 33.8149 9.51141 34.1327 9.61732C35.2448 9.98803 34.7152 10.6765 33.5501 10.4117C32.5439 10.1469 32.438 10.2528 32.9676 10.7824C33.4972 11.3649 33.4442 11.6297 32.7028 12.1593C31.8555 12.7948 31.9084 12.9537 33.3383 14.1187L34.927 15.3897L33.2324 15.1249C31.9614 14.9661 31.4848 15.1249 31.167 15.8664C31.0082 16.4489 30.5845 17.0314 30.2668 17.2432C29.949 17.4551 30.002 17.8787 30.4786 18.4083C31.0611 19.1497 31.0082 19.2556 30.3197 18.9379C29.4194 18.6201 27.6189 19.9441 28.2014 20.5266C28.3603 20.6855 28.1485 20.9503 27.6718 21.1621C27.1952 21.321 26.9304 21.9035 27.0363 22.4861C27.1423 23.0156 27.0363 23.4922 26.7186 23.4922C26.4538 23.4922 26.2949 23.81 26.3479 24.1277C26.4538 24.5514 26.0831 24.7632 25.4476 24.6573C24.6003 24.5514 24.5473 24.6044 25.1828 25.028C25.6065 25.2928 26.189 25.3987 26.5068 25.1869C26.7716 24.9751 27.46 24.9221 27.9896 24.975C28.5192 25.081 28.8899 24.8162 28.8899 24.3396C28.8899 23.863 29.3135 23.4922 29.8961 23.4922C31.5377 23.4922 34.1856 24.6043 34.1856 25.3458C34.1856 25.7165 34.5034 26.1401 34.8211 26.246C35.2448 26.4049 35.0329 26.7756 34.2915 27.1463C32.9146 27.8877 31.9084 27.4111 33.1265 26.6697C33.8149 26.246 33.762 26.1401 33.0206 26.1401C32.491 26.1401 32.0673 26.4049 32.0673 26.7227C32.0673 27.0404 31.7496 27.1993 31.4318 27.0404C31.0611 26.9345 30.1608 27.3052 29.4194 27.8348C28.6251 28.4703 28.0425 28.6291 27.9366 28.3114C27.8307 27.9937 27.513 27.8877 27.2482 28.0466C26.9304 28.2055 26.8775 27.8348 27.0363 27.0934C27.3011 26.0342 27.1423 25.8753 25.7124 25.8224C24.2825 25.7694 24.2296 25.8224 25.0769 26.4579C25.8713 27.0934 25.8713 27.1463 24.6003 27.1993C23.3293 27.1993 23.2234 27.3582 23.2763 29.1587C23.3293 30.6945 23.0645 31.277 22.2172 31.7007C21.6347 31.9655 21.211 32.495 21.3169 32.8657C21.4228 33.1835 20.8933 33.8719 20.0459 34.2956C19.2516 34.7193 18.9338 35.1429 19.3575 35.1429C19.94 35.1429 19.8871 35.3018 19.1457 35.7255C18.3513 36.2021 18.2983 36.4139 18.8809 36.7846C19.5164 37.2083 19.4634 37.3672 18.722 37.8438C17.504 38.5322 17.504 39.4325 18.669 39.0088C19.1986 38.797 19.4104 38.9029 19.1986 39.2207C18.9868 39.5384 19.1986 40.068 19.6223 40.4387C20.5226 41.1801 20.6285 40.8094 19.8871 39.4325C19.5164 38.6381 19.7811 38.1615 21.211 36.9964C23.1175 35.5136 23.753 33.7131 22.2172 34.2956C21.4758 34.5604 21.4228 34.5074 22.0054 33.819C22.482 33.2364 22.8527 33.1835 23.3823 33.5542C24.1237 34.1897 24.1766 33.2894 23.4352 32.1243C23.2234 31.8066 23.2763 31.33 23.5941 31.1711C23.9118 30.9593 24.0707 31.1182 24.0178 31.4889C23.9118 31.8066 24.1766 32.2303 24.5473 32.3362C25.2887 32.6539 25.3947 31.6477 24.6532 31.1711C23.8589 30.6945 24.0178 29.8472 24.918 29.8472C25.3417 29.8472 25.7124 29.5824 25.7124 29.3176C25.7124 28.5232 27.46 28.6821 28.6251 29.5294C29.2076 29.9531 30.002 30.1119 30.4786 30.006C30.9552 29.7942 30.8493 30.059 30.2138 30.5356C29.5783 31.0652 28.9428 31.1711 28.6251 30.8534C27.3541 29.5824 25.2887 30.9593 26.242 32.4421C26.5068 32.9717 26.7186 32.9717 27.0363 32.548C27.3011 32.0714 27.6189 32.0714 28.2014 32.548C28.8369 33.0776 29.0487 33.0776 29.4194 32.4421C29.7901 31.8596 30.0549 31.8596 30.5315 32.3362C31.273 33.0776 31.0082 33.5542 29.6842 33.766C29.2076 33.819 28.5721 34.2427 28.3073 34.6663C27.8837 35.1959 27.8837 35.037 28.1485 34.0838C28.3603 33.2364 28.1308 33.1129 27.46 33.7131C26.8775 34.1897 26.2949 34.4545 26.1361 34.2956C25.6594 33.8719 23.5941 35.037 23.5941 35.7255C23.5941 36.0962 24.3885 36.2021 25.6065 36.0432C26.6656 35.9373 27.0893 35.9373 26.5597 36.0432C25.7124 36.255 25.6594 36.4139 26.2949 36.7846C26.8775 37.1553 26.8775 37.2612 26.1361 37.2612C25.6065 37.2612 25.1828 37.4731 25.1828 37.7908C25.1828 38.0556 24.7592 38.3204 24.1766 38.3204C23.6471 38.3204 22.9056 38.6911 22.5349 39.1147C22.1642 39.5384 21.6347 39.7502 21.264 39.5384C20.9462 39.3266 21.0521 39.6443 21.4758 40.1739C21.9524 40.7564 22.0054 41.0212 21.6347 40.7565C21.158 40.4917 20.9462 40.7564 20.9462 41.4449C20.9462 42.8748 20.5755 42.8218 19.3575 41.339C18.5631 40.3857 18.2454 40.2798 17.7158 40.8094C17.1862 41.339 17.1862 41.4978 17.6628 41.4978C18.0335 41.4978 18.2983 41.7626 18.2983 42.1333C18.2983 42.4511 17.8747 42.3452 17.2392 41.7626C16.2859 40.8623 16.233 40.9153 15.9152 42.0804C15.7564 42.7688 15.5445 43.8809 15.4916 44.5694C15.4386 45.2578 14.962 46.0522 14.4324 46.317C13.7969 46.6877 13.5851 47.2173 13.7969 47.9057C14.0088 48.5412 13.8499 49.0178 13.2674 49.2297C12.6319 49.4945 12.5789 49.7063 13.0555 50.2888C13.5851 50.9243 13.5321 50.9773 12.7907 50.7125C12.1552 50.5007 11.9434 50.6595 11.9434 51.4539C11.9434 52.0894 11.6786 52.7249 11.4138 52.8837C11.0961 53.0956 10.9902 53.4663 11.149 53.7311C11.3609 53.9959 11.202 54.2077 10.8313 54.2077C10.3547 54.2077 10.3547 54.3666 10.8313 54.9491C11.3079 55.5316 11.3079 55.7964 10.7783 56.1671C9.87807 56.6967 5.74737 68.9299 6.01216 70.2538C6.11807 70.8364 6.54173 71.1541 7.07131 70.9953C7.60089 70.8893 7.91863 70.5186 7.86567 70.2009C7.75976 69.8302 7.97159 69.5654 8.23638 69.5654C8.55412 69.5654 8.76595 69.8302 8.76595 70.1479C8.76595 70.4657 9.13666 70.6246 9.56032 70.4127C10.0369 70.2539 10.3547 70.4127 10.3547 70.8893C10.3547 71.313 10.0899 71.6837 9.82511 71.6837C9.50736 71.6837 9.03074 72.2133 8.76595 72.8488C8.44821 73.6961 8.28934 73.802 8.28934 73.2195C8.23638 72.7429 7.81272 72.2133 7.3361 72.0015C6.80652 71.8426 6.06511 71.5248 5.64145 71.366C5.11188 71.1012 4.953 71.366 5.16483 72.4251C5.32371 73.1665 5.27075 73.802 5.05892 73.802C4.74117 73.802 3.94681 76.0792 3.73498 77.7738C3.73498 78.0386 3.41723 78.833 3.04653 79.4685C2.56991 80.3688 2.56991 80.6335 3.2054 80.8454C3.5761 81.0042 3.99977 80.9513 4.10568 80.7395C4.37047 80.104 7.17722 79.5214 7.17722 80.104C7.17722 80.3688 7.60089 80.7395 8.13046 80.8454C8.76595 81.0042 8.66004 81.1102 7.75976 81.1631C7.07131 81.1631 6.59469 81.375 6.80652 81.5338C7.12427 81.9045 5.9592 83.3344 5.32371 83.3344C5.16483 83.3344 5.16483 82.8578 5.32371 82.2223C5.69441 81.1631 5.64145 81.1631 4.15864 81.9575C2.30512 82.9107 1.14005 85.029 2.04033 85.9293C2.46399 86.353 2.46399 86.5118 1.98737 86.5118C1.19301 86.5118 1.35188 88.1535 2.14625 88.789C2.46399 89.0008 2.30512 89.3716 1.77554 89.7423C1.24597 90.0071 0.822307 90.7485 0.822307 91.278C0.822307 92.1783 0.981179 92.2313 2.56991 91.6487C3.73498 91.2251 3.99977 91.0133 3.36427 90.8544C2.8347 90.7485 2.41104 90.4837 2.41104 90.2189C2.41104 89.9541 2.8347 89.4775 3.36427 89.2127C4.2116 88.6831 4.15864 88.6831 3.2054 88.6302C2.41104 88.6302 2.30512 88.5243 2.88765 88.1536C3.47019 87.7828 3.47019 87.624 2.88765 87.3592C2.46399 87.2003 2.67582 87.1473 3.36427 87.2533C3.99977 87.3592 4.42343 87.2533 4.26455 86.9885C3.94681 86.5119 5.11188 84.3935 5.69441 84.3935C5.90624 84.3935 5.85328 85.029 5.5885 85.7705C4.79413 87.7299 4.953 88.2065 6.11807 87.8358C7.54793 87.3592 7.44201 87.9947 5.85328 89.2656C5.00596 89.9541 4.63526 90.6425 4.74117 91.4369C4.90005 92.0724 5.00596 92.8138 5.00596 93.0786C5.05892 93.2904 5.42962 93.3964 5.85328 93.1845C6.3299 93.0257 6.64765 93.1845 6.64765 93.6611C6.64765 94.0848 6.17103 94.4555 5.5885 94.4555C4.63526 94.4555 4.26455 95.038 4.47638 96.2561C4.52934 96.4679 4.31751 96.9975 3.94681 97.4211C3.62906 97.7918 3.52315 98.3744 3.73498 98.6921C4.05272 99.1687 3.31132 99.4865 2.25216 99.2747C1.98737 99.2217 1.93442 99.4335 2.14625 99.7513C2.30512 100.016 2.09329 100.44 1.61667 100.599C1.19301 100.81 0.557518 101.393 0.239772 101.923C-0.236846 102.823 -0.0779742 102.929 1.40484 102.929C2.78174 102.929 2.99357 102.823 2.41104 102.134C1.56371 101.128 2.14625 100.334 3.52315 100.652C4.26455 100.863 4.42343 101.128 4.05272 101.499C3.2054 102.346 3.36427 102.929 4.31751 102.558C5.11188 102.293 5.11188 102.399 4.26455 103.617C3.78794 104.359 3.31132 105.418 3.2054 105.947C3.09949 106.477 2.99357 107.006 2.99357 107.112C2.94061 107.218 2.41104 106.901 1.72259 106.477C0.557518 105.735 0.504561 105.735 0.557518 106.795C0.610476 107.377 1.03414 107.907 1.56371 108.013C3.73498 108.33 4.05272 108.648 3.36427 109.813C2.99357 110.396 2.51695 110.872 2.25216 110.872C2.04033 110.872 1.93442 110.661 2.09329 110.449C2.19921 110.237 1.88146 109.972 1.29893 109.972C0.345688 109.866 0.345687 109.919 1.14005 110.713C1.93442 111.508 1.93442 111.667 1.14005 112.196C0.0808987 112.991 0.0279418 114.05 1.03414 114.05C1.4578 114.05 1.88146 114.368 2.04033 114.791C2.25216 115.321 2.04033 115.427 1.29893 115.268C0.239772 114.95 -0.0779733 115.85 0.822307 116.433C1.24597 116.698 1.19301 117.015 0.769349 117.545C-0.0250159 118.551 0.663433 118.498 1.66963 117.492C2.88765 116.327 3.2054 116.486 3.36427 118.604C3.52315 121.093 3.78793 121.464 5.42962 121.464C6.48877 121.464 6.70061 121.252 6.43582 120.511C6.22399 119.875 6.43582 119.981 7.17722 120.881C7.75976 121.57 8.23638 122.47 8.23638 122.894C8.23638 123.317 8.76595 124.165 9.4544 124.747C10.0899 125.33 10.3017 125.595 9.87806 125.383C9.40145 125.171 9.24257 125.277 9.40145 125.753C9.56032 126.177 10.0899 126.389 10.6724 126.336C11.7845 126.124 13.0555 124.641 12.7907 123.794C12.6319 123.423 13.0555 123.317 13.8499 123.476C15.2268 123.741 17.451 122.205 16.9214 121.411C16.7626 121.146 17.0273 120.934 17.504 120.934C17.9806 120.934 18.1924 120.67 18.0335 120.405C17.8747 120.087 18.0335 119.875 18.4572 119.875C18.8809 119.875 19.4104 119.504 19.5693 119.028C19.7282 118.604 20.1518 118.392 20.4166 118.551C21.211 119.028 23.1704 116.698 22.7997 115.744C22.6409 115.268 22.8527 115.109 23.5941 115.374C24.918 115.797 25.024 114.685 23.753 114.156C23.2234 113.944 22.7468 113.467 22.6409 113.097C22.482 112.249 22.7997 112.302 23.8589 113.308C24.6003 114.103 24.8121 114.103 25.9772 113.308C26.7186 112.832 27.6718 112.62 28.2014 112.832C29.0487 113.15 29.1017 113.097 28.3603 112.196C27.6189 111.296 27.6718 111.243 28.731 111.508C29.4724 111.72 30.4256 111.455 31.22 110.819C32.0144 110.184 32.8617 109.972 33.4442 110.184C34.0268 110.396 34.2386 110.343 34.0268 109.972C33.4442 109.072 34.2386 107.589 35.0329 107.907C35.4566 108.066 35.7744 107.854 35.7744 107.377C35.7744 106.954 36.0391 106.742 36.3039 106.901C36.6217 107.059 37.3631 107.059 38.0515 106.848C38.7929 106.6 38.8282 106.353 38.1574 106.106C37.3631 105.841 37.6808 105.683 39.3755 105.418C41.7056 104.994 42.0234 104.623 40.9642 103.511C40.4346 102.982 40.5405 102.982 41.4938 103.511C42.5529 104.147 42.7648 104.147 43.2414 103.299C43.5591 102.823 44.1417 102.399 44.5653 102.399C44.989 102.399 45.2538 102.187 45.0949 101.923C44.8831 101.658 45.2008 101.552 45.7833 101.711C47.0014 102.028 47.7957 100.916 46.8955 100.122C46.3659 99.6453 46.3129 99.6453 46.5777 100.122C46.8425 100.599 46.6836 100.704 46.0481 100.44C45.2538 100.175 45.2538 100.069 46.0481 99.6453C46.5248 99.3805 47.3721 99.3276 47.9546 99.4865C48.5371 99.6983 49.0138 99.5924 49.0138 99.2747C49.0138 98.9569 48.4312 98.6921 47.7428 98.6921C46.9484 98.6921 46.3659 98.3214 46.26 97.7389C46.0481 96.9445 46.207 96.7856 47.2132 96.9975C47.9017 97.1034 48.3253 97.4741 48.1135 97.7918C47.9017 98.1096 48.2194 98.2155 48.9078 98.0566C49.914 97.7918 50.02 97.8978 49.7552 99.0099C49.5433 99.8042 49.6493 100.281 50.02 100.281C50.3377 100.281 50.6025 99.9101 50.6025 99.4865C50.6025 99.0628 50.8673 98.6921 51.185 98.6921C51.4498 98.6921 51.6087 98.4803 51.4498 98.2685C51.2909 98.0037 51.4498 97.7918 51.8205 97.7389C53.78 97.58 54.5743 97.1564 54.4154 96.362C54.3095 95.8854 54.5743 95.5146 54.998 95.5146C55.4216 95.5146 56.163 95.038 56.6926 94.4555C57.2222 93.873 57.9636 93.3963 58.3873 93.3963C58.9698 93.3963 59.2876 92.7608 59.1287 91.7017C59.0757 91.278 60.5056 91.4899 60.9822 91.9665C61.194 92.1783 60.9822 92.3372 60.5056 92.3372C59.976 92.3372 59.6053 92.7079 59.6053 93.1845C59.6053 93.873 59.976 93.7671 61.4058 92.655C62.412 91.9135 63.3653 91.278 63.5242 91.278C64.1596 91.278 65.9072 89.4775 65.6425 89.1068C65.5365 88.895 65.8543 88.842 66.4368 89.0009C66.9664 89.1597 67.6019 88.9479 67.8137 88.5772C68.0785 88.2065 68.0256 88.0476 67.7608 88.2594C67.443 88.4183 66.9134 88.3654 66.4898 88.0476C65.8013 87.6769 65.8013 87.571 66.4898 87.5181C66.9134 87.5181 67.7078 87.4121 68.2374 87.3062C68.714 87.2003 69.0318 87.3592 68.8199 87.624C68.2374 88.5772 69.2436 88.0476 70.4087 86.7766C71.0971 86.0352 71.9444 85.4527 72.3151 85.4527C72.6858 85.4527 73.8509 84.8172 74.8571 84.0758C76.234 82.9637 76.4988 82.54 75.9692 82.1693C75.4396 81.8516 75.6515 81.7986 76.4988 82.0104C77.6109 82.3282 77.7168 82.2223 77.452 81.2691C77.2402 80.3158 77.3461 80.2629 78.1934 80.7395C78.8819 81.0572 79.1996 81.0572 79.1996 80.6865C79.1996 80.4217 79.6233 80.1569 80.1529 80.104C80.6824 80.104 80.7884 79.9451 80.4177 79.7862C79.0408 79.2566 79.7292 78.0386 81.3179 78.0386C82.2712 78.0386 83.0655 77.7209 83.2244 77.2443C83.4362 76.8206 83.8069 76.6088 84.1776 76.8206C84.6013 77.0854 84.6013 76.9795 84.1776 76.3969C83.701 75.8144 83.701 75.4967 84.2836 74.9671C84.9191 74.3845 85.025 74.4375 85.025 75.2319C85.0779 76.0792 85.1309 76.1322 85.7134 75.3378C86.0841 74.8612 87.3021 73.855 88.4143 73.0606C89.6323 72.2663 90.1089 71.6837 89.5793 71.6837C89.1027 71.6837 88.732 71.4189 88.732 71.1012C88.732 70.8364 88.9438 70.6775 89.2086 70.8893C89.4734 71.0482 89.8441 70.9423 90.0559 70.6775C90.2148 70.4127 90.7974 70.2538 91.3799 70.3598C92.0154 70.4657 92.3331 70.3598 92.1743 70.1479C92.0683 69.8832 92.3861 69.5654 92.9686 69.4065C94.3985 69.0358 94.2926 68.0826 92.8627 67.8178C92.1743 67.7119 92.439 67.6589 93.3923 67.7649C94.3455 67.8178 94.981 67.7119 94.8221 67.4471C94.6633 67.2353 95.1399 66.8646 95.8813 66.7057C96.6227 66.4939 97.1523 66.1761 97.1523 65.9643C96.9404 64.7992 97.3111 64.3226 98.1055 64.6403C98.688 64.8522 98.8469 64.7992 98.5821 64.3756C98.3703 64.0048 98.5292 63.5812 99.0058 63.4223C99.4294 63.2634 99.959 62.6809 100.118 62.0984C100.33 61.5688 100.806 61.0922 101.23 61.0922C101.654 61.0922 101.971 60.8804 101.971 60.6156C101.971 60.3508 103.295 58.815 104.884 57.1203C108.062 53.837 109.068 52.3542 108.591 51.5598C108.432 51.242 108.75 51.0302 109.333 51.0302C110.551 51.0302 110.815 50.2359 109.809 49.8122C109.385 49.6533 109.544 49.4945 110.074 49.4945C110.604 49.4415 110.921 49.2297 110.709 48.9649C110.551 48.7001 110.709 48.2764 111.027 48.1175C111.292 47.9057 111.451 47.3761 111.292 46.9525C111.08 46.3699 111.186 46.264 111.769 46.4229C112.192 46.6347 112.669 46.5288 112.828 46.317C112.987 46.0522 112.722 45.6815 112.245 45.5226C111.239 45.1519 111.769 44.2516 113.41 43.6161C114.205 43.2984 114.575 42.8218 114.364 42.2922C114.205 41.8685 113.834 41.6567 113.569 41.8156C113.304 41.9745 113.251 41.7097 113.41 41.286C113.569 40.8094 113.94 40.5976 114.205 40.7565C114.84 41.1272 114.787 40.8094 114.046 39.0088C113.728 38.2145 113.41 37.3671 113.41 37.1553C113.357 36.9964 113.198 36.6257 112.987 36.4669C112.775 36.255 112.828 35.6725 113.093 35.1429C113.675 34.0308 113.304 33.5012 112.139 33.9249C111.61 34.1367 111.716 33.8719 112.457 33.1305C113.622 31.9655 114.469 31.5418 113.94 32.4421C113.781 32.6539 114.258 32.7598 114.946 32.601C116.217 32.3891 116.853 30.9063 115.687 30.9063C115.37 30.9063 115.211 30.5886 115.37 30.1649C115.529 29.7413 115.317 29.2646 114.893 29.1058C114.416 28.9469 114.205 28.5762 114.364 28.3114C114.734 27.7818 113.675 27.8348 112.722 28.4173C112.404 28.6291 111.927 28.5232 111.716 28.2055C111.504 27.7818 111.557 27.7289 111.927 27.9407C112.563 28.3114 113.94 25.7165 113.357 25.1869C113.198 25.028 113.093 25.2399 113.093 25.6635C113.04 26.2461 112.934 26.246 112.404 25.5576C112.033 25.081 111.239 24.5514 110.551 24.3396C109.862 24.1277 109.121 23.3863 108.856 22.6979C108.485 21.7446 108.115 21.5328 107.161 21.7446C106.208 21.9565 106.102 21.9035 106.738 21.4269C107.532 20.8444 107.426 20.7914 105.308 20.6855C104.778 20.6325 104.143 20.3148 103.931 19.9441C103.348 19.0438 102.024 19.0438 101.654 19.997C101.495 20.4737 100.859 20.6855 100.118 20.5266C99.2706 20.3677 98.8469 20.6325 98.6351 21.3739C98.4762 22.0094 97.9466 22.4331 97.3641 22.3801C96.5168 22.3272 96.5168 22.2742 97.3641 22.0624C98.4233 21.7976 98.4762 21.4269 97.523 20.1559C96.9934 19.4675 96.4109 19.3086 95.4047 19.5734C94.6633 19.7323 94.1337 20.1029 94.2926 20.3148C94.4514 20.5796 94.0278 20.6325 93.4452 20.4736C92.5979 20.2618 92.3861 20.3678 92.545 20.8973C92.7038 21.321 93.6041 21.7976 94.6103 21.9565C95.6165 22.1683 95.9872 22.3272 95.5106 22.3801C94.981 22.3801 94.5573 22.6449 94.5573 22.9627C94.5573 23.9159 93.763 23.5452 91.9095 21.6917C90.4266 20.2089 89.8441 19.9971 88.8909 20.3678C88.2024 20.6325 87.6729 20.6855 87.6729 20.5796C87.6729 20.4207 87.2492 20.7384 86.7196 21.2151C86.1371 21.7446 85.8193 22.3801 85.9782 22.6449C86.1371 22.9097 85.7134 23.0156 85.1309 22.8567C84.4954 22.6449 83.8069 22.7508 83.6481 23.0156C83.4892 23.2804 83.5951 23.4922 83.9129 23.4922C84.2306 23.4922 84.3365 23.81 84.1776 24.2337C84.0188 24.6573 84.2836 25.081 84.8661 25.2398C85.6075 25.4517 85.6075 25.5046 84.6543 25.5576C83.9658 25.5576 83.4362 25.3457 83.4362 24.975C83.4362 24.6573 83.2774 24.4984 83.1185 24.6573C82.9596 24.8691 82.1123 24.7632 81.1591 24.4984C79.941 24.1277 79.6762 24.1807 80.1529 24.6573C81.1061 25.6105 80.9472 26.1401 79.7822 26.1401C79.1996 26.1401 78.6171 26.352 78.4582 26.6168C78.2464 26.8815 78.67 26.9874 79.3055 26.8286C80.0823 26.652 80.1705 26.8815 79.5703 27.517C78.6171 28.5232 78.5641 28.5232 77.8227 27.517C77.3991 26.9345 77.0813 26.7227 77.0813 27.0404C77.0813 27.3582 76.4988 27.4641 75.7044 27.3052C74.6982 27.1463 74.3805 27.2522 74.6453 27.6759C75.1748 28.4703 74.2746 28.4173 73.4272 27.57C72.8447 27.0404 72.8447 27.1463 73.3743 28.0466C73.745 28.6291 74.3275 29.1587 74.6453 29.2117C74.963 29.2117 75.9692 29.3705 76.8165 29.5294L78.4053 29.7942L76.9754 29.1587C76.1281 28.841 75.4926 28.4173 75.4926 28.2055C75.4926 27.6759 77.8227 28.3114 78.2464 28.9469C78.4582 29.2646 78.8819 29.1587 79.4115 28.6291C80.4176 27.6759 81.6886 27.8877 81.6886 29.0528C81.6886 29.5824 81.1061 29.8472 80.047 29.9001C79.1467 29.9531 77.6109 30.059 76.6577 30.1649C75.4926 30.3238 74.4334 30.006 73.3743 29.2646C72.0503 28.2584 71.7856 28.2055 70.7794 28.8939C70.1968 29.3176 69.8261 29.7942 69.932 29.9531C70.0909 30.1119 69.7732 30.3767 69.1377 30.5356C68.5551 30.6945 68.0785 30.5886 68.0785 30.3238C68.0785 30.059 67.8137 29.8472 67.5489 29.8472C67.2312 29.8472 67.0723 30.006 67.0723 30.2179C67.1253 30.4827 67.0723 31.2241 67.0194 31.9655C66.9134 32.9187 66.8075 33.0246 66.6487 32.3891C66.4368 31.5948 66.225 31.5418 65.2718 32.0714C64.5304 32.4597 64.495 32.8128 65.1658 33.1305C66.0661 33.5012 66.0661 33.5542 64.954 33.3424C63.736 33.0776 61.194 33.9249 61.194 34.6133C61.194 34.8252 60.6115 34.8781 59.8701 34.7193C59.0757 34.6134 58.5461 34.7193 58.5461 35.09C58.5461 35.4607 58.8109 35.5666 59.0757 35.4077C59.3935 35.1959 60.8233 35.4607 62.2532 35.9373C64.6892 36.7316 65.0599 36.7317 66.5427 35.9903C68.8199 34.8252 68.9258 34.9311 67.1782 36.5198C66.278 37.3672 65.3777 37.7379 64.6892 37.579C64.1067 37.4201 63.3653 37.526 62.9946 37.8438C62.5709 38.2145 62.2532 38.2145 61.9884 37.7908C61.8295 37.526 61.194 37.2612 60.6644 37.2612C59.976 37.2612 59.7642 36.9965 59.923 36.5198C60.2937 35.5666 58.1754 35.9902 56.9044 37.1024C55.8453 37.9497 53.9918 37.3672 52.6149 35.7255C51.4498 34.3486 51.9264 33.0246 53.5681 33.0246C54.6802 33.0246 54.7861 32.9187 54.2036 32.2832C53.8329 31.8596 53.3563 31.6477 53.1974 31.7536C52.9856 31.8596 52.7208 31.5948 52.509 31.1711C52.3501 30.6415 52.5619 30.3767 53.1445 30.3767C53.727 30.3767 53.8329 30.2179 53.4622 29.9531C52.7208 29.5294 52.3501 27.1993 52.8267 26.352C53.5681 25.2399 52.509 22.8038 51.1321 22.3272C50.5495 22.1153 50.7084 21.8505 51.7676 21.3739C52.5619 21.0032 53.3033 20.3677 53.4622 19.9441C53.6211 19.5204 53.5152 19.3615 53.2504 19.5204C52.9326 19.6793 52.7208 19.4675 52.7208 19.0438C52.7208 18.6202 52.3501 17.8787 51.8735 17.4551C51.238 16.8196 51.238 16.6077 51.7676 16.6077C52.2971 16.6077 52.2971 16.5018 51.7146 16.1311C51.238 15.8134 51.185 15.5486 51.6087 15.3368C51.9264 15.1249 52.1912 14.7013 52.1912 14.4365C52.1912 14.1187 51.9794 14.0128 51.7146 14.1717C51.4498 14.3306 51.1321 14.1717 50.9732 13.748C50.7614 13.2714 50.2318 13.1125 49.5963 13.2714C48.9078 13.4303 48.4842 13.3244 48.4842 12.9537C48.4842 12.583 48.749 12.477 49.0138 12.6359C49.3315 12.8477 49.914 12.6889 50.3377 12.3711C50.8673 11.8945 51.3439 11.8945 51.8205 12.2652C52.2442 12.583 52.9326 12.583 53.78 12.2652C54.8391 11.8945 54.945 11.6827 54.3095 11.312C53.8329 10.9942 53.4092 11.0472 53.1445 11.4708C52.8797 11.8945 52.7208 11.8415 52.7208 11.2061C52.7208 10.7294 53.0385 10.1999 53.4092 10.094C53.727 9.93508 53.1445 9.93508 51.9794 10.094C50.3907 10.3587 49.967 10.2528 50.1788 9.6703C50.3377 9.24664 50.8143 8.98186 51.2909 8.98186C52.0324 9.03482 52.2442 8.24043 51.6616 7.60494C51.238 7.18128 48.8549 9.08776 49.1726 9.56438C49.3315 9.82917 49.0138 10.094 48.4312 10.094C47.0014 10.1999 47.1602 9.82917 49.1726 8.08157L50.8673 6.54579H49.1726C48.2194 6.54579 47.425 6.33398 47.425 6.06919C47.425 5.85736 48.0076 5.75142 48.749 5.91029C49.7022 6.06916 50.0729 5.91031 50.0729 5.27482C50.0729 4.7982 49.8081 4.42748 49.4904 4.42748C49.2256 4.42748 49.1197 4.69228 49.3315 5.06298C49.5433 5.43368 49.0138 5.16889 48.1135 4.5334C46.207 3.1565 45.3597 3.10355 43.9298 4.10975C43.0825 4.7982 42.7648 4.79818 41.7586 4.16269C40.7524 3.47424 40.4876 3.47426 39.7991 4.21567ZM47.7957 7.92271C47.6369 8.08158 47.1602 8.13452 46.7895 7.97565C46.3659 7.81678 46.5248 7.65792 47.1073 7.65792C47.6898 7.60496 48.0076 7.76383 47.7957 7.92271ZM38.7929 9.56438C38.6341 9.72325 38.2104 9.67029 37.8927 9.45846C37.416 9.14071 37.416 8.92889 37.9456 8.61115C38.687 8.18749 39.3755 8.98185 38.7929 9.56438ZM39.7991 10.5706C39.6403 11.5238 36.8335 12.1593 36.8335 11.259C36.8335 10.9413 36.5687 10.8883 36.198 11.1002C35.8273 11.312 35.7744 11.259 35.9862 10.8354C36.198 10.5176 36.5687 10.3587 36.8335 10.5176C37.0453 10.6765 37.8397 10.5706 38.5282 10.3058C39.1636 9.98805 39.7991 9.77622 39.8521 9.77622C39.9051 9.72327 39.8521 10.094 39.7991 10.5706ZM44.5124 10.2528C44.7242 10.5706 45.1479 10.6235 45.4656 10.4117C45.8363 10.1999 45.7833 10.4117 45.3597 10.9413C44.5653 11.9475 43.4532 12.2123 44.0357 11.259C44.1946 10.9413 44.0357 10.4647 43.665 10.1999C43.1884 9.88213 43.1355 9.72325 43.5591 9.72325C43.8769 9.72325 44.3535 9.98803 44.5124 10.2528ZM39.1107 12.7418C39.8521 13.1655 39.4814 13.801 38.1574 14.3835C37.3631 14.7542 36.7276 14.8072 36.5687 14.4894C36.3569 14.1717 35.9332 13.9599 35.6155 13.9599C35.2448 13.9599 35.4036 14.3306 35.9332 14.7013C36.8335 15.3897 36.6746 17.1373 35.7214 17.1373C35.4566 17.1373 35.2448 17.508 35.2448 17.9317C35.2448 18.3553 35.6155 18.726 36.0391 18.726C36.4628 18.726 36.7805 18.5672 36.7276 18.3024C36.6217 18.0906 36.7276 17.8787 36.9924 17.7728C37.6279 17.561 37.5749 17.8787 36.7805 19.0968C36.1451 20.2089 35.9862 20.2089 35.1389 19.4145C34.6093 18.9379 34.1856 18.832 34.1856 19.1497C34.1856 19.4674 33.709 19.8911 33.1265 20.05C32.5439 20.2089 32.0673 20.7914 32.0673 21.321C32.0673 22.0624 31.7496 22.2213 30.6904 22.0094C29.7372 21.8329 29.6313 21.4622 30.3727 20.8973C30.9552 20.4207 31.5377 19.5734 31.6437 18.9908C31.8555 17.7199 34.5034 15.9193 35.3507 16.3959C35.7744 16.6607 35.8273 16.4489 35.5625 15.7604C34.6093 13.4833 34.5034 12.7418 35.2448 13.1655C35.7744 13.4832 35.8803 13.3773 35.6155 12.6889C35.2977 11.8945 35.4566 11.7886 36.9924 12.1063C37.8927 12.3182 38.8459 12.583 39.1107 12.7418ZM50.6025 17.8787C50.6025 17.9847 50.2318 18.2494 49.7552 18.4083C49.3315 18.5672 49.1197 18.5142 49.2786 18.1965C49.5963 17.6669 50.6025 17.4551 50.6025 17.8787ZM52.1912 20.2618C52.3501 20.3148 52.1383 20.5266 51.7146 20.7914C50.8673 21.321 49.5433 21.0032 49.5433 20.2618C49.5433 19.997 50.0729 19.8911 50.7614 19.997C51.3969 20.1559 52.0323 20.2618 52.1912 20.2618ZM48.4842 20.5266C48.4842 20.6325 48.1135 20.8444 47.6898 21.0562C47.2662 21.2151 46.8955 21.1091 46.8955 20.8444C46.8955 20.5266 47.2662 20.3148 47.6898 20.3148C48.1135 20.3148 48.4842 20.4207 48.4842 20.5266ZM101.071 22.0094C101.283 22.539 101.495 22.486 101.918 21.9035C102.289 21.3739 102.501 21.321 102.501 21.7446C102.501 22.1153 102.925 22.4861 103.454 22.4861C103.931 22.539 103.401 22.7508 102.236 22.9627C100.965 23.2274 99.9061 23.1745 99.5883 22.8567C99.2706 22.539 99.4294 22.4861 100.118 22.7508C101.071 23.1216 101.071 23.0686 100.436 22.2742C100.065 21.7446 99.959 21.3739 100.277 21.3739C100.595 21.3739 100.965 21.6917 101.071 22.0094ZM42.5 23.4393C42.9766 24.0218 43.665 24.3396 44.0357 24.1807C44.4594 24.0218 44.936 24.2866 45.0949 24.7632C45.2538 25.2399 45.6245 25.4517 45.8893 25.2928C46.154 25.1339 46.3659 25.3987 46.3659 25.8224C46.3659 26.299 46.7895 26.6697 47.2662 26.6697C48.9079 26.6697 47.425 27.4111 45.5715 27.517C44.4064 27.57 43.8769 27.4111 44.0887 27.0404C44.3005 26.7227 43.9828 26.6167 43.2414 26.8286C42.447 26.9874 42.1293 26.8815 42.2881 26.5108C42.447 26.1401 42.8177 25.9283 43.1355 26.0342C43.5062 26.0872 43.665 25.9283 43.4532 25.6105C43.2943 25.3458 42.7648 25.081 42.3941 25.081C41.9704 25.081 41.7586 24.7632 41.9174 24.3396C42.0763 23.863 41.6527 23.3863 40.6994 23.0686C39.3755 22.592 39.3225 22.4861 40.4346 22.4861C41.0701 22.4331 42.0234 22.9097 42.5 23.4393ZM49.3845 24.1277C48.2194 24.8691 46.9484 24.6044 47.0543 23.5982C47.1073 22.7508 47.3191 22.6979 48.5901 23.1745C49.5963 23.5452 49.8081 23.8629 49.3845 24.1277ZM87.2492 23.5982C86.8785 23.9689 86.6137 24.0218 86.6137 23.7041C86.6137 22.9627 87.2492 22.3272 87.6199 22.6979C87.7258 22.8567 87.5669 23.2804 87.2492 23.5982ZM90.0559 22.9627C91.0621 23.3863 91.0621 23.4393 89.95 23.4393C89.3145 23.4922 88.6261 23.2274 88.4672 22.9627C88.0965 22.3272 88.5731 22.3272 90.0559 22.9627ZM34.1856 23.3863C34.1856 23.6511 34.5034 23.8629 34.8741 23.9159C35.1918 23.9159 36.1451 24.0748 36.9394 24.1807C37.7338 24.2866 38.2634 24.2337 38.1574 23.9689C37.9986 23.757 38.5811 23.5982 39.4284 23.5982C40.5405 23.6511 41.0701 23.9689 41.2819 24.7632C41.8645 26.9345 41.5997 28.1525 40.5405 28.4173C39.2166 28.735 39.1107 29.8472 40.4346 29.8472C41.229 29.9001 41.229 29.9531 40.2758 30.7474C39.4284 31.3829 39.4284 31.4888 40.1169 31.277C41.4408 30.8004 41.8115 31.8066 40.5405 32.495C39.958 32.8128 39.3225 33.6601 39.1636 34.3486C39.0048 35.09 38.5811 35.6725 38.3163 35.6725C37.9456 35.6725 37.9456 35.9373 38.3163 36.3609C38.6341 36.7316 38.74 37.579 38.5811 38.2674C38.3693 39.0088 38.5281 39.6973 39.0048 40.015C39.5873 40.4387 39.5343 40.4387 38.74 40.2269C37.9456 39.9621 37.7867 40.1209 38.0515 41.2331C38.2104 42.2392 38.1045 42.557 37.6279 42.3452C37.0983 42.1863 36.9924 42.557 37.0983 43.6691C37.3101 45.046 37.2042 45.1519 36.3039 44.6753C35.5625 44.3046 35.2448 44.3046 35.2448 44.6753C35.2448 44.9401 35.5625 45.2049 35.9332 45.2049C36.3569 45.2578 36.3039 45.4167 35.7744 45.8933C35.3507 46.264 34.98 46.8466 34.927 47.1643C34.8211 48.753 34.6622 48.9649 34.1856 48.6471C33.8679 48.4353 33.656 48.4883 33.709 48.753C33.9738 50.1829 33.5501 51.5598 32.8617 51.5598C31.8555 51.5598 31.8555 52.0364 32.9676 53.2544C33.4442 53.784 33.5501 54.2077 33.2324 54.2077C32.9146 54.2077 32.5969 53.9959 32.491 53.7311C32.438 53.4663 31.8555 53.5722 31.273 53.9959C30.2668 54.7373 30.2668 54.8432 31.167 55.4787C32.3851 56.379 32.3321 57.3851 31.0611 57.3851C29.8961 57.3851 29.1546 58.2325 29.8961 58.6561C30.7963 59.2387 29.7901 63.74 28.5192 64.6933C27.9896 65.064 27.6189 65.5406 27.6718 65.7524C27.6718 65.9643 27.46 66.0702 27.1423 65.9643C26.8245 65.8584 26.9834 66.282 27.513 66.8646C28.3073 67.7648 28.3603 68.0826 27.8307 68.771C27.3011 69.4065 27.3011 69.5654 28.0425 69.5654C28.5721 69.5654 28.8369 69.4065 28.678 69.1417C28.2014 68.3474 29.8431 66.8116 30.9023 67.1294C31.4848 67.3412 32.1203 67.2353 32.3321 66.9175C32.8087 66.1231 33.656 66.282 33.656 67.1823C33.656 67.606 33.0735 68.0826 32.3321 68.2944C31.5907 68.4533 31.0082 68.824 31.0082 69.0888C31.0082 69.7772 31.6437 69.6713 32.8087 68.771C34.2386 67.6589 35.6155 67.7119 34.7152 68.771C34.3445 69.1947 33.8149 69.4065 33.4972 69.1947C33.1794 68.9829 33.1265 69.1417 33.3383 69.5125C33.6031 69.8832 33.3383 70.6246 32.8087 71.2071C32.2791 71.7896 32.1732 72.2133 32.491 72.2133C32.8617 72.2133 33.1265 71.9485 33.1265 71.6308C33.1265 71.366 33.3913 71.2601 33.762 71.4719C34.1856 71.7367 33.8679 72.1074 32.8617 72.531C31.9614 72.9017 31.5907 73.2195 31.9614 73.2724C32.3321 73.2724 32.491 73.5372 32.2791 73.855C32.1203 74.1727 32.2262 74.5964 32.5439 74.8082C32.9146 75.073 32.8087 75.5496 32.0673 76.344C31.3259 77.1383 31.22 77.5091 31.6437 77.562C32.1732 77.562 32.1732 77.6679 31.6966 77.8798C30.4786 78.3564 30.9552 79.6273 32.3321 79.6273C33.5501 79.6273 33.6031 79.7333 33.0206 80.6865C32.491 81.5338 32.491 81.8516 33.0735 82.3812C33.6031 82.8578 33.709 82.8578 33.4442 82.4341C33.2324 82.0104 33.709 81.6397 34.8211 81.322C35.7744 81.1102 36.5687 80.5806 36.5687 80.1569C36.5687 79.7862 37.6808 78.3034 39.0577 76.9265C40.4346 75.5496 41.4408 74.2786 41.2819 74.1198C41.176 73.9609 41.229 73.9079 41.3879 74.0668C42.1293 74.5964 43.665 73.2195 43.3473 72.3721C43.1355 71.7896 43.1884 71.6308 43.6121 71.8955C43.9828 72.1074 44.2476 72.0014 44.2476 71.6837C44.2476 71.366 44.4594 71.2071 44.6712 71.366C45.2008 71.6837 47.0014 69.6713 46.6836 69.0888C46.5248 68.877 47.5839 68.2415 49.0667 67.7119C50.4966 67.1293 51.6616 66.4939 51.6616 66.2291C51.6616 65.5936 52.7738 64.6403 54.5743 63.7401C55.4746 63.3164 56.4808 62.522 56.8515 62.0454C57.2222 61.5688 58.0166 61.0392 58.705 60.9333C59.4817 60.7921 59.4464 60.5802 58.5991 60.2978C57.3811 59.8741 57.3811 59.8212 58.3343 59.5034C58.8639 59.2916 59.6583 59.3446 60.029 59.6623C60.5056 60.033 60.8763 60.033 61.2999 59.6094C61.7766 59.1327 61.7766 58.9739 61.2999 58.9739C60.9292 58.9739 60.6644 58.7091 60.6644 58.3913C60.6644 58.1266 60.9292 58.0206 61.247 58.2325C61.5647 58.3913 62.3591 58.3384 62.9416 58.0206C63.5771 57.7558 64.9011 57.2263 65.8543 56.8556C66.7546 56.4849 67.5489 55.9023 67.5489 55.5316C67.5489 55.1609 68.3963 54.5254 69.4025 54.1018L71.3089 53.3604L70.2498 51.9834C69.2965 50.7654 69.2436 50.5536 69.985 50.2888C70.5675 50.077 70.7794 50.1829 70.5675 50.6066C70.0909 51.8775 73.3743 51.2421 75.4926 49.6533C76.6577 48.806 77.6109 47.9057 77.6109 47.6939C77.6109 47.1114 75.3337 47.8528 74.8041 48.5942C74.4864 48.9649 74.4334 48.8589 74.5923 48.2764C74.7512 47.7998 74.6453 47.3232 74.2746 47.1643C73.9568 47.0584 74.5923 46.9525 75.7044 46.8995C76.8165 46.8466 78.1405 46.5288 78.6171 46.1581C79.3585 45.5226 79.4115 45.5756 78.723 46.3699C78.3523 46.8995 78.1934 47.3232 78.4582 47.3232C78.6701 47.3232 78.6171 47.588 78.2464 47.9587C77.3461 48.859 77.452 49.4415 78.4582 49.4415C78.8819 49.4415 79.0937 49.2297 78.9348 48.9119C78.723 48.5412 79.0408 48.5412 79.941 48.9119C80.7354 49.1767 81.4238 49.1767 81.5827 48.9119C81.7416 48.7001 81.4238 48.3294 80.9472 48.2235C80.4177 48.0646 80.8413 47.9587 81.9005 47.9057C84.1776 47.8528 85.3427 46.7936 84.3365 45.7345C83.8599 45.2049 83.8599 45.1519 84.3895 45.4167C84.7072 45.6285 85.2898 45.6285 85.6075 45.4167C85.9782 45.2049 85.6605 44.8342 84.7072 44.4105L83.1715 43.775H84.9191C85.8193 43.775 86.6137 44.0398 86.6137 44.3576C86.6137 44.7283 86.7726 44.7282 87.0374 44.3046C87.5669 43.4573 90.3207 42.8218 90.3207 43.5632C90.3207 43.8809 89.7912 44.1457 89.1557 44.1457C87.9906 44.1987 85.5545 45.7874 85.5545 46.5288C85.5545 46.7406 85.9252 46.6347 86.3489 46.264C86.7726 45.8933 87.1433 45.7874 87.1433 46.0522C87.1433 46.317 87.514 46.0522 87.9376 45.5226C88.3613 44.9401 88.732 44.7812 88.732 45.099C88.732 45.4697 89.0498 45.6815 89.4205 45.5756C89.7382 45.5226 90.003 45.7874 89.8971 46.1581C89.7912 46.6877 90.003 46.6877 90.7973 46.264C92.2272 45.5226 92.439 45.5756 92.439 46.6347C92.439 47.3232 92.5979 47.3761 93.0745 46.8995C93.9748 45.9992 94.5573 46.1052 94.5573 47.1114C94.5573 47.535 94.8221 47.7468 95.0869 47.588C95.4047 47.3761 95.5106 47.0584 95.4047 46.8466C95.2458 46.6348 96.0931 46.4229 97.2582 46.3699C99.3765 46.2111 100.012 46.9525 98.4233 47.6939C97.4171 48.1705 95.5106 48.1175 90.9562 47.588C88.2554 47.2702 88.2024 47.3232 88.8379 48.3294C89.2086 48.9649 89.7382 49.4945 90.0559 49.5474C90.3207 49.5474 90.8503 49.6533 91.1151 49.6533C91.4328 49.7063 91.9095 49.8652 92.1743 50.077C92.9157 50.5536 95.6695 49.9711 95.2987 49.3885C95.1399 49.1238 95.5106 48.9119 96.1461 48.9119C96.7816 48.9119 97.1523 49.1238 96.9934 49.3885C96.8345 49.6533 97.1523 49.9711 97.7348 50.1299C98.3173 50.2888 98.794 50.1299 98.794 49.8122C98.794 49.4415 99.0587 49.6004 99.3765 50.077C100.012 51.2421 101.601 51.295 102.713 50.1829C103.189 49.7592 103.56 49.6004 103.56 49.8651C103.56 50.6595 102.395 51.4009 100.012 52.1423C98.741 52.4601 97.7348 52.9897 97.7348 53.2015C97.7348 53.4663 98.1585 53.5192 98.688 53.3074C99.6413 52.9367 99.5883 53.0426 98.0526 54.2077C97.3641 54.7373 97.1523 54.7373 97.4171 54.3136C97.6289 53.9429 97.523 53.6781 97.1523 53.6781C96.7286 53.6781 96.7286 53.4663 97.2052 52.8837C97.5759 52.4601 98.2114 52.0894 98.5821 52.0894C99.7472 52.0894 99.4295 51.1891 98.1585 50.8184C96.3579 50.3418 95.5106 50.4477 95.8813 51.0302C96.1461 51.5068 95.5106 51.7716 94.4514 51.6128C93.8159 51.5598 94.3455 53.2015 95.1399 53.7311C95.6695 54.1018 95.2988 54.1547 94.0278 53.9429C93.0216 53.7311 91.9624 53.3074 91.6447 52.9897C91.274 52.619 91.3269 52.6189 91.8565 52.8837C92.8627 53.4663 93.5511 52.0894 92.6509 51.1891C92.2272 50.7654 91.6976 50.5536 91.4328 50.7654C91.1681 50.9243 90.7974 50.8184 90.5855 50.5006C90.4266 50.2359 89.7912 49.9711 89.2086 49.9711C88.6261 49.9711 87.5669 49.6004 86.8785 49.1238C85.5016 48.2235 85.3427 48.4353 85.3957 50.9243C85.4486 51.295 85.1309 51.5068 84.7072 51.4539C84.3365 51.348 83.6481 51.7716 83.1715 52.3542C82.6948 52.9367 82.483 53.0956 82.6948 52.6719C82.9596 52.1423 82.536 52.2483 81.3179 52.9367C80.3647 53.4663 79.5174 54.2606 79.3585 54.5784C79.1996 54.9491 78.6701 55.2668 78.1934 55.2668C77.505 55.2668 77.452 55.3728 78.0875 55.7435C78.5112 56.0612 79.3585 56.0612 80.0999 55.7435C81.1591 55.3728 81.265 55.4257 80.7354 56.2201C80.3117 56.8556 79.5174 57.1204 77.8757 57.0674C76.6047 57.0144 75.3337 57.1733 75.016 57.3851C74.1157 57.9147 76.181 60.033 77.6639 60.033C78.8819 60.086 81.5298 61.5688 80.4706 61.6747C80.2058 61.6747 79.4115 61.7806 78.6701 61.8336C77.9286 61.9395 76.6577 61.4629 75.7044 60.7744C74.8041 60.086 73.745 59.5035 73.3213 59.5564C72.8977 59.5564 73.1095 59.7682 73.7979 60.086C74.4864 60.3508 74.8571 60.7744 74.6982 61.0922C74.4864 61.4099 74.1157 61.5158 73.8509 61.357C73.5861 61.1451 73.3743 61.304 73.3743 61.6217C73.3743 61.9395 73.1095 62.0454 72.7388 61.8336C72.3151 61.5688 72.2622 61.7277 72.474 62.3632C72.6858 62.8398 72.6329 63.1046 72.3681 62.9457C72.1033 62.7868 71.6796 62.9457 71.5208 63.2635C71.3089 63.5812 71.6267 63.9519 72.2622 64.1108C72.8977 64.2696 73.3743 64.6403 73.3743 64.9051C73.3743 65.2229 72.7918 65.064 72.1033 64.5874C71.3089 64.0578 70.6734 63.9519 70.4616 64.2696C70.3027 64.5874 69.2965 64.7992 68.2903 64.7992C67.2842 64.7992 66.5427 64.5874 66.7016 64.3756C66.8605 64.1637 65.9072 64.4285 64.5833 65.0111C61.9354 66.282 61.7236 66.6527 63.4182 67.0764L64.6363 67.3941L63.4712 68.5062C61.9884 69.8302 61.5118 69.8831 62.2532 68.5062C62.7298 67.6589 62.6768 67.4471 61.9884 67.4471C61.5647 67.4471 61.194 67.6589 61.194 67.9767C61.194 68.2415 60.8233 68.5062 60.3997 68.5062C59.4994 68.5062 59.3405 69.3536 60.0819 69.7772C60.3467 69.9891 60.6644 69.7772 60.8233 69.4595C60.9822 69.0888 61.0881 69.2476 61.0351 69.8302C60.9822 70.7305 60.5585 70.8893 58.3343 70.9953C56.9045 71.0482 55.5805 71.26 55.4216 71.5248C55.2628 71.7367 54.7861 71.9485 54.4684 72.0015C54.0977 72.0544 53.4092 72.1074 52.9856 72.1074C51.8205 72.2662 52.0323 74.1727 53.2504 74.4905C53.8329 74.6493 54.3095 74.5434 54.3095 74.2786C54.3095 74.0139 54.5743 73.802 54.8921 73.802C55.9512 73.802 54.998 75.126 53.9388 75.1789C53.3033 75.2319 52.456 75.3907 51.9794 75.5496C51.5028 75.7614 51.1321 75.7085 51.1321 75.4967C51.1321 74.8612 46.6836 75.1789 46.4718 75.8674C46.3659 76.1851 46.6307 76.4499 47.0543 76.4499C47.5839 76.4499 47.7428 76.8206 47.5839 77.562C47.3721 78.4093 47.1602 78.4623 46.8425 77.9327C46.5777 77.562 46.3659 77.4561 46.3659 77.7738C46.3659 78.0386 46.1011 77.9857 45.7833 77.6679C45.4656 77.3502 44.8301 77.1384 44.4594 77.2972C41.9174 78.0386 41.9704 77.9857 42.7118 78.9919C43.2943 79.7333 43.2943 79.7862 42.6588 79.2037C42.2352 78.8859 41.5997 78.5682 41.229 78.5682C40.2228 78.5682 41.0172 80.1569 42.0763 80.2099C42.7648 80.2099 42.7648 80.3158 42.1293 80.5276C41.7056 80.6865 41.176 81.1102 40.9642 81.3749C40.5405 82.0634 38.8459 82.3812 39.2696 81.6927C39.4284 81.4279 39.3225 81.2161 39.0577 81.2161C38.2634 81.2161 37.8927 81.9045 38.4222 82.4871C38.687 82.8578 38.687 83.3873 38.3163 83.864C37.8927 84.4995 37.8397 84.4995 38.1045 83.7051C38.2634 83.2285 38.3163 82.8048 38.2104 82.8048C38.0515 82.8048 37.5749 82.6459 37.1512 82.4871C36.5158 82.2223 36.3569 82.3812 36.6217 83.0167C36.7805 83.4933 36.7276 83.864 36.5158 83.9169C34.2386 84.1288 33.6031 84.2876 33.2853 84.6583C33.0206 84.8702 33.3913 84.9231 34.0268 84.7642C35.6684 84.3935 36.0391 85.1349 34.5563 85.8763C32.5439 86.8296 31.5377 87.0414 31.5377 86.5118C31.5377 86.1941 31.8025 85.9823 32.0673 85.9823C32.3851 85.9823 32.5969 85.7704 32.5969 85.4527C32.5969 85.1879 32.2262 85.082 31.8025 85.2409C31.3789 85.3998 31.0611 86.1412 31.1141 86.8296C31.22 87.8358 31.4848 88.0476 32.2791 87.7828C33.1265 87.5181 33.1794 87.571 32.5969 88.1536C32.1732 88.6831 31.0082 88.842 29.1017 88.7361C27.2482 88.5772 26.242 88.7361 26.242 89.1068C26.242 89.4245 25.8183 89.6893 25.3417 89.6893C24.5473 89.6893 24.4944 89.7952 25.1828 90.2189C25.6065 90.4837 26.6127 90.7485 27.407 90.7485C28.2014 90.7485 28.9958 91.0133 29.1546 91.331C29.3665 91.6488 29.8961 91.7547 30.3197 91.5958C30.7434 91.4369 30.9552 91.4899 30.7963 91.7547C30.6375 92.0195 30.002 92.3372 29.4194 92.4961C28.8369 92.6549 28.4662 92.549 28.678 92.2842C28.8369 92.0195 28.731 91.8076 28.4132 91.8076C28.1485 91.8076 27.7777 92.4961 27.5659 93.3963C27.2482 94.7732 27.1423 94.8792 26.4538 94.1907C25.4476 93.2375 24.4414 93.1316 24.918 94.0318C25.0769 94.4025 24.8121 94.1907 24.3355 93.5023C23.4352 92.2842 21.264 91.9135 20.6814 92.8668C20.4696 93.1845 20.5226 93.3964 20.7873 93.3434C22.1113 93.1316 22.9586 93.5023 23.2234 94.4555C23.4352 95.4087 23.7 95.4617 24.971 94.9851C26.2949 94.4555 26.3479 94.5085 25.6594 95.3558C25.024 96.1501 25.024 96.2031 25.8183 95.8854C26.3479 95.7265 26.8775 95.8324 27.0893 96.1501C27.3541 96.5208 26.9834 96.6268 25.9772 96.4149C25.0769 96.2561 23.9648 96.4679 23.2763 96.9445C22.482 97.4741 22.0054 97.527 21.7406 97.1034C21.5817 96.7856 21.5817 96.5738 21.8465 96.6268C23.2234 96.8386 23.5941 96.5738 23.0116 95.6206C22.5879 94.9321 21.8995 94.7732 20.3637 94.8791C19.1986 94.9851 18.1924 95.3028 18.0335 95.5146C17.8747 95.7794 18.2983 95.8324 18.9338 95.6735C19.7811 95.5146 19.94 95.5676 19.4634 95.9383C19.0927 96.2031 18.722 96.8916 18.669 97.4741C18.669 98.0566 18.2983 98.5332 17.9276 98.5332C17.6099 98.5332 17.451 98.2685 17.6099 98.0037C17.8217 97.6859 17.6099 97.58 17.0803 97.7918C16.5507 98.0036 16.18 97.8977 16.18 97.527C16.18 97.2093 15.8623 97.2623 15.2797 97.6859C14.6972 98.2155 14.5383 98.2155 14.8031 97.7389C15.015 97.3682 14.909 97.1034 14.5913 97.1034C14.2735 97.1034 14.1676 96.7856 14.3795 96.4149C14.6972 95.8854 14.5913 95.8854 14.0088 96.4149C13.6381 96.7856 12.6319 97.1034 11.7845 97.1034C10.4076 97.1034 10.3017 97.2093 10.9372 98.0037C11.6257 98.798 11.5727 98.798 10.5136 98.2685C9.03074 97.4741 8.60708 97.4741 9.03074 98.2685C9.24257 98.6392 9.03074 98.4803 8.55412 97.8977C8.13046 97.3152 7.49497 96.5208 7.17722 96.1501C6.75356 95.6735 6.80652 95.5146 7.38905 95.5146C7.81272 95.5146 8.55412 94.9851 8.97778 94.3496C9.77215 93.2375 9.71919 93.1315 8.60708 92.4961C7.81272 92.0194 7.7068 91.8606 8.28934 91.8076C8.76595 91.8076 9.50736 91.384 9.98398 90.8544C11.0431 89.6893 10.9372 87.624 9.82511 87.6769C8.50116 87.7299 6.01216 86.5648 6.38286 85.9823C6.75356 85.3997 8.23638 85.8764 8.23638 86.5648C8.23638 86.8296 8.97778 86.9885 9.82511 86.9355C10.7254 86.8825 11.4138 86.5118 11.4138 86.1411C11.4138 85.7704 11.6257 85.4527 11.8905 85.4527C12.6848 85.4527 13.1085 81.7457 12.42 80.8983C11.9434 80.2629 11.9434 80.2099 12.5259 80.4217C13.5321 80.7924 14.5913 78.4623 13.9558 77.2972C13.5851 76.6617 13.691 76.5558 14.2735 76.7677C14.8561 76.9795 15.1738 76.6088 15.4386 75.5496C15.6504 74.7552 16.6037 72.2133 17.5569 69.9361C18.5631 67.6589 19.4104 65.117 19.4634 64.2167C19.5164 63.3694 19.7282 62.6809 19.8871 62.6809C20.3107 62.6809 23.753 55.5316 24.0178 54.0488C24.0707 53.837 24.4414 53.2545 24.918 52.8308C25.3417 52.3542 25.7124 51.6657 25.7124 51.2421C25.7124 50.8184 26.0831 49.7592 26.5068 48.9119C27.1423 47.6939 27.1952 47.3232 26.6656 47.2702C26.189 47.2702 26.242 47.1113 26.7716 46.9525C28.2014 46.3699 30.9552 42.557 29.949 42.557C29.5783 42.557 29.7372 42.1863 30.1608 41.7097C30.6375 41.286 30.9022 40.6505 30.7434 40.3857C30.5315 40.121 30.7963 40.068 31.22 40.2269C31.9614 40.4917 32.9146 38.7441 32.7028 37.4731C32.6499 37.1553 32.9676 36.5728 33.3913 36.2021C33.8149 35.8314 34.1856 35.3018 34.1856 34.9841C34.1856 34.6663 34.0268 34.6133 33.8679 34.7722C33.3913 35.1959 31.5377 34.1897 31.5377 33.5542C31.5377 33.2364 31.8025 33.0246 32.1203 33.0246C32.3851 33.0246 32.491 33.2364 32.3321 33.5542C32.1203 33.8719 32.5969 34.0838 33.3383 34.0838C34.2915 34.0838 34.7152 33.819 34.7152 33.1305C34.7152 32.548 34.8741 32.4421 35.1389 32.8657C35.3507 33.2365 35.9332 32.6539 36.5687 31.277C37.6279 29.0528 38.4752 27.8348 40.1698 26.0342C41.0172 25.1339 40.9642 25.081 37.9986 25.081C35.5625 25.081 34.6622 24.8691 33.9208 24.0218C33.3913 23.4393 33.2324 22.9627 33.5501 22.9627C33.9208 22.9627 34.1856 23.1745 34.1856 23.3863ZM92.439 25.8224C92.439 26.7227 92.3331 26.7756 91.9095 26.1401C91.6447 25.7165 91.3799 25.6106 91.3799 25.9283C91.3799 26.2461 91.0092 26.5108 90.5855 26.5108C89.6323 26.5108 89.5793 26.299 90.4266 25.3987C91.3799 24.3925 92.439 24.6044 92.439 25.8224ZM98.2644 24.8162C98.2644 24.9751 97.7348 25.6635 97.0993 26.4049C95.8283 27.8877 94.4514 28.0996 93.4982 26.9345C92.9157 26.246 93.0745 26.1931 94.4514 26.4579C95.7224 26.7227 96.199 26.5638 96.7816 25.6635C97.4171 24.6573 98.2644 24.1807 98.2644 24.8162ZM103.031 25.8224C103.031 25.9283 102.66 26.1931 102.183 26.352C101.76 26.5108 101.548 26.4579 101.707 26.1401C102.024 25.6105 103.031 25.3987 103.031 25.8224ZM110.868 26.6168C110.762 27.0934 110.127 27.517 109.491 27.6229C108.432 27.7818 108.326 27.6759 108.909 26.7756C109.65 25.5576 111.08 25.4517 110.868 26.6168ZM38.3693 26.6168C38.74 26.8815 38.8459 27.1993 38.6341 27.3581C38.1045 27.6229 35.7744 26.8815 35.7744 26.4049C35.7744 25.9812 37.5749 26.0872 38.3693 26.6168ZM82.3771 26.6697C81.3709 27.3581 80.7884 27.3581 80.7884 26.6697C80.7884 26.3519 81.3179 26.1401 82.0064 26.1401C82.9596 26.1401 83.0126 26.246 82.3771 26.6697ZM85.9252 26.9345C86.0841 27.4111 86.6137 27.7289 87.0903 27.6759C87.5669 27.6229 88.5202 27.8348 89.2616 28.1525C90.4266 28.6291 90.3207 28.6821 88.2024 28.6291C86.7196 28.5762 85.8723 28.7351 85.9252 29.1058C85.9782 29.4235 85.6605 29.6883 85.2368 29.6883C84.7602 29.6883 84.6543 29.4765 84.972 29.1587C85.2898 28.841 85.2898 28.1525 85.025 27.4111C84.7072 26.5638 84.7072 26.1401 85.0779 26.1401C85.3427 26.1401 85.7134 26.5108 85.9252 26.9345ZM91.8565 28.9469C92.2802 29.4764 92.2272 29.6883 91.6447 29.6883C91.221 29.6883 90.8503 29.3705 90.8503 28.9469C90.8503 28.5762 90.9562 28.2584 91.0621 28.2584C91.1681 28.2584 91.5388 28.5762 91.8565 28.9469ZM72.6858 30.5356C73.4802 30.2179 73.5332 30.2708 72.8447 31.0122C72.0503 31.8066 70.6734 31.9655 70.7264 31.277V29.9531C70.7617 29.3882 70.9559 29.3882 71.3089 29.9531C71.6267 30.5356 72.1563 30.7474 72.6858 30.5356ZM90.003 29.7942C90.1619 30.006 89.6852 30.1119 88.9968 29.9531C88.2554 29.8472 87.6729 29.6353 87.6729 29.5294C87.6729 29.1058 89.7382 29.3176 90.003 29.7942ZM97.7348 30.3767C96.252 30.8004 95.8813 30.6945 96.3579 29.9531C96.5168 29.6353 97.2052 29.5824 97.8937 29.7412C98.6704 29.9531 98.6174 30.1649 97.7348 30.3767ZM112.404 30.1119C112.404 30.6945 112.192 30.7474 111.663 30.3238C111.292 30.006 110.974 29.6353 110.974 29.5294C110.974 29.4235 111.292 29.3176 111.663 29.3176C112.086 29.3176 112.404 29.6883 112.404 30.1119ZM114.681 30.4827C114.681 31.33 114.522 31.4888 114.099 31.0652C113.781 30.7474 113.675 30.2179 113.834 29.9001C114.416 28.9999 114.681 29.2117 114.681 30.4827ZM69.1377 32.548C69.1377 32.7598 68.767 32.8658 68.3433 32.7069C67.9196 32.4951 67.5489 32.1773 67.5489 31.9125C67.5489 31.7007 67.9196 31.5948 68.3433 31.7536C68.767 31.9655 69.1377 32.2832 69.1377 32.548ZM74.4334 33.0776C74.4334 33.3424 73.8509 33.5542 73.1095 33.5542C71.7326 33.5542 71.3089 32.7598 72.474 32.3362C73.3213 32.0714 74.4334 32.4951 74.4334 33.0776ZM81.9534 32.3362C81.6357 32.4421 81.4239 32.8128 81.6357 33.0776C81.9005 33.5542 81.5827 33.6601 79.4644 33.766C78.8819 33.819 78.0875 34.0308 77.6639 34.2956C77.1872 34.6134 77.0284 34.5604 77.1872 34.0308C77.3461 33.6072 78.3523 33.0246 79.5174 32.6539C81.5827 32.0714 83.2244 31.8066 81.9534 32.3362ZM90.3207 33.3953C90.3207 33.819 90.5326 34.0308 90.7973 33.872C91.0092 33.7131 91.221 34.0308 91.1681 34.6133C91.1681 35.1959 90.9562 35.6195 90.7973 35.5666C90.6385 35.4607 90.1089 35.7255 89.6323 36.1491C88.8909 36.7317 88.5731 36.7316 87.9376 36.2021C87.514 35.8314 87.2492 35.3548 87.4081 35.1429C87.5669 34.8781 87.1962 34.8252 86.6137 34.9841C85.1838 35.3548 85.2898 36.2021 86.7726 36.2021C87.7258 36.2021 87.7788 36.308 87.1433 36.7316C86.5078 37.1553 86.5078 37.2612 87.4081 37.3142C87.9906 37.3142 88.1495 37.4731 87.7788 37.6319C87.461 37.7379 87.3021 38.1615 87.514 38.4792C87.6728 38.8499 87.3551 38.6911 86.7196 38.1615C86.1371 37.579 85.3427 37.3142 85.0779 37.526C84.7602 37.6849 84.4954 37.6849 84.4954 37.4201C84.4954 37.2083 83.754 36.5728 82.8537 36.0962C80.7884 34.8781 81.3179 34.0838 83.8069 34.4545C85.1309 34.6663 85.6075 34.6134 85.3427 34.1897C85.1309 33.8719 84.6013 33.7131 84.0717 33.872C83.5422 34.0485 83.5598 33.9425 84.1247 33.5542C84.6013 33.2364 85.2368 33.0776 85.5016 33.2365C85.7134 33.3953 86.3489 33.1835 86.8785 32.8128C88.0436 31.9655 90.3207 32.3362 90.3207 33.3953ZM93.4982 32.1773C93.4982 32.3362 93.2864 32.601 92.9686 32.7598C92.7038 32.9187 92.439 32.8128 92.439 32.548C92.439 32.2303 92.7038 31.9655 92.9686 31.9655C93.2864 31.9655 93.4982 32.0714 93.4982 32.1773ZM97.47 32.548C97.6818 32.8128 97.523 33.0246 97.2582 33.0246C96.9404 33.0246 96.6757 33.2364 96.6757 33.5542C96.6757 33.819 97.2052 34.0838 97.8407 34.0838C99.3235 34.0838 98.8999 34.4545 97.0993 34.8252C96.0402 34.9841 95.7754 34.8781 95.9872 34.2956C96.199 33.6601 95.9872 33.6071 94.8751 34.0838C94.1337 34.3486 93.4982 34.4545 93.4982 34.2956C93.4982 34.0838 93.1275 34.2426 92.7038 34.6133C92.0683 35.1429 91.9095 35.1429 91.9095 34.5074C91.9095 33.1835 96.8345 31.4359 97.47 32.548ZM108.062 34.0838C107.903 34.3486 107.426 34.6133 107.108 34.6133C106.738 34.6133 106.791 34.4015 107.267 34.0838C108.273 33.4483 108.485 33.4483 108.062 34.0838ZM76.0222 34.2956C76.0222 34.7722 73.1625 36.308 71.8915 36.5198C70.6205 36.6787 70.6734 36.5728 72.3151 35.7784C73.3213 35.3018 74.2746 34.7193 74.3275 34.4545C74.5394 34.0838 76.0222 33.9249 76.0222 34.2956ZM81.3179 35.9373C81.5298 35.8314 82.1123 36.1491 82.6419 36.7316C83.5951 37.7378 83.5422 37.7908 82.483 37.7908C80.7354 37.7908 80.5236 37.7378 80.6295 37.2612C80.7884 36.7316 78.0346 37.2612 77.1872 37.9497C76.6047 38.3733 76.6047 38.5852 77.1872 38.9029C77.6639 39.2207 77.505 39.3795 76.6577 39.3795C75.9163 39.3795 75.5455 39.5914 75.7574 39.9621C75.9692 40.2798 76.3929 40.3857 76.7636 40.2798C77.0813 40.1209 77.6639 40.3857 78.0346 40.7565C78.5641 41.339 78.4582 41.4449 77.3461 41.3919C76.6047 41.339 76.0222 41.0742 76.0222 40.8623C76.0222 40.6505 75.7574 40.4387 75.4396 40.4387C75.1219 40.4387 74.963 40.7564 75.1219 41.1801C75.3337 41.7097 74.8571 41.9215 73.2154 41.8685C71.9974 41.8685 71.4149 41.7626 71.9444 41.6567C72.8447 41.4449 72.8447 41.286 72.1033 40.121C71.3619 39.0618 71.3619 38.9029 72.0503 39.1677C72.474 39.3796 72.8447 39.6973 72.8447 39.9621C72.8447 40.6505 74.3275 40.5446 74.7512 39.8562C74.9101 39.5384 74.7512 39.0618 74.3805 38.797C73.8509 38.4793 74.0627 38.3204 75.0689 38.3204C75.8633 38.3204 76.6577 38.0556 76.8165 37.7379C77.3991 36.8905 76.6577 36.5198 75.8103 37.2083C75.3867 37.579 74.5923 37.7908 74.0627 37.6319C73.3213 37.4201 73.3213 37.3672 74.2746 37.3142C74.9101 37.3142 75.7044 36.8376 75.9692 36.308C76.4458 35.5136 76.6047 35.5136 77.0813 36.2021C77.505 36.8905 77.6639 36.8905 78.0875 36.2551C78.3523 35.8843 78.776 35.6725 79.0937 35.8843C79.4115 36.0432 79.8351 35.9373 80.047 35.5666C80.3647 35.09 80.5236 35.09 80.6824 35.5666C80.7884 35.9373 81.0531 36.0962 81.3179 35.9373ZM105.943 36.0962C105.784 36.255 105.361 36.0962 104.99 35.7255C104.513 35.1959 104.566 35.1429 105.308 35.4607C105.837 35.6196 106.102 35.9373 105.943 36.0962ZM104.302 36.0962C104.46 36.3609 104.249 36.5728 103.825 36.5728C103.401 36.5728 103.031 36.3609 103.031 36.0962C103.031 35.8843 103.242 35.6725 103.507 35.6725C103.825 35.6725 104.143 35.8843 104.302 36.0962ZM43.718 36.7316C43.718 36.9964 43.3473 37.2612 42.9236 37.2612C42.5 37.2612 42.1293 36.9964 42.1293 36.7316C42.1293 36.4139 42.5 36.2021 42.9236 36.2021C43.3473 36.2021 43.718 36.4139 43.718 36.7316ZM93.71 36.8376C93.5511 37.0494 93.8159 37.2612 94.2396 37.2612C94.7162 37.2612 94.981 37.6849 94.928 38.3734C94.8751 39.3266 94.8221 39.3795 94.1866 38.5322C93.8159 38.0556 93.1804 37.7908 92.7038 37.9497C92.2802 38.1615 91.9095 38.0556 91.9095 37.7379C91.9095 37.4201 91.6976 37.3671 91.3799 37.526C91.0621 37.6849 91.0092 37.4731 91.1681 37.0494C91.3269 36.5728 92.0154 36.255 92.7038 36.308C93.3923 36.361 93.8159 36.6257 93.71 36.8376ZM110.445 36.4139C110.445 36.5728 110.233 36.8376 109.915 36.9964C109.65 37.1553 109.385 37.0494 109.385 36.7846C109.385 36.4669 109.65 36.2021 109.915 36.2021C110.233 36.2021 110.445 36.308 110.445 36.4139ZM58.6521 37.8967C58.2814 38.2674 58.0166 38.3204 58.0166 38.0026C58.0166 37.2612 58.6521 36.6257 59.0228 36.9964C59.1287 37.1553 58.9698 37.579 58.6521 37.8967ZM90.1619 37.7908C90.1089 38.3733 89.8971 38.85 89.6852 38.85C89.1027 38.85 88.6261 37.8438 88.9968 37.2612C89.5793 36.3609 90.2678 36.6787 90.1619 37.7908ZM29.6842 37.7379C29.8431 38.0026 29.7372 38.3733 29.4194 38.5852C29.1546 38.744 28.8899 38.5322 28.8899 38.1086C28.8899 37.1553 29.2076 36.9965 29.6842 37.7379ZM32.3321 37.7908C32.491 38.0556 32.3851 38.3204 32.1203 38.3204C31.8025 38.3204 31.5377 38.0556 31.5377 37.7908C31.5377 37.4731 31.6437 37.2612 31.7496 37.2612C31.9084 37.2612 32.1732 37.4731 32.3321 37.7908ZM41.4408 37.579C41.2819 37.7379 40.8053 37.7908 40.4346 37.6319C40.011 37.4731 40.1698 37.3142 40.7524 37.3142C41.3349 37.2612 41.6527 37.4201 41.4408 37.579ZM69.4025 38.2674C68.9788 38.9559 67.5489 39.0618 67.5489 38.3734C67.5489 38.1086 67.9726 37.7908 68.5022 37.6849C69.6143 37.4201 69.8791 37.579 69.4025 38.2674ZM63.0475 39.3266C63.683 39.6973 64.0008 39.7502 65.6954 39.8562C66.4368 39.8562 67.0194 40.1739 67.0194 40.4917C67.0194 40.8094 66.5957 40.9683 66.1191 40.8623C65.5895 40.7564 64.7422 41.1801 64.2126 41.7626C63.5242 42.504 63.3123 42.557 63.4712 42.0274C63.7889 41.0742 61.9354 40.7035 61.4058 41.6038C61.194 41.9215 60.8763 41.8686 60.5585 41.4449C60.2937 41.0212 59.976 40.9153 59.8171 41.2331C59.5523 41.8685 55.8983 41.8685 54.8921 41.2331C53.78 40.5976 56.3749 39.3795 57.7518 39.9091C58.9698 40.3857 61.5118 39.3266 60.8233 38.6381C60.4526 38.2674 62.0413 38.7441 63.0475 39.3266ZM82.2182 39.5914C82.2712 39.6443 81.5298 40.121 80.6295 40.6505C79.6762 41.1801 79.0937 41.3919 79.3585 41.1801C79.5703 40.9683 79.3585 40.3857 78.8819 39.8562C78.0875 38.9559 78.1405 38.9029 80.047 39.2207C81.212 39.3795 82.1653 39.5384 82.2182 39.5914ZM70.7264 40.1739C70.7264 40.5976 70.5675 40.9683 70.3557 40.9683C70.0909 40.9683 69.4025 41.1272 68.767 41.286C67.9726 41.4979 67.5489 41.3919 67.5489 40.9683C67.5489 40.5976 67.9196 40.4387 68.3433 40.6505C68.8199 40.8094 69.2965 40.5976 69.4554 40.1739C69.8791 39.1677 70.7264 39.1677 70.7264 40.1739ZM91.3799 39.9091C91.8035 40.1739 91.9624 40.4387 91.6447 40.4387C91.3799 40.4387 90.7444 40.1739 90.3207 39.9091C89.8971 39.6443 89.7912 39.3795 90.0559 39.3795C90.3737 39.3795 90.9562 39.6443 91.3799 39.9091ZM44.0357 40.8094C43.8769 40.9683 42.8177 41.1271 41.7056 41.1801C40.2228 41.286 39.7991 41.1271 40.1698 40.7035C40.4876 40.3857 41.4938 40.2268 42.5 40.3328C43.5062 40.4916 44.1946 40.7035 44.0357 40.8094ZM26.7716 41.4978C26.3479 41.7626 25.7654 42.0274 25.4476 42.0274C25.1828 42.0274 25.2887 41.7626 25.7124 41.4978C26.1361 41.2331 26.7716 40.9683 27.0363 40.9683C27.3541 40.9683 27.1952 41.2331 26.7716 41.4978ZM54.8391 43.5102C54.8391 43.6161 54.6802 43.5632 54.4684 43.4573C54.2036 43.3514 53.6211 43.0866 53.0915 42.9277C52.5619 42.7159 52.2442 42.3452 52.456 42.0274C52.7208 41.6038 54.8391 42.9277 54.8391 43.5102ZM70.4616 42.557C70.6205 42.8747 70.4087 42.9277 69.985 42.7688C69.0318 42.3981 68.8729 42.0274 69.6143 42.0274C69.932 42.0274 70.3027 42.2392 70.4616 42.557ZM20.9462 43.9869L22.2702 44.6224H20.5755C19.6752 44.6753 18.722 44.4105 18.5631 44.1457C18.1395 43.4573 18.8279 42.2922 19.3045 42.9277C19.4634 43.1925 20.2048 43.6691 20.9462 43.9869ZM59.8171 43.4043C60.0819 44.0928 59.923 44.1987 59.0757 43.9869C58.4932 43.828 58.1225 43.9868 58.1754 44.3046C58.2284 44.6223 57.7518 44.993 57.1163 45.099C56.4278 45.2049 55.8983 45.046 55.8983 44.7283C55.8983 44.4105 55.4746 44.3046 54.998 44.4635C54.2036 44.7283 54.1507 44.6753 54.8391 44.1987C55.2628 43.881 56.0571 43.775 56.6397 43.9339C57.3281 44.1457 57.487 44.0928 57.2222 43.6161C56.9574 43.1925 57.0104 43.0336 57.2752 43.2454C57.5929 43.4043 58.1225 43.3514 58.5461 43.0336C59.5523 42.4511 59.4464 42.3981 59.8171 43.4043ZM101.23 43.7221C101.442 44.0398 101.283 44.4635 100.912 44.6753C100.542 44.8871 100.436 45.3638 100.595 45.6815C100.806 45.9993 101.177 46.1581 101.442 45.9992C101.707 45.8404 102.024 45.9463 102.183 46.2111C102.342 46.4759 103.189 46.6348 104.09 46.5818C104.937 46.5288 105.731 46.7407 105.89 47.1114C106.208 47.9587 103.084 48.3823 102.342 47.588C102.024 47.2173 101.336 47.0584 100.806 47.2173C100.065 47.3761 99.8531 47.1114 99.8531 45.8404C99.8531 44.9401 100.171 44.0928 100.542 43.9869C100.859 43.828 100.647 43.6691 100.012 43.6691C99.3765 43.6162 98.741 43.4043 98.5821 43.1395C98.4233 42.9277 98.8999 42.8218 99.5883 42.9806C100.33 43.0866 101.071 43.4573 101.23 43.7221ZM23.8059 43.9339C24.0707 44.6753 24.0178 44.7283 23.3293 44.1457C22.429 43.4043 22.3231 43.0866 23.0116 43.0866C23.2763 43.0866 23.6471 43.4573 23.8059 43.9339ZM73.3743 43.5632C73.3743 44.0398 71.203 44.7812 70.7794 44.4105C70.6205 44.1987 72.2622 43.3514 73.2684 43.1395C73.3213 43.0866 73.3743 43.2984 73.3743 43.5632ZM106.738 44.1987C106.738 44.5164 106.526 44.5694 106.208 44.4105C105.943 44.2516 105.678 43.828 105.678 43.5632C105.678 43.2455 105.943 43.1925 106.208 43.3514C106.526 43.5102 106.738 43.9339 106.738 44.1987ZM66.7546 44.9931C67.3371 45.8933 67.3901 46.317 66.9664 46.1581C66.6487 46.0522 66.1191 45.4167 65.9072 44.7812C65.3247 43.2454 65.6425 43.2984 66.7546 44.9931ZM68.8729 44.1457C68.714 44.4105 68.1844 44.6753 67.7608 44.6753C67.3371 44.6753 67.0194 44.4105 67.0194 44.1457C67.0194 43.828 67.496 43.6161 68.1315 43.6161C68.714 43.6161 69.0318 43.828 68.8729 44.1457ZM104.09 43.828C104.09 43.9339 103.719 44.1987 103.242 44.3576C102.819 44.5164 102.607 44.4635 102.766 44.1457C103.084 43.6161 104.09 43.4043 104.09 43.828ZM42.1293 46.3699C42.1293 46.5818 41.8115 46.7936 41.4938 46.7936C41.1231 46.7936 40.8053 46.2111 40.8053 45.4697C40.8053 44.2516 40.8583 44.1987 41.4938 45.046C41.8115 45.5226 42.1293 46.1052 42.1293 46.3699ZM19.8871 46.0522C19.8871 46.4759 19.6752 46.7936 19.4104 46.7936C18.7749 46.7936 17.7158 45.4167 18.0865 45.046C18.6161 44.5694 19.8871 45.2579 19.8871 46.0522ZM109.121 45.6285C108.962 45.7874 108.538 45.6286 108.167 45.2579C107.691 44.7283 107.744 44.6753 108.485 44.9931C109.015 45.1519 109.28 45.4697 109.121 45.6285ZM20.8933 47.3762C20.2048 47.9057 19.5164 48.1705 19.3575 48.0646C19.1986 47.9057 19.5164 47.535 20.0459 47.2702C20.5226 46.9525 20.8403 46.5288 20.6814 46.2111C20.5226 45.9463 20.7344 45.8933 21.264 46.1052C22.0054 46.3699 21.9524 46.5288 20.8933 47.3762ZM62.518 46.264C62.6768 46.5818 62.3061 46.7936 61.6177 46.7936C60.6644 46.7936 60.5585 46.6877 61.194 46.264C62.2002 45.6285 62.1473 45.6285 62.518 46.264ZM82.9067 46.4759C82.9067 47.0584 81.9005 47.2702 81.5827 46.7936C81.4238 46.5288 81.6357 46.264 82.0593 46.264C82.536 46.264 82.9067 46.37 82.9067 46.4759ZM53.2504 48.3823C52.8267 48.7001 52.0853 48.9119 51.6616 48.859C51.185 48.859 51.3969 48.5412 52.1912 48.1175C53.6211 47.3761 54.5214 47.588 53.2504 48.3823ZM65.1129 47.9587C64.954 48.1705 64.4774 48.3823 64.0537 48.3823C63.6301 48.3823 63.3123 48.7001 63.3123 49.1238C63.3123 49.6004 62.9416 49.8122 62.3061 49.7063C61.7236 49.6004 60.6115 49.7063 59.7642 49.9711C58.9698 50.1829 58.5991 50.4477 58.9698 50.4477C59.2875 50.5007 59.6053 50.7125 59.6053 51.0302C59.6053 51.7187 58.0695 51.0832 56.9044 49.9181C56.0571 49.0708 56.1101 49.0178 57.9106 49.1767C59.2346 49.2826 60.0819 49.0178 60.5056 48.4353C60.9822 47.8528 61.1411 47.7998 61.194 48.2764C61.194 48.806 61.4059 48.806 62.0413 48.1705C62.8357 47.3232 65.5895 47.1643 65.1129 47.9587ZM70.4616 47.8528C70.3027 48.1175 69.3495 48.3294 68.4492 48.3294L66.7546 48.2235L68.6081 47.8528C69.6143 47.6409 70.5146 47.4291 70.6205 47.3762C70.7264 47.3762 70.6205 47.535 70.4616 47.8528ZM108.062 47.8528C108.22 48.1175 108.115 48.3823 107.85 48.3823C107.532 48.3823 107.267 48.1175 107.267 47.8528C107.267 47.535 107.373 47.3232 107.479 47.3232C107.638 47.3232 107.903 47.535 108.062 47.8528ZM102.501 49.2826C102.501 50.1299 101.971 50.13 100.753 49.2297C99.8531 48.5412 99.9061 48.4883 101.124 48.5942C101.918 48.5942 102.501 48.9649 102.501 49.2826ZM16.9214 49.7063C17.2392 50.5536 15.9152 51.4539 15.2797 50.8184C15.0679 50.6595 15.3857 50.5006 15.9152 50.5006C16.6566 50.5006 16.7096 50.3418 16.18 49.7063C15.8093 49.2297 15.7564 48.9119 16.0741 48.9119C16.3389 48.9119 16.7626 49.2826 16.9214 49.7063ZM69.8261 49.5474C69.7202 49.8122 69.0318 49.9711 68.2903 49.9711C67.5489 49.9711 67.0723 49.8122 67.1782 49.5474C67.3371 49.3356 68.0256 49.1767 68.767 49.1767C69.5084 49.1767 69.985 49.3356 69.8261 49.5474ZM53.2504 49.9711C53.2504 50.2359 52.9856 50.5006 52.6678 50.5006C52.4031 50.5006 52.2971 50.2359 52.456 49.9711C52.6149 49.6533 52.8797 49.4415 53.0385 49.4415C53.1445 49.4415 53.2504 49.6533 53.2504 49.9711ZM21.4758 50.7654C21.4758 50.8184 21.0521 51.0302 20.5226 51.1361C19.94 51.295 19.5164 51.1361 19.5164 50.7654C19.5164 50.3947 19.94 50.2358 20.5226 50.3947C21.0521 50.5006 21.4758 50.7125 21.4758 50.7654ZM55.6864 51.348C54.7861 52.1953 53.9918 52.3012 53.5152 51.5598C53.3563 51.295 53.5152 51.1891 53.9388 51.348C54.3625 51.5069 54.8391 51.242 55.0509 50.7654C55.2098 50.2888 55.5805 50.077 55.8983 50.2359C56.216 50.4477 56.163 50.8714 55.6864 51.348ZM86.9844 50.2888C86.8255 50.4477 86.3489 50.5006 85.9782 50.3418C85.5545 50.1829 85.7134 50.024 86.2959 50.024C86.8785 49.9711 87.1962 50.13 86.9844 50.2888ZM16.4978 52.566C17.2921 53.1485 17.5569 53.7311 17.2392 53.9429C16.9744 54.1018 16.7096 54.0488 16.7096 53.784C16.7096 53.5192 16.1271 53.4133 15.4386 53.5192C14.3265 53.7311 14.1676 53.6252 14.4324 52.6719C14.8031 51.295 14.909 51.295 16.4978 52.566ZM87.9906 53.4133C87.3198 53.9429 87.4081 54.2253 88.2554 54.2607C90.1089 54.3136 91.1681 54.5784 92.2802 55.2139C93.0216 55.6375 93.0745 55.7434 92.439 55.7964C91.9624 55.7964 91.3269 55.5316 91.0092 55.2139C90.5855 54.7902 90.2678 54.8961 89.8441 55.6905C89.3675 56.5908 89.4205 56.9085 90.1619 57.3322C90.6914 57.6499 90.8503 57.9147 90.4796 57.9147C90.1619 57.9147 89.7382 57.7029 89.5264 57.4381C89.3675 57.1204 88.6261 57.2263 87.8317 57.6499C86.9314 58.1265 86.19 58.2325 85.8193 57.9147C85.5016 57.6499 84.9191 57.6499 84.5484 57.9147C83.4892 58.5502 81.8475 57.3851 81.9005 56.0612C81.9534 55.1609 82.0064 55.1609 82.2182 55.9553C82.3241 56.4319 82.6948 56.6967 83.0126 56.5378C83.3833 56.326 83.4362 56.4319 83.2244 56.7496C82.9596 57.1733 83.2244 57.3851 83.9129 57.3851C84.8661 57.3851 84.9191 57.2263 84.4954 56.0612C84.0717 54.8961 84.1247 54.7373 85.0779 54.7373C86.0312 54.7373 86.0841 54.8961 85.5545 55.5316C84.9191 56.326 85.2368 57.3851 86.19 57.3851C86.4548 57.3851 86.6137 57.0144 86.4019 56.5908C86.19 55.9553 86.4019 55.8494 87.514 56.0082L88.8909 56.273L87.8317 55.108C86.6137 53.784 86.7726 52.6189 88.0965 52.6189C88.8909 52.6719 88.8379 52.7778 87.9906 53.4133ZM85.6605 53.784C85.2368 54.1547 83.5951 54.3665 82.3771 54.2077C81.7946 54.1547 81.9005 53.9959 82.6419 53.7311C83.9129 53.2015 86.19 53.2544 85.6605 53.784ZM38.4222 54.2077C38.4222 54.4725 38.3163 54.7373 38.2104 54.7373C38.0515 54.7373 37.7867 54.4725 37.6279 54.2077C37.469 53.8899 37.5749 53.6781 37.8397 53.6781C38.1574 53.6781 38.4222 53.8899 38.4222 54.2077ZM15.4916 55.055C15.5975 55.3728 15.015 55.9023 14.2735 56.273C13.1614 56.7497 12.6848 56.7497 12.2612 56.273C11.8375 55.7964 11.8375 55.7435 12.3141 56.0082C12.6848 56.2201 13.2674 55.9023 13.6381 55.2668C14.3265 54.2077 15.1738 54.1018 15.4916 55.055ZM53.2504 55.5846C53.2504 55.6905 52.8797 55.7964 52.456 55.7964C52.0323 55.7964 51.6616 55.5846 51.6616 55.2668C51.6616 55.002 52.0323 54.8961 52.456 55.055C52.8797 55.2668 53.2504 55.4787 53.2504 55.5846ZM104.778 55.5846C104.672 55.9553 104.196 56.1141 103.772 55.9553C102.872 55.6375 103.189 54.8961 104.302 54.8961C104.725 54.8961 104.937 55.2139 104.778 55.5846ZM36.5687 56.8556C36.4098 57.1203 35.7744 57.3851 35.2448 57.3851C34.7152 57.3851 34.0797 57.1203 33.9208 56.8556C33.709 56.5378 34.2915 56.326 35.2448 56.326C36.198 56.326 36.7805 56.5378 36.5687 56.8556ZM96.6757 57.1203C97.2582 57.8088 97.2052 57.8618 96.4109 57.597C95.9342 57.3851 95.3517 57.491 95.1399 57.8088C94.9281 58.1795 93.9219 58.5502 92.9686 58.7091C91.274 58.9739 91.221 58.9209 92.3331 58.3913C92.9686 58.0206 93.4982 57.544 93.4982 57.3322C93.4982 57.0674 93.8159 57.0145 94.2396 57.1733C94.6633 57.3322 95.1399 57.2263 95.3517 56.9085C95.7754 56.1671 95.8813 56.1671 96.6757 57.1203ZM13.9028 57.7029C13.744 57.8618 13.2674 57.9147 12.8967 57.7558C12.473 57.597 12.6319 57.4381 13.2144 57.4381C13.7969 57.3852 14.1147 57.544 13.9028 57.7029ZM17.0273 60.7215C17.2921 61.1981 17.2392 61.1981 16.7096 60.7215C16.233 60.2448 15.5445 60.2978 13.9558 60.8804C11.8375 61.6218 10.6195 61.4629 11.202 60.5096C11.3609 60.1919 11.8905 60.033 12.3671 60.086C14.3795 60.2449 14.7502 60.086 14.0617 59.2387C13.5321 58.6032 13.691 58.6032 15.0679 59.2916C15.9682 59.7153 16.8685 60.4037 17.0273 60.7215ZM102.183 59.5564C102.024 59.8212 101.654 59.9271 101.389 59.7153C101.124 59.5564 101.018 59.1857 101.23 58.9209C101.389 58.6561 101.76 58.5502 102.024 58.7621C102.289 58.9209 102.395 59.2916 102.183 59.5564ZM55.6335 59.5034C55.7923 59.7682 55.6864 60.033 55.4216 60.033C55.1039 60.033 54.8391 59.7682 54.8391 59.5034C54.8391 59.1857 54.945 58.9739 55.0509 58.9739C55.2098 58.9739 55.4746 59.1857 55.6335 59.5034ZM91.221 60.4567C91.274 60.9862 90.9033 61.4099 90.4266 61.4099C89.95 61.4629 89.0498 61.6747 88.5202 61.8865C87.7788 62.2043 87.6199 62.1513 87.8847 61.7277C88.0965 61.357 87.9906 61.0922 87.6729 61.0922C87.3551 61.0922 87.2492 60.8274 87.4081 60.5096C87.6199 60.1919 88.0436 60.086 88.4143 60.1919C88.8379 60.3508 90.9562 59.8742 91.1151 59.5564C91.1681 59.5035 91.1681 59.9271 91.221 60.4567ZM85.025 60.5626C85.025 60.8803 84.4954 61.357 83.8599 61.6217L82.6419 62.0984H83.8069C84.4424 62.1513 85.0779 62.3632 85.2898 62.6809C85.4486 62.9457 85.9252 63.0516 86.3489 62.8398C86.9314 62.6279 87.0374 62.7868 86.8255 63.4223C86.5607 64.1637 86.7196 64.2167 87.9376 63.7401C89.6852 63.1046 89.7912 63.1046 89.7912 63.793C89.7912 64.0578 89.5793 64.1637 89.2616 64.0048C88.9968 63.846 88.732 63.9519 88.732 64.2696C88.732 64.5874 88.1495 64.6933 87.4081 64.5874C86.7196 64.4285 85.9782 64.5874 85.8193 64.8522C85.3957 65.4877 83.9658 65.4877 83.9658 64.7992C83.9658 64.4815 84.3365 64.2696 84.7602 64.2696C86.3489 64.2696 85.5016 63.2105 83.4362 62.6809C82.0064 62.3102 81.4239 61.8865 81.6357 61.357C82.0593 60.2448 85.025 59.5564 85.025 60.5626ZM86.3489 60.5626C86.5078 60.8274 86.4019 61.0922 86.1371 61.0922C85.8193 61.0922 85.5545 60.8274 85.5545 60.5626C85.5545 60.2448 85.6605 60.033 85.7664 60.033C85.9252 60.033 86.19 60.2448 86.3489 60.5626ZM99.0587 61.0922C98.8999 61.357 98.4233 61.4629 97.9996 61.251C96.8875 60.8803 96.9934 60.5626 98.3173 60.5626C98.8999 60.5626 99.2706 60.7744 99.0587 61.0922ZM76.0222 63.1046C76.0222 63.4753 76.234 63.6871 76.4988 63.5282C76.7636 63.3164 77.3461 63.3694 77.8227 63.5282C78.5112 63.793 78.5641 64.0049 78.0875 64.5874C77.3991 65.4347 75.7574 65.5936 76.287 64.7992C76.4458 64.5344 75.9692 64.1637 75.2278 63.9519C73.6391 63.5812 73.4272 62.2043 74.963 62.3102C75.5455 62.3631 76.0222 62.6809 76.0222 63.1046ZM81.265 63.2105C81.4768 63.2105 81.6886 63.5812 81.6886 64.0048C81.6886 64.4815 81.1591 64.7992 80.4177 64.7992C79.7822 64.7992 79.1996 64.5344 79.1996 64.2696C79.1996 63.9519 79.5174 63.7401 79.8881 63.7401C80.3117 63.7401 80.2588 63.5282 79.7292 63.1575C79.0937 62.6809 79.0937 62.628 79.8881 62.8927C80.4177 63.0516 81.0531 63.2105 81.265 63.2105ZM11.9434 63.6871C11.9434 64.6933 10.6195 65.2229 9.98398 64.5344C9.4544 63.9519 9.50736 63.7401 10.2488 63.5812C11.7316 63.1575 11.9434 63.2105 11.9434 63.6871ZM31.8025 64.2696C31.6437 64.5344 31.22 64.7992 30.9552 64.7992C30.6375 64.7992 30.5845 64.5344 30.7434 64.2696C30.9022 63.9519 31.3259 63.7401 31.5907 63.7401C31.9084 63.7401 31.9614 63.9519 31.8025 64.2696ZM47.7957 64.5874C47.6369 64.7463 47.1602 64.7992 46.7895 64.6403C46.3659 64.4815 46.5248 64.3226 47.1073 64.3226C47.6898 64.2696 48.0076 64.4285 47.7957 64.5874ZM72.3151 65.5406C72.3151 65.6995 72.1033 65.9643 71.7856 66.1231C71.5208 66.282 71.256 66.1761 71.256 65.9113C71.256 65.5936 71.5208 65.3288 71.7856 65.3288C72.1033 65.3288 72.3151 65.4347 72.3151 65.5406ZM78.9348 65.8584C79.0937 66.1231 78.8819 66.3879 78.4582 66.3879C77.9816 66.3879 77.6109 66.1231 77.6109 65.8584C77.6109 65.5406 77.8227 65.3288 78.0875 65.3288C78.4053 65.3288 78.776 65.5406 78.9348 65.8584ZM84.8661 66.9705C84.9191 67.7119 84.7072 67.7648 83.1185 67.2882C80.8413 66.5998 80.7884 66.0172 83.0655 66.0702C84.2836 66.1232 84.8131 66.388 84.8661 66.9705ZM37.3631 66.5998C37.3631 66.7057 36.9924 66.9705 36.5158 67.1294C36.0921 67.2882 35.8803 67.2353 36.0391 66.9175C36.3569 66.3879 37.3631 66.1761 37.3631 66.5998ZM70.1968 67.4471C69.8791 68.0296 69.4025 68.4003 69.1377 68.2415C68.8729 68.0826 68.5551 68.1885 68.3433 68.5062C68.1315 68.824 67.7608 68.9299 67.496 68.7181C66.7546 68.2944 68.0785 66.8116 68.9258 67.1294C69.2965 67.2882 69.7732 67.1823 69.932 66.9175C70.5675 65.9113 70.7794 66.3879 70.1968 67.4471ZM76.8695 67.7119C78.3523 69.1947 79.1996 69.4065 79.1996 68.2415C79.1996 67.606 79.3585 67.606 80.1529 68.3474C81.3179 69.4595 81.1591 70.2009 79.8881 69.7243C79.3055 69.5124 79.1467 69.5654 79.4115 69.9891C80.0469 71.0482 79.1467 70.6775 77.0813 69.0358C75.6515 67.9237 74.963 67.6589 74.8041 68.0826C74.6453 68.4533 74.4864 68.2415 74.4864 67.553C74.4334 66.0172 75.2278 66.0702 76.8695 67.7119ZM44.936 67.7119C44.7772 68.1885 44.5124 68.4533 44.4064 68.2944C44.2476 68.1356 44.3005 67.8178 44.5124 67.5001C44.989 66.6527 45.3067 66.8116 44.936 67.7119ZM10.7783 69.5125C10.5136 69.6184 9.87806 69.2476 9.40145 68.771C8.87187 68.2415 8.81891 67.9767 9.18962 68.1885C9.56032 68.4003 9.82511 68.2944 9.82511 67.9237C9.82511 67.553 10.1429 67.7119 10.5665 68.2944C11.0431 68.9299 11.149 69.3536 10.7783 69.5125ZM90.8503 67.9767C90.8503 68.2415 90.5855 68.5062 90.2678 68.5062C90.003 68.5062 89.8971 68.2415 90.0559 67.9767C90.2148 67.6589 90.4796 67.4471 90.6385 67.4471C90.7444 67.4471 90.8503 67.6589 90.8503 67.9767ZM36.8335 68.5062C36.8335 68.771 36.7276 69.0358 36.6217 69.0358C36.4628 69.0358 36.198 68.771 36.0391 68.5062C35.8803 68.1885 35.9862 67.9767 36.251 67.9767C36.5687 67.9767 36.8335 68.1885 36.8335 68.5062ZM82.9067 68.5062C82.9067 68.771 82.6419 69.0358 82.3241 69.0358C82.0593 69.0358 81.9534 68.771 82.1123 68.5062C82.2712 68.1885 82.536 67.9767 82.6948 67.9767C82.8008 67.9767 82.9067 68.1885 82.9067 68.5062ZM72.8447 69.1417C72.8447 69.3536 72.3681 69.5654 71.7856 69.5654C71.203 69.5654 70.7264 69.3536 70.7264 69.0888C70.7264 68.771 71.203 68.6122 71.7856 68.6651C72.3681 68.7181 72.8447 68.9299 72.8447 69.1417ZM66.3839 69.9891C66.7016 70.9423 64.6363 70.7834 63.8419 69.7772C63.2064 69.0888 63.3123 68.9829 64.6363 69.1947C65.4836 69.3006 66.278 69.6713 66.3839 69.9891ZM69.6673 70.5716C69.8261 70.6246 69.5084 70.8894 68.9788 71.2071C68.2374 71.6308 68.1315 71.9485 68.6611 72.531C69.1377 73.1136 69.4554 73.1665 69.985 72.6899C70.4087 72.3722 70.7264 72.2133 70.7264 72.4251C70.7264 72.9547 66.4368 75.4967 66.0661 75.1789C65.9073 75.0201 66.0132 74.8612 66.3309 74.8612C66.6487 74.8612 67.0194 74.3845 67.1782 73.802C67.3901 73.0076 67.1782 72.7429 66.4898 72.7429C65.9073 72.7429 65.5895 73.1136 65.6425 73.6431C65.6954 74.2257 65.1658 74.6493 64.0008 74.9141C62.518 75.1789 62.2532 75.126 62.2532 74.2786C62.2532 73.5372 62.6239 73.2724 63.5771 73.2724C65.0599 73.2724 65.2718 72.7958 64.2656 71.7367C63.683 71.1541 63.7889 71.1541 64.7422 71.7367C65.6954 72.2663 66.0132 72.2663 66.7016 71.7367C67.1782 71.366 67.443 70.8364 67.2842 70.6245C67.0723 70.3068 68.714 70.2539 69.6673 70.5716ZM77.8757 70.6245C77.7168 70.8893 77.0284 71.1541 76.3929 71.1012C75.2808 71.1012 75.2808 71.0482 76.287 70.6245C77.7698 69.9891 78.2464 69.9891 77.8757 70.6245ZM41.9704 72.0015C41.8115 72.1603 41.3349 72.2133 40.9642 72.0544C40.5405 71.8955 40.6994 71.7367 41.2819 71.7367C41.8645 71.6837 42.1822 71.8426 41.9704 72.0015ZM58.0695 72.7429C58.0695 73.3254 58.1754 73.3784 58.3873 72.7958C58.6521 72.2133 58.758 72.2133 59.1287 72.7958C59.4464 73.3784 59.7112 73.3784 60.2408 72.8488C61.0351 72.0544 61.7236 72.0014 61.7236 72.7429C61.7236 73.0076 60.7704 73.4313 59.6053 73.5902C58.4932 73.802 57.5399 74.0668 57.5929 74.2786C57.6988 75.3908 57.3811 75.8674 56.4278 75.7614C55.0509 75.6555 55.1039 75.1789 56.5867 74.1198C57.6988 73.3254 57.6988 73.2725 56.7456 72.531C55.7923 71.7896 55.7923 71.7367 56.9044 71.8426C57.487 71.8955 58.0166 72.2662 58.0695 72.7429ZM72.9506 73.802C73.2684 73.802 73.3743 73.9609 73.2154 74.1727C73.0036 74.3316 73.1095 74.8082 73.4272 75.1789C73.7979 75.6026 73.745 75.9203 73.3213 76.2381C72.8977 76.4499 72.8447 76.3969 73.0565 76.0262C73.4272 75.3907 72.7918 75.2319 70.4616 75.2848C69.6143 75.3378 69.6143 75.2848 70.3027 75.073C70.8853 74.9141 71.0971 74.4905 70.8853 73.9609C70.6205 73.2724 70.7794 73.1665 71.4678 73.4313C71.9974 73.6431 72.6858 73.802 72.9506 73.802ZM77.3461 73.802C77.1872 74.0668 76.7106 74.3316 76.3929 74.3316C76.0222 74.3316 76.0751 74.1198 76.5517 73.802C77.5579 73.1665 77.7698 73.1665 77.3461 73.802ZM59.976 74.6493C59.8171 74.8082 59.3405 74.8612 58.9698 74.7023C58.5461 74.5434 58.705 74.3846 59.2875 74.3846C59.8701 74.3316 60.1878 74.4905 59.976 74.6493ZM50.8673 76.8735C50.7084 77.0324 50.2847 76.8736 49.914 76.5029C49.4374 75.9733 49.4904 75.9203 50.2318 76.2381C50.7614 76.397 51.0262 76.7147 50.8673 76.8735ZM60.3997 76.4499C60.2408 76.7147 60.3997 76.9795 60.8233 76.9795C61.194 76.9795 61.5647 77.3502 61.5647 77.7738C61.5647 78.4623 61.4058 78.4623 60.6115 77.7209C59.7642 76.9265 59.6583 75.9203 60.4526 75.9203C60.6115 75.9203 60.5585 76.1321 60.3997 76.4499ZM7.7068 77.509C8.18342 78.3564 8.13046 78.4623 7.44201 78.2505C7.01835 78.0386 6.64765 78.1975 6.64765 78.5153C6.64765 79.2567 5.21779 79.2566 4.79413 78.5682C4.5823 78.2505 4.63526 78.0386 4.90005 78.0916C5.90624 78.2505 6.64765 77.9857 6.64765 77.4561C6.64765 77.1384 6.27694 76.9795 5.85328 77.1913C5.42962 77.3502 5.05892 77.2443 5.05892 76.9795C5.05892 76.0262 7.12427 76.4499 7.7068 77.509ZM35.2977 78.2505C34.927 78.6741 33.9208 78.9919 33.0735 78.9919C32.0673 78.9389 31.7496 78.78 32.1203 78.5153C32.491 78.3034 32.9676 78.1975 33.1794 78.3564C33.3913 78.4623 33.709 78.3564 33.9208 78.0386C34.0797 77.7738 34.6093 77.509 35.0859 77.509C35.7214 77.509 35.7744 77.6679 35.2977 78.2505ZM58.1754 78.1445C58.0695 78.4093 58.3873 78.5682 58.9168 78.5682C59.4464 78.5682 59.0228 78.9919 57.8577 79.6273C56.7456 80.2099 55.6335 80.5806 55.3687 80.4217C55.0509 80.2099 54.8391 80.3688 54.8391 80.6865C54.8391 81.0042 54.5743 81.1102 54.2566 80.8983C53.4622 80.4217 54.7332 79.6273 56.4278 79.6273H57.7518L56.4278 78.5682L55.1039 77.562L56.7985 77.6679C57.6988 77.7209 58.3343 77.9327 58.1754 78.1445ZM47.6898 81.2161C47.5309 81.4809 47.1073 81.7457 46.8425 81.7457C46.5248 81.7457 46.4718 81.4809 46.6307 81.2161C46.7895 80.8983 47.2132 80.6865 47.478 80.6865C47.7957 80.6865 47.8487 80.8983 47.6898 81.2161ZM64.6363 81.2161C64.4774 81.4809 63.7889 81.7457 63.1535 81.6927C62.0943 81.6398 62.0943 81.5868 63.3123 81.2161C64.0537 81.0042 64.6892 80.7924 64.7951 80.7395C64.9011 80.6865 64.7951 80.8983 64.6363 81.2161ZM53.2504 81.7457C53.8859 82.1693 53.727 82.2752 52.5619 82.2752C51.7146 82.2752 51.185 82.0634 51.3969 81.7457C51.8205 81.1102 52.2442 81.1102 53.2504 81.7457ZM42.8707 83.5462C42.7118 84.0228 42.2352 84.1817 41.7056 84.0228C40.9112 83.7051 41.229 83.4403 43.0296 82.8578C43.0825 82.8048 43.0296 83.1226 42.8707 83.5462ZM47.0543 83.864C48.2194 83.864 47.7957 84.7113 46.4188 85.082C45.7304 85.2409 45.4656 85.1349 45.6245 84.6583C45.7833 84.2876 45.6774 83.811 45.3597 83.5992C45.0419 83.4403 44.7772 83.6522 44.7772 84.1817C44.7772 84.7113 44.6183 84.9761 44.4594 84.7642C44.2476 84.6054 44.2476 84.0228 44.4594 83.5462C44.7242 82.8578 44.936 82.7518 45.4126 83.2285C45.7833 83.5992 46.4718 83.864 47.0543 83.864ZM49.7552 83.5992C49.5433 84.0228 49.2256 84.2347 48.9608 84.0758C48.2194 83.6521 48.4312 82.8048 49.2786 82.8048C49.7552 82.8048 49.914 83.1226 49.7552 83.5992ZM4.26455 84.9231C4.68822 85.6116 3.99977 85.6116 2.94061 84.9231C2.25216 84.4995 2.25216 84.3935 3.04653 84.3935C3.52315 84.3935 4.10568 84.6054 4.26455 84.9231ZM41.3349 84.9231C41.176 85.1879 40.6994 85.4527 40.3817 85.4527C40.011 85.4527 40.0639 85.2409 40.5405 84.9231C41.5467 84.2876 41.7586 84.2876 41.3349 84.9231ZM41.8645 87.571C42.0234 87.8358 41.8115 88.1006 41.3349 88.1006C40.8583 88.1006 40.6465 87.8358 40.8053 87.571C40.9642 87.2533 41.229 87.0414 41.3349 87.0414C41.4408 87.0414 41.7056 87.2533 41.8645 87.571ZM53.2504 87.2533C53.2504 87.3592 52.7738 87.571 52.1912 87.7299C51.6087 87.8887 51.238 87.7828 51.4498 87.5181C51.7146 87.0414 53.2504 86.8296 53.2504 87.2533ZM38.1045 88.0476C38.2634 88.2065 37.7867 88.4713 37.0453 88.5242C36.3569 88.5772 35.7744 88.4183 35.7744 88.2065C35.7744 87.6769 37.7867 87.5181 38.1045 88.0476ZM48.8019 89.0538C48.9078 89.7423 48.5371 89.9541 47.1602 90.0071C46.1541 90.0071 45.3067 89.8482 45.3067 89.5834C45.3067 89.3716 45.7833 89.1597 46.3129 89.1597C46.8425 89.1597 47.478 88.789 47.6369 88.3124C48.0076 87.3062 48.6431 87.6769 48.8019 89.0538ZM44.7772 89.0538C44.7772 89.3186 44.4064 89.5304 43.9828 89.5304C43.5591 89.5304 43.3473 89.3186 43.5062 89.0538C43.665 88.842 43.9828 88.6302 44.3005 88.6302C44.5653 88.6302 44.7772 88.842 44.7772 89.0538ZM53.78 89.1597C53.78 89.4245 53.4092 89.5304 52.9856 89.3716C52.5619 89.1597 52.1912 88.9479 52.1912 88.842C52.1912 88.7361 52.5619 88.6302 52.9856 88.6302C53.4092 88.6302 53.78 88.842 53.78 89.1597ZM40.7524 89.6364C41.5467 89.9541 41.5997 90.1659 41.1231 90.4837C40.7524 90.6955 40.2758 90.6425 40.0639 90.3248C39.905 90.06 39.2696 89.6893 38.687 89.5304L37.6279 89.2656H38.687C39.2696 89.2656 40.2228 89.4245 40.7524 89.6364ZM35.7214 91.8606C34.7152 92.4961 33.656 92.4431 33.656 91.7547C33.656 91.4369 33.9738 91.278 34.3975 91.4369C34.8211 91.5958 35.2977 91.331 35.5096 90.8544C35.8273 90.1659 35.9332 90.113 36.1451 90.6955C36.3039 91.0662 36.0921 91.5958 35.7214 91.8606ZM47.425 91.4899C47.425 91.6487 47.2132 91.9135 46.8955 92.0724C46.6307 92.2313 46.3659 92.1254 46.3659 91.8606C46.3659 91.5428 46.6307 91.278 46.8955 91.278C47.2132 91.278 47.425 91.384 47.425 91.4899ZM34.0797 92.9197C35.1389 93.873 35.3507 93.9259 36.0921 93.1845C37.2042 92.0195 37.7338 92.1253 36.6746 93.2904C35.5096 94.5614 36.3039 95.8324 37.7867 95.038C39.1636 94.2966 39.6403 94.2966 39.2166 95.038C39.0048 95.3558 39.3225 95.3028 39.958 94.8791L41.0701 94.1907L39.905 93.82C39.093 93.6082 39.0754 93.4846 39.8521 93.4493C40.4876 93.3964 41.176 93.6611 41.3349 93.9259C41.5467 94.2437 41.9174 94.2966 42.2352 94.1378C42.5529 93.9259 42.7118 94.0848 42.5529 94.5085C42.3941 94.9321 41.7586 95.1969 41.176 95.091C40.3287 94.9851 40.1169 95.144 40.3287 95.7265C40.5405 96.309 40.3287 96.5738 39.6932 96.5738C39.2166 96.5738 38.3163 96.9445 37.7867 97.4741C36.8865 98.2685 36.8335 98.2685 36.8335 97.4741C36.8335 96.9445 37.1513 96.5738 37.522 96.5209C37.8397 96.5209 37.469 96.256 36.5687 95.9383C34.6622 95.2499 33.5501 94.1907 34.0797 93.6082C34.2915 93.3434 34.0797 93.4493 33.656 93.7141C32.438 94.6144 30.3727 94.8792 28.8899 94.4555C27.9366 94.1377 27.8307 93.9789 28.5192 93.9259C28.9958 93.873 29.6313 93.7671 29.8431 93.7141C30.1079 93.7141 30.6904 93.2375 31.22 92.7079C32.3851 91.5428 32.6499 91.5958 34.0797 92.9197ZM55.8983 93.3963C55.8983 93.6611 55.7923 93.9259 55.6864 93.9259C55.5276 93.9259 55.2628 93.6611 55.1039 93.3963C54.945 93.0786 55.0509 92.8668 55.3157 92.8668C55.6335 92.8668 55.8983 93.0786 55.8983 93.3963ZM53.4092 94.4555C53.5681 95.038 53.5152 95.5146 53.2504 95.5146C53.0385 95.5146 52.7208 95.038 52.5619 94.4555C52.4031 93.873 52.456 93.3963 52.7208 93.3963C52.9326 93.3963 53.2504 93.873 53.4092 94.4555ZM6.11807 95.5146C6.11807 95.7794 5.85328 96.0442 5.53554 96.0442C5.27075 96.0442 5.16483 95.7794 5.32371 95.5146C5.48258 95.1969 5.74737 94.9851 5.90624 94.9851C6.01216 94.9851 6.11807 95.1969 6.11807 95.5146ZM32.438 95.7265C32.5969 95.8854 31.9084 96.0442 30.7963 96.0442C29.6842 96.0442 28.9428 96.2561 29.1546 96.5738C29.3135 96.8386 29.3665 97.1034 29.2076 97.1034C29.0487 97.1034 28.678 96.6797 28.4132 96.1501C27.9896 95.3558 28.2014 95.2499 30.002 95.3028C31.167 95.3558 32.2262 95.5147 32.438 95.7265ZM49.8081 96.9975C49.6493 97.1563 49.2256 96.9975 48.8549 96.6268C48.3783 96.0972 48.4312 96.0442 49.1726 96.362C49.7022 96.5209 49.967 96.8386 49.8081 96.9975ZM24.8121 97.7389C25.024 98.2685 25.2358 98.2155 25.6594 97.633C26.1361 96.9445 26.242 96.9445 26.242 97.7918C26.242 98.3214 25.6594 98.9569 24.918 99.2217C24.1766 99.4865 23.5941 99.9631 23.5941 100.228C23.5941 100.493 22.9586 100.652 22.2172 100.493C21.264 100.334 20.9992 100.44 21.264 100.863C21.4758 101.287 21.4228 101.34 20.9992 101.128C20.5226 100.81 20.5226 100.546 20.9992 99.9631C21.4758 99.3806 21.3699 99.2217 20.4696 99.2217C19.8871 99.2217 19.3575 98.9569 19.3575 98.6921C19.3575 97.9507 21.1051 98.0037 21.8995 98.798C22.3761 99.2746 22.5349 99.2217 22.5349 98.5862C22.5349 97.7918 23.1704 97.2623 24.2296 97.1564C24.3885 97.1034 24.7062 97.4211 24.8121 97.7389ZM27.7777 98.2685C27.8307 97.9507 28.1485 97.633 28.5192 97.633C28.8369 97.6859 28.5721 98.1625 27.8837 98.7451C26.4008 99.9631 26.189 99.8572 26.6127 98.1625C26.9304 96.9975 26.9834 96.9445 27.3541 97.9507C27.5659 98.4803 27.7777 98.6392 27.7777 98.2685ZM34.7152 99.2747C33.8679 100.122 32.7028 100.81 32.1732 100.81C30.6904 100.81 30.3727 101.393 31.4318 102.187C31.9614 102.611 31.8731 102.735 31.167 102.558C30.4256 102.399 29.949 102.505 29.949 102.929C29.949 103.299 29.6842 103.246 29.1546 102.717C28.731 102.293 28.3603 101.817 28.3603 101.658C28.3603 101.499 28.731 101.34 29.1546 101.34C29.5783 101.34 29.949 101.022 29.949 100.652C29.949 100.228 30.8493 99.6983 31.9614 99.4335C33.2853 99.1158 33.8679 98.6921 33.762 98.1096C33.656 97.4741 33.9738 97.3152 34.98 97.527L36.3039 97.7389L34.7152 99.2747ZM12.7378 98.6921C12.5789 98.9569 12.6848 99.2217 13.0026 99.2217C13.3203 99.2217 13.4262 99.4335 13.2674 99.7513C13.1085 100.016 13.5321 100.546 14.2735 100.916C15.015 101.234 15.6504 101.711 15.6504 101.975C15.6504 102.24 15.8623 102.346 16.1271 102.134C16.3919 101.975 16.7626 102.081 16.9744 102.399C17.5569 103.299 15.5445 102.982 14.8561 102.028C14.4324 101.499 13.4792 101.181 12.1552 101.181C11.0431 101.181 10.6195 101.075 11.3079 100.969C12.1552 100.81 12.473 100.493 12.2612 99.9101C11.9434 99.1687 12.2612 98.1625 12.7907 98.1625C12.9496 98.1625 12.8966 98.3744 12.7378 98.6921ZM32.0673 98.6921C32.0673 98.9569 31.9614 99.2217 31.8555 99.2217C31.6966 99.2217 31.4318 98.9569 31.273 98.6921C31.1141 98.3744 31.22 98.1625 31.4848 98.1625C31.8025 98.1625 32.0673 98.3744 32.0673 98.6921ZM16.4448 99.2217C16.2859 99.4865 15.8093 99.7513 15.4916 99.7513C15.1209 99.7513 15.1738 99.5394 15.6504 99.2217C16.6566 98.5862 16.8685 98.5862 16.4448 99.2217ZM29.4194 100.546C29.4194 100.599 28.9958 100.81 28.4662 100.916C27.8837 101.075 27.46 100.916 27.46 100.546C27.46 100.175 27.8837 100.016 28.4662 100.175C28.9958 100.281 29.4194 100.493 29.4194 100.546ZM10.8313 102.664C11.7845 102.982 11.8905 103.141 11.3609 103.511C10.9372 103.776 10.4076 103.988 10.0899 103.988C9.82511 103.988 9.93102 103.723 10.3547 103.458C10.9902 103.035 10.8843 102.929 9.82511 102.876C9.0837 102.823 8.39525 102.823 8.23638 102.823C8.0775 102.823 7.86567 102.346 7.86567 101.764C7.75976 100.81 7.86567 100.757 8.66004 101.499C9.13666 101.923 10.1429 102.452 10.8313 102.664ZM19.0927 103.458C19.2516 103.776 19.0397 103.829 18.6161 103.67C17.6628 103.299 17.504 102.929 18.2454 102.929C18.5631 102.929 18.9338 103.141 19.0927 103.458ZM28.5721 103.352C28.678 103.564 28.3603 103.829 27.7777 103.829C27.1952 103.882 26.8775 103.723 27.0363 103.405C27.407 102.823 28.2014 102.77 28.5721 103.352ZM23.8589 104.517C23.8589 104.888 23.4882 105.365 23.0645 105.471C22.3761 105.683 22.3761 105.63 22.9586 104.941C23.4352 104.359 23.4352 103.988 23.0645 103.829C22.7468 103.67 22.7997 103.617 23.1704 103.67C23.5411 103.776 23.8589 104.147 23.8589 104.517ZM20.2578 104.835C20.0989 104.994 19.6223 105.047 19.2516 104.888C18.8279 104.729 18.9868 104.57 19.5693 104.57C20.1518 104.517 20.4696 104.676 20.2578 104.835ZM5.5885 105.841C6.17103 106.53 6.11807 106.583 5.37666 106.318C4.90004 106.159 4.52934 105.788 4.52934 105.524C4.52934 104.835 4.84709 104.941 5.5885 105.841ZM12.7378 106.053C12.5789 106.371 12.1552 106.636 11.8905 106.636C11.6257 106.636 11.6786 106.318 12.0493 105.894C12.7907 105.047 13.3203 105.206 12.7378 106.053ZM17.6099 105.683C17.6099 106.053 16.9744 106.424 16.233 106.477L14.8561 106.53L16.18 105.788C16.9214 105.418 17.504 105.1 17.5569 105.047C17.5569 105.047 17.6099 105.365 17.6099 105.683ZM34.1856 106.106C33.656 107.059 31.0082 107.483 31.0082 106.583C31.0082 105.947 32.5439 105.63 32.9146 106.212C33.1265 106.583 33.4442 106.477 33.762 105.894C34.4504 104.676 34.8741 104.835 34.1856 106.106ZM11.7845 109.654C12.3671 110.502 12.3671 110.872 11.8905 111.19C11.4668 111.402 11.4138 111.349 11.6257 110.978C11.8375 110.608 11.7845 110.343 11.4668 110.343C11.202 110.343 10.7783 110.819 10.6195 111.402C10.2488 112.567 9.03074 112.832 8.44821 111.826C8.23638 111.508 8.28933 111.402 8.60708 111.561C8.92483 111.773 9.56032 111.349 10.0369 110.608C10.7783 109.443 10.8313 109.284 10.0899 109.284C9.66623 109.284 9.29553 109.072 9.29553 108.807C9.29553 107.96 11.0431 108.542 11.7845 109.654ZM18.8279 110.078C18.0865 110.978 17.2392 111.137 17.2392 110.396C17.2392 110.131 17.6628 109.76 18.1924 109.654C18.669 109.495 19.1986 109.39 19.3045 109.337C19.4104 109.337 19.1986 109.654 18.8279 110.078ZM31.0082 110.396C31.0082 110.978 29.5783 111.031 29.2076 110.449C29.1017 110.237 29.4194 109.972 30.002 109.972C30.5315 109.919 31.0082 110.078 31.0082 110.396ZM26.7716 110.872C26.7716 111.137 26.6656 111.402 26.5597 111.402C26.4008 111.402 26.1361 111.137 25.9772 110.872C25.8183 110.555 25.9242 110.343 26.189 110.343C26.5068 110.343 26.7716 110.555 26.7716 110.872ZM16.18 112.62C16.18 112.726 15.6504 113.255 15.015 113.838L13.7969 114.844L14.8031 113.626C15.7564 112.514 16.18 112.196 16.18 112.62ZM7.7068 113.467C7.7068 113.785 7.49497 114.156 7.17722 114.315C6.91244 114.473 6.64765 114.262 6.64765 113.838C6.64765 113.361 6.91244 112.991 7.17722 112.991C7.49497 112.991 7.7068 113.203 7.7068 113.467ZM10.0369 113.785C9.82511 114.209 9.50736 114.579 9.24257 114.579C8.97778 114.579 8.76595 114.209 8.76595 113.785C8.76595 113.361 9.13666 112.991 9.56032 112.991C10.0369 112.991 10.1958 113.308 10.0369 113.785ZM8.76595 115.427C8.76595 115.85 8.55412 116.062 8.23638 115.903C7.97159 115.744 7.7068 115.374 7.7068 115.056C7.7068 114.791 7.97159 114.579 8.23638 114.579C8.55412 114.579 8.76595 114.95 8.76595 115.427ZM13.2674 115.162C13.1085 115.321 12.3141 115.639 11.4138 115.797C9.82511 116.168 9.24257 117.439 10.5136 117.916C10.9372 118.075 10.8313 118.392 10.0899 118.975C8.87187 119.928 7.65384 119.61 8.0775 118.392C8.28933 117.704 8.23638 117.651 7.81272 118.233C7.49497 118.657 6.85948 118.816 6.17103 118.551C5.27075 118.286 5.16483 118.022 5.5885 117.492C5.90624 117.121 6.01216 116.433 5.80033 115.956C5.58849 115.374 5.74737 115.109 6.43582 115.109C7.01835 115.109 7.23018 115.321 6.91244 115.533C6.64765 115.744 6.3299 116.327 6.3299 116.804C6.27694 117.598 6.43582 117.651 7.38905 117.121C7.97159 116.804 8.92483 116.115 9.4544 115.586C10.3547 114.632 13.7969 114.262 13.2674 115.162ZM11.5727 122.046C12.3671 122.205 12.2082 122.47 10.8313 123.264C9.40145 124.112 9.18962 124.112 9.4544 123.423C9.61328 122.947 9.40145 122.47 8.87187 122.258C8.13046 121.993 8.13046 121.888 8.76595 121.464C9.18961 121.199 9.77215 121.199 10.0899 121.411C10.3547 121.676 11.0431 121.941 11.5727 122.046ZM12.3141 121.252C12.1552 121.411 11.6786 121.464 11.3079 121.305C10.8843 121.146 11.0431 120.987 11.6257 120.987C12.2082 120.934 12.5259 121.093 12.3141 121.252Z" fill="#FFD446"/>
<path fill-rule="evenodd" clip-rule="evenodd" d="M87.1434 48.3822C87.1434 49.0706 88.0966 49.5473 88.4144 48.9647C88.5733 48.6999 88.3614 48.3822 87.9378 48.1704C87.5141 48.0115 87.1434 48.1174 87.1434 48.3822Z" fill="#FFD446"/>
<path fill-rule="evenodd" clip-rule="evenodd" d="M77.0811 61.0921C77.0811 61.3569 77.3459 61.6217 77.6637 61.6217C77.9284 61.6217 78.0344 61.3569 77.8755 61.0921C77.7166 60.7743 77.4518 60.5625 77.2929 60.5625C77.187 60.5625 77.0811 60.7743 77.0811 61.0921Z" fill="#FFD446"/>
<path fill-rule="evenodd" clip-rule="evenodd" d="M69.6671 61.3036C69.6671 61.4096 69.9848 61.7803 70.3555 62.098C70.8851 62.5217 71.0969 62.4687 71.0969 61.8862C71.0969 61.4625 70.7792 61.0918 70.3555 61.0918C69.9848 61.0918 69.6671 61.1977 69.6671 61.3036Z" fill="#FFD446"/>
<path fill-rule="evenodd" clip-rule="evenodd" d="M68.3962 63.1046C68.2374 63.4224 68.3433 63.8461 68.661 64.0049C69.4024 64.4816 69.7202 64.1109 69.1906 63.2635C68.8729 62.8399 68.6081 62.7869 68.3962 63.1046Z" fill="#FFD446"/>
<path fill-rule="evenodd" clip-rule="evenodd" d="M28.2543 72.584C28.625 72.7429 29.1017 72.6899 29.2605 72.531C29.4724 72.3722 29.1546 72.2133 28.5721 72.2662C27.9896 72.2662 27.8307 72.4251 28.2543 72.584Z" fill="#FFD446"/>
<path fill-rule="evenodd" clip-rule="evenodd" d="M48.9077 73.1133C49.2784 73.2721 49.755 73.2192 49.9139 73.0603C50.1258 72.9015 49.808 72.7426 49.2255 72.7955C48.6429 72.7955 48.4841 72.9544 48.9077 73.1133Z" fill="#FFD446"/>
<path fill-rule="evenodd" clip-rule="evenodd" d="M40.3285 77.4027C40.2226 77.6145 40.5404 77.8263 41.1229 77.8263C41.6525 77.8263 42.1291 77.6145 42.1291 77.4027C42.1291 77.1908 41.8113 76.979 41.3877 76.979C40.964 76.979 40.4874 77.1908 40.3285 77.4027Z" fill="#FFD446"/>
<path fill-rule="evenodd" clip-rule="evenodd" d="M39.4815 80.3684C39.4815 80.792 39.7463 81.3216 40.0111 81.4805C40.3288 81.6393 40.5406 81.3216 40.5406 80.7391C40.5406 80.1036 40.3288 79.627 40.0111 79.627C39.7463 79.627 39.4815 79.9447 39.4815 80.3684Z" fill="#FFD446"/>
<path fill-rule="evenodd" clip-rule="evenodd" d="M23.4352 90.96C23.2234 91.4896 23.3822 91.8073 23.9118 91.8073C24.3884 91.8073 24.5473 92.0721 24.3355 92.3899C24.1237 92.8135 24.3355 92.8665 25.1298 92.6017C25.7653 92.3899 26.242 92.4958 26.242 92.8135C26.242 93.1313 26.5067 93.396 26.7715 93.396C27.0893 93.396 27.3011 93.0783 27.3011 92.6547C27.3011 91.9133 25.8713 91.013 24.971 91.2248C24.7062 91.2778 24.3355 91.0659 24.1237 90.7482C23.8589 90.3245 23.647 90.3775 23.4352 90.96Z" fill="#FFD446"/>
<path fill-rule="evenodd" clip-rule="evenodd" d="M88.7319 34.3486C89.1026 34.7722 89.6851 35.1429 90.0028 35.09C90.3735 35.09 90.3206 34.984 89.8969 34.7722C89.5792 34.6663 89.3674 34.2956 89.5792 34.0308C89.7381 33.766 89.4733 33.5542 88.9437 33.5542C88.2552 33.5542 88.2023 33.7131 88.7319 34.3486Z" fill="#FFD446"/>
<path fill-rule="evenodd" clip-rule="evenodd" d="M84.2304 36.2019C84.3893 36.4667 84.654 36.7315 84.8129 36.7315C84.9188 36.7315 85.0247 36.4667 85.0247 36.2019C85.0247 35.8842 84.76 35.6724 84.4422 35.6724C84.1774 35.6724 84.0715 35.8842 84.2304 36.2019Z" fill="#FFD446"/>
<path fill-rule="evenodd" clip-rule="evenodd" d="M56.163 40.9681C56.3218 41.2328 56.5866 41.4976 56.7455 41.4976C56.8514 41.4976 56.9573 41.2328 56.9573 40.9681C56.9573 40.6503 56.6925 40.4385 56.3748 40.4385C56.11 40.4385 56.0041 40.6503 56.163 40.9681Z" fill="#FFD446"/>
<path fill-rule="evenodd" clip-rule="evenodd" d="M37.6278 4.95695C36.7275 5.91019 36.7275 6.0161 37.5748 6.0161C38.0514 6.0161 38.3692 5.80429 38.2103 5.53951C37.9985 5.27472 38.2103 4.95696 38.5281 4.79809C38.8988 4.69217 39.0576 4.42739 38.8988 4.21556C38.7399 4.05669 38.1574 4.37442 37.6278 4.95695Z" fill="#FFD446"/>
<path fill-rule="evenodd" clip-rule="evenodd" d="M54.5744 16.6077C54.4155 16.9254 54.6273 16.9784 55.051 16.8195C56.0042 16.4488 56.1631 16.0781 55.4217 16.0781C55.1039 16.0781 54.7332 16.29 54.5744 16.6077Z" fill="#FFD446"/>
<path fill-rule="evenodd" clip-rule="evenodd" d="M54.0976 18.9904C54.5742 19.7319 55.2097 20.3144 55.5804 20.3144C55.8982 20.3144 55.8452 20.1026 55.4215 19.8378C54.9979 19.573 54.839 18.9905 54.9979 18.5138C55.2627 17.9313 55.0508 17.6665 54.2565 17.6665C53.3032 17.6665 53.2503 17.7195 54.0976 18.9904Z" fill="#FFD446"/>
<path fill-rule="evenodd" clip-rule="evenodd" d="M100.647 19.2552C100.806 19.52 101.071 19.7847 101.23 19.7847C101.336 19.7847 101.441 19.52 101.441 19.2552C101.441 18.9374 101.177 18.7256 100.859 18.7256C100.594 18.7256 100.488 18.9374 100.647 19.2552Z" fill="#FFD446"/>
<path fill-rule="evenodd" clip-rule="evenodd" d="M91.1146 19.7849C91.2735 20.0497 91.5383 20.3145 91.6972 20.3145C91.8031 20.3145 91.909 20.0497 91.909 19.7849C91.909 19.4672 91.6442 19.2554 91.3265 19.2554C91.0617 19.2554 90.9558 19.4672 91.1146 19.7849Z" fill="#FFD446"/>
<path fill-rule="evenodd" clip-rule="evenodd" d="M53.8858 22.1154C53.9387 22.6449 54.3094 23.0157 54.5742 23.0157C55.3686 22.9627 55.2097 21.7447 54.4154 21.4799C53.9387 21.321 53.7269 21.5858 53.8858 22.1154Z" fill="#FFD446"/>
<path fill-rule="evenodd" clip-rule="evenodd" d="M81.6354 23.3861C81.4765 23.6508 81.6883 23.8627 82.112 23.8627C82.5357 23.8627 82.9064 23.6508 82.9064 23.3861C82.9064 23.1742 82.6945 22.9624 82.4298 22.9624C82.112 22.9624 81.7943 23.1742 81.6354 23.3861Z" fill="#FFD446"/>
<path fill-rule="evenodd" clip-rule="evenodd" d="M54.733 25.981C55.1037 26.1398 55.5804 26.0869 55.7392 25.928C55.9511 25.7691 55.6333 25.6103 55.0508 25.6632C54.4683 25.6632 54.3094 25.8221 54.733 25.981Z" fill="#FFD446"/>
<path fill-rule="evenodd" clip-rule="evenodd" d="M54.0449 28.2581C54.2567 28.5758 54.6274 28.6818 54.8922 28.5229C55.6336 28.0463 55.4748 27.7285 54.5215 27.7285C54.0979 27.7285 53.886 27.9933 54.0449 28.2581Z" fill="#FFD446"/>
<path fill-rule="evenodd" clip-rule="evenodd" d="M115.741 33.8188C115.741 34.2424 115.952 34.6131 116.27 34.6131C116.535 34.6131 116.641 34.2424 116.482 33.8188C116.27 33.3951 116.058 33.0244 115.952 33.0244C115.847 33.0244 115.741 33.3951 115.741 33.8188Z" fill="#FFD446"/>
<path fill-rule="evenodd" clip-rule="evenodd" d="M53.9915 35.0369C54.1504 35.3017 53.9915 35.7253 53.6737 35.8313C53.1971 36.0431 53.1442 36.149 53.6208 36.149C54.5211 36.202 54.9447 35.3017 54.2563 34.8251C53.8856 34.6132 53.7797 34.6662 53.9915 35.0369Z" fill="#FFD446"/>
<path fill-rule="evenodd" clip-rule="evenodd" d="M55.6331 36.2019C55.792 36.4667 56.0568 36.7315 56.2157 36.7315C56.3216 36.7315 56.4275 36.4667 56.4275 36.2019C56.4275 35.8842 56.1627 35.6724 55.845 35.6724C55.5802 35.6724 55.4743 35.8842 55.6331 36.2019Z" fill="#FFD446"/>
<path fill-rule="evenodd" clip-rule="evenodd" d="M60.7176 36.3605C60.8235 36.4135 61.3531 36.8372 61.8827 37.2079C62.677 37.8434 62.7829 37.8434 62.4652 37.049C62.3063 36.5724 61.7767 36.2017 61.3001 36.2017C60.8765 36.2017 60.6117 36.2546 60.7176 36.3605Z" fill="#FFD446"/>
<path fill-rule="evenodd" clip-rule="evenodd" d="M1.14012 93.714C-0.130868 94.932 0.080963 96.15 1.45786 95.9382C2.09335 95.8323 2.67589 95.4616 2.83476 95.0379C2.99363 94.5613 2.83476 94.4554 2.35814 94.7202C1.77561 95.0379 1.72265 94.985 2.30518 94.4025C3.68208 92.9196 2.56997 92.2312 1.14012 93.714Z" fill="#FFD446"/>
<path fill-rule="evenodd" clip-rule="evenodd" d="M0.928051 97.4209C0.345517 98.0564 0.398475 98.2152 1.03397 98.48C1.93425 98.8507 2.94044 98.3741 2.94044 97.5797C2.94044 97.262 2.72861 97.1561 2.46382 97.3149C2.19903 97.5268 1.88129 97.4209 1.77537 97.1561C1.72242 96.8913 1.29875 96.9972 0.928051 97.4209Z" fill="#FFD446"/>
<path fill-rule="evenodd" clip-rule="evenodd" d="M1.45733 104.994C1.56325 105.364 1.82803 105.629 2.03986 105.629C2.67536 105.576 2.51648 104.835 1.88099 104.57C1.51029 104.464 1.29846 104.676 1.45733 104.994Z" fill="#FFD446"/>
<path fill-rule="evenodd" clip-rule="evenodd" d="M25.7125 114.05C25.0241 114.474 25.0771 114.579 25.8714 114.579C26.348 114.579 26.7717 114.315 26.7717 114.05C26.7717 113.414 26.7187 113.414 25.7125 114.05Z" fill="#FFD446"/>
<path d="M5.32388 123.582C5.76259 123.582 6.11824 123.345 6.11824 123.053C6.11824 122.76 5.76259 122.523 5.32388 122.523C4.88516 122.523 4.52951 122.76 4.52951 123.053C4.52951 123.345 4.88516 123.582 5.32388 123.582Z" fill="#FFD446"/>
</svg>
