<svg width="152" height="73" viewBox="0 0 152 73" fill="none" xmlns="http://www.w3.org/2000/svg">
<path fill-rule="evenodd" clip-rule="evenodd" d="M5.21384 0.174819C5.21384 0.374067 4.42186 0.523491 3.43194 0.473679C2.29354 0.423867 1.35316 0.672927 0.808703 1.22086C-0.181213 2.2171 -0.280216 4.95674 0.610708 6.55072C0.957179 7.14847 1.05616 7.74624 0.907671 7.94549C0.759183 8.09492 0.858175 8.24435 1.15515 8.24435C1.40263 8.24435 1.7986 7.94551 1.89759 7.59683C2.09557 7.24814 2.19455 7.29795 2.19455 7.84589C2.24405 8.29419 1.99657 8.7425 1.69959 8.84213C1.35312 8.94175 1.35316 9.43986 1.79862 10.3863C2.14509 11.1335 2.68954 11.6814 3.03601 11.5319C3.38248 11.3825 3.77841 11.6316 3.9269 12.03C4.07539 12.4784 3.97645 12.6278 3.72897 12.4784C3.03603 12.0799 3.08552 12.3787 3.97645 14.0225C4.37241 14.8195 4.71888 15.1683 4.71888 14.8196C4.71888 14.5207 5.16433 14.2218 5.75828 14.2218C6.45122 14.2218 6.64918 14.4211 6.35221 14.8196C6.15422 15.1683 5.90675 16.015 5.85725 16.7124C5.70876 17.8083 5.80779 17.7585 6.45124 16.3139C6.8472 15.4671 7.24313 14.7199 7.34212 14.7199C7.68859 14.7199 7.54009 16.4633 7.14413 16.7124C6.2532 17.3101 7.39164 19.8506 8.97551 20.797C9.91593 21.3449 10.6584 21.8929 10.6584 22.0423C10.6584 22.1419 10.4604 22.0921 10.1634 21.9427C9.91594 21.7932 9.66846 21.9427 9.66846 22.2914C9.66846 22.7397 10.2129 22.9887 11.1533 22.9389C12.2917 22.9389 12.6382 22.6898 12.6382 21.9925C12.6382 20.5977 13.1827 21.3449 13.4301 23.0884C13.5786 23.9352 13.4301 24.7321 13.1332 24.9314C12.8857 25.0808 12.6382 24.9812 12.6382 24.6325C12.6382 24.234 12.4402 24.234 11.8958 24.6823C11.2523 25.2303 11.1533 25.1805 11.4503 24.3835C11.6483 23.6861 11.5988 23.5865 11.2523 24.1344C10.8563 24.6823 10.7573 24.6823 10.5099 24.1344C10.3614 23.6861 10.2129 23.6363 10.2129 24.0348C10.1634 24.3337 10.6583 24.9812 11.3018 25.4295C11.8957 25.828 12.3412 26.376 12.2422 26.5254C12.1432 26.7246 12.2917 26.9737 12.5887 27.0733C12.8856 27.1729 13.2816 26.7744 13.5291 26.2265C13.9746 24.9314 14.8655 25.5291 15.3109 27.422C15.5584 28.6175 15.509 28.7171 15.113 28.0198C14.519 27.0733 12.9352 26.8243 13.2321 27.7707C13.3806 28.1194 13.9746 28.7171 14.6675 29.016C15.311 29.3647 15.5584 29.6635 15.212 29.6635C14.717 29.6635 14.7665 29.8628 15.3605 30.4605C16.2514 31.4069 16.5978 31.2077 16.7463 29.7133C16.7958 29.016 17.1423 28.6673 17.8353 28.6673C18.6272 28.6673 18.6767 28.7669 18.0827 29.1654C17.4888 29.5639 17.4393 29.6635 18.0332 29.6635C18.5282 29.6635 18.4292 30.0122 17.6373 30.8092C16.6474 31.9549 16.5978 32.0545 17.4393 32.702C17.9837 33.1504 18.1322 33.2002 17.8848 32.8017C17.3898 31.9549 20.0625 32.1542 20.9535 33.001C21.2999 33.3497 22.0424 33.6485 22.5869 33.6485C23.0818 33.6485 23.5273 33.8477 23.5273 34.1466C23.5273 34.4455 23.0818 34.4455 22.2403 34.1466C20.508 33.4492 20.4585 33.4991 20.6565 34.9935C20.7555 35.8403 21.102 36.3882 21.5475 36.3882C21.9434 36.3882 22.3393 36.8863 22.4383 37.5339C22.5868 38.3308 22.8343 38.6297 23.3293 38.4304C23.7253 38.281 23.9727 38.3308 23.8242 38.5301C23.6758 38.7792 24.0222 39.3271 24.5667 39.8252C25.5566 40.672 25.6061 40.672 25.2596 39.6757C24.8142 38.2312 25.5566 38.3807 26.695 39.9747C27.2394 40.672 27.3385 41.1203 26.992 40.8712C26.5465 40.6222 26.4475 40.672 26.695 41.0207C26.893 41.3694 27.4374 41.6184 27.8829 41.6184C28.6253 41.6184 28.6254 41.718 27.9819 42.1663C27.4375 42.5648 27.5364 42.6147 28.4769 42.3158C29.1698 42.1165 30.3577 41.9671 31.1991 42.0169C31.9911 42.0169 32.8325 41.7679 33.0305 41.469C33.3274 41.0207 33.4264 41.0207 33.4264 41.469C33.4264 41.7679 33.08 42.3656 32.684 42.7641C32.1396 43.3619 32.09 43.6109 32.585 43.8102C32.882 43.9596 32.7335 44.0094 32.189 43.86C31.6446 43.7603 30.9021 43.8102 30.5062 44.0592C29.9617 44.4079 30.0607 44.6072 30.9021 45.0555C31.4466 45.4041 31.9416 45.5038 31.9416 45.3045C31.9416 45.1053 32.3375 45.454 32.8819 46.0019C33.3769 46.5996 33.9214 46.9483 34.1193 46.7491C34.2678 46.5996 34.4164 46.7491 34.4164 47.0977C34.4164 47.546 34.7628 47.3966 35.4558 46.6993C36.4952 45.5536 37.5346 45.6532 37.2871 46.8487C37.1881 47.2472 37.2871 47.4963 37.4356 47.4465C37.5841 47.3966 38.079 47.7453 38.574 48.1936C39.0194 48.6419 39.7124 48.9408 40.0588 48.7914C40.4548 48.6419 40.9003 48.7416 41.0487 48.9906C41.1972 49.2397 40.9498 49.4389 40.4548 49.3891C40.0094 49.3891 39.6629 49.5884 39.7124 49.9371C39.8114 50.3356 39.5144 50.4352 39.0194 50.2359C38.475 49.9869 38.3265 50.0865 38.574 50.5348C38.8214 50.8835 39.4154 51.0329 39.9599 50.9333C40.5538 50.7839 40.8508 50.8835 40.7023 51.2322C40.5043 51.9295 42.9296 54.0714 44.0185 54.0714C44.464 54.0714 44.8105 54.3205 44.8105 54.6193C44.8105 54.8684 45.058 54.968 45.3054 54.8186C45.6024 54.6692 45.8004 54.719 45.8004 55.0179C45.8004 55.2669 46.2953 55.6654 46.9388 55.8646C47.5327 56.0639 48.1267 56.313 48.2752 56.5122C48.7701 57.11 52.2843 58.5545 53.2248 58.5545C53.7197 58.5545 54.4621 58.8534 54.8086 59.2021C55.65 59.9991 58.2238 61.1447 58.5208 60.8459C58.6693 60.7462 59.2137 61.095 59.7582 61.6429L60.7976 62.6889L61.6885 61.4934C62.332 60.6466 62.3815 60.1983 61.9855 59.9493C61.5895 59.7002 61.6885 59.5508 62.2825 59.5508C62.7279 59.5508 63.1239 59.75 63.1239 60.0489C63.1239 60.2979 63.3714 60.547 63.6684 60.547C63.9158 60.547 64.0148 60.2979 63.8664 60.0489C63.7179 59.75 63.8168 59.5508 64.0643 59.5508C64.3613 59.5508 64.6088 59.75 64.6088 60.0489C64.6088 60.2979 64.9552 60.547 65.4007 60.547C66.0937 60.547 66.0936 60.6466 65.5492 61.344C65.0542 61.9915 64.8563 61.9916 64.6088 61.4436C64.1633 60.3478 62.4804 60.6965 62.3319 61.9418C62.1834 62.6391 62.3814 63.0376 62.8269 63.0376C63.2229 63.0376 63.6189 63.2369 63.7178 63.4361C63.8168 63.6852 64.4603 64.0338 65.2522 64.2331C66.5886 64.532 66.8856 64.1335 66.6381 62.141C66.5391 61.6429 66.7371 61.5931 67.529 61.9916C68.7664 62.6889 69.2119 62.6889 68.8159 62.0414C68.6674 61.7425 68.7169 61.5432 68.9644 61.5432C69.2614 61.5432 69.6078 61.8919 69.7563 62.3402C69.9048 62.7387 70.3008 62.938 70.5978 62.7387C70.9937 62.4897 71.0432 62.5893 70.7958 63.0874C70.5483 63.4859 70.7957 63.3863 71.3897 62.8882C72.0496 62.3237 72.3466 62.5893 72.2806 63.6852C72.1816 64.6316 72.2806 65.578 72.4291 65.8271C72.924 66.4746 74.1615 66.6739 73.7655 66.0263C73.617 65.7773 73.815 65.5282 74.2109 65.5282C74.6564 65.5282 74.8544 65.2293 74.7059 64.8308C74.5574 64.4323 74.7059 63.984 75.0524 63.735C75.4979 63.4859 75.5473 63.6354 75.3494 64.1833C75.1514 64.6814 75.2999 65.0301 75.5968 65.0301C75.9433 65.0301 75.7453 65.3787 75.2008 65.8271C74.6069 66.3252 74.7554 66.5079 75.6463 66.375C76.8837 66.1758 77.5767 67.0724 76.6362 67.6701C76.3888 67.7698 76.4878 67.7697 76.8342 67.7199C77.1312 67.6203 77.5272 67.7199 77.6261 67.9192C77.7251 68.1184 77.7251 67.969 77.6261 67.6203C77.5767 67.2218 77.4777 66.4746 77.4777 65.9765C77.4777 65.329 77.2797 65.0799 76.8837 65.3289C76.5372 65.5282 76.4877 65.4784 76.6857 65.1297C76.8837 64.781 76.7848 64.532 76.4878 64.532C76.1908 64.532 76.0918 64.2829 76.2403 64.0338C76.4383 63.735 76.8342 63.8346 77.2797 64.2829C77.7252 64.6814 78.2696 64.9304 78.5171 64.781C78.7646 64.5818 78.9626 64.6814 78.9626 64.9803C78.9626 65.2293 78.6656 65.578 78.3686 65.6777C77.8736 65.8769 77.8736 65.9765 78.3686 65.9765C78.6656 66.0263 78.9626 66.2754 78.9626 66.5742C78.9626 66.8233 78.7151 66.9229 78.3686 66.7237C78.0221 66.4746 77.9726 66.5743 78.1706 66.9728C78.4181 67.3214 78.8636 67.4708 79.2595 67.3214C79.705 67.172 79.9525 67.421 79.9525 68.0188C79.9525 68.5667 80.2 69.015 80.4969 69.015C80.7939 69.015 80.9424 68.7162 80.7939 68.3675C80.6454 67.969 80.7444 67.3712 81.0414 66.9728C81.4373 66.4248 81.4868 66.4747 81.2394 67.1222C81.0414 67.7698 81.2393 68.0188 81.8333 68.0188C82.4767 68.0188 82.5262 68.1184 82.0313 68.4671C81.4868 68.8158 81.4868 68.9154 82.0808 69.1645C82.6252 69.3637 82.9717 69.015 83.1697 67.969C83.4172 66.9728 83.7636 66.5245 84.3081 66.6241C84.803 66.6739 85.6939 66.4248 86.3374 66.0761C87.0303 65.6776 87.3768 65.6278 87.1789 65.9765C86.9809 66.2754 87.0303 66.5244 87.3273 66.5244C87.6243 66.5244 87.6738 66.923 87.5253 67.3713C87.2778 67.969 87.4263 68.1184 87.9708 67.9192C88.3667 67.7199 89.0102 67.8196 89.4062 68.1185C89.9506 68.517 89.9011 68.5667 89.2577 68.3177C88.7627 68.1682 88.3668 68.2679 88.3668 68.5169C88.3668 69.4135 87.5253 69.0151 86.9809 67.8694C86.5849 67.0226 86.4364 66.9728 86.4364 67.6203C86.3869 68.1185 86.1394 68.5169 85.8424 68.5169C85.595 68.5169 85.496 68.2679 85.6445 68.0188C85.793 67.7199 85.694 67.5207 85.4465 67.5207C85.1495 67.5207 84.9021 67.8693 84.9021 68.3177C84.9021 68.7162 84.6546 68.9154 84.4071 68.766C84.1101 68.5667 84.0606 68.1683 84.2091 67.8694C84.4566 67.4211 84.4071 67.421 83.9616 67.8195C82.9222 68.766 83.9121 70.1109 85.4465 69.9117C86.1889 69.7622 86.7334 69.8619 86.5849 70.1109C86.4364 70.3102 86.5354 70.5094 86.8324 70.5094C87.0798 70.5094 87.4758 70.2603 87.6243 70.0113C87.7728 69.7124 88.2678 69.5132 88.6637 69.5132C89.0597 69.5132 89.2577 69.7622 89.1092 70.0113C88.9112 70.3101 88.5152 70.36 88.2183 70.2105C87.7728 69.9615 87.7728 70.0113 88.1688 70.4596C88.4658 70.8083 90.3466 71.2566 92.3759 71.4558C95.2962 71.8045 96.1871 71.7049 96.88 71.157C97.474 70.609 97.771 70.609 98.0679 71.0573C98.2659 71.4558 98.2164 71.5554 97.8699 71.3064C97.5235 71.1071 97.276 71.2068 97.276 71.4558C97.276 71.7547 97.4245 72.0037 97.6719 72.0536C99.9488 72.3026 101.285 72.1532 101.434 71.6551C101.681 71.0574 103.71 71.3562 103.71 71.954C103.71 72.6015 105.839 72.4521 106.532 71.7049C107.472 70.7585 108.017 71.2068 107.175 72.2528C106.68 72.8506 106.68 73 107.324 73C107.769 73 108.264 72.7509 108.413 72.5019C108.611 72.203 109.006 72.1532 109.303 72.3525C109.699 72.5517 109.65 72.4023 109.254 71.9042C108.858 71.3562 108.808 71.0075 109.105 70.8083C109.452 70.5592 109.452 70.0611 109.155 69.2641C108.908 68.5667 108.809 68.0188 108.957 68.0188C109.6 68.0188 111.135 69.1146 111.135 69.563C111.135 69.8618 110.937 69.9615 110.689 69.812C110.442 69.6626 110.095 69.8618 109.947 70.3101C109.699 70.9079 109.897 71.0075 110.788 70.7087C111.481 70.5094 111.564 70.7253 111.036 71.3562C109.947 72.5517 109.897 73.0498 110.887 72.7011C111.283 72.5019 111.531 72.203 111.382 72.0038C111.085 71.5056 113.907 70.9577 114.946 71.3562C115.688 71.6551 115.688 71.7049 114.797 72.0536C114.154 72.3026 114.599 72.4023 116.035 72.4023C117.718 72.3525 118.015 72.203 117.47 71.8045C116.975 71.4558 116.876 70.9079 117.074 70.2603C117.272 69.7124 117.322 69.015 117.173 68.766C117.025 68.4671 117.074 68.4173 117.322 68.6166C117.52 68.8158 118.015 68.6166 118.361 68.1185C118.955 67.3713 119.005 67.3712 118.807 68.4671C118.658 69.1645 118.312 69.8618 118.015 70.0611C117.619 70.3101 117.718 70.5592 118.361 70.9079C119.995 71.7547 123.806 71.8543 123.261 71.0075C123.063 70.7086 123.311 70.6589 123.756 70.8581C124.251 71.0076 124.796 70.8581 125.043 70.4596C125.34 69.9615 125.489 69.9615 125.489 70.36C125.489 70.8083 126.083 70.9577 127.221 70.8581C128.953 70.7585 129.696 70.0113 128.112 70.0113C127.32 69.9615 127.32 69.9117 128.161 69.4634C128.904 69.015 128.953 68.8158 128.409 68.4671C127.914 68.1682 128.013 68.0188 128.805 68.0188C129.399 68.0188 130.141 67.6203 130.389 67.1222C130.686 66.6739 130.933 66.5245 130.933 66.8732C130.933 67.172 130.686 67.6203 130.389 67.8195C130.092 67.969 129.943 68.5667 130.092 69.0648C130.24 69.563 130.092 70.0611 129.745 70.2105C129.448 70.3102 129.795 70.4596 130.537 70.4596C131.28 70.5094 132.17 70.1607 132.616 69.7622C133.111 69.2641 133.457 69.1645 133.655 69.563C133.903 69.9116 134.348 69.7124 134.942 69.0648C135.932 67.969 136.18 67.2716 135.388 67.7697C135.14 67.9192 134.893 67.8195 134.893 67.5705C134.893 67.2716 135.091 67.0226 135.338 67.0226C135.586 67.0226 135.883 66.5742 136.031 66.0263C136.18 65.4784 136.675 65.0301 137.12 65.0301C137.615 65.0301 137.764 65.2792 137.566 65.6279C137.318 66.0263 137.467 66.0762 138.06 65.8769C138.555 65.6777 138.803 65.7274 138.605 66.0263C138.457 66.3252 137.863 66.5244 137.318 66.5244C136.18 66.5244 136.031 67.7697 137.17 68.2181C138.308 68.6664 138.506 68.6165 138.209 67.8195C138.011 67.2716 138.16 67.172 138.704 67.3713C139.248 67.5705 139.397 67.4709 139.149 67.1222C138.951 66.7735 139.05 66.5244 139.298 66.5244C139.595 66.5244 139.842 66.9727 139.842 67.5705C139.842 68.1184 139.644 68.4173 139.347 68.2679C139.1 68.1184 138.852 68.2181 138.852 68.4671C138.852 69.3637 139.793 69.0648 140.337 68.0188C140.783 67.172 141.278 67.0226 143.307 67.172C145.633 67.3713 145.683 67.3215 145.93 65.8769C146.128 64.532 146.079 64.4821 145.485 65.2791C145.089 65.7773 144.643 66.0762 144.495 65.8769C144.297 65.6777 144.396 65.2294 144.693 64.8807C145.039 64.4822 145.138 64.0837 145.039 63.9342C144.891 63.7848 145.386 63.5358 146.178 63.3863C146.97 63.2369 147.96 62.7886 148.306 62.4399C148.702 62.0912 149.692 61.5432 150.484 61.2942C152.86 60.4474 152.315 58.0564 149.742 58.0564C149.049 58.0564 148.257 57.907 148.059 57.6579C147.861 57.4587 147.069 57.3092 146.277 57.3092C145.534 57.3092 144.99 57.4587 145.138 57.6579C145.237 57.907 144.99 58.0564 144.544 58.0564C144.099 58.0564 143.852 57.8572 144 57.6579C144.148 57.4089 143.951 57.2096 143.555 57.2096C143.159 57.2096 142.812 57.4587 142.812 57.7575C142.812 58.0564 142.565 58.0066 142.218 57.6579C141.476 56.9107 140.634 56.8609 141.08 57.5583C141.228 57.8073 141.179 58.0564 140.882 58.0564C140.634 58.0564 140.238 57.8073 140.09 57.5583C139.892 57.2096 139.545 57.1598 139.199 57.4587C138.852 57.7575 137.615 57.8572 136.427 57.7575C135.14 57.6081 133.952 57.8074 133.507 58.1561C132.863 58.6542 132.814 58.6542 133.111 58.1561C133.309 57.8074 133.21 57.5583 132.715 57.5583C132.319 57.5583 131.824 57.8073 131.676 58.0564C131.478 58.3553 131.131 58.4549 130.884 58.3054C130.636 58.1062 130.24 58.156 129.943 58.3054C129.696 58.4549 127.914 58.6541 125.984 58.7538C124.004 58.8534 122.172 59.2021 121.677 59.6006C121.133 60.0489 120.984 60.0987 121.232 59.6504C121.43 59.3515 121.331 59.0526 121.083 59.0526C120.787 59.0526 120.539 59.2519 120.539 59.5508C120.539 59.7998 120.193 59.8496 119.698 59.7002C119.153 59.501 119.005 59.5508 119.252 59.9493C119.45 60.298 119.351 60.547 119.054 60.547C118.757 60.547 118.411 60.2482 118.262 59.8995C117.965 59.1025 113.016 59.3515 112.719 60.1485C112.62 60.3976 112.273 60.3477 111.927 60.0987C111.184 59.4511 103.018 58.5047 100.84 58.8036C99.8993 58.9032 99.3548 58.8036 99.5033 58.5545C99.7013 58.2556 99.5033 58.0564 99.1568 58.0564C96.7315 57.9568 92.6234 57.359 90.0991 56.7115C88.4658 56.313 86.1395 55.765 84.9021 55.516C83.6647 55.2171 82.2293 54.8186 81.6848 54.5695C81.1404 54.3205 79.5565 53.9718 78.1211 53.8224C76.6362 53.6231 75.4484 53.2246 75.2999 52.7763C75.1514 52.3778 74.6069 52.0789 74.112 52.0789C73.617 52.0789 72.9735 51.8299 72.7261 51.5808C72.4291 51.282 71.6371 50.9831 70.9937 50.8834C70.3503 50.8336 68.8159 50.2857 67.5785 49.688C66.3411 49.0903 64.8562 48.5921 64.2128 48.5921C63.5694 48.5921 63.1734 48.3928 63.3219 48.1438C63.7178 47.546 59.6592 45.6532 57.7289 45.5038C56.9369 45.454 56.2935 45.1551 56.343 44.8562C56.3925 44.6071 55.7985 44.4079 55.0561 44.4577C54.0662 44.5076 53.7197 44.3581 53.8682 43.9098C54.0662 43.4614 53.4722 43.063 52.1853 42.6645C50.9974 42.3158 50.354 41.8675 50.552 41.5188C50.75 41.1701 50.7004 41.1203 50.354 41.3196C49.562 41.8177 45.9488 39.8252 45.0084 38.3806C44.5135 37.6335 43.7215 37.1353 42.9791 37.1353C42.1872 37.1353 41.8902 36.9361 42.1377 36.5376C42.3357 36.1889 42.2862 36.1391 41.9397 36.3384C41.1973 36.7867 39.2174 35.4417 39.7619 34.8938C39.9598 34.6447 39.8608 34.6448 39.5639 34.7942C39.2669 34.9436 38.574 34.6447 37.98 34.1466C37.3861 33.5987 36.7922 33.1504 36.6437 33.1504C36.4952 33.1504 35.9507 32.7519 35.4063 32.2538C34.8618 31.8055 34.0204 31.0583 33.5254 30.61C33.0305 30.1617 32.2385 29.8628 31.7931 29.9624C31.2981 30.0122 31.0506 29.8628 31.1991 29.6635C31.3476 29.4145 30.6546 28.6673 29.6152 27.9201C28.5758 27.2227 27.7839 26.4756 27.8334 26.2763C27.8829 26.0771 27.2394 25.5291 26.3485 25.0808C25.4576 24.6325 24.9626 24.234 25.2101 24.1842C25.903 24.1842 24.3687 22.5902 23.1313 22.1419C22.4878 21.8929 22.1414 21.4445 22.2899 21.1955C22.4384 20.8966 22.2404 20.5479 21.8444 20.3985C21.399 20.2491 21.0525 19.9004 21.0525 19.6513C21.0525 18.8543 19.2706 17.3599 17.8353 17.0113C16.5484 16.6626 16.5484 16.6128 17.3898 15.9652C17.9837 15.5335 17.9673 15.3343 17.3403 15.3675C16.7464 15.4173 16.3999 15.2181 16.4988 14.8196C16.6968 13.8731 14.2715 11.0837 13.9746 11.8806C13.7766 12.329 13.6776 12.329 13.6776 11.8308C13.6281 11.4822 13.4301 11.3327 13.1332 11.4821C12.8857 11.6316 12.6382 11.4323 12.6382 10.984C12.6382 10.5357 12.4402 10.3365 12.1433 10.4859C11.8958 10.6353 11.6483 10.5357 11.6483 10.2866C11.6483 9.98776 11.8958 9.73871 12.1433 9.73871C12.4402 9.73871 12.6382 9.53946 12.6382 9.24059C12.6382 8.99153 12.2917 8.89189 11.8958 9.04133C11.4503 9.24057 11.1038 8.89189 10.8563 8.04509C10.7078 7.34772 10.3614 6.74998 10.1139 6.74998C9.8664 6.74998 9.66846 6.4013 9.66846 6.0028C9.66846 5.60431 9.47048 5.25562 9.1735 5.25562C8.92603 5.25562 8.67855 4.95674 8.67855 4.55824C8.67855 3.81106 6.05526 2.96428 5.26332 3.4624C5.01585 3.66165 4.61989 3.56201 4.4714 3.26314C4.27342 2.96427 4.32289 2.76501 4.57037 2.81482C6.10474 3.06388 7.09468 2.66543 6.94619 1.86844C6.8472 1.42013 6.7482 0.872175 6.7482 0.722739C6.6987 0.224619 5.21384 -0.27349 5.21384 0.174819ZM2.49157 1.76878C2.64006 2.01784 2.59055 2.2669 2.29358 2.2669C2.0461 2.2669 1.65014 2.01784 1.50166 1.76878C1.35317 1.46991 1.40262 1.27066 1.69959 1.27066C1.94707 1.27066 2.34308 1.46991 2.49157 1.76878ZM2.09558 5.50468C2.09558 5.90318 1.89759 6.10244 1.65011 5.953C1.40263 5.80357 1.35317 5.45488 1.50166 5.20582C1.94712 4.55827 2.09558 4.65788 2.09558 5.50468ZM4.86733 5.50468C4.71885 5.95299 4.47137 6.20204 4.37238 6.0526C4.22389 5.90317 4.27342 5.60429 4.4714 5.30542C4.91687 4.50843 5.2138 4.65788 4.86733 5.50468ZM6.5502 6.94924C6.5502 7.54699 5.95628 7.59679 4.71888 7.2481C4.5704 7.19829 4.91687 6.99904 5.46132 6.74998C6.00577 6.50092 6.45122 6.30166 6.50072 6.30166C6.50072 6.25185 6.5502 6.55075 6.5502 6.94924ZM11.1533 11.9304C11.1533 12.0799 10.9554 12.3289 10.6584 12.4784C10.4109 12.6278 10.1634 12.5282 10.1634 12.2791C10.1634 11.9802 10.4109 11.7312 10.6584 11.7312C10.9554 11.7312 11.1533 11.8308 11.1533 11.9304ZM12.6382 12.9765C12.6382 13.375 12.5392 13.7237 12.4402 13.7237C12.3412 13.7237 12.1432 13.375 11.9453 12.9765C11.7968 12.578 11.8958 12.2293 12.1433 12.2293C12.4402 12.2293 12.6382 12.578 12.6382 12.9765ZM5.56029 13.5244C5.4118 13.6738 4.96633 13.7237 4.61985 13.5743C4.22389 13.4248 4.37236 13.2754 4.91682 13.2754C5.46127 13.2255 5.75827 13.375 5.56029 13.5244ZM8.72803 14.5705C9.37148 15.3675 9.32196 15.4173 8.57952 14.7697C8.08456 14.421 7.68863 14.0226 7.68863 13.9229C7.68863 13.5244 8.08458 13.7735 8.72803 14.5705ZM11.6483 14.4709C11.6483 14.9192 11.9452 15.0686 12.5392 14.8694C13.1826 14.6701 13.2321 14.7199 12.8361 15.1682C12.1927 15.8656 10.6584 15.3675 10.6584 14.4211C10.6584 14.0226 10.9059 13.7237 11.1533 13.7237C11.4503 13.7237 11.6483 14.0724 11.6483 14.4709ZM12.2917 16.3637C13.1331 16.1147 13.2816 16.2143 12.7867 16.7124C12.0937 17.4596 10.6584 17.0113 10.7079 16.1147C10.7079 15.6664 10.8069 15.6663 10.9553 16.015C11.1038 16.3637 11.6978 16.4634 12.2917 16.3637ZM9.56943 18.5555C9.51994 19.6015 9.42096 20.1495 9.27247 19.8008C9.17348 19.5019 8.87648 19.203 8.629 19.203C8.33203 19.203 8.28257 19.4521 8.48055 19.8008C8.67853 20.1495 8.62903 20.1992 8.28256 20C7.68861 19.6513 8.03509 18.2068 8.72803 18.2068C8.97551 18.2068 9.1735 17.8581 9.1735 17.4596C9.1735 17.0611 9.2725 16.7124 9.42098 16.7124C9.51997 16.7124 9.61893 17.5592 9.56943 18.5555ZM10.8563 20.4981C11.0048 20.8966 10.9554 21.0959 10.6584 20.9464C10.3614 20.797 10.1634 20.4483 10.1634 20.1494C10.1634 19.4521 10.5098 19.6015 10.8563 20.4981ZM18.3302 20.6974C18.1817 20.9464 17.6373 21.1955 17.1918 21.1955C16.4494 21.1955 16.4494 21.0959 17.0928 20.6974C18.0827 20.0498 18.7262 20.0498 18.3302 20.6974ZM19.4191 22.0423C18.9736 22.4408 17.0928 22.5902 17.0928 22.2415C17.0928 21.9925 17.6373 21.7933 18.3302 21.7933C19.0232 21.7933 19.5181 21.8929 19.4191 22.0423ZM15.6574 24.8318C15.014 25.4793 14.3706 24.9812 14.8655 24.234C15.014 23.9351 15.4099 23.8355 15.7069 23.9849C16.0039 24.1842 16.0039 24.4831 15.6574 24.8318ZM19.2706 24.6325C19.4191 24.8816 19.2212 25.1805 18.8252 25.3299C18.3797 25.5291 18.2312 25.3797 18.4292 24.8816C18.7262 24.0846 18.9241 24.0348 19.2706 24.6325ZM17.8353 27.6212C17.9838 27.9201 17.6868 28.0696 17.1423 28.0198C16.5979 28.0198 16.3009 27.7707 16.3999 27.5714C16.7463 27.0235 17.4888 27.0733 17.8353 27.6212ZM20.0626 30.2114C20.0626 30.4605 19.8646 30.6598 19.6666 30.6598C19.4191 30.6598 19.2211 30.3111 19.2211 29.9126C19.2211 29.5141 19.4191 29.3148 19.6666 29.4643C19.8646 29.6137 20.0626 29.9126 20.0626 30.2114ZM28.2294 29.7632C28.4274 29.9126 28.3284 30.2115 28.0809 30.3609C27.8334 30.5103 27.3384 30.3111 27.0415 29.9624C26.5465 29.4145 26.596 29.265 27.1899 29.3647C27.6354 29.4145 28.0809 29.6137 28.2294 29.7632ZM26.7445 34.6447C26.893 34.8938 26.794 35.1428 26.5465 35.1428C26.2495 35.1428 26.0021 34.8938 26.0021 34.6447C26.0021 34.3459 26.101 34.1466 26.2 34.1466C26.3485 34.1466 26.596 34.3459 26.7445 34.6447ZM24.7647 35.2425C24.8637 35.3421 24.7151 35.7406 24.4677 36.1391C24.0717 36.687 23.8737 36.7369 23.7252 36.2886C23.5767 35.9399 23.1808 35.7904 22.8343 35.9398C22.4879 36.0893 21.8939 35.7904 21.4979 35.3421C20.904 34.5949 21.003 34.5451 22.7353 34.7942C23.7252 34.9436 24.6657 35.1429 24.7647 35.2425ZM26.2 36.9361C26.4475 37.6334 26.398 37.6833 25.7546 37.1353C24.9132 36.438 24.8141 36.1391 25.4576 36.1391C25.7051 36.1391 26.0515 36.4878 26.2 36.9361ZM28.4769 38.6795C28.4769 38.8787 28.1304 38.9784 27.7344 38.829C27.3385 38.6297 26.992 38.3308 26.992 38.0818C26.992 37.8825 27.3385 37.7829 27.7344 37.9323C28.1304 38.1316 28.4769 38.4304 28.4769 38.6795ZM40.8508 38.829C40.8508 38.9784 40.6528 39.2274 40.3559 39.3769C40.1084 39.5263 39.8609 39.4267 39.8609 39.1776C39.8609 38.8787 40.1084 38.6297 40.3559 38.6297C40.6528 38.6297 40.8508 38.7293 40.8508 38.829ZM30.7537 40.5226C30.6547 40.9709 30.2092 41.469 29.7143 41.5686C29.0708 41.6682 28.9223 41.5188 29.1203 40.921C29.3183 40.4727 29.1698 40.1241 28.8233 40.1241C28.4273 40.1241 28.4768 39.9746 28.9223 39.6757C29.9122 39.0282 30.9021 39.5263 30.7537 40.5226ZM34.8618 43.4615C34.5153 43.9596 34.1688 44.4079 34.1193 44.5075C34.0698 44.5574 33.9214 44.2086 33.7729 43.6109C33.5749 42.8637 33.7729 42.6147 34.5153 42.6147C35.4062 42.6147 35.4557 42.7143 34.8618 43.4615ZM67.628 50.4352C68.2715 51.2322 68.2219 51.2819 67.4795 50.6344C66.9846 50.2857 66.5886 49.8872 66.5886 49.7876C66.5886 49.3891 66.9846 49.6382 67.628 50.4352ZM43.2761 51.7801C43.1276 51.9295 42.7316 51.531 42.3852 50.9333C41.7417 49.8873 41.7912 49.8873 42.6326 50.6842C43.1276 51.1824 43.4245 51.6805 43.2761 51.7801ZM51.5419 53.1748C51.7399 53.5235 51.7399 53.673 51.4924 53.4737C51.2944 53.2745 50.75 53.3741 50.3045 53.7228C49.6116 54.2707 49.6115 54.2209 50.2055 53.4239C50.9974 52.4277 51.0964 52.3779 51.5419 53.1748ZM53.0762 55.3665C52.9278 55.516 52.4823 55.5658 52.1358 55.4164C51.7398 55.267 51.8883 55.1175 52.4328 55.1175C52.9772 55.0677 53.2742 55.2171 53.0762 55.3665ZM55.6995 56.0141C55.6995 56.2632 55.353 56.6119 54.9076 56.7613C54.2146 57.0103 54.1652 56.9605 54.7096 56.313C55.4026 55.4662 55.6995 55.3666 55.6995 56.0141ZM53.9672 57.5583C54.1157 57.8073 54.0167 58.0564 53.7692 58.0564C53.4722 58.0564 53.2248 57.8073 53.2248 57.5583C53.2248 57.2594 53.3237 57.0601 53.4227 57.0601C53.5712 57.0601 53.8187 57.2594 53.9672 57.5583ZM57.7289 58.953C57.3824 59.0527 56.8379 58.9032 56.5904 58.6542C56.1945 58.2557 56.3925 58.2059 57.2339 58.4051C57.8774 58.6044 58.1248 58.8036 57.7289 58.953ZM59.9067 59.5508C60.0552 59.7998 59.9562 60.0489 59.7087 60.0489C59.4117 60.0489 59.1643 59.7998 59.1643 59.5508C59.1643 59.2519 59.2632 59.0526 59.3622 59.0526C59.5107 59.0526 59.7582 59.2519 59.9067 59.5508ZM70.7958 60.9953C70.9443 61.2444 70.7957 61.6428 70.4987 61.8421C70.1523 62.0413 70.0533 61.9916 70.2513 61.6429C70.3998 61.3938 70.2513 60.9953 69.9543 60.8957C69.5088 60.6965 69.4594 60.5968 69.9048 60.5968C70.2018 60.547 70.5978 60.7463 70.7958 60.9953ZM66.0937 63.3365C66.0937 63.4361 65.7472 63.5357 65.3512 63.5357C64.9553 63.5357 64.6088 63.3365 64.6088 63.0376C64.6088 62.7885 64.9553 62.6889 65.3512 62.8383C65.7472 63.0376 66.0937 63.2368 66.0937 63.3365ZM140.832 65.2293C140.832 65.329 140.486 65.578 140.04 65.7275C139.644 65.8769 139.446 65.8271 139.595 65.5282C139.892 65.0301 140.832 64.8308 140.832 65.2293ZM143.852 66.375C144.495 67.172 144.445 67.2218 143.703 66.5742C143.208 66.2255 142.812 65.8271 142.812 65.7275C142.812 65.329 143.208 65.578 143.852 66.375ZM124.35 66.8233C124.202 66.9727 123.756 67.0226 123.41 66.8732C123.014 66.7237 123.162 66.5742 123.707 66.5742C124.251 66.5244 124.548 66.6739 124.35 66.8233ZM127.221 67.9192C127.122 68.0188 126.577 67.969 125.934 67.7697C125.142 67.5207 125.043 67.3214 125.489 67.0226C126.033 66.6739 127.617 67.5207 127.221 67.9192ZM129.201 67.0226C129.349 67.2716 129.3 67.5207 129.003 67.5207C128.755 67.5207 128.359 67.2716 128.211 67.0226C128.062 66.7237 128.112 66.5244 128.409 66.5244C128.656 66.5244 129.052 66.7237 129.201 67.0226ZM132.418 67.1222C132.418 66.8233 132.764 66.5244 133.21 66.5244C133.903 66.5244 133.903 66.5742 133.21 67.3214C132.369 68.1184 131.428 67.8694 131.428 66.8732C131.428 66.5245 131.626 66.5742 131.923 67.0226C132.22 67.5207 132.418 67.5705 132.418 67.1222ZM92.0294 68.3177C92.1779 68.6663 92.1284 68.9652 91.9304 68.9652C91.0395 68.8158 90.6435 69.0649 91.2375 69.4634C91.7324 69.7622 91.7325 69.9615 91.1385 70.4596C90.5941 70.9079 90.3466 70.9079 90.0496 70.4596C89.8516 70.1109 89.9011 70.0113 90.2476 70.2105C90.594 70.4098 90.693 69.9615 90.4951 68.766C90.2476 67.3214 90.3466 67.0724 90.99 67.3214C91.386 67.4708 91.8809 67.9192 92.0294 68.3177ZM103.216 69.0648C103.216 70.0113 103.314 70.0611 104.057 69.4634C104.799 68.8158 104.799 68.8656 104.205 69.812C103.776 70.5094 103.248 70.5426 102.622 69.9117C102.127 69.4136 101.83 68.766 101.978 68.5169C102.523 67.6701 103.216 67.969 103.216 69.0648ZM107.175 68.5169C107.175 68.766 106.829 68.8656 106.433 68.7162C106.037 68.5169 105.69 68.3177 105.69 68.2181C105.69 68.1184 106.037 68.0188 106.433 68.0188C106.829 68.0188 107.175 68.218 107.175 68.5169ZM122.519 68.5169C122.519 68.766 122.271 69.015 121.974 69.015C121.727 69.015 121.628 68.766 121.776 68.5169C121.925 68.218 122.172 68.0188 122.321 68.0188C122.42 68.0188 122.519 68.218 122.519 68.5169ZM124.895 68.766C124.796 69.0648 124.449 69.1645 124.053 69.1147C123.707 69.0151 123.558 69.1645 123.756 69.4634C123.905 69.812 123.657 70.0113 123.063 70.0113C122.469 70.0113 122.024 70.2604 122.024 70.6091C122.024 70.9079 121.875 71.0075 121.677 70.8083C121.479 70.609 121.974 69.9117 122.766 69.2641C124.251 68.0686 125.241 67.8195 124.895 68.766ZM132.22 68.5667C132.616 69.2641 131.676 70.2105 130.983 69.812C130.438 69.4633 130.785 68.0188 131.428 68.0188C131.676 68.0188 132.022 68.2678 132.22 68.5667ZM96.5336 69.9117C96.3851 70.0611 95.9891 69.9116 95.6426 69.563C95.1972 69.0648 95.2466 69.015 95.9396 69.3139C96.4345 69.4633 96.6821 69.7622 96.5336 69.9117ZM98.2659 69.5132C98.2659 69.7622 98.1669 70.0113 98.0679 70.0113C97.9194 70.0113 97.672 69.7622 97.5235 69.5132C97.375 69.2143 97.4739 69.015 97.7214 69.015C98.0184 69.015 98.2659 69.2143 98.2659 69.5132ZM115.144 69.3638C114.6 69.6128 114.6 69.7124 115.144 70.1109C115.738 70.5094 115.738 70.5592 115.144 70.4098C114.055 70.1109 113.907 69.015 114.946 69.0648C115.54 69.0648 115.639 69.1645 115.144 69.3638ZM99.5033 70.0113C99.0579 70.7086 99.9487 70.6091 100.691 69.8619C101.186 69.3638 101.236 69.4136 100.988 70.1109C100.543 71.2068 99.4043 71.6053 99.1073 70.7585C98.9588 70.4098 98.9588 69.9615 99.1073 69.812C99.6023 69.3139 99.8498 69.4633 99.5033 70.0113ZM120.787 70.5094C120.935 70.7585 120.836 71.0075 120.589 71.0075C120.292 71.0075 120.044 70.7585 120.044 70.5094C120.044 70.2105 120.143 70.0113 120.242 70.0113C120.391 70.0113 120.638 70.2105 120.787 70.5094ZM105.195 71.0075C105.195 71.2566 105.096 71.5056 104.997 71.5056C104.849 71.5056 104.601 71.2566 104.453 71.0075C104.304 70.7086 104.403 70.5094 104.651 70.5094C104.948 70.5094 105.195 70.7086 105.195 71.0075Z" fill="#FFD446"/>
<path fill-rule="evenodd" clip-rule="evenodd" d="M53.9673 2.16663C53.1753 2.56512 51.9874 3.36212 51.3934 3.91005C50.75 4.45798 50.2551 4.75686 50.2551 4.60743C50.2551 4.40818 49.8096 4.65724 49.2652 5.10555C48.7207 5.60367 48.2752 6.35085 48.2752 6.84897C48.2752 7.3969 48.0278 7.59613 47.5328 7.44669C46.3944 6.99838 45.652 7.69573 46.3449 8.54253C46.8399 9.14028 46.8398 9.28975 46.2459 9.14031C45.8499 9.04069 45.4044 8.79164 45.256 8.59239C44.761 7.89502 44.9095 14.9185 45.4045 15.9147C45.8004 16.6121 45.751 16.7615 45.3055 16.4627C44.8105 16.1638 44.761 16.4128 45.0085 17.5087C45.2065 18.3057 45.6024 19.2522 45.8994 19.551C46.4934 20.2484 47.4833 20.4476 47.0873 19.7502C46.9388 19.551 47.3348 19.3518 47.9287 19.4016C48.5227 19.4514 49.1662 19.302 49.3146 19.0529C49.5126 18.8039 50.0571 19.0031 50.552 19.5012C51.6409 20.597 54.2147 20.7963 53.8682 19.8001C53.7197 19.5012 53.9672 19.2023 54.4127 19.2023C54.8581 19.2023 55.2047 18.8536 55.2047 18.4053C55.2047 18.0068 55.4026 17.7578 55.6501 17.9072C56.343 18.3555 59.6098 16.0642 59.6593 15.1178C59.6593 14.5698 60.0057 14.3706 60.8471 14.4204C61.9855 14.5698 62.629 13.9721 62.926 12.4777C63.223 10.9833 63.7674 9.73803 64.1634 9.73803C64.4109 9.73803 64.6089 9.28972 64.6089 8.74179C64.6089 8.19386 64.3119 7.74555 63.9159 7.74555C63.4704 7.74555 63.322 7.29728 63.4209 6.35085C63.5199 5.60367 63.5199 5.25494 63.3715 5.55381C63.025 6.25118 61.1442 5.85272 61.1442 5.15535C61.1442 4.85648 61.4906 4.75685 61.8866 4.90629C62.2826 5.10554 62.728 5.00589 62.8765 4.75683C63.0745 4.45796 62.827 4.25871 62.431 4.25871C61.9856 4.25871 61.7876 3.95987 61.9361 3.61119C62.233 2.76438 58.9663 1.31982 56.937 1.41945C56.1451 1.46926 54.8087 1.81794 53.9673 2.16663Z" fill="#FFD446"/>
<path fill-rule="evenodd" clip-rule="evenodd" d="M98.2663 16.2142C97.8208 16.5131 97.8208 16.6625 98.3158 16.8618C98.7117 17.0112 98.3653 17.061 97.5238 16.9614C95.742 16.8119 91.6338 19.4022 92.0298 20.4482C92.1783 20.8467 91.8813 21.295 91.3864 21.4445C89.5055 22.0422 88.3671 27.0732 89.4065 30.311C89.9015 32.0046 91.7823 35.6409 92.6237 36.5873C92.7227 36.6869 93.5641 36.8364 94.5046 36.8862C95.6925 36.936 96.1379 36.7866 95.9399 36.2885C95.7915 35.9398 95.94 35.6409 96.2864 35.6409C96.6329 35.6409 96.4844 35.2424 95.9399 34.7443C95.445 34.296 95.346 34.0967 95.7915 34.3956C96.1875 34.6446 96.8309 35.1926 97.1773 35.5911C97.6228 36.1888 97.7713 36.1888 97.7713 35.6409C97.7713 35.2424 98.1177 35.3918 98.7117 36.0892C99.5036 36.9858 99.7016 37.0356 99.9491 36.3881C100.098 35.9398 100.048 35.7405 99.8006 35.8899C99.5532 36.0394 99.2067 35.9896 99.0582 35.7405C98.9592 35.5413 99.3057 35.2922 99.8996 35.2922C100.494 35.2424 101.236 34.8439 101.533 34.3956C101.83 33.9971 102.82 33.3994 103.661 33.1005C104.552 32.8016 105.146 32.4031 104.998 32.3035C104.602 31.905 105.889 30.7593 106.433 31.0582C106.73 31.2076 106.78 31.1578 106.582 30.9585C106.433 30.7593 106.582 30.0122 106.978 29.265C107.423 28.3186 107.472 27.7706 107.076 27.3223C106.681 26.8242 106.78 26.6747 107.472 26.6747C108.215 26.6747 108.264 26.5751 107.72 26.2264C107.324 25.9275 107.274 25.6785 107.571 25.4792C108.116 25.1803 107.423 22.2414 106.681 21.6935C106.532 21.5441 106.037 20.6475 105.542 19.6512C105.097 18.7048 104.255 17.6588 103.612 17.3101C101.731 16.4135 98.9097 15.8157 98.2663 16.2142Z" fill="#FFD446"/>
<path fill-rule="evenodd" clip-rule="evenodd" d="M48.0773 20.6475C47.8793 20.8965 48.2258 20.9961 48.7702 20.8467C49.9086 20.5479 50.0571 20.1992 49.0672 20.1992C48.6712 20.1992 48.2258 20.3985 48.0773 20.6475Z" fill="#FFD446"/>
<path fill-rule="evenodd" clip-rule="evenodd" d="M99.8497 37.6836C99.4042 38.3809 98.9092 38.5802 98.3648 38.3809C97.6718 38.1319 97.6223 38.1818 98.1668 38.7296C98.6617 39.2277 98.9587 39.1281 99.8497 38.2316C100.444 37.6339 100.84 37.0362 100.691 36.9366C100.543 36.7871 100.196 37.1358 99.8497 37.6836Z" fill="#FFD446"/>
<path fill-rule="evenodd" clip-rule="evenodd" d="M93.8609 37.6833C93.8114 38.6296 95.3458 39.2273 96.2862 38.6296C97.0781 38.1315 96.0387 37.4343 95.0488 37.8327C94.7024 37.9323 94.2569 37.8327 94.1084 37.4841C94.0094 37.1354 93.8609 37.235 93.8609 37.6833Z" fill="#FFD446"/>
<path d="M29.7144 43.6109C30.1244 43.6109 30.4568 43.3879 30.4568 43.1128C30.4568 42.8377 30.1244 42.6147 29.7144 42.6147C29.3043 42.6147 28.9719 42.8377 28.9719 43.1128C28.9719 43.3879 29.3043 43.6109 29.7144 43.6109Z" fill="#FFD446"/>
<path fill-rule="evenodd" clip-rule="evenodd" d="M35.7527 47.3969C35.1588 48.0444 35.3568 48.5424 36.5941 49.3891C37.5346 49.9868 38.0296 50.0366 38.7225 49.6382C39.2669 49.3393 39.3659 49.0903 39.0195 49.0405C38.673 48.9907 38.1781 48.9409 37.8811 48.8911C37.6336 48.8911 37.1386 48.4429 36.7921 47.9448C36.3962 47.4467 35.9507 47.1977 35.7527 47.3969Z" fill="#FFD446"/>
<path fill-rule="evenodd" clip-rule="evenodd" d="M67.3309 63.4357C67.0999 64.0666 67.2814 64.4982 67.8753 64.7306C68.4198 64.9299 68.6178 64.8302 68.4198 64.3322C68.2218 63.8341 68.4198 63.7345 69.1622 63.9338C69.8552 64.0832 70.1026 63.9835 69.9541 63.5353C69.6572 62.6388 67.6774 62.5392 67.3309 63.4357Z" fill="#FFD446"/>
<path fill-rule="evenodd" clip-rule="evenodd" d="M70.7957 64.4824C70.9442 64.7315 70.8452 65.0801 70.5482 65.2793C69.9542 65.628 70.3502 66.5245 71.1421 66.5245C71.3896 66.5245 71.5381 66.2256 71.3896 65.8272C71.2411 65.4785 71.3896 64.8809 71.6866 64.582C72.0825 64.1836 71.9836 64.0342 71.3401 64.0342C70.8946 64.0342 70.5977 64.2334 70.7957 64.4824Z" fill="#FFD446"/>
<path fill-rule="evenodd" clip-rule="evenodd" d="M112.521 72.3526C112.867 72.502 113.313 72.4522 113.461 72.3027C113.659 72.1533 113.362 72.0039 112.818 72.0537C112.273 72.0537 112.125 72.2032 112.521 72.3526Z" fill="#FFD446"/>
</svg>
