<svg width="24" height="24" viewBox="0 0 24 24" fill="none" xmlns="http://www.w3.org/2000/svg">
<path fill-rule="evenodd" clip-rule="evenodd" d="M6.29927 16.1849C4.22187 14.6268 2.99927 12.1816 2.99927 9.58486C2.99927 6.98812 4.22187 4.54291 6.29927 2.98486L7.19927 4.18486C5.49958 5.45963 4.49927 7.46025 4.49927 9.58486C4.49927 11.7095 5.49958 13.7101 7.19927 14.9849L6.29927 16.1849ZM17.6993 16.1849L16.7993 14.9849C18.499 13.7101 19.4993 11.7095 19.4993 9.58486C19.4993 7.46025 18.499 5.45963 16.7993 4.18486L17.6993 2.98486C19.7767 4.54291 20.9993 6.98812 20.9993 9.58486C20.9993 12.1816 19.7767 14.6268 17.6993 16.1849ZM12.75 8.99984H11.25V22.4998H12.75V8.99984ZM8.49747 13.6648C7.38267 12.6688 6.74536 11.2448 6.74536 9.74984C6.74536 8.2549 7.38267 6.83086 8.49747 5.83484L9.50247 6.95234C8.70546 7.66382 8.24976 8.68147 8.24976 9.74984C8.24976 10.8182 8.70546 11.8359 9.50247 12.5473L8.49747 13.6648ZM14.4975 12.5473L15.5025 13.6648C16.6173 12.6688 17.2546 11.2448 17.2546 9.74984C17.2546 8.2549 16.6173 6.83086 15.5025 5.83484L14.4975 6.95234C15.2945 7.66382 15.7502 8.68147 15.7502 9.74984C15.7502 10.8182 15.2945 11.8359 14.4975 12.5473Z" fill="#37BA84"/>
</svg>
