<svg width="170" height="170" viewBox="0 0 170 170" fill="none" xmlns="http://www.w3.org/2000/svg">
<path d="M76.4099 4.85394C80.6453 -0.990788 89.3547 -0.990788 93.5901 4.85394V4.85394C96.8446 9.34489 103.009 10.5711 107.734 7.6674V7.6674C113.884 3.88841 121.93 7.22133 123.607 14.242V14.242C124.895 19.6365 130.121 23.1284 135.598 22.254V22.254C142.725 21.1161 148.884 27.2745 147.746 34.4023V34.4023C146.872 39.8791 150.363 45.1051 155.758 46.3932V46.3932C162.779 48.0696 166.112 56.1159 162.333 62.2657V62.2657C159.429 66.991 160.655 73.1554 165.146 76.4099V76.4099C170.991 80.6453 170.991 89.3547 165.146 93.5901V93.5901C160.655 96.8446 159.429 103.009 162.333 107.734V107.734C166.112 113.884 162.779 121.93 155.758 123.607V123.607C150.363 124.895 146.872 130.121 147.746 135.598V135.598C148.884 142.725 142.725 148.884 135.598 147.746V147.746C130.121 146.872 124.895 150.363 123.607 155.758V155.758C121.93 162.779 113.884 166.112 107.734 162.333V162.333C103.009 159.429 96.8446 160.655 93.5901 165.146V165.146C89.3547 170.991 80.6453 170.991 76.4099 165.146V165.146C73.1554 160.655 66.991 159.429 62.2657 162.333V162.333C56.1159 166.112 48.0696 162.779 46.3932 155.758V155.758C45.1051 150.363 39.8791 146.872 34.4023 147.746V147.746C27.2745 148.884 21.1161 142.725 22.254 135.598V135.598C23.1284 130.121 19.6365 124.895 14.242 123.607V123.607C7.22133 121.93 3.88841 113.884 7.6674 107.734V107.734C10.5711 103.009 9.34489 96.8446 4.85394 93.5901V93.5901C-0.990788 89.3547 -0.990788 80.6453 4.85394 76.4099V76.4099C9.34489 73.1554 10.5711 66.991 7.6674 62.2657V62.2657C3.88841 56.1159 7.22133 48.0696 14.242 46.3932V46.3932C19.6365 45.1051 23.1284 39.8791 22.254 34.4023V34.4023C21.1161 27.2745 27.2745 21.1161 34.4023 22.254V22.254C39.8791 23.1284 45.1051 19.6365 46.3932 14.242V14.242C48.0696 7.22133 56.1159 3.88841 62.2657 7.6674V7.6674C66.991 10.5711 73.1554 9.34489 76.4099 4.85394V4.85394Z" fill="#E55934"/>
</svg>
